<svg xmlns="http://www.w3.org/2000/svg" width="16" height="16"><defs><linearGradient id="a" x1=".01" x2="13.82" y1=".01" y2="17.28" gradientUnits="userSpaceOnUse"><stop offset="0" stop-color="#ffc600"/><stop offset="1" stop-color="#ff7900"/></linearGradient></defs><path fill="url(#a)" d="M14.75 8c0-3.731-3.02-6.75-6.75-6.75A6.746 6.746 0 001.25 8c0 3.731 3.02 6.75 6.75 6.75 3.731 0 6.75-3.02 6.75-6.75zM16 8c0 4.422-3.579 8-8 8-4.422 0-8-3.579-8-8 0-4.422 3.579-8 8-8 4.422 0 8 3.579 8 8zm-4.554-1.05l-1.537.511a.626.626 0 01-.718-.246L8.005 5.439 6.819 7.215a.626.626 0 01-.718.246L4.564 6.95l.604 3.01a4.21 4.21 0 005.675 0zm1.426-.811c-.926 4.45-.785 4.342-1.022 4.579a5.45 5.45 0 01-7.7 0c-.237-.238-.094-.12-1.023-4.58a.625.625 0 01.811-.715l2.103.701L7.48 3.966a.625.625 0 011.04 0l1.44 2.158 2.102-.7a.625.625 0 01.81.715z"/></svg>