<svg width="837" height="260" viewBox="0 0 837 260" fill="none" xmlns="http://www.w3.org/2000/svg">
<path d="M220.435 130C220.435 179.946 179.946 220.435 130 220.435C80.0542 220.435 39.5652 179.946 39.5652 130C39.5652 80.0542 80.0542 39.5652 130 39.5652C179.946 39.5652 220.435 80.0542 220.435 130Z" fill="url(#paint0_radial_1014_39074)"/>
<path fill-rule="evenodd" clip-rule="evenodd" d="M130 228.913C184.628 228.913 228.913 184.628 228.913 130C228.913 75.3718 184.628 31.087 130 31.087C75.3718 31.087 31.087 75.3718 31.087 130C31.087 184.628 75.3718 228.913 130 228.913ZM130 237.391C189.311 237.391 237.391 189.311 237.391 130C237.391 70.6894 189.311 22.6087 130 22.6087C70.6894 22.6087 22.6087 70.6894 22.6087 130C22.6087 189.311 70.6894 237.391 130 237.391Z" fill="url(#paint1_radial_1014_39074)"/>
<path d="M118.696 19.7826C118.696 18.2218 119.961 16.9565 121.522 16.9565H138.478C140.039 16.9565 141.304 18.2218 141.304 19.7826V28.2609H118.696V19.7826Z" fill="url(#paint2_radial_1014_39074)"/>
<path d="M118.696 240.217C118.696 241.778 119.961 243.043 121.522 243.043H138.478C140.039 243.043 141.304 241.778 141.304 240.217V231.739H118.696V240.217Z" fill="url(#paint3_radial_1014_39074)"/>
<path d="M240.217 141.304C241.778 141.304 243.043 140.039 243.043 138.478V121.522C243.043 119.961 241.778 118.696 240.217 118.696H231.739V141.304H240.217Z" fill="url(#paint4_radial_1014_39074)"/>
<path d="M19.7826 141.304C18.2218 141.304 16.9565 140.039 16.9565 138.478V121.522C16.9565 119.961 18.2218 118.696 19.7826 118.696H28.2609V141.304H19.7826Z" fill="url(#paint5_radial_1014_39074)"/>
<path d="M65.1014 40.2011C64.321 38.8494 64.7842 37.121 66.1359 36.3406L80.8206 27.8623C82.1723 27.0819 83.9007 27.5451 84.6812 28.8968L88.9203 36.2392L69.3406 47.5435L65.1014 40.2011Z" fill="url(#paint6_radial_1014_39074)"/>
<path d="M175.319 231.103C176.099 232.455 177.828 232.918 179.179 232.138L193.864 223.659C195.216 222.879 195.679 221.151 194.899 219.799L190.659 212.456L171.08 223.761L175.319 231.103Z" fill="url(#paint7_radial_1014_39074)"/>
<path d="M231.103 84.6812C232.455 83.9007 232.918 82.1723 232.138 80.8206L223.659 66.1359C222.879 64.7842 221.151 64.321 219.799 65.1014L212.456 69.3406L223.761 88.9203L231.103 84.6812Z" fill="url(#paint8_radial_1014_39074)"/>
<path d="M40.2011 194.899C38.8494 195.679 37.121 195.216 36.3406 193.864L27.8623 179.179C27.0819 177.828 27.5451 176.099 28.8968 175.319L36.2392 171.08L47.5435 190.659L40.2011 194.899Z" fill="url(#paint9_radial_1014_39074)"/>
<path d="M28.8968 84.6811C27.5451 83.9007 27.0819 82.1723 27.8623 80.8206L36.3406 66.1359C37.121 64.7842 38.8494 64.321 40.2011 65.1014L47.5435 69.3406L36.2392 88.9203L28.8968 84.6811Z" fill="url(#paint10_radial_1014_39074)"/>
<path d="M219.799 194.899C221.151 195.679 222.879 195.216 223.659 193.864L232.138 179.179C232.918 177.828 232.455 176.099 231.103 175.319L223.761 171.08L212.456 190.659L219.799 194.899Z" fill="url(#paint11_radial_1014_39074)"/>
<path d="M194.899 40.2011C195.679 38.8494 195.216 37.121 193.864 36.3406L179.179 27.8623C177.828 27.0819 176.099 27.5451 175.319 28.8968L171.08 36.2391L190.659 47.5435L194.899 40.2011Z" fill="url(#paint12_radial_1014_39074)"/>
<path d="M84.6812 231.103C83.9007 232.455 82.1723 232.918 80.8206 232.138L66.1359 223.659C64.7842 222.879 64.321 221.151 65.1014 219.799L69.3406 212.456L88.9203 223.761L84.6812 231.103Z" fill="url(#paint13_radial_1014_39074)"/>
<path fill-rule="evenodd" clip-rule="evenodd" d="M130 251.522C197.115 251.522 251.522 197.115 251.522 130C251.522 62.8854 197.115 8.47826 130 8.47826C62.8854 8.47826 8.47826 62.8854 8.47826 130C8.47826 197.115 62.8854 251.522 130 251.522ZM130 260C201.797 260 260 201.797 260 130C260 58.203 201.797 0 130 0C58.203 0 0 58.203 0 130C0 201.797 58.203 260 130 260Z" fill="url(#paint14_radial_1014_39074)"/>
<path d="M88.0379 11.4841L109.803 5.65217L111.99 13.814C112.392 15.3166 111.501 16.861 109.998 17.2636L93.6745 21.6375C92.172 22.0402 90.6275 21.1485 90.2249 19.6459L88.0379 11.4841Z" fill="url(#paint15_radial_1014_39074)"/>
<path d="M253.619 107.082L247.787 85.3173L239.625 87.5043C238.123 87.9069 237.231 89.4513 237.633 90.9539L242.007 107.278C242.41 108.78 243.954 109.672 245.457 109.269L253.619 107.082Z" fill="url(#paint16_radial_1014_39074)"/>
<path d="M11.4841 171.962L5.65217 150.197L13.814 148.01C15.3166 147.608 16.861 148.499 17.2636 150.002L21.6375 166.326C22.0402 167.828 21.1485 169.372 19.6459 169.775L11.4841 171.962Z" fill="url(#paint17_radial_1014_39074)"/>
<path d="M152.918 253.619L174.683 247.787L172.496 239.625C172.093 238.123 170.549 237.231 169.046 237.633L152.722 242.007C151.22 242.41 150.328 243.954 150.731 245.457L152.918 253.619Z" fill="url(#paint18_radial_1014_39074)"/>
<path d="M152.918 6.38116L174.683 12.213L172.496 20.3749C172.093 21.8775 170.549 22.7691 169.046 22.3665L152.722 17.9926C151.22 17.59 150.328 16.0456 150.731 14.543L152.918 6.38116Z" fill="url(#paint19_radial_1014_39074)"/>
<path d="M248.516 171.962L254.348 150.197L246.186 148.01C244.683 147.608 243.139 148.499 242.736 150.002L238.362 166.326C237.96 167.828 238.852 169.372 240.354 169.775L248.516 171.962Z" fill="url(#paint20_radial_1014_39074)"/>
<path d="M6.38117 107.082L12.2131 85.3173L20.3749 87.5043C21.8775 87.9069 22.7691 89.4513 22.3665 90.9539L17.9926 107.278C17.59 108.78 16.0456 109.672 14.543 109.269L6.38117 107.082Z" fill="url(#paint21_radial_1014_39074)"/>
<path d="M88.0379 248.516L109.803 254.348L111.99 246.186C112.392 244.683 111.501 243.139 109.998 242.736L93.6745 238.362C92.172 237.96 90.6275 238.852 90.2249 240.354L88.0379 248.516Z" fill="url(#paint22_radial_1014_39074)"/>
<path d="M211.657 34.4018L227.59 50.3348L221.615 56.3097C220.515 57.4097 218.732 57.4097 217.632 56.3097L205.682 44.36C204.582 43.26 204.582 41.4766 205.682 40.3767L211.657 34.4018Z" fill="url(#paint23_radial_1014_39074)"/>
<path d="M211.657 225.598L227.59 209.665L221.615 203.69C220.515 202.59 218.732 202.59 217.632 203.69L205.682 215.64C204.582 216.74 204.582 218.523 205.682 219.623L211.657 225.598Z" fill="url(#paint24_radial_1014_39074)"/>
<path d="M34.4018 48.3432L50.3349 32.4102L56.3097 38.3851C57.4097 39.485 57.4097 41.2684 56.3097 42.3683L44.36 54.3181C43.26 55.418 41.4767 55.418 40.3767 54.3181L34.4018 48.3432Z" fill="url(#paint25_radial_1014_39074)"/>
<path d="M34.4018 211.657L50.3349 227.59L56.3097 221.615C57.4097 220.515 57.4097 218.732 56.3097 217.632L44.36 205.682C43.26 204.582 41.4767 204.582 40.3767 205.682L34.4018 211.657Z" fill="url(#paint26_radial_1014_39074)"/>
<path fill-rule="evenodd" clip-rule="evenodd" d="M153.89 200.99L163.101 210.207L162.378 210.931L153.166 201.714L153.89 200.99Z" fill="white"/>
<path fill-rule="evenodd" clip-rule="evenodd" d="M153.89 193.309L168.219 207.647L167.495 208.371L153.166 194.033L153.89 193.309Z" fill="white"/>
<path fill-rule="evenodd" clip-rule="evenodd" d="M166.172 177.947L185.618 197.405L184.894 198.13L165.448 178.671L166.172 177.947Z" fill="white"/>
<path fill-rule="evenodd" clip-rule="evenodd" d="M177.942 180.507L190.735 193.309L190.011 194.033L177.218 181.231L177.942 180.507Z" fill="white"/>
<path fill-rule="evenodd" clip-rule="evenodd" d="M160.543 181.531L180.5 201.502L179.777 202.226L159.819 182.255L160.543 181.531Z" fill="white"/>
<path fill-rule="evenodd" clip-rule="evenodd" d="M153.378 183.58L174.359 204.574L173.636 205.299L152.655 184.304L153.378 183.58Z" fill="white"/>
<path fill-rule="evenodd" clip-rule="evenodd" d="M179.627 57.9728H180.65V109.48L212.739 141.59L212.016 142.314L179.627 109.904V57.9728Z" fill="white"/>
<path fill-rule="evenodd" clip-rule="evenodd" d="M185.256 64.1176H186.279V106.919L210.181 130.836L209.457 131.561L185.256 107.343V64.1176Z" fill="white"/>
<path fill-rule="evenodd" clip-rule="evenodd" d="M191.908 71.2866H192.932V103.847L209.157 120.083L208.434 120.807L191.908 104.271V71.2866Z" fill="white"/>
<path fill-rule="evenodd" clip-rule="evenodd" d="M198.561 78.9676H199.584V101.287L208.645 110.354L207.922 111.078L198.561 101.711V78.9676Z" fill="white"/>
<path fill-rule="evenodd" clip-rule="evenodd" d="M205.213 99.4503V87.6728H206.237V99.4503H205.213Z" fill="white"/>
<path fill-rule="evenodd" clip-rule="evenodd" d="M176.706 171.29L203.828 144.15L204.552 144.874L177.43 172.014L176.706 171.29Z" fill="white"/>
<path fill-rule="evenodd" clip-rule="evenodd" d="M180.8 175.386L207.922 148.247L208.646 148.971L181.524 176.111L180.8 175.386Z" fill="white"/>
<path fill-rule="evenodd" clip-rule="evenodd" d="M184.894 180.507L206.387 159L207.11 159.724L185.618 181.231L184.894 180.507Z" fill="white"/>
<path fill-rule="evenodd" clip-rule="evenodd" d="M188.988 184.604L198.711 174.874L199.434 175.599L189.711 185.328L188.988 184.604Z" fill="white"/>
<path fill-rule="evenodd" clip-rule="evenodd" d="M186.941 151.831L204.34 134.421L205.063 135.145L187.664 152.555L186.941 151.831Z" fill="white"/>
<path fill-rule="evenodd" clip-rule="evenodd" d="M190.011 139.542L199.734 129.812L200.458 130.537L190.735 140.266L190.011 139.542Z" fill="white"/>
<path fill-rule="evenodd" clip-rule="evenodd" d="M173.486 81.0159V53.8763H174.509V81.0159H173.486Z" fill="white"/>
<path fill-rule="evenodd" clip-rule="evenodd" d="M167.345 78.4555V51.3159H168.369V78.4555H167.345Z" fill="white"/>
<path fill-rule="evenodd" clip-rule="evenodd" d="M160.181 75.3831V48.2435H161.204V75.3831H160.181Z" fill="white"/>
<path fill-rule="evenodd" clip-rule="evenodd" d="M153.017 60.8331V46.1952H154.04V63.3056L139.5 48.7556H106.961V47.7314H139.923L153.017 60.8331Z" fill="white"/>
<path fill-rule="evenodd" clip-rule="evenodd" d="M89.3498 53.8763H135.106V54.9004H89.7737L62.29 82.4021L61.5663 81.6779L89.3498 53.8763Z" fill="white"/>
<path fill-rule="evenodd" clip-rule="evenodd" d="M72.8244 78.6055L92.782 58.6349L93.5057 59.359L73.5481 79.3297L72.8244 78.6055Z" fill="white"/>
<path fill-rule="evenodd" clip-rule="evenodd" d="M83.5708 76.5572L101.993 58.1228L102.717 58.847L84.2945 77.2814L83.5708 76.5572Z" fill="white"/>
<path fill-rule="evenodd" clip-rule="evenodd" d="M94.8289 74.509L111.204 58.1228L111.928 58.847L95.5526 75.2331L94.8289 74.509Z" fill="white"/>
<path fill-rule="evenodd" clip-rule="evenodd" d="M141.758 198.067L155.937 212.255L155.213 212.98L141.758 199.516L125.233 216.052L124.509 215.328L141.758 198.067Z" fill="white"/>
<path fill-rule="evenodd" clip-rule="evenodd" d="M134.744 215.328L141.397 208.671L142.12 209.395L135.468 216.052L134.744 215.328Z" fill="white"/>
<path fill-rule="evenodd" clip-rule="evenodd" d="M143.955 215.328L146.514 212.767L147.238 213.492L144.679 216.052L143.955 215.328Z" fill="white"/>
<path fill-rule="evenodd" clip-rule="evenodd" d="M131.886 201.714L118.069 215.54L117.345 214.816L131.162 200.99L131.886 201.714Z" fill="white"/>
<path fill-rule="evenodd" clip-rule="evenodd" d="M124.721 201.202L110.905 215.028L110.181 214.304L123.998 200.478L124.721 201.202Z" fill="white"/>
<path fill-rule="evenodd" clip-rule="evenodd" d="M117.557 199.154L103.74 212.98L103.017 212.255L116.833 198.43L117.557 199.154Z" fill="white"/>
<path fill-rule="evenodd" clip-rule="evenodd" d="M109.369 197.105L96.5761 209.907L95.8524 209.183L108.646 196.381L109.369 197.105Z" fill="white"/>
<path fill-rule="evenodd" clip-rule="evenodd" d="M65.3604 178.459L92.4822 205.598L91.7585 206.323L64.6367 179.183L65.3604 178.459Z" fill="white"/>
<path fill-rule="evenodd" clip-rule="evenodd" d="M76.1068 179.995L97.0878 200.99L96.3641 201.714L75.3831 180.719L76.1068 179.995Z" fill="white"/>
<path fill-rule="evenodd" clip-rule="evenodd" d="M87.3649 181.019L102.205 195.869L101.481 196.593L86.6412 181.743L87.3649 181.019Z" fill="white"/>
<path fill-rule="evenodd" clip-rule="evenodd" d="M97.5996 181.019L107.322 190.748L106.599 191.473L96.8759 181.743L97.5996 181.019Z" fill="white"/>
<path fill-rule="evenodd" clip-rule="evenodd" d="M88.0265 108.668H46.5762V107.643H88.0265V108.668Z" fill="white"/>
<path fill-rule="evenodd" clip-rule="evenodd" d="M92.1204 113.276H45.041V112.252H92.1204V113.276Z" fill="white"/>
<path fill-rule="evenodd" clip-rule="evenodd" d="M92.1204 122.493H43.5058V121.469H92.1204V122.493Z" fill="white"/>
<path fill-rule="evenodd" clip-rule="evenodd" d="M94.679 117.885H44.5293V116.861H94.679V117.885Z" fill="white"/>
<path fill-rule="evenodd" clip-rule="evenodd" d="M90.5852 127.102H43.5058V126.078H90.5852V127.102Z" fill="white"/>
<path fill-rule="evenodd" clip-rule="evenodd" d="M84.5943 90.5952L78.9652 84.9624L79.6889 84.2383L85.318 89.871L84.5943 90.5952Z" fill="white"/>
<path fill-rule="evenodd" clip-rule="evenodd" d="M86.6412 101.861L69.2423 84.4504L69.966 83.7262L87.3649 101.137L86.6412 101.861Z" fill="white"/>
<path fill-rule="evenodd" clip-rule="evenodd" d="M77.43 102.885L60.0311 85.4745L60.7548 84.7503L78.1537 102.161L77.43 102.885Z" fill="white"/>
<path fill-rule="evenodd" clip-rule="evenodd" d="M72.8244 108.518L54.4021 90.0831L55.1258 89.359L73.5481 107.793L72.8244 108.518Z" fill="white"/>
<path fill-rule="evenodd" clip-rule="evenodd" d="M63.6132 108.518L50.8199 95.7159L51.5436 94.9917L64.3369 107.793L63.6132 108.518Z" fill="white"/>
<path fill-rule="evenodd" clip-rule="evenodd" d="M56.449 108.518L48.773 100.837L49.4967 100.112L57.1727 107.793L56.449 108.518Z" fill="white"/>
<path fill-rule="evenodd" clip-rule="evenodd" d="M55.0637 132.223H44.0175V131.199H55.4876L84.2945 160.024L83.5708 160.749L55.0637 132.223Z" fill="white"/>
<path fill-rule="evenodd" clip-rule="evenodd" d="M83.5708 152.555L57.9842 126.952L58.7079 126.228L84.2945 151.831L83.5708 152.555Z" fill="white"/>
<path fill-rule="evenodd" clip-rule="evenodd" d="M65.6602 126.228C65.86 126.028 66.184 126.028 66.3839 126.228L91.4588 151.319C91.6586 151.519 91.6586 151.843 91.4588 152.043C91.2589 152.243 90.9349 152.243 90.7351 152.043L65.6602 126.952C65.4603 126.752 65.4603 126.428 65.6602 126.228Z" fill="white"/>
<path fill-rule="evenodd" clip-rule="evenodd" d="M80.7124 132.073L76.1068 136.681L75.3831 135.957L79.9887 131.349L80.7124 132.073Z" fill="white"/>
<path fill-rule="evenodd" clip-rule="evenodd" d="M86.8532 133.609L80.2007 140.266L79.477 139.542L86.1295 132.885L86.8532 133.609Z" fill="white"/>
<path fill-rule="evenodd" clip-rule="evenodd" d="M92.4822 135.145L83.271 144.362L82.5473 143.638L91.7585 134.421L92.4822 135.145Z" fill="white"/>
<path fill-rule="evenodd" clip-rule="evenodd" d="M98.623 137.193L87.3649 148.459L86.6412 147.735L97.8993 136.469L98.623 137.193Z" fill="white"/>
<path fill-rule="evenodd" clip-rule="evenodd" d="M82.3975 174.724H55.2756V173.7H82.3975V174.724Z" fill="white"/>
<path fill-rule="evenodd" clip-rule="evenodd" d="M75.2332 169.604H51.1818V168.58H75.2332V169.604Z" fill="white"/>
<path fill-rule="evenodd" clip-rule="evenodd" d="M70.6276 164.483H49.1349V163.459H70.6276V164.483Z" fill="white"/>
<path fill-rule="evenodd" clip-rule="evenodd" d="M66.5338 159.362H47.0879V158.338H66.5338V159.362Z" fill="white"/>
<path fill-rule="evenodd" clip-rule="evenodd" d="M50.0084 140.266L45.9146 144.362L45.1909 143.638L49.2847 139.542L50.0084 140.266Z" fill="white"/>
<path fill-rule="evenodd" clip-rule="evenodd" d="M56.1492 142.314L47.4498 151.019L46.7261 150.295L55.4255 141.59L56.1492 142.314Z" fill="white"/>
<path fill-rule="evenodd" clip-rule="evenodd" d="M59.2196 148.459L52.5671 155.116L51.8434 154.392L58.4959 147.735L59.2196 148.459Z" fill="white"/>
<path d="M109.519 197.767C109.519 198.899 108.603 199.816 107.472 199.816C106.342 199.816 105.425 198.899 105.425 197.767C105.425 196.636 106.342 195.719 107.472 195.719C108.603 195.719 109.519 196.636 109.519 197.767Z" fill="white"/>
<path d="M117.707 199.816C117.707 200.947 116.791 201.864 115.66 201.864C114.53 201.864 113.613 200.947 113.613 199.816C113.613 198.685 114.53 197.767 115.66 197.767C116.791 197.767 117.707 198.685 117.707 199.816Z" fill="white"/>
<path d="M125.895 200.84C125.895 201.971 124.978 202.888 123.848 202.888C122.717 202.888 121.801 201.971 121.801 200.84C121.801 199.709 122.717 198.792 123.848 198.792C124.978 198.792 125.895 199.709 125.895 200.84Z" fill="white"/>
<path d="M133.059 201.864C133.059 202.995 132.143 203.912 131.012 203.912C129.882 203.912 128.965 202.995 128.965 201.864C128.965 200.733 129.882 199.816 131.012 199.816C132.143 199.816 133.059 200.733 133.059 201.864Z" fill="white"/>
<path d="M143.294 209.033C143.294 210.164 142.377 211.081 141.247 211.081C140.116 211.081 139.2 210.164 139.2 209.033C139.2 207.902 140.116 206.985 141.247 206.985C142.377 206.985 143.294 207.902 143.294 209.033Z" fill="white"/>
<path d="M156.599 201.864C156.599 202.995 155.682 203.912 154.552 203.912C153.421 203.912 152.505 202.995 152.505 201.864C152.505 200.733 153.421 199.816 154.552 199.816C155.682 199.816 156.599 200.733 156.599 201.864Z" fill="white"/>
<path d="M155.575 193.671C155.575 194.802 154.659 195.719 153.528 195.719C152.398 195.719 151.481 194.802 151.481 193.671C151.481 192.54 152.398 191.623 153.528 191.623C154.659 191.623 155.575 192.54 155.575 193.671Z" fill="white"/>
<path d="M154.552 183.43C154.552 184.561 153.635 185.478 152.505 185.478C151.374 185.478 150.458 184.561 150.458 183.43C150.458 182.298 151.374 181.381 152.505 181.381C153.635 181.381 154.552 182.298 154.552 183.43Z" fill="white"/>
<path d="M161.716 181.381C161.716 182.513 160.8 183.43 159.669 183.43C158.539 183.43 157.622 182.513 157.622 181.381C157.622 180.25 158.539 179.333 159.669 179.333C160.8 179.333 161.716 180.25 161.716 181.381Z" fill="white"/>
<path d="M167.857 178.309C167.857 179.44 166.94 180.357 165.81 180.357C164.679 180.357 163.763 179.44 163.763 178.309C163.763 177.178 164.679 176.261 165.81 176.261C166.94 176.261 167.857 177.178 167.857 178.309Z" fill="white"/>
<path d="M180.138 181.381C180.138 182.513 179.222 183.43 178.091 183.43C176.961 183.43 176.045 182.513 176.045 181.381C176.045 180.25 176.961 179.333 178.091 179.333C179.222 179.333 180.138 180.25 180.138 181.381Z" fill="white"/>
<path d="M191.396 184.454C191.396 185.585 190.48 186.502 189.35 186.502C188.219 186.502 187.303 185.585 187.303 184.454C187.303 183.322 188.219 182.405 189.35 182.405C190.48 182.405 191.396 183.322 191.396 184.454Z" fill="white"/>
<path d="M187.303 180.357C187.303 181.488 186.386 182.405 185.256 182.405C184.125 182.405 183.209 181.488 183.209 180.357C183.209 179.226 184.125 178.309 185.256 178.309C186.386 178.309 187.303 179.226 187.303 180.357Z" fill="white"/>
<path d="M183.209 175.236C183.209 176.368 182.292 177.285 181.162 177.285C180.031 177.285 179.115 176.368 179.115 175.236C179.115 174.105 180.031 173.188 181.162 173.188C182.292 173.188 183.209 174.105 183.209 175.236Z" fill="white"/>
<path d="M189.35 151.681C189.35 152.813 188.433 153.73 187.303 153.73C186.172 153.73 185.256 152.813 185.256 151.681C185.256 150.55 186.172 149.633 187.303 149.633C188.433 149.633 189.35 150.55 189.35 151.681Z" fill="white"/>
<path d="M192.42 139.392C192.42 140.523 191.504 141.44 190.373 141.44C189.243 141.44 188.326 140.523 188.326 139.392C188.326 138.26 189.243 137.343 190.373 137.343C191.504 137.343 192.42 138.26 192.42 139.392Z" fill="white"/>
<path d="M211.866 131.199C211.866 132.33 210.949 133.247 209.819 133.247C208.688 133.247 207.772 132.33 207.772 131.199C207.772 130.067 208.688 129.15 209.819 129.15C210.949 129.15 211.866 130.067 211.866 131.199Z" fill="white"/>
<path d="M210.842 119.933C210.842 121.064 209.926 121.981 208.795 121.981C207.665 121.981 206.748 121.064 206.748 119.933C206.748 118.802 207.665 117.885 208.795 117.885C209.926 117.885 210.842 118.802 210.842 119.933Z" fill="white"/>
<path d="M210.842 110.716C210.842 111.847 209.926 112.764 208.795 112.764C207.665 112.764 206.748 111.847 206.748 110.716C206.748 109.585 207.665 108.668 208.795 108.668C209.926 108.668 210.842 109.585 210.842 110.716Z" fill="white"/>
<path d="M207.772 99.4503C207.772 100.582 206.855 101.499 205.725 101.499C204.594 101.499 203.678 100.582 203.678 99.4503C203.678 98.3191 204.594 97.4021 205.725 97.4021C206.855 97.4021 207.772 98.3191 207.772 99.4503Z" fill="white"/>
<path d="M176.045 81.0159C176.045 82.1471 175.128 83.0642 173.998 83.0642C172.867 83.0642 171.951 82.1471 171.951 81.0159C171.951 79.8846 172.867 78.9676 173.998 78.9676C175.128 78.9676 176.045 79.8846 176.045 81.0159Z" fill="white"/>
<path d="M169.904 78.9676C169.904 80.0988 168.987 81.0159 167.857 81.0159C166.726 81.0159 165.81 80.0988 165.81 78.9676C165.81 77.8364 166.726 76.9193 167.857 76.9193C168.987 76.9193 169.904 77.8364 169.904 78.9676Z" fill="white"/>
<path d="M162.739 75.8952C162.739 77.0264 161.823 77.9435 160.693 77.9435C159.562 77.9435 158.646 77.0264 158.646 75.8952C158.646 74.764 159.562 73.8469 160.693 73.8469C161.823 73.8469 162.739 74.764 162.739 75.8952Z" fill="white"/>
<path d="M136.129 54.3883C136.129 55.5196 135.213 56.4366 134.082 56.4366C132.952 56.4366 132.036 55.5196 132.036 54.3883C132.036 53.2571 132.952 52.3401 134.082 52.3401C135.213 52.3401 136.129 53.2571 136.129 54.3883Z" fill="white"/>
<path d="M97.2377 74.8711C97.2377 76.0023 96.3213 76.9193 95.1908 76.9193C94.0603 76.9193 93.1438 76.0023 93.1438 74.8711C93.1438 73.7398 94.0603 72.8228 95.1908 72.8228C96.3213 72.8228 97.2377 73.7398 97.2377 74.8711Z" fill="white"/>
<path d="M85.9796 76.9193C85.9796 78.0506 85.0632 78.9676 83.9327 78.9676C82.8022 78.9676 81.8857 78.0506 81.8857 76.9193C81.8857 75.7881 82.8022 74.8711 83.9327 74.8711C85.0632 74.8711 85.9796 75.7881 85.9796 76.9193Z" fill="white"/>
<path d="M76.7684 77.9435C76.7684 79.0747 75.852 79.9917 74.7215 79.9917C73.591 79.9917 72.6745 79.0747 72.6745 77.9435C72.6745 76.8122 73.591 75.8952 74.7215 75.8952C75.852 75.8952 76.7684 76.8122 76.7684 77.9435Z" fill="white"/>
<path d="M78.8153 101.499C78.8153 102.63 77.8989 103.547 76.7684 103.547C75.6379 103.547 74.7215 102.63 74.7215 101.499C74.7215 100.367 75.6379 99.4503 76.7684 99.4503C77.8989 99.4503 78.8153 100.367 78.8153 101.499Z" fill="white"/>
<path d="M89.05 101.499C89.05 102.63 88.1335 103.547 87.0031 103.547C85.8726 103.547 84.9561 102.63 84.9561 101.499C84.9561 100.367 85.8726 99.4503 87.0031 99.4503C88.1335 99.4503 89.05 100.367 89.05 101.499Z" fill="white"/>
<path d="M87.0031 90.2331C87.0031 91.3643 86.0866 92.2814 84.9561 92.2814C83.8256 92.2814 82.9092 91.3643 82.9092 90.2331C82.9092 89.1019 83.8256 88.1848 84.9561 88.1848C86.0866 88.1848 87.0031 89.1019 87.0031 90.2331Z" fill="white"/>
<path d="M90.0735 107.643C90.0735 108.775 89.157 109.692 88.0265 109.692C86.896 109.692 85.9796 108.775 85.9796 107.643C85.9796 106.512 86.896 105.595 88.0265 105.595C89.157 105.595 90.0735 106.512 90.0735 107.643Z" fill="white"/>
<path d="M94.1673 112.764C94.1673 113.895 93.2509 114.812 92.1204 114.812C90.9899 114.812 90.0735 113.895 90.0735 112.764C90.0735 111.633 90.9899 110.716 92.1204 110.716C93.2509 110.716 94.1673 111.633 94.1673 112.764Z" fill="white"/>
<path d="M96.2142 116.861C96.2142 117.992 95.2978 118.909 94.1673 118.909C93.0368 118.909 92.1204 117.992 92.1204 116.861C92.1204 115.729 93.0368 114.812 94.1673 114.812C95.2978 114.812 96.2142 115.729 96.2142 116.861Z" fill="white"/>
<path d="M95.1908 121.981C95.1908 123.113 94.2743 124.03 93.1438 124.03C92.0134 124.03 91.0969 123.113 91.0969 121.981C91.0969 120.85 92.0134 119.933 93.1438 119.933C94.2743 119.933 95.1908 120.85 95.1908 121.981Z" fill="white"/>
<path d="M93.1438 127.102C93.1438 128.233 92.2274 129.15 91.0969 129.15C89.9664 129.15 89.05 128.233 89.05 127.102C89.05 125.971 89.9664 125.054 91.0969 125.054C92.2274 125.054 93.1438 125.971 93.1438 127.102Z" fill="white"/>
<path d="M81.8857 132.223C81.8857 133.354 80.9693 134.271 79.8388 134.271C78.7083 134.271 77.7919 133.354 77.7919 132.223C77.7919 131.091 78.7083 130.174 79.8388 130.174C80.9693 130.174 81.8857 131.091 81.8857 132.223Z" fill="white"/>
<path d="M88.0265 133.247C88.0265 134.378 87.1101 135.295 85.9796 135.295C84.8491 135.295 83.9327 134.378 83.9327 133.247C83.9327 132.116 84.8491 131.199 85.9796 131.199C87.1101 131.199 88.0265 132.116 88.0265 133.247Z" fill="white"/>
<path d="M93.1438 135.295C93.1438 136.426 92.2274 137.343 91.0969 137.343C89.9664 137.343 89.05 136.426 89.05 135.295C89.05 134.164 89.9664 133.247 91.0969 133.247C92.2274 133.247 93.1438 134.164 93.1438 135.295Z" fill="white"/>
<path d="M51.1818 140.416C51.1818 141.547 50.2653 142.464 49.1349 142.464C48.0044 142.464 47.0879 141.547 47.0879 140.416C47.0879 139.285 48.0044 138.368 49.1349 138.368C50.2653 138.368 51.1818 139.285 51.1818 140.416Z" fill="white"/>
<path d="M57.3226 142.464C57.3226 143.595 56.4061 144.512 55.2756 144.512C54.1452 144.512 53.2287 143.595 53.2287 142.464C53.2287 141.333 54.1452 140.416 55.2756 140.416C56.4061 140.416 57.3226 141.333 57.3226 142.464Z" fill="white"/>
<path d="M60.393 148.609C60.393 149.74 59.4765 150.657 58.346 150.657C57.2156 150.657 56.2991 149.74 56.2991 148.609C56.2991 147.478 57.2156 146.561 58.346 146.561C59.4765 146.561 60.393 147.478 60.393 148.609Z" fill="white"/>
<path d="M67.5572 158.85C67.5572 159.981 66.6408 160.899 65.5103 160.899C64.3798 160.899 63.4634 159.981 63.4634 158.85C63.4634 157.719 64.3798 156.802 65.5103 156.802C66.6408 156.802 67.5572 157.719 67.5572 158.85Z" fill="white"/>
<path d="M72.6745 163.971C72.6745 165.102 71.7581 166.019 70.6276 166.019C69.4971 166.019 68.5807 165.102 68.5807 163.971C68.5807 162.84 69.4971 161.923 70.6276 161.923C71.7581 161.923 72.6745 162.84 72.6745 163.971Z" fill="white"/>
<path d="M76.7684 169.092C76.7684 170.223 75.852 171.14 74.7215 171.14C73.591 171.14 72.6745 170.223 72.6745 169.092C72.6745 167.96 73.591 167.043 74.7215 167.043C75.852 167.043 76.7684 167.96 76.7684 169.092Z" fill="white"/>
<path d="M82.9092 174.212C82.9092 175.344 81.9928 176.261 80.8623 176.261C79.7318 176.261 78.8153 175.344 78.8153 174.212C78.8153 173.081 79.7318 172.164 80.8623 172.164C81.9928 172.164 82.9092 173.081 82.9092 174.212Z" fill="white"/>
<path d="M99.2846 181.381C99.2846 182.513 98.3682 183.43 97.2377 183.43C96.1072 183.43 95.1908 182.513 95.1908 181.381C95.1908 180.25 96.1072 179.333 97.2377 179.333C98.3682 179.333 99.2846 180.25 99.2846 181.381Z" fill="white"/>
<path d="M89.05 181.381C89.05 182.513 88.1335 183.43 87.0031 183.43C85.8726 183.43 84.9561 182.513 84.9561 181.381C84.9561 180.25 85.8726 179.333 87.0031 179.333C88.1335 179.333 89.05 180.25 89.05 181.381Z" fill="white"/>
<path d="M78.8153 181.381C78.8153 182.513 77.8989 183.43 76.7684 183.43C75.6379 183.43 74.7215 182.513 74.7215 181.381C74.7215 180.25 75.6379 179.333 76.7684 179.333C77.8989 179.333 78.8153 180.25 78.8153 181.381Z" fill="white"/>
<path d="M67.5572 179.333C67.5572 180.464 66.6408 181.381 65.5103 181.381C64.3798 181.381 63.4634 180.464 63.4634 179.333C63.4634 178.202 64.3798 177.285 65.5103 177.285C66.6408 177.285 67.5572 178.202 67.5572 179.333Z" fill="white"/>
<path d="M84.9561 159.874C84.9561 161.006 84.0397 161.923 82.9092 161.923C81.7787 161.923 80.8623 161.006 80.8623 159.874C80.8623 158.743 81.7787 157.826 82.9092 157.826C84.0397 157.826 84.9561 158.743 84.9561 159.874Z" fill="white"/>
<path d="M85.9796 151.681C85.9796 152.813 85.0632 153.73 83.9327 153.73C82.8022 153.73 81.8857 152.813 81.8857 151.681C81.8857 150.55 82.8022 149.633 83.9327 149.633C85.0632 149.633 85.9796 150.55 85.9796 151.681Z" fill="white"/>
<path d="M99.2846 137.343C99.2846 138.475 98.3682 139.392 97.2377 139.392C96.1072 139.392 95.1908 138.475 95.1908 137.343C95.1908 136.212 96.1072 135.295 97.2377 135.295C98.3682 135.295 99.2846 136.212 99.2846 137.343Z" fill="white"/>
<path d="M179.115 171.14C179.115 172.271 178.198 173.188 177.068 173.188C175.937 173.188 175.021 172.271 175.021 171.14C175.021 170.009 175.937 169.092 177.068 169.092C178.198 169.092 179.115 170.009 179.115 171.14Z" fill="white"/>
<path d="M148.411 213.13C148.411 214.261 147.495 215.178 146.364 215.178C145.234 215.178 144.317 214.261 144.317 213.13C144.317 211.998 145.234 211.081 146.364 211.081C147.495 211.081 148.411 211.998 148.411 213.13Z" fill="white"/>
<path d="M173.072 105.675C171.765 92.0646 160.023 87.5018 145.199 86.2022L145.199 67.323L133.715 67.3242L133.715 85.7057C130.697 85.7061 127.611 85.7659 124.544 85.827L124.546 67.3238L113.068 67.3235L113.064 86.1973C110.578 86.2481 108.136 86.2944 105.755 86.2959L105.754 86.2373L89.9141 86.232L89.9172 98.5054C89.9172 98.5054 98.3978 98.3438 98.257 98.5C102.909 98.5013 104.423 101.204 104.863 103.536L104.864 125.043C105.185 125.045 105.603 125.058 106.078 125.123C105.695 125.123 105.286 125.121 104.865 125.125L104.862 155.254C104.658 156.719 103.797 159.055 100.547 159.061C100.694 159.19 92.199 159.058 92.199 159.058L89.9175 172.782L104.862 172.782C107.643 172.785 110.38 172.832 113.067 172.849L113.071 191.943L124.543 191.945L124.543 173.053C127.692 173.118 130.741 173.143 133.716 173.14L133.712 191.946L145.196 191.944L145.199 172.884C164.506 171.775 178.02 166.908 179.698 148.766C181.052 134.157 174.185 127.639 163.225 125.005C169.883 121.612 174.046 115.635 173.072 105.675ZM157.005 146.503C157.012 160.772 132.595 159.149 124.812 159.157L124.815 133.858C132.6 133.86 157.007 131.62 157.005 146.503ZM151.664 110.81C151.661 123.792 131.298 122.277 124.815 122.278L124.815 99.3332C131.298 99.3325 151.663 97.2696 151.664 110.81Z" fill="url(#paint27_linear_1014_39074)"/>
<path d="M310 38H334.383C345.494 38 353.551 39.5828 358.552 42.7483C363.59 45.8782 366.108 50.8755 366.108 57.7401C366.108 62.3995 365.001 66.223 362.786 69.2107C360.607 72.1984 357.695 73.9945 354.051 74.5992V75.1327C359.017 76.2353 362.589 78.2982 364.769 81.3215C366.984 84.3447 368.091 88.3639 368.091 93.3789C368.091 100.492 365.501 106.041 360.321 110.025C355.176 114.008 348.174 116 339.314 116H310V38ZM326.613 68.8906H336.259C340.76 68.8906 344.012 68.197 346.012 66.8099C348.049 65.4227 349.067 63.1286 349.067 59.9275C349.067 56.9398 347.959 54.8057 345.744 53.5253C343.565 52.2093 340.1 51.5513 335.348 51.5513H326.613V68.8906ZM326.613 82.015V102.342H337.438C342.011 102.342 345.387 101.471 347.566 99.7278C349.746 97.985 350.835 95.3174 350.835 91.725C350.835 85.2517 346.191 82.015 336.902 82.015H326.613Z" fill="url(#paint28_linear_1014_39074)"/>
<path d="M381.453 116V38H398.066V116H381.453Z" fill="url(#paint29_linear_1014_39074)"/>
<path d="M445.725 116H429.112V51.7647H407.837V38H467V51.7647H445.725V116Z" fill="url(#paint30_linear_1014_39074)"/>
<path d="M496.344 115.935H480V38.1178H524.905V51.6374H496.344V71.7039H522.922V85.1703H496.344V115.935Z" fill="white"/>
<path d="M537.944 115.935V38.1178H554.555V115.935H537.944Z" fill="white"/>
<path d="M588.6 72.662H593.958C599.21 72.662 603.086 71.7926 605.586 70.0539C608.087 68.3151 609.337 65.5828 609.337 61.857C609.337 58.1666 608.051 55.5407 605.479 53.9794C602.943 52.4181 598.995 51.6374 593.637 51.6374H588.6V72.662ZM588.6 86.0752V115.935H571.988V38.1178H594.816C605.461 38.1178 613.338 40.0517 618.447 43.9195C623.555 47.7518 626.109 53.589 626.109 61.4311C626.109 66.0086 624.841 70.0894 622.305 73.6733C619.768 77.2218 616.178 80.0073 611.534 82.0299C623.323 99.5238 631.003 110.826 634.576 115.935H616.142L597.441 86.0752H588.6Z" fill="white"/>
<path d="M642.149 115.935V38.1178H658.761V115.935H642.149Z" fill="white"/>
<path d="M745.694 115.935H724.581L690.501 57.0665H690.019C690.698 67.4635 691.037 74.8798 691.037 79.3154V115.935H676.194V38.1178H697.146L731.172 96.4012H731.547C731.012 86.2881 730.744 79.1379 730.744 74.9508V38.1178H745.694V115.935Z" fill="white"/>
<path d="M792.921 72.2362H824V112.582C818.963 114.214 814.212 115.35 809.746 115.989C805.317 116.663 800.78 117 796.136 117C784.311 117 775.273 113.558 769.021 106.674C762.806 99.7545 759.698 89.8365 759.698 76.9202C759.698 64.3586 763.306 54.5649 770.522 47.5389C777.774 40.513 787.812 37 800.637 37C808.675 37 816.427 38.5968 823.893 41.7904L818.374 54.9907C812.658 52.1519 806.71 50.7325 800.53 50.7325C793.349 50.7325 787.598 53.1277 783.275 57.9182C778.953 62.7086 776.791 69.149 776.791 77.2395C776.791 85.6849 778.524 92.143 781.989 96.6141C785.49 101.05 790.563 103.267 797.207 103.267C800.673 103.267 804.191 102.913 807.764 102.203V85.9687H792.921V72.2362Z" fill="white"/>
<path d="M334.531 174.548H324.904V207.294H316.489V174.548H310V170.667L316.489 168.126V165.585C316.489 160.975 317.583 157.564 319.77 155.352C321.956 153.117 325.296 152 329.789 152C332.736 152 335.636 152.482 338.488 153.447L336.278 159.728C334.21 159.069 332.237 158.74 330.359 158.74C328.457 158.74 327.067 159.328 326.187 160.504C325.332 161.657 324.904 163.398 324.904 165.727V168.267H334.531V174.548Z" fill="url(#paint31_linear_1014_39074)"/>
<path d="M358.99 167.561C360.678 167.561 362.068 167.679 363.162 167.914L362.342 175.642C361.153 175.36 359.917 175.219 358.634 175.219C355.282 175.219 352.56 176.301 350.469 178.465C348.401 180.629 347.367 183.441 347.367 186.899V207.294H338.988V168.267H345.548L346.654 175.148H347.081C348.389 172.819 350.088 170.973 352.18 169.608C354.296 168.244 356.566 167.561 358.99 167.561Z" fill="url(#paint32_linear_1014_39074)"/>
<path d="M383.949 208C377.816 208 373.015 206.236 369.544 202.707C366.097 199.155 364.374 194.274 364.374 188.063C364.374 181.688 365.979 176.677 369.188 173.031C372.397 169.385 376.806 167.561 382.416 167.561C387.621 167.561 391.734 169.126 394.752 172.255C397.771 175.383 399.281 179.688 399.281 185.17V189.651H373.003C373.122 193.438 374.156 196.355 376.105 198.402C378.054 200.425 380.799 201.437 384.341 201.437C386.67 201.437 388.834 201.225 390.83 200.802C392.851 200.355 395.014 199.625 397.319 198.614V205.354C395.275 206.318 393.207 207 391.115 207.4C389.024 207.8 386.635 208 383.949 208ZM382.416 173.843C379.753 173.843 377.614 174.678 375.998 176.348C374.405 178.018 373.454 180.453 373.145 183.652H391.044C390.997 180.429 390.212 177.995 388.691 176.348C387.17 174.678 385.078 173.843 382.416 173.843Z" fill="url(#paint33_linear_1014_39074)"/>
<path d="M423.74 208C417.607 208 412.806 206.236 409.335 202.707C405.889 199.155 404.165 194.274 404.165 188.063C404.165 181.688 405.77 176.677 408.979 173.031C412.188 169.385 416.597 167.561 422.207 167.561C427.412 167.561 431.525 169.126 434.543 172.255C437.562 175.383 439.072 179.688 439.072 185.17V189.651H412.794C412.913 193.438 413.947 196.355 415.896 198.402C417.845 200.425 420.59 201.437 424.132 201.437C426.462 201.437 428.625 201.225 430.621 200.802C432.642 200.355 434.805 199.625 437.111 198.614V205.354C435.066 206.318 432.998 207 430.907 207.4C428.815 207.8 426.426 208 423.74 208ZM422.207 173.843C419.545 173.843 417.405 174.678 415.789 176.348C414.196 178.018 413.245 180.453 412.936 183.652H430.835C430.788 180.429 430.003 177.995 428.482 176.348C426.961 174.678 424.869 173.843 422.207 173.843Z" fill="url(#paint34_linear_1014_39074)"/>
<path d="M459.609 208C454.689 208 450.85 206.236 448.092 202.707C445.335 199.178 443.956 194.226 443.956 187.851C443.956 181.453 445.347 176.477 448.128 172.925C450.933 169.349 454.807 167.561 459.752 167.561C464.934 167.561 468.879 169.455 471.589 173.243H472.017C471.613 170.443 471.411 168.232 471.411 166.609V152.388H479.826V207.294H473.265L471.803 202.178H471.411C468.725 206.059 464.791 208 459.609 208ZM461.855 201.296C465.302 201.296 467.81 200.343 469.379 198.437C470.947 196.508 471.756 193.391 471.803 189.086V187.922C471.803 183.005 470.995 179.512 469.379 177.442C467.762 175.372 465.231 174.337 461.784 174.337C458.837 174.337 456.566 175.525 454.974 177.9C453.381 180.253 452.585 183.617 452.585 187.992C452.585 192.321 453.358 195.626 454.903 197.908C456.448 200.166 458.765 201.296 461.855 201.296Z" fill="url(#paint35_linear_1014_39074)"/>
<path d="M524.501 187.71C524.501 194.085 522.849 199.061 519.545 202.636C516.241 206.212 511.642 208 505.747 208C502.062 208 498.806 207.177 495.977 205.53C493.149 203.883 490.974 201.519 489.452 198.437C487.931 195.356 487.171 191.78 487.171 187.71C487.171 181.382 488.811 176.442 492.091 172.89C495.371 169.338 499.994 167.561 505.961 167.561C511.666 167.561 516.182 169.385 519.51 173.031C522.838 176.654 524.501 181.547 524.501 187.71ZM495.799 187.71C495.799 196.72 499.163 201.225 505.889 201.225C512.545 201.225 515.873 196.72 515.873 187.71C515.873 178.794 512.521 174.337 505.818 174.337C502.3 174.337 499.745 175.489 498.152 177.795C496.583 180.1 495.799 183.405 495.799 187.71Z" fill="url(#paint36_linear_1014_39074)"/>
<path d="M565.113 207.294H556.698V183.229C556.698 180.241 556.128 178.018 554.987 176.56C553.846 175.078 552.063 174.337 549.638 174.337C546.406 174.337 544.029 175.383 542.507 177.477C541.01 179.547 540.261 183.005 540.261 187.851V207.294H531.882V168.267H538.443L539.619 173.384H540.047C541.141 171.525 542.721 170.09 544.789 169.079C546.881 168.067 549.175 167.561 551.671 167.561C557.732 167.561 561.749 169.608 563.722 173.701H564.293C565.457 171.772 567.098 170.267 569.213 169.185C571.329 168.103 573.753 167.561 576.487 167.561C581.193 167.561 584.616 168.738 586.755 171.09C588.918 173.443 590 177.03 590 181.853V207.294H581.621V183.229C581.621 180.241 581.039 178.018 579.874 176.56C578.733 175.078 576.95 174.337 574.526 174.337C571.269 174.337 568.88 175.348 567.359 177.371C565.861 179.371 565.113 182.452 565.113 186.616V207.294Z" fill="url(#paint37_linear_1014_39074)"/>
<path d="M632.233 200.727C634.271 200.727 636.309 200.41 638.347 199.777V206C637.423 206.398 636.226 206.727 634.757 206.984C633.311 207.266 631.806 207.406 630.242 207.406C622.326 207.406 618.368 203.281 618.368 195.031V174.078H613V170.422L618.759 167.398L621.603 159.172H626.758V167.82H637.956V174.078H626.758V194.891C626.758 196.883 627.256 198.359 628.251 199.32C629.27 200.258 630.597 200.727 632.233 200.727Z" fill="white"/>
<path d="M678.838 187.191C678.838 193.543 677.191 198.5 673.897 202.063C670.603 205.625 666.017 207.406 660.139 207.406C656.466 207.406 653.219 206.586 650.399 204.945C647.578 203.305 645.41 200.949 643.893 197.879C642.376 194.809 641.618 191.246 641.618 187.191C641.618 180.887 643.253 175.965 646.524 172.426C649.794 168.887 654.404 167.117 660.352 167.117C666.04 167.117 670.543 168.934 673.861 172.566C677.179 176.176 678.838 181.051 678.838 187.191ZM650.221 187.191C650.221 196.168 653.574 200.656 660.281 200.656C666.917 200.656 670.235 196.168 670.235 187.191C670.235 178.309 666.894 173.867 660.21 173.867C656.703 173.867 654.155 175.016 652.567 177.313C651.003 179.609 650.221 182.902 650.221 187.191Z" fill="white"/>
<path d="M722.778 207.406C717.801 207.406 713.938 205.637 711.189 202.098H710.691C711.023 205.379 711.189 207.371 711.189 208.074V224H702.835V167.82H709.589C709.779 168.547 710.17 170.281 710.762 173.023H711.189C713.796 169.086 717.706 167.117 722.92 167.117C727.826 167.117 731.642 168.875 734.367 172.391C737.117 175.906 738.491 180.84 738.491 187.191C738.491 193.543 737.093 198.5 734.296 202.063C731.523 205.625 727.684 207.406 722.778 207.406ZM720.752 173.867C717.434 173.867 715.005 174.828 713.464 176.75C711.947 178.672 711.189 181.742 711.189 185.961V187.191C711.189 191.926 711.947 195.359 713.464 197.492C714.981 199.602 717.457 200.656 720.894 200.656C723.785 200.656 726.013 199.484 727.577 197.141C729.142 194.797 729.924 191.457 729.924 187.121C729.924 182.762 729.142 179.469 727.577 177.242C726.037 174.992 723.762 173.867 720.752 173.867Z" fill="white"/>
<path d="M754.275 206.703H745.921V152H754.275V206.703Z" fill="white"/>
<path d="M788.581 206.703L786.91 201.289H786.626C784.73 203.656 782.822 205.273 780.902 206.141C778.983 206.984 776.518 207.406 773.508 207.406C769.645 207.406 766.623 206.375 764.443 204.313C762.286 202.25 761.208 199.332 761.208 195.559C761.208 191.551 762.713 188.527 765.722 186.488C768.732 184.449 773.318 183.336 779.48 183.148L786.27 182.938V180.863C786.27 178.379 785.678 176.527 784.493 175.309C783.331 174.066 781.518 173.445 779.054 173.445C777.039 173.445 775.108 173.738 773.259 174.324C771.41 174.91 769.633 175.602 767.927 176.398L765.225 170.492C767.358 169.391 769.692 168.559 772.228 167.996C774.764 167.41 777.158 167.117 779.409 167.117C784.41 167.117 788.178 168.195 790.714 170.352C793.274 172.508 794.553 175.895 794.553 180.512V206.703H788.581ZM776.139 201.078C779.172 201.078 781.601 200.246 783.426 198.582C785.275 196.895 786.199 194.539 786.199 191.516V188.141L781.151 188.352C777.217 188.492 774.349 189.148 772.548 190.32C770.771 191.469 769.882 193.238 769.882 195.629C769.882 197.363 770.403 198.711 771.446 199.672C772.489 200.609 774.053 201.078 776.139 201.078Z" fill="white"/>
<path d="M797.966 167.82H807.067L815.066 189.863C816.274 193.004 817.08 195.957 817.483 198.723H817.768C817.981 197.434 818.372 195.875 818.941 194.047C819.509 192.195 822.519 183.453 827.97 167.82H837L820.185 211.871C817.128 219.957 812.032 224 804.898 224C803.05 224 801.249 223.801 799.495 223.402V216.863C800.751 217.145 802.185 217.285 803.796 217.285C807.825 217.285 810.658 214.977 812.293 210.359L813.75 206.703L797.966 167.82Z" fill="white"/>
<defs>
<radialGradient id="paint0_radial_1014_39074" cx="0" cy="0" r="1" gradientUnits="userSpaceOnUse" gradientTransform="translate(129.989 130.174) rotate(-90) scale(130.065 129.98)">
<stop stop-color="#8F4207"/>
<stop offset="0.430258" stop-color="#904200"/>
<stop offset="0.645669" stop-color="#D28304"/>
<stop offset="0.695159" stop-color="#FEE13E"/>
<stop offset="0.761643" stop-color="#8F4207"/>
<stop offset="0.783072" stop-color="#D29804"/>
<stop offset="0.86918" stop-color="#C25200"/>
<stop offset="0.892696" stop-color="#FFC909"/>
<stop offset="0.986342" stop-color="#A55007"/>
<stop offset="1" stop-color="#FEE13E"/>
</radialGradient>
<radialGradient id="paint1_radial_1014_39074" cx="0" cy="0" r="1" gradientUnits="userSpaceOnUse" gradientTransform="translate(129.989 130.174) rotate(-90) scale(130.065 129.98)">
<stop stop-color="#8F4207"/>
<stop offset="0.430258" stop-color="#904200"/>
<stop offset="0.645669" stop-color="#D28304"/>
<stop offset="0.695159" stop-color="#FEE13E"/>
<stop offset="0.761643" stop-color="#8F4207"/>
<stop offset="0.783072" stop-color="#D29804"/>
<stop offset="0.86918" stop-color="#C25200"/>
<stop offset="0.892696" stop-color="#FFC909"/>
<stop offset="0.986342" stop-color="#A55007"/>
<stop offset="1" stop-color="#FEE13E"/>
</radialGradient>
<radialGradient id="paint2_radial_1014_39074" cx="0" cy="0" r="1" gradientUnits="userSpaceOnUse" gradientTransform="translate(129.989 130.174) rotate(-90) scale(130.065 129.98)">
<stop stop-color="#8F4207"/>
<stop offset="0.430258" stop-color="#904200"/>
<stop offset="0.645669" stop-color="#D28304"/>
<stop offset="0.695159" stop-color="#FEE13E"/>
<stop offset="0.761643" stop-color="#8F4207"/>
<stop offset="0.783072" stop-color="#D29804"/>
<stop offset="0.86918" stop-color="#C25200"/>
<stop offset="0.892696" stop-color="#FFC909"/>
<stop offset="0.986342" stop-color="#A55007"/>
<stop offset="1" stop-color="#FEE13E"/>
</radialGradient>
<radialGradient id="paint3_radial_1014_39074" cx="0" cy="0" r="1" gradientUnits="userSpaceOnUse" gradientTransform="translate(129.989 130.174) rotate(-90) scale(130.065 129.98)">
<stop stop-color="#8F4207"/>
<stop offset="0.430258" stop-color="#904200"/>
<stop offset="0.645669" stop-color="#D28304"/>
<stop offset="0.695159" stop-color="#FEE13E"/>
<stop offset="0.761643" stop-color="#8F4207"/>
<stop offset="0.783072" stop-color="#D29804"/>
<stop offset="0.86918" stop-color="#C25200"/>
<stop offset="0.892696" stop-color="#FFC909"/>
<stop offset="0.986342" stop-color="#A55007"/>
<stop offset="1" stop-color="#FEE13E"/>
</radialGradient>
<radialGradient id="paint4_radial_1014_39074" cx="0" cy="0" r="1" gradientUnits="userSpaceOnUse" gradientTransform="translate(129.989 130.174) rotate(-90) scale(130.065 129.98)">
<stop stop-color="#8F4207"/>
<stop offset="0.430258" stop-color="#904200"/>
<stop offset="0.645669" stop-color="#D28304"/>
<stop offset="0.695159" stop-color="#FEE13E"/>
<stop offset="0.761643" stop-color="#8F4207"/>
<stop offset="0.783072" stop-color="#D29804"/>
<stop offset="0.86918" stop-color="#C25200"/>
<stop offset="0.892696" stop-color="#FFC909"/>
<stop offset="0.986342" stop-color="#A55007"/>
<stop offset="1" stop-color="#FEE13E"/>
</radialGradient>
<radialGradient id="paint5_radial_1014_39074" cx="0" cy="0" r="1" gradientUnits="userSpaceOnUse" gradientTransform="translate(129.989 130.174) rotate(-90) scale(130.065 129.98)">
<stop stop-color="#8F4207"/>
<stop offset="0.430258" stop-color="#904200"/>
<stop offset="0.645669" stop-color="#D28304"/>
<stop offset="0.695159" stop-color="#FEE13E"/>
<stop offset="0.761643" stop-color="#8F4207"/>
<stop offset="0.783072" stop-color="#D29804"/>
<stop offset="0.86918" stop-color="#C25200"/>
<stop offset="0.892696" stop-color="#FFC909"/>
<stop offset="0.986342" stop-color="#A55007"/>
<stop offset="1" stop-color="#FEE13E"/>
</radialGradient>
<radialGradient id="paint6_radial_1014_39074" cx="0" cy="0" r="1" gradientUnits="userSpaceOnUse" gradientTransform="translate(129.989 130.174) rotate(-90) scale(130.065 129.98)">
<stop stop-color="#8F4207"/>
<stop offset="0.430258" stop-color="#904200"/>
<stop offset="0.645669" stop-color="#D28304"/>
<stop offset="0.695159" stop-color="#FEE13E"/>
<stop offset="0.761643" stop-color="#8F4207"/>
<stop offset="0.783072" stop-color="#D29804"/>
<stop offset="0.86918" stop-color="#C25200"/>
<stop offset="0.892696" stop-color="#FFC909"/>
<stop offset="0.986342" stop-color="#A55007"/>
<stop offset="1" stop-color="#FEE13E"/>
</radialGradient>
<radialGradient id="paint7_radial_1014_39074" cx="0" cy="0" r="1" gradientUnits="userSpaceOnUse" gradientTransform="translate(129.989 130.174) rotate(-90) scale(130.065 129.98)">
<stop stop-color="#8F4207"/>
<stop offset="0.430258" stop-color="#904200"/>
<stop offset="0.645669" stop-color="#D28304"/>
<stop offset="0.695159" stop-color="#FEE13E"/>
<stop offset="0.761643" stop-color="#8F4207"/>
<stop offset="0.783072" stop-color="#D29804"/>
<stop offset="0.86918" stop-color="#C25200"/>
<stop offset="0.892696" stop-color="#FFC909"/>
<stop offset="0.986342" stop-color="#A55007"/>
<stop offset="1" stop-color="#FEE13E"/>
</radialGradient>
<radialGradient id="paint8_radial_1014_39074" cx="0" cy="0" r="1" gradientUnits="userSpaceOnUse" gradientTransform="translate(129.989 130.174) rotate(-90) scale(130.065 129.98)">
<stop stop-color="#8F4207"/>
<stop offset="0.430258" stop-color="#904200"/>
<stop offset="0.645669" stop-color="#D28304"/>
<stop offset="0.695159" stop-color="#FEE13E"/>
<stop offset="0.761643" stop-color="#8F4207"/>
<stop offset="0.783072" stop-color="#D29804"/>
<stop offset="0.86918" stop-color="#C25200"/>
<stop offset="0.892696" stop-color="#FFC909"/>
<stop offset="0.986342" stop-color="#A55007"/>
<stop offset="1" stop-color="#FEE13E"/>
</radialGradient>
<radialGradient id="paint9_radial_1014_39074" cx="0" cy="0" r="1" gradientUnits="userSpaceOnUse" gradientTransform="translate(129.989 130.174) rotate(-90) scale(130.065 129.98)">
<stop stop-color="#8F4207"/>
<stop offset="0.430258" stop-color="#904200"/>
<stop offset="0.645669" stop-color="#D28304"/>
<stop offset="0.695159" stop-color="#FEE13E"/>
<stop offset="0.761643" stop-color="#8F4207"/>
<stop offset="0.783072" stop-color="#D29804"/>
<stop offset="0.86918" stop-color="#C25200"/>
<stop offset="0.892696" stop-color="#FFC909"/>
<stop offset="0.986342" stop-color="#A55007"/>
<stop offset="1" stop-color="#FEE13E"/>
</radialGradient>
<radialGradient id="paint10_radial_1014_39074" cx="0" cy="0" r="1" gradientUnits="userSpaceOnUse" gradientTransform="translate(129.989 130.174) rotate(-90) scale(130.065 129.98)">
<stop stop-color="#8F4207"/>
<stop offset="0.430258" stop-color="#904200"/>
<stop offset="0.645669" stop-color="#D28304"/>
<stop offset="0.695159" stop-color="#FEE13E"/>
<stop offset="0.761643" stop-color="#8F4207"/>
<stop offset="0.783072" stop-color="#D29804"/>
<stop offset="0.86918" stop-color="#C25200"/>
<stop offset="0.892696" stop-color="#FFC909"/>
<stop offset="0.986342" stop-color="#A55007"/>
<stop offset="1" stop-color="#FEE13E"/>
</radialGradient>
<radialGradient id="paint11_radial_1014_39074" cx="0" cy="0" r="1" gradientUnits="userSpaceOnUse" gradientTransform="translate(129.989 130.174) rotate(-90) scale(130.065 129.98)">
<stop stop-color="#8F4207"/>
<stop offset="0.430258" stop-color="#904200"/>
<stop offset="0.645669" stop-color="#D28304"/>
<stop offset="0.695159" stop-color="#FEE13E"/>
<stop offset="0.761643" stop-color="#8F4207"/>
<stop offset="0.783072" stop-color="#D29804"/>
<stop offset="0.86918" stop-color="#C25200"/>
<stop offset="0.892696" stop-color="#FFC909"/>
<stop offset="0.986342" stop-color="#A55007"/>
<stop offset="1" stop-color="#FEE13E"/>
</radialGradient>
<radialGradient id="paint12_radial_1014_39074" cx="0" cy="0" r="1" gradientUnits="userSpaceOnUse" gradientTransform="translate(129.989 130.174) rotate(-90) scale(130.065 129.98)">
<stop stop-color="#8F4207"/>
<stop offset="0.430258" stop-color="#904200"/>
<stop offset="0.645669" stop-color="#D28304"/>
<stop offset="0.695159" stop-color="#FEE13E"/>
<stop offset="0.761643" stop-color="#8F4207"/>
<stop offset="0.783072" stop-color="#D29804"/>
<stop offset="0.86918" stop-color="#C25200"/>
<stop offset="0.892696" stop-color="#FFC909"/>
<stop offset="0.986342" stop-color="#A55007"/>
<stop offset="1" stop-color="#FEE13E"/>
</radialGradient>
<radialGradient id="paint13_radial_1014_39074" cx="0" cy="0" r="1" gradientUnits="userSpaceOnUse" gradientTransform="translate(129.989 130.174) rotate(-90) scale(130.065 129.98)">
<stop stop-color="#8F4207"/>
<stop offset="0.430258" stop-color="#904200"/>
<stop offset="0.645669" stop-color="#D28304"/>
<stop offset="0.695159" stop-color="#FEE13E"/>
<stop offset="0.761643" stop-color="#8F4207"/>
<stop offset="0.783072" stop-color="#D29804"/>
<stop offset="0.86918" stop-color="#C25200"/>
<stop offset="0.892696" stop-color="#FFC909"/>
<stop offset="0.986342" stop-color="#A55007"/>
<stop offset="1" stop-color="#FEE13E"/>
</radialGradient>
<radialGradient id="paint14_radial_1014_39074" cx="0" cy="0" r="1" gradientUnits="userSpaceOnUse" gradientTransform="translate(129.989 130.174) rotate(-90) scale(130.065 129.98)">
<stop stop-color="#8F4207"/>
<stop offset="0.430258" stop-color="#904200"/>
<stop offset="0.645669" stop-color="#D28304"/>
<stop offset="0.695159" stop-color="#FEE13E"/>
<stop offset="0.761643" stop-color="#8F4207"/>
<stop offset="0.783072" stop-color="#D29804"/>
<stop offset="0.86918" stop-color="#C25200"/>
<stop offset="0.892696" stop-color="#FFC909"/>
<stop offset="0.986342" stop-color="#A55007"/>
<stop offset="1" stop-color="#FEE13E"/>
</radialGradient>
<radialGradient id="paint15_radial_1014_39074" cx="0" cy="0" r="1" gradientUnits="userSpaceOnUse" gradientTransform="translate(129.989 130.174) rotate(-90) scale(130.065 129.98)">
<stop stop-color="#8F4207"/>
<stop offset="0.430258" stop-color="#904200"/>
<stop offset="0.645669" stop-color="#D28304"/>
<stop offset="0.695159" stop-color="#FEE13E"/>
<stop offset="0.761643" stop-color="#8F4207"/>
<stop offset="0.783072" stop-color="#D29804"/>
<stop offset="0.86918" stop-color="#C25200"/>
<stop offset="0.892696" stop-color="#FFC909"/>
<stop offset="0.986342" stop-color="#A55007"/>
<stop offset="1" stop-color="#FEE13E"/>
</radialGradient>
<radialGradient id="paint16_radial_1014_39074" cx="0" cy="0" r="1" gradientUnits="userSpaceOnUse" gradientTransform="translate(129.989 130.174) rotate(-90) scale(130.065 129.98)">
<stop stop-color="#8F4207"/>
<stop offset="0.430258" stop-color="#904200"/>
<stop offset="0.645669" stop-color="#D28304"/>
<stop offset="0.695159" stop-color="#FEE13E"/>
<stop offset="0.761643" stop-color="#8F4207"/>
<stop offset="0.783072" stop-color="#D29804"/>
<stop offset="0.86918" stop-color="#C25200"/>
<stop offset="0.892696" stop-color="#FFC909"/>
<stop offset="0.986342" stop-color="#A55007"/>
<stop offset="1" stop-color="#FEE13E"/>
</radialGradient>
<radialGradient id="paint17_radial_1014_39074" cx="0" cy="0" r="1" gradientUnits="userSpaceOnUse" gradientTransform="translate(129.989 130.174) rotate(-90) scale(130.065 129.98)">
<stop stop-color="#8F4207"/>
<stop offset="0.430258" stop-color="#904200"/>
<stop offset="0.645669" stop-color="#D28304"/>
<stop offset="0.695159" stop-color="#FEE13E"/>
<stop offset="0.761643" stop-color="#8F4207"/>
<stop offset="0.783072" stop-color="#D29804"/>
<stop offset="0.86918" stop-color="#C25200"/>
<stop offset="0.892696" stop-color="#FFC909"/>
<stop offset="0.986342" stop-color="#A55007"/>
<stop offset="1" stop-color="#FEE13E"/>
</radialGradient>
<radialGradient id="paint18_radial_1014_39074" cx="0" cy="0" r="1" gradientUnits="userSpaceOnUse" gradientTransform="translate(129.989 130.174) rotate(-90) scale(130.065 129.98)">
<stop stop-color="#8F4207"/>
<stop offset="0.430258" stop-color="#904200"/>
<stop offset="0.645669" stop-color="#D28304"/>
<stop offset="0.695159" stop-color="#FEE13E"/>
<stop offset="0.761643" stop-color="#8F4207"/>
<stop offset="0.783072" stop-color="#D29804"/>
<stop offset="0.86918" stop-color="#C25200"/>
<stop offset="0.892696" stop-color="#FFC909"/>
<stop offset="0.986342" stop-color="#A55007"/>
<stop offset="1" stop-color="#FEE13E"/>
</radialGradient>
<radialGradient id="paint19_radial_1014_39074" cx="0" cy="0" r="1" gradientUnits="userSpaceOnUse" gradientTransform="translate(129.989 130.174) rotate(-90) scale(130.065 129.98)">
<stop stop-color="#8F4207"/>
<stop offset="0.430258" stop-color="#904200"/>
<stop offset="0.645669" stop-color="#D28304"/>
<stop offset="0.695159" stop-color="#FEE13E"/>
<stop offset="0.761643" stop-color="#8F4207"/>
<stop offset="0.783072" stop-color="#D29804"/>
<stop offset="0.86918" stop-color="#C25200"/>
<stop offset="0.892696" stop-color="#FFC909"/>
<stop offset="0.986342" stop-color="#A55007"/>
<stop offset="1" stop-color="#FEE13E"/>
</radialGradient>
<radialGradient id="paint20_radial_1014_39074" cx="0" cy="0" r="1" gradientUnits="userSpaceOnUse" gradientTransform="translate(129.989 130.174) rotate(-90) scale(130.065 129.98)">
<stop stop-color="#8F4207"/>
<stop offset="0.430258" stop-color="#904200"/>
<stop offset="0.645669" stop-color="#D28304"/>
<stop offset="0.695159" stop-color="#FEE13E"/>
<stop offset="0.761643" stop-color="#8F4207"/>
<stop offset="0.783072" stop-color="#D29804"/>
<stop offset="0.86918" stop-color="#C25200"/>
<stop offset="0.892696" stop-color="#FFC909"/>
<stop offset="0.986342" stop-color="#A55007"/>
<stop offset="1" stop-color="#FEE13E"/>
</radialGradient>
<radialGradient id="paint21_radial_1014_39074" cx="0" cy="0" r="1" gradientUnits="userSpaceOnUse" gradientTransform="translate(129.989 130.174) rotate(-90) scale(130.065 129.98)">
<stop stop-color="#8F4207"/>
<stop offset="0.430258" stop-color="#904200"/>
<stop offset="0.645669" stop-color="#D28304"/>
<stop offset="0.695159" stop-color="#FEE13E"/>
<stop offset="0.761643" stop-color="#8F4207"/>
<stop offset="0.783072" stop-color="#D29804"/>
<stop offset="0.86918" stop-color="#C25200"/>
<stop offset="0.892696" stop-color="#FFC909"/>
<stop offset="0.986342" stop-color="#A55007"/>
<stop offset="1" stop-color="#FEE13E"/>
</radialGradient>
<radialGradient id="paint22_radial_1014_39074" cx="0" cy="0" r="1" gradientUnits="userSpaceOnUse" gradientTransform="translate(129.989 130.174) rotate(-90) scale(130.065 129.98)">
<stop stop-color="#8F4207"/>
<stop offset="0.430258" stop-color="#904200"/>
<stop offset="0.645669" stop-color="#D28304"/>
<stop offset="0.695159" stop-color="#FEE13E"/>
<stop offset="0.761643" stop-color="#8F4207"/>
<stop offset="0.783072" stop-color="#D29804"/>
<stop offset="0.86918" stop-color="#C25200"/>
<stop offset="0.892696" stop-color="#FFC909"/>
<stop offset="0.986342" stop-color="#A55007"/>
<stop offset="1" stop-color="#FEE13E"/>
</radialGradient>
<radialGradient id="paint23_radial_1014_39074" cx="0" cy="0" r="1" gradientUnits="userSpaceOnUse" gradientTransform="translate(129.989 130.174) rotate(-90) scale(130.065 129.98)">
<stop stop-color="#8F4207"/>
<stop offset="0.430258" stop-color="#904200"/>
<stop offset="0.645669" stop-color="#D28304"/>
<stop offset="0.695159" stop-color="#FEE13E"/>
<stop offset="0.761643" stop-color="#8F4207"/>
<stop offset="0.783072" stop-color="#D29804"/>
<stop offset="0.86918" stop-color="#C25200"/>
<stop offset="0.892696" stop-color="#FFC909"/>
<stop offset="0.986342" stop-color="#A55007"/>
<stop offset="1" stop-color="#FEE13E"/>
</radialGradient>
<radialGradient id="paint24_radial_1014_39074" cx="0" cy="0" r="1" gradientUnits="userSpaceOnUse" gradientTransform="translate(129.989 130.174) rotate(-90) scale(130.065 129.98)">
<stop stop-color="#8F4207"/>
<stop offset="0.430258" stop-color="#904200"/>
<stop offset="0.645669" stop-color="#D28304"/>
<stop offset="0.695159" stop-color="#FEE13E"/>
<stop offset="0.761643" stop-color="#8F4207"/>
<stop offset="0.783072" stop-color="#D29804"/>
<stop offset="0.86918" stop-color="#C25200"/>
<stop offset="0.892696" stop-color="#FFC909"/>
<stop offset="0.986342" stop-color="#A55007"/>
<stop offset="1" stop-color="#FEE13E"/>
</radialGradient>
<radialGradient id="paint25_radial_1014_39074" cx="0" cy="0" r="1" gradientUnits="userSpaceOnUse" gradientTransform="translate(129.989 130.174) rotate(-90) scale(130.065 129.98)">
<stop stop-color="#8F4207"/>
<stop offset="0.430258" stop-color="#904200"/>
<stop offset="0.645669" stop-color="#D28304"/>
<stop offset="0.695159" stop-color="#FEE13E"/>
<stop offset="0.761643" stop-color="#8F4207"/>
<stop offset="0.783072" stop-color="#D29804"/>
<stop offset="0.86918" stop-color="#C25200"/>
<stop offset="0.892696" stop-color="#FFC909"/>
<stop offset="0.986342" stop-color="#A55007"/>
<stop offset="1" stop-color="#FEE13E"/>
</radialGradient>
<radialGradient id="paint26_radial_1014_39074" cx="0" cy="0" r="1" gradientUnits="userSpaceOnUse" gradientTransform="translate(129.989 130.174) rotate(-90) scale(130.065 129.98)">
<stop stop-color="#8F4207"/>
<stop offset="0.430258" stop-color="#904200"/>
<stop offset="0.645669" stop-color="#D28304"/>
<stop offset="0.695159" stop-color="#FEE13E"/>
<stop offset="0.761643" stop-color="#8F4207"/>
<stop offset="0.783072" stop-color="#D29804"/>
<stop offset="0.86918" stop-color="#C25200"/>
<stop offset="0.892696" stop-color="#FFC909"/>
<stop offset="0.986342" stop-color="#A55007"/>
<stop offset="1" stop-color="#FEE13E"/>
</radialGradient>
<linearGradient id="paint27_linear_1014_39074" x1="98.7729" y1="55.4123" x2="144.84" y2="192.028" gradientUnits="userSpaceOnUse">
<stop stop-color="#FFFFF7"/>
<stop offset="1" stop-color="#FFD850"/>
</linearGradient>
<linearGradient id="paint28_linear_1014_39074" x1="310" y1="116" x2="431.918" y2="158.392" gradientUnits="userSpaceOnUse">
<stop stop-color="#C42FED"/>
<stop offset="0.99971" stop-color="#639EFF"/>
</linearGradient>
<linearGradient id="paint29_linear_1014_39074" x1="310" y1="116" x2="431.918" y2="158.392" gradientUnits="userSpaceOnUse">
<stop stop-color="#C42FED"/>
<stop offset="0.99971" stop-color="#639EFF"/>
</linearGradient>
<linearGradient id="paint30_linear_1014_39074" x1="310" y1="116" x2="431.918" y2="158.392" gradientUnits="userSpaceOnUse">
<stop stop-color="#C42FED"/>
<stop offset="0.99971" stop-color="#639EFF"/>
</linearGradient>
<linearGradient id="paint31_linear_1014_39074" x1="310" y1="208" x2="449.585" y2="328.566" gradientUnits="userSpaceOnUse">
<stop stop-color="#C42FED"/>
<stop offset="0.99971" stop-color="#639EFF"/>
</linearGradient>
<linearGradient id="paint32_linear_1014_39074" x1="310" y1="208" x2="449.585" y2="328.566" gradientUnits="userSpaceOnUse">
<stop stop-color="#C42FED"/>
<stop offset="0.99971" stop-color="#639EFF"/>
</linearGradient>
<linearGradient id="paint33_linear_1014_39074" x1="310" y1="208" x2="449.585" y2="328.566" gradientUnits="userSpaceOnUse">
<stop stop-color="#C42FED"/>
<stop offset="0.99971" stop-color="#639EFF"/>
</linearGradient>
<linearGradient id="paint34_linear_1014_39074" x1="310" y1="208" x2="449.585" y2="328.566" gradientUnits="userSpaceOnUse">
<stop stop-color="#C42FED"/>
<stop offset="0.99971" stop-color="#639EFF"/>
</linearGradient>
<linearGradient id="paint35_linear_1014_39074" x1="310" y1="208" x2="449.585" y2="328.566" gradientUnits="userSpaceOnUse">
<stop stop-color="#C42FED"/>
<stop offset="0.99971" stop-color="#639EFF"/>
</linearGradient>
<linearGradient id="paint36_linear_1014_39074" x1="310" y1="208" x2="449.585" y2="328.566" gradientUnits="userSpaceOnUse">
<stop stop-color="#C42FED"/>
<stop offset="0.99971" stop-color="#639EFF"/>
</linearGradient>
<linearGradient id="paint37_linear_1014_39074" x1="310" y1="208" x2="449.585" y2="328.566" gradientUnits="userSpaceOnUse">
<stop stop-color="#C42FED"/>
<stop offset="0.99971" stop-color="#639EFF"/>
</linearGradient>
</defs>
</svg>
