<svg width="245" height="245" viewBox="0 0 245 245" fill="none" xmlns="http://www.w3.org/2000/svg">
<g filter="url(#filter0_b)">
<rect width="245" height="245" rx="122.5" fill="white" fill-opacity="0.05"/>
<g clip-path="url(#clip0)">
<path d="M176.831 152.852C172.049 148.07 165.05 146.461 158.711 148.6L149.383 139.272C150.982 136.615 152.173 133.76 152.934 130.761H154.996C156.974 130.761 158.585 129.151 158.585 127.172V118.666C158.585 116.687 156.974 115.077 154.996 115.077H152.934C152.185 112.124 151.016 109.306 149.451 106.679L150.912 105.218C151.963 104.167 152.224 102.62 151.696 101.323L156.24 96.7788C156.928 96.0906 156.928 94.9747 156.24 94.2867C155.551 93.5985 154.436 93.5985 153.748 94.2867L149.402 98.6325L146.923 96.154L165.472 77.6052C165.664 77.4137 165.808 77.1806 165.895 76.9243L166.899 73.9601C166.917 73.9067 166.947 73.8574 166.987 73.8177L172.612 68.1929L177.363 72.9441L171.739 78.5679C171.699 78.6081 171.649 78.6389 171.596 78.657L168.632 79.6603C168.375 79.7472 168.143 79.892 167.951 80.0835L159.059 88.9758C158.37 89.6641 158.37 90.78 159.059 91.468C159.747 92.1562 160.863 92.1562 161.551 91.468L170.152 82.8668L172.726 81.9955C173.29 81.8047 173.81 81.4814 174.231 81.0605L179.976 75.3159C180.609 74.6824 180.958 73.8402 180.958 72.9443C180.958 72.0483 180.609 71.2062 179.976 70.5727L174.983 65.58C173.676 64.2726 171.548 64.2726 170.24 65.58L164.495 71.3249C164.074 71.7459 163.751 72.2662 163.56 72.8296L162.689 75.4038L144.387 93.7054C143.795 93.2975 143.095 93.0766 142.36 93.0766C141.401 93.0766 140.5 93.45 139.822 94.1279L138.361 95.5889C135.734 94.0242 132.917 92.8557 129.964 92.1064V90.0445C129.964 88.0653 128.354 86.4553 126.374 86.4553H117.868C115.889 86.4553 114.279 88.0653 114.279 90.0445V92.1064C111.28 92.867 108.425 94.0583 105.768 95.6573L96.3993 86.2887C97.3128 83.5698 97.5511 80.6613 97.0868 77.8057C96.9305 76.8449 96.0245 76.1928 95.0644 76.3491C94.1038 76.5053 93.4515 77.4109 93.6078 78.3715C94.0317 80.9766 93.7257 83.6354 92.7236 86.0607C92.4515 86.7191 92.6023 87.4762 93.1061 87.98L121.61 116.483L115.252 122.841L86.6342 94.2225C86.1427 93.731 85.4081 93.5745 84.7587 93.8226C79.6367 95.7816 73.7953 94.6161 69.8778 90.8535C66.2266 87.3468 64.7624 82.2328 65.9075 77.4041L73.881 85.3777C74.6703 86.1672 75.8238 86.4534 76.8908 86.1242L81.6711 84.649C82.6209 84.3563 83.3629 83.6144 83.6559 82.6644L85.1311 77.8839C85.4603 76.8169 85.1746 75.6636 84.3848 74.8741L76.4119 66.9015C81.1349 65.7882 86.1662 67.1722 89.6555 70.6615C90.1377 71.1437 90.5921 71.67 91.0061 72.2253C91.5877 73.0056 92.6916 73.1666 93.4724 72.5853C94.2528 72.0037 94.414 70.8996 93.8324 70.119C93.3171 69.4274 92.7504 68.7714 92.1481 68.1692C87.2191 63.2399 79.8273 61.6724 73.3162 64.1767C72.5821 64.4592 72.0461 65.0877 71.8826 65.8587C71.7184 66.632 71.9538 67.4271 72.5126 67.9859L81.6709 77.1442L80.3694 81.362L76.1516 82.6637L66.9928 73.5052C66.434 72.9466 65.6389 72.711 64.8656 72.8752C64.0951 73.0388 63.4666 73.5745 63.1841 74.3083C60.6241 80.9639 62.2931 88.4561 67.436 93.3957C72.0548 97.832 78.8054 99.383 84.9206 97.4936L94.5385 107.112C93.1002 109.614 92.0168 112.285 91.3083 115.077H89.2464C87.2675 115.077 85.6574 116.687 85.6574 118.666V127.172C85.6574 129.151 87.2675 130.761 89.2464 130.761H91.3083C92.017 133.555 93.1019 136.227 94.5413 138.731L82.7299 149.397C82.0076 150.05 81.951 151.164 82.6033 151.886C83.2553 152.609 84.3698 152.665 85.0923 152.013L105.872 133.248C106.147 132.999 106.57 133.009 106.833 133.272L112.189 138.629C112.452 138.892 112.463 139.314 112.214 139.59L82.2038 172.82C80.9695 174.187 79.2756 174.966 77.4341 175.013C75.5985 175.06 73.8613 174.368 72.5593 173.066L72.396 172.903C71.0936 171.6 70.402 169.869 70.449 168.027C70.4958 166.186 71.2745 164.492 72.6416 163.258L79.5115 157.053C80.2338 156.401 80.2904 155.287 79.6384 154.564C78.9858 153.842 77.8716 153.785 77.1493 154.437L70.2794 160.642C68.1886 162.53 66.9975 165.121 66.9258 167.937C66.8542 170.754 67.9118 173.402 69.9037 175.394L70.067 175.558C71.9959 177.487 74.5394 178.539 77.2557 178.539C77.345 178.539 77.4346 178.538 77.5243 178.536C80.3409 178.464 82.932 177.273 84.82 175.182L106.848 150.791C109.203 152.086 111.693 153.074 114.279 153.731V155.793C114.279 157.772 115.89 159.382 117.869 159.382H126.375C128.354 159.382 129.964 157.772 129.964 155.793V153.731C132.756 153.023 135.427 151.939 137.929 150.501L147.507 160.079C145.618 166.194 147.169 172.945 151.605 177.564C155.007 181.106 159.619 183 164.335 183C166.467 183 168.621 182.612 170.693 181.815C171.426 181.533 171.962 180.905 172.126 180.134C172.29 179.361 172.054 178.565 171.496 178.007L162.337 168.848L163.639 164.63L167.857 163.329L177.015 172.487C177.573 173.046 178.369 173.281 179.142 173.117C179.913 172.954 180.542 172.418 180.824 171.683C183.327 165.173 181.76 157.781 176.831 152.852ZM115.845 95.3544C116.998 95.0929 117.803 94.0879 117.803 92.9102V90.0443C117.803 90.0088 117.833 89.9796 117.868 89.9796H126.374C126.41 89.9796 126.439 90.0088 126.439 90.0443V92.9102C126.439 94.0879 127.244 95.0929 128.397 95.3544C131.509 96.0598 134.461 97.284 137.171 98.9935C138.171 99.6241 139.451 99.4827 140.284 98.6499L142.314 96.62C142.32 96.6139 142.333 96.6012 142.359 96.6012C142.386 96.6012 142.399 96.6139 142.405 96.6202L148.42 102.635C148.445 102.66 148.445 102.701 148.42 102.726L146.39 104.756C145.557 105.589 145.416 106.869 146.046 107.869C147.756 110.58 148.98 113.532 149.685 116.643C149.947 117.796 150.952 118.602 152.13 118.602H154.996C155.031 118.602 155.06 118.631 155.06 118.666V127.172C155.06 127.208 155.031 127.237 154.996 127.237H152.13C150.952 127.237 149.947 128.042 149.685 129.195C149.089 131.828 148.115 134.338 146.799 136.689L142.16 132.05C143.459 129.197 144.142 126.066 144.142 122.919C144.142 110.777 134.263 100.899 122.121 100.899C118.974 100.899 115.844 101.581 112.991 102.88L108.351 98.2411C110.702 96.924 113.213 95.9513 115.845 95.3544ZM140.617 122.919C140.617 125.115 140.22 127.3 139.461 129.35L131.565 121.454L138.56 114.458C139.872 116.996 140.617 119.871 140.617 122.919ZM115.69 105.579C117.74 104.82 119.925 104.423 122.121 104.423C125.44 104.423 128.554 105.306 131.25 106.843L124.102 113.991L115.69 105.579ZM94.5538 129.181C94.2946 128.036 93.2908 127.236 92.1126 127.236H89.2467C89.2112 127.236 89.1823 127.207 89.1823 127.172V118.666C89.1823 118.63 89.2112 118.601 89.2467 118.601H92.1126C93.291 118.601 94.2948 117.801 94.5538 116.656C95.1027 114.23 95.9754 111.905 97.1399 109.713L101.816 114.389C100.677 117.089 100.101 119.953 100.101 122.919C100.101 126.032 100.769 129.129 102.041 131.957L97.2294 136.303C96.0186 134.058 95.1172 131.672 94.5538 129.181ZM104.947 129.78C104.08 127.607 103.625 125.269 103.625 122.919C103.625 120.923 103.937 118.983 104.552 117.125L112.76 125.333L108.141 129.951C107.139 129.477 105.989 129.416 104.947 129.78ZM110.811 132.266L134.172 108.905C135.059 109.669 135.873 110.515 136.602 111.432L113.289 134.745L110.811 132.266ZM115.571 137.447L120.223 132.796L127.915 140.488C126.057 141.103 124.118 141.415 122.121 141.415C119.918 141.415 117.784 141.034 115.753 140.285C116.02 139.35 115.96 138.345 115.571 137.447ZM128.384 150.486C127.239 150.745 126.439 151.749 126.439 152.927V155.793C126.439 155.829 126.41 155.858 126.374 155.858H117.868C117.833 155.858 117.803 155.829 117.803 155.793V152.927C117.803 151.749 117.004 150.745 115.858 150.486C113.578 149.97 111.377 149.162 109.287 148.09L113.657 143.25C116.338 144.371 119.179 144.939 122.121 144.939C125.088 144.939 127.951 144.362 130.651 143.223L135.332 147.905C133.138 149.069 130.81 149.937 128.384 150.486ZM178.099 168.588L170.126 160.615C169.337 159.826 168.183 159.539 167.117 159.869L162.336 161.344C161.386 161.637 160.645 162.379 160.352 163.328L158.876 168.109C158.547 169.176 158.833 170.329 159.623 171.119L167.596 179.093C162.767 180.238 157.654 178.774 154.147 175.122C150.384 171.205 149.219 165.364 151.178 160.241C151.426 159.592 151.269 158.857 150.778 158.366L122.715 130.303L129.073 123.946L157.021 151.894C157.524 152.398 158.282 152.549 158.94 152.277C164.241 150.086 170.285 151.29 174.339 155.344C177.828 158.834 179.212 163.866 178.099 168.588Z" fill="url(#paint0_linear)"/>
</g>
<rect x="0.5" y="0.5" width="244" height="244" rx="122" stroke="white" stroke-opacity="0.16"/>
</g>
<defs>
<filter id="filter0_b" x="-100" y="-100" width="445" height="445" filterUnits="userSpaceOnUse" color-interpolation-filters="sRGB">
<feFlood flood-opacity="0" result="BackgroundImageFix"/>
<feGaussianBlur in="BackgroundImage" stdDeviation="50"/>
<feComposite in2="SourceAlpha" operator="in" result="effect1_backgroundBlur"/>
<feBlend mode="normal" in="SourceGraphic" in2="effect1_backgroundBlur" result="shape"/>
</filter>
<linearGradient id="paint0_linear" x1="62" y1="183" x2="163.426" y2="200.521" gradientUnits="userSpaceOnUse">
<stop stop-color="#C42FED"/>
<stop offset="0.99971" stop-color="#639EFF"/>
</linearGradient>
<clipPath id="clip0">
<rect width="120" height="120" fill="white" transform="translate(62 63)"/>
</clipPath>
</defs>
</svg>
