<svg xmlns="http://www.w3.org/2000/svg" width="39" height="46"><defs><linearGradient id="a" x1=".47" x2="37.18" y1="1.34" y2="49.17" gradientUnits="userSpaceOnUse"><stop offset="0" stop-color="#ffc600"/><stop offset="1" stop-color="#ff7900"/></linearGradient><linearGradient id="b" x1="13.98" x2="29.53" y1="14.53" y2="33.66" gradientUnits="userSpaceOnUse"><stop offset="0" stop-color="#ff7900"/><stop offset="1" stop-color="#ffc600"/></linearGradient></defs><path fill="url(#a)" d="M21.854 38.915c-2-.139-3.953-.654-5.754-1.519l-2.257 3.843a20.373 20.373 0 008.011 2.107zM4.902 32.447l3.909-2.218a15.168 15.168 0 01-1.545-5.657H2.76c.15 2.742.88 5.425 2.142 7.875zM2.76 22.357h4.506a15.163 15.163 0 011.546-5.658l-3.91-2.219a19.515 19.515 0 00-2.142 7.876zM29.861 9.53l2.257-3.842a20.368 20.368 0 00-8.01-2.107v4.43a15.85 15.85 0 015.753 1.52zm-8.007-5.95c-2.79.148-5.519.866-8.01 2.108L16.1 9.53a15.836 15.836 0 015.754-1.519zM37.15 16.7l.006.012-1.924 1.126c-2.155-4.528-6.83-7.666-12.251-7.666-7.466 0-13.519 5.952-13.519 13.293 0 7.341 6.053 13.292 13.519 13.292.393 0 .782-.017 1.167-.05l-.006 2.207-.035.002v4.431l.023-.001-.005 2.245c-.38.018-.76.028-1.144.028C10.537 45.618.45 35.698.45 23.464.45 11.229 10.537 1.31 22.98 1.31c8.71.01 16.262 4.872 20.013 11.986l-4.942 2.891zm-3.08-9.91l-2.252 3.836a15.775 15.775 0 014.217 4.146l3.901-2.214a20.258 20.258 0 00-5.865-5.768zM6.026 12.56l3.902 2.214a15.767 15.767 0 014.216-4.146l-2.252-3.836a20.256 20.256 0 00-5.866 5.768zm0 21.81a20.256 20.256 0 005.866 5.767l2.252-3.835a15.769 15.769 0 01-4.217-4.147z" transform="rotate(-19 19.5 23)"/><path fill="url(#b)" d="M22.982 24.49a1.117 1.117 0 01-1.126-1.109c0-.611.504-1.107 1.126-1.107.622 0 1.127.496 1.127 1.107a1.12 1.12 0 01-1.127 1.108zm4.853-2.216h-1.68a3.347 3.347 0 00-2.046-2.012V18.61a2.18 2.18 0 001.126-1.875c0-1.223-1.008-2.215-2.253-2.215-1.244 0-2.253.992-2.253 2.215a2.18 2.18 0 001.127 1.875v1.652a3.347 3.347 0 00-2.046 2.012h-1.68a2.229 2.229 0 00-1.907-1.108c-1.244 0-2.253.992-2.253 2.215 0 1.224 1.009 2.216 2.253 2.216a2.229 2.229 0 001.907-1.108h1.68a3.347 3.347 0 002.046 2.012v1.652a2.181 2.181 0 00-1.127 1.875c0 1.223 1.009 2.215 2.253 2.215 1.245 0 2.253-.992 2.253-2.215a2.18 2.18 0 00-1.126-1.875V26.5a3.347 3.347 0 002.045-2.012h1.68a2.229 2.229 0 001.907 1.108c1.245 0 2.253-.992 2.253-2.216 0-1.223-1.008-2.215-2.253-2.215a2.228 2.228 0 00-1.906 1.108z" transform="translate(-.136 -1.035)"/></svg>