<svg width="40" height="40" viewBox="0 0 40 40" fill="none" xmlns="http://www.w3.org/2000/svg">
<path fill-rule="evenodd" clip-rule="evenodd" d="M38.8281 2.88698H33.6951C33.7137 2.31844 33.7241 1.74653 33.7241 1.17188C33.7241 0.524601 33.1992 0 32.5522 0H7.44781C6.80084 0 6.27594 0.524601 6.27594 1.17188C6.27594 1.74653 6.28632 2.31844 6.30493 2.88698H1.17188C0.524597 2.88698 0 3.41159 0 4.05887C0 9.30976 1.37238 14.2637 3.86414 18.0086C6.32721 21.7107 9.60815 23.8341 13.1525 24.0407C13.956 24.915 14.8053 25.6279 15.69 26.1718V31.3802H13.7241C11.3474 31.3802 9.41406 33.3139 9.41406 35.6903V37.6562H9.33075C8.68347 37.6562 8.15887 38.1811 8.15887 38.8281C8.15887 39.4754 8.68347 40 9.33075 40H30.6693C31.3165 40 31.8411 39.4754 31.8411 38.8281C31.8411 38.1811 31.3165 37.6562 30.6693 37.6562H30.5859V35.6903C30.5859 33.3139 28.6526 31.3802 26.2759 31.3802H24.31V26.1718C25.1947 25.6282 26.0443 24.915 26.8478 24.0407C30.3918 23.8341 33.6728 21.7107 36.1362 18.0086C38.6279 14.2637 40 9.30976 40 4.05887C40 3.41159 39.4754 2.88698 38.8281 2.88698ZM5.81543 16.7103C3.76007 13.6216 2.55249 9.58167 2.36847 5.23074H6.43585C6.85852 10.5793 8.11401 15.5232 10.0763 19.4475C10.3888 20.0725 10.7156 20.663 11.0547 21.219C9.10553 20.4829 7.30164 18.9442 5.81543 16.7103ZM28.2422 35.6903V37.6565H11.7578V35.6903C11.7578 34.6063 12.6398 33.724 13.7241 33.724H26.2759C27.3602 33.724 28.2422 34.6063 28.2422 35.6903ZM21.9662 31.3803H18.0338V27.1902C18.678 27.3598 19.3344 27.448 20 27.448C20.6656 27.448 21.322 27.3598 21.9662 27.1902V31.3803ZM22.692 24.4021C22.6392 24.4237 22.5885 24.45 22.54 24.479C21.7117 24.891 20.8606 25.1043 20 25.1043C19.1397 25.1043 18.2889 24.891 17.4609 24.4796C17.4118 24.45 17.3608 24.4237 17.3074 24.4014C16.3885 23.9156 15.4996 23.182 14.6588 22.2179C14.6146 22.1547 14.5648 22.0964 14.5096 22.0433C13.6749 21.0524 12.8897 19.8335 12.1725 18.3992C10.0189 14.0922 8.77502 8.42903 8.63342 2.34378H31.3666C31.2247 8.42903 29.9808 14.0925 27.8275 18.3992C27.1103 19.8335 26.3251 21.0524 25.4907 22.0433C25.4352 22.0964 25.3848 22.155 25.3409 22.2182C24.5001 23.1826 23.6108 23.9159 22.692 24.4021ZM34.1846 16.7103C32.6984 18.9442 30.8945 20.4829 28.9453 21.219C29.2844 20.663 29.6112 20.0725 29.9237 19.4475C31.886 15.5232 33.1412 10.5793 33.5641 5.23074H37.6315C37.4475 9.58167 36.2399 13.6216 34.1846 16.7103Z" fill="url(#paint0_linear)"/>
<defs>
<linearGradient id="paint0_linear" x1="2.17819e-07" y1="40" x2="33.8086" y2="45.8404" gradientUnits="userSpaceOnUse">
<stop stop-color="#C42FED"/>
<stop offset="0.99971" stop-color="#639EFF"/>
</linearGradient>
</defs>
</svg>
