<svg xmlns="http://www.w3.org/2000/svg" width="96" height="89"><defs><linearGradient id="a" x1=".06" x2="82.9" y1=".05" y2="95.18" gradientUnits="userSpaceOnUse"><stop offset="0" stop-color="#ffc600"/><stop offset="1" stop-color="#ff7900"/></linearGradient></defs><path fill="url(#a)" d="M68.06 35.636c-4.202 0-7.62-3.418-7.62-7.62v-8.562a2.812 2.812 0 115.625 0v8.563c0 1.099.894 1.994 1.995 1.994h5.75V19.454a2.812 2.812 0 115.625 0v26.74a2.812 2.812 0 11-5.625 0V35.635zm-45.375 0c-4.202 0-7.62-3.418-7.62-7.62v-8.562a2.812 2.812 0 115.625 0v8.563c0 1.099.894 1.994 1.995 1.994h5.75V19.454a2.812 2.812 0 115.625 0v26.74a2.812 2.812 0 11-5.625 0V35.635zM48 49.006c-5.237 0-9.497-4.26-9.497-9.498v-13.37c0-5.236 4.26-9.497 9.497-9.497s9.497 4.26 9.497 9.498v13.37c0 5.236-4.26 9.497-9.497 9.497zm-3.872-9.498A3.877 3.877 0 0048 43.381a3.877 3.877 0 003.872-3.873v-13.37A3.877 3.877 0 0048 22.267a3.876 3.876 0 00-3.872 3.873zM96 8.832v59.211c0 4.87-3.962 8.832-8.832 8.832H50.812V82.5h18.126a2.812 2.812 0 110 5.625H27.062a2.812 2.812 0 110-5.625h18.125v-5.625H8.833C3.962 76.875 0 72.913 0 68.043V8.832C0 3.962 3.962 0 8.832 0h78.336C92.038 0 96 3.962 96 8.832zm-90.375 0V59.98h84.75V8.831a3.21 3.21 0 00-3.207-3.206H8.832a3.21 3.21 0 00-3.207 3.207zm84.75 59.211v-2.437H5.625v2.437a3.21 3.21 0 003.207 3.207h78.336a3.21 3.21 0 003.207-3.207z"/></svg>