<svg xmlns="http://www.w3.org/2000/svg" xmlns:xlink="http://www.w3.org/1999/xlink" width="24px" height="16px" version="1.1">
<g id="surface1">
<rect x="0" y="0" width="24" height="16" style="fill:rgb(89.019608%,3.921569%,9.019608%);fill-opacity:1;stroke:none;"/>
<path style=" stroke:none;fill-rule:evenodd;fill:rgb(100%,100%,100%);fill-opacity:1;" d="M 15.261719 8.25 C 15.261719 10.457031 13.214844 12.246094 10.6875 12.246094 C 8.160156 12.246094 6.113281 10.457031 6.113281 8.246094 C 6.113281 6.035156 8.160156 4.253906 10.6875 4.253906 C 13.214844 4.253906 15.261719 6.042969 15.261719 8.25 Z M 15.261719 8.25 "/>
<path style=" stroke:none;fill-rule:evenodd;fill:rgb(89.019608%,3.921569%,9.019608%);fill-opacity:1;" d="M 15.488281 8.25 C 15.488281 10.015625 13.851562 11.445312 11.832031 11.445312 C 9.808594 11.445312 8.171875 10.011719 8.171875 8.246094 C 8.171875 6.480469 9.808594 5.054688 11.832031 5.054688 C 13.851562 5.054688 15.492188 6.484375 15.492188 8.25 Z M 15.488281 8.25 "/>
<path style=" stroke:none;fill-rule:evenodd;fill:rgb(100%,100%,100%);fill-opacity:1;" d="M 16.152344 6.382812 L 16.113281 7.859375 L 14.566406 8.234375 L 16.09375 8.714844 L 16.058594 10.074219 L 17.050781 9.011719 L 18.558594 9.480469 L 17.6875 8.34375 L 18.75 7.214844 L 17.117188 7.613281 L 16.152344 6.378906 Z M 16.152344 6.382812 "/>
</g>
</svg>
