<svg xmlns="http://www.w3.org/2000/svg" width="24" height="16"><path fill="#41479b" d="M23.586 15.864H.414A.414.414 0 010 15.45V.554C0 .325.185.14.414.14h23.172c.229 0 .414.185.414.414V15.45a.414.414 0 01-.414.414z"/><path fill="#f5f5f5" d="M24 .554a.414.414 0 00-.414-.414h-1.851l-7.666 5.022V.14H9.93v5.022L2.265.14H.414A.414.414 0 000 .554v1.07l6.577 4.31H0v4.137h6.577L0 14.381v1.07c0 .228.185.413.414.413h1.851l7.666-5.022v5.022h4.138v-5.022l7.666 5.022h1.851A.414.414 0 0024 15.45v-1.07l-6.577-4.309H24V5.933h-6.577L24 1.624z"/><path fill="#ff4b55" d="M24 6.76H13.24V.14h-2.48v6.62H0v2.483h10.759v6.621h2.482v-6.62H24z"/><path fill="#ff4b55" d="M8.386 10.07L.01 15.507c.03.2.194.356.402.356h.57l8.924-5.793h-1.52zm7.854 0h-1.52l8.912 5.785a.41.41 0 00.371-.406v-.34zM0 1.01l7.583 4.923h1.52L.241.18A.412.412 0 000 .553zm15.59 4.923l8.397-5.45a.408.408 0 00-.4-.343h-.593L14.07 5.933z"/></svg>