<svg xmlns="http://www.w3.org/2000/svg" xmlns:xlink="http://www.w3.org/1999/xlink" width="24px" height="16px" version="1.1">
<g id="surface1">
<rect x="0" y="0" width="24" height="16" style="fill:rgb(80%,0%,0%);fill-opacity:1;stroke:none;"/>
<path style=" stroke:none;fill-rule:nonzero;fill:rgb(100%,100%,100%);fill-opacity:1;" d="M 0.0195312 1.328125 L 23.980469 1.328125 L 23.980469 2.609375 L 0.0195312 2.609375 Z M 0.0195312 3.953125 L 23.980469 3.953125 L 23.980469 5.234375 L 0.0195312 5.234375 Z M 0.0195312 6.578125 L 23.980469 6.578125 L 23.980469 7.859375 L 0.0195312 7.859375 Z M 0.0195312 6.578125 "/>
<path style=" stroke:none;fill-rule:nonzero;fill:rgb(0%,0%,40%);fill-opacity:1;" d="M 0 0.015625 L 12 0.015625 L 12 9.351562 L 0 9.351562 Z M 0 0.015625 "/>
<path style=" stroke:none;fill-rule:nonzero;fill:rgb(100%,80%,0%);fill-opacity:1;" d="M 7.78125 2.460938 L 8.007812 3.816406 L 8.867188 2.683594 L 8.402344 3.988281 L 9.734375 3.296875 L 8.679688 4.296875 L 10.21875 4.191406 L 8.78125 4.683594 L 10.21875 5.175781 L 8.679688 5.070312 L 9.734375 6.070312 L 8.402344 5.375 L 8.863281 6.6875 L 8.003906 5.550781 L 7.777344 6.90625 L 7.554688 5.550781 L 6.695312 6.683594 L 7.160156 5.375 L 5.828125 6.070312 L 6.878906 5.070312 L 5.339844 5.175781 L 6.78125 4.683594 L 5.34375 4.191406 L 6.882812 4.296875 L 5.828125 3.296875 L 7.160156 3.988281 L 6.695312 2.679688 L 7.554688 3.816406 Z M 6.53125 2.515625 C 5.414062 2.074219 4.101562 2.367188 3.351562 3.226562 C 2.597656 4.082031 2.597656 5.285156 3.351562 6.140625 C 4.101562 7 5.414062 7.289062 6.53125 6.851562 C 5.289062 7.644531 3.574219 7.476562 2.550781 6.464844 C 1.527344 5.449219 1.527344 3.914062 2.550781 2.902344 C 3.574219 1.890625 5.289062 1.722656 6.53125 2.515625 Z M 6.53125 2.515625 "/>
<path style=" stroke:none;fill-rule:nonzero;fill:rgb(100%,100%,100%);fill-opacity:1;" d="M 0.0195312 9.207031 L 23.980469 9.207031 L 23.980469 10.488281 L 0.0195312 10.488281 Z M 0.0195312 11.8125 L 23.980469 11.8125 L 23.980469 13.09375 L 0.0195312 13.09375 Z M 0 14.71875 L 23.960938 14.71875 L 23.960938 16 L 0 16 Z M 0 14.71875 "/>
</g>
</svg>
