<svg xmlns="http://www.w3.org/2000/svg" xmlns:xlink="http://www.w3.org/1999/xlink" width="24px" height="16px" version="1.1">
<g id="surface1">
<path style=" stroke:none;fill-rule:nonzero;fill:rgb(100%,60%,20%);fill-opacity:1;" d="M 0 0 L 24 0 L 24 5.332031 L 0 5.332031 Z M 0 0 "/>
<path style=" stroke:none;fill-rule:nonzero;fill:rgb(100%,100%,100%);fill-opacity:1;" d="M 0 5.332031 L 24 5.332031 L 24 10.667969 L 0 10.667969 Z M 0 5.332031 "/>
<path style=" stroke:none;fill-rule:nonzero;fill:rgb(7.058824%,53.333333%,2.745098%);fill-opacity:1;" d="M 0 10.667969 L 24 10.667969 L 24 16 L 0 16 Z M 0 10.667969 "/>
<path style=" stroke:none;fill-rule:nonzero;fill:rgb(0%,0%,53.333333%);fill-opacity:1;" d="M 14.398438 8 C 14.398438 9.179688 13.324219 10.132812 12 10.132812 C 10.675781 10.132812 9.601562 9.179688 9.601562 8 C 9.601562 6.820312 10.675781 5.867188 12 5.867188 C 13.324219 5.867188 14.398438 6.820312 14.398438 8 Z M 14.398438 8 "/>
<path style=" stroke:none;fill-rule:nonzero;fill:rgb(100%,100%,100%);fill-opacity:1;" d="M 14.101562 8 C 14.101562 9.03125 13.160156 9.867188 12 9.867188 C 10.839844 9.867188 9.898438 9.03125 9.898438 8 C 9.898438 6.96875 10.839844 6.132812 12 6.132812 C 13.160156 6.132812 14.101562 6.96875 14.101562 8 Z M 14.101562 8 "/>
<path style=" stroke:none;fill-rule:nonzero;fill:rgb(0%,0%,53.333333%);fill-opacity:1;" d="M 12.421875 8 C 12.421875 8.207031 12.230469 8.375 12 8.375 C 11.769531 8.375 11.578125 8.207031 11.578125 8 C 11.578125 7.792969 11.769531 7.625 12 7.625 C 12.230469 7.625 12.421875 7.792969 12.421875 8 Z M 12.421875 8 "/>
<path style=" stroke:none;fill-rule:nonzero;fill:rgb(0%,0%,53.333333%);fill-opacity:1;" d="M 14.1875 8.257812 C 14.179688 8.308594 14.128906 8.347656 14.066406 8.339844 C 14.007812 8.332031 13.96875 8.285156 13.976562 8.230469 C 13.984375 8.179688 14.035156 8.140625 14.097656 8.148438 C 14.15625 8.15625 14.195312 8.203125 14.1875 8.257812 Z M 14.1875 8.257812 "/>
<path style=" stroke:none;fill-rule:nonzero;fill:rgb(0%,0%,53.333333%);fill-opacity:1;" d="M 12 9.867188 L 12.070312 8.746094 L 12 8.214844 L 11.929688 8.746094 Z M 12 9.867188 "/>
<path style=" stroke:none;fill-rule:nonzero;fill:rgb(0%,0%,53.333333%);fill-opacity:1;" d="M 14.039062 8.75 C 14.015625 8.800781 13.953125 8.824219 13.898438 8.804688 C 13.84375 8.785156 13.816406 8.726562 13.839844 8.679688 C 13.863281 8.628906 13.925781 8.605469 13.980469 8.625 C 14.035156 8.648438 14.0625 8.703125 14.039062 8.75 Z M 14.039062 8.75 "/>
<path style=" stroke:none;fill-rule:nonzero;fill:rgb(0%,0%,53.333333%);fill-opacity:1;" d="M 11.457031 9.804688 L 11.851562 8.738281 L 11.9375 8.207031 L 11.714844 8.703125 Z M 11.457031 9.804688 "/>
<path style=" stroke:none;fill-rule:nonzero;fill:rgb(0%,0%,53.333333%);fill-opacity:1;" d="M 13.75 9.195312 C 13.714844 9.238281 13.648438 9.246094 13.601562 9.214844 C 13.550781 9.179688 13.542969 9.121094 13.578125 9.078125 C 13.617188 9.035156 13.683594 9.027344 13.730469 9.0625 C 13.777344 9.09375 13.789062 9.152344 13.75 9.195312 Z M 13.75 9.195312 "/>
<path style=" stroke:none;fill-rule:nonzero;fill:rgb(0%,0%,53.333333%);fill-opacity:1;" d="M 10.949219 9.617188 L 11.640625 8.679688 L 11.878906 8.183594 L 11.519531 8.613281 Z M 10.949219 9.617188 "/>
<path style=" stroke:none;fill-rule:nonzero;fill:rgb(0%,0%,53.333333%);fill-opacity:1;" d="M 13.34375 9.558594 C 13.296875 9.589844 13.226562 9.582031 13.191406 9.539062 C 13.15625 9.496094 13.164062 9.4375 13.210938 9.40625 C 13.257812 9.371094 13.328125 9.382812 13.363281 9.421875 C 13.398438 9.464844 13.390625 9.523438 13.34375 9.558594 Z M 13.34375 9.558594 "/>
<path style=" stroke:none;fill-rule:nonzero;fill:rgb(0%,0%,53.333333%);fill-opacity:1;" d="M 10.515625 9.320312 L 11.457031 8.574219 L 11.832031 8.152344 L 11.355469 8.484375 Z M 10.515625 9.320312 "/>
<path style=" stroke:none;fill-rule:nonzero;fill:rgb(0%,0%,53.333333%);fill-opacity:1;" d="M 12.84375 9.8125 C 12.789062 9.832031 12.726562 9.8125 12.703125 9.761719 C 12.679688 9.710938 12.707031 9.65625 12.761719 9.636719 C 12.816406 9.617188 12.878906 9.640625 12.902344 9.6875 C 12.925781 9.738281 12.898438 9.792969 12.84375 9.8125 Z M 12.84375 9.8125 "/>
<path style=" stroke:none;fill-rule:nonzero;fill:rgb(0%,0%,53.333333%);fill-opacity:1;" d="M 10.179688 8.933594 L 11.308594 8.429688 L 11.792969 8.105469 L 11.238281 8.316406 Z M 10.179688 8.933594 "/>
<path style=" stroke:none;fill-rule:nonzero;fill:rgb(0%,0%,53.333333%);fill-opacity:1;" d="M 12.289062 9.945312 C 12.226562 9.953125 12.175781 9.914062 12.167969 9.863281 C 12.160156 9.8125 12.199219 9.761719 12.257812 9.753906 C 12.320312 9.75 12.371094 9.785156 12.378906 9.839844 C 12.386719 9.890625 12.347656 9.9375 12.289062 9.945312 Z M 12.289062 9.945312 "/>
<path style=" stroke:none;fill-rule:nonzero;fill:rgb(0%,0%,53.333333%);fill-opacity:1;" d="M 9.972656 8.484375 L 11.207031 8.253906 L 11.769531 8.054688 L 11.171875 8.132812 Z M 9.972656 8.484375 "/>
<path style=" stroke:none;fill-rule:nonzero;fill:rgb(0%,0%,53.333333%);fill-opacity:1;" d="M 11.710938 9.945312 C 11.652344 9.9375 11.609375 9.890625 11.617188 9.839844 C 11.625 9.785156 11.679688 9.75 11.738281 9.753906 C 11.796875 9.761719 11.839844 9.8125 11.832031 9.863281 C 11.824219 9.914062 11.769531 9.953125 11.710938 9.945312 Z M 11.710938 9.945312 "/>
<path style=" stroke:none;fill-rule:nonzero;fill:rgb(0%,0%,53.333333%);fill-opacity:1;" d="M 9.898438 8 L 11.160156 8.0625 L 11.761719 8 L 11.160156 7.9375 Z M 9.898438 8 "/>
<path style=" stroke:none;fill-rule:nonzero;fill:rgb(0%,0%,53.333333%);fill-opacity:1;" d="M 11.152344 9.8125 C 11.097656 9.792969 11.074219 9.738281 11.097656 9.6875 C 11.117188 9.636719 11.183594 9.617188 11.238281 9.636719 C 11.292969 9.65625 11.316406 9.710938 11.296875 9.761719 C 11.273438 9.808594 11.210938 9.832031 11.152344 9.8125 Z M 11.152344 9.8125 "/>
<path style=" stroke:none;fill-rule:nonzero;fill:rgb(0%,0%,53.333333%);fill-opacity:1;" d="M 9.972656 7.515625 L 11.171875 7.867188 L 11.769531 7.945312 L 11.207031 7.746094 Z M 9.972656 7.515625 "/>
<path style=" stroke:none;fill-rule:nonzero;fill:rgb(0%,0%,53.333333%);fill-opacity:1;" d="M 10.65625 9.558594 C 10.609375 9.523438 10.597656 9.464844 10.636719 9.421875 C 10.671875 9.378906 10.738281 9.371094 10.785156 9.40625 C 10.835938 9.4375 10.84375 9.496094 10.804688 9.539062 C 10.769531 9.582031 10.703125 9.589844 10.65625 9.558594 Z M 10.65625 9.558594 "/>
<path style=" stroke:none;fill-rule:nonzero;fill:rgb(0%,0%,53.333333%);fill-opacity:1;" d="M 10.179688 7.066406 L 11.238281 7.683594 L 11.792969 7.894531 L 11.308594 7.570312 Z M 10.179688 7.066406 "/>
<path style=" stroke:none;fill-rule:nonzero;fill:rgb(0%,0%,53.333333%);fill-opacity:1;" d="M 10.246094 9.195312 C 10.210938 9.152344 10.21875 9.09375 10.269531 9.058594 C 10.316406 9.027344 10.382812 9.035156 10.417969 9.078125 C 10.457031 9.121094 10.445312 9.179688 10.398438 9.210938 C 10.351562 9.246094 10.285156 9.238281 10.246094 9.195312 Z M 10.246094 9.195312 "/>
<path style=" stroke:none;fill-rule:nonzero;fill:rgb(0%,0%,53.333333%);fill-opacity:1;" d="M 10.515625 6.679688 L 11.355469 7.515625 L 11.832031 7.847656 L 11.457031 7.425781 Z M 10.515625 6.679688 "/>
<path style=" stroke:none;fill-rule:nonzero;fill:rgb(0%,0%,53.333333%);fill-opacity:1;" d="M 9.960938 8.75 C 9.9375 8.703125 9.964844 8.644531 10.019531 8.625 C 10.074219 8.605469 10.136719 8.628906 10.160156 8.675781 C 10.183594 8.726562 10.15625 8.78125 10.101562 8.800781 C 10.046875 8.824219 9.984375 8.800781 9.960938 8.75 Z M 9.960938 8.75 "/>
<path style=" stroke:none;fill-rule:nonzero;fill:rgb(0%,0%,53.333333%);fill-opacity:1;" d="M 10.949219 6.382812 L 11.519531 7.386719 L 11.878906 7.816406 L 11.640625 7.320312 Z M 10.949219 6.382812 "/>
<path style=" stroke:none;fill-rule:nonzero;fill:rgb(0%,0%,53.333333%);fill-opacity:1;" d="M 9.8125 8.253906 C 9.804688 8.203125 9.84375 8.15625 9.902344 8.148438 C 9.960938 8.140625 10.015625 8.179688 10.023438 8.230469 C 10.03125 8.28125 9.992188 8.332031 9.933594 8.339844 C 9.871094 8.34375 9.820312 8.308594 9.8125 8.253906 Z M 9.8125 8.253906 "/>
<path style=" stroke:none;fill-rule:nonzero;fill:rgb(0%,0%,53.333333%);fill-opacity:1;" d="M 11.457031 6.195312 L 11.714844 7.296875 L 11.9375 7.792969 L 11.851562 7.261719 Z M 11.457031 6.195312 "/>
<path style=" stroke:none;fill-rule:nonzero;fill:rgb(0%,0%,53.333333%);fill-opacity:1;" d="M 9.8125 7.742188 C 9.820312 7.691406 9.871094 7.652344 9.933594 7.660156 C 9.992188 7.667969 10.03125 7.714844 10.023438 7.769531 C 10.015625 7.820312 9.964844 7.859375 9.902344 7.851562 C 9.84375 7.84375 9.804688 7.796875 9.8125 7.742188 Z M 9.8125 7.742188 "/>
<path style=" stroke:none;fill-rule:nonzero;fill:rgb(0%,0%,53.333333%);fill-opacity:1;" d="M 12 6.132812 L 11.929688 7.253906 L 12 7.785156 L 12.070312 7.253906 Z M 12 6.132812 "/>
<path style=" stroke:none;fill-rule:nonzero;fill:rgb(0%,0%,53.333333%);fill-opacity:1;" d="M 9.960938 7.25 C 9.984375 7.199219 10.046875 7.175781 10.101562 7.195312 C 10.15625 7.214844 10.183594 7.273438 10.160156 7.320312 C 10.136719 7.371094 10.074219 7.394531 10.019531 7.375 C 9.964844 7.351562 9.9375 7.296875 9.960938 7.25 Z M 9.960938 7.25 "/>
<path style=" stroke:none;fill-rule:nonzero;fill:rgb(0%,0%,53.333333%);fill-opacity:1;" d="M 12.542969 6.195312 L 12.148438 7.261719 L 12.0625 7.792969 L 12.285156 7.296875 Z M 12.542969 6.195312 "/>
<path style=" stroke:none;fill-rule:nonzero;fill:rgb(0%,0%,53.333333%);fill-opacity:1;" d="M 10.25 6.804688 C 10.285156 6.761719 10.351562 6.753906 10.398438 6.785156 C 10.449219 6.820312 10.457031 6.878906 10.421875 6.921875 C 10.382812 6.964844 10.316406 6.972656 10.269531 6.9375 C 10.222656 6.90625 10.210938 6.847656 10.25 6.804688 Z M 10.25 6.804688 "/>
<path style=" stroke:none;fill-rule:nonzero;fill:rgb(0%,0%,53.333333%);fill-opacity:1;" d="M 13.050781 6.382812 L 12.359375 7.320312 L 12.121094 7.816406 L 12.480469 7.386719 Z M 13.050781 6.382812 "/>
<path style=" stroke:none;fill-rule:nonzero;fill:rgb(0%,0%,53.333333%);fill-opacity:1;" d="M 10.65625 6.441406 C 10.703125 6.410156 10.773438 6.417969 10.808594 6.460938 C 10.84375 6.503906 10.835938 6.5625 10.789062 6.59375 C 10.742188 6.628906 10.671875 6.617188 10.636719 6.578125 C 10.601562 6.535156 10.609375 6.476562 10.65625 6.441406 Z M 10.65625 6.441406 "/>
<path style=" stroke:none;fill-rule:nonzero;fill:rgb(0%,0%,53.333333%);fill-opacity:1;" d="M 13.484375 6.679688 L 12.542969 7.425781 L 12.167969 7.847656 L 12.644531 7.515625 Z M 13.484375 6.679688 "/>
<path style=" stroke:none;fill-rule:nonzero;fill:rgb(0%,0%,53.333333%);fill-opacity:1;" d="M 11.15625 6.1875 C 11.210938 6.167969 11.273438 6.1875 11.296875 6.238281 C 11.320312 6.289062 11.292969 6.34375 11.238281 6.363281 C 11.183594 6.382812 11.121094 6.359375 11.097656 6.3125 C 11.074219 6.261719 11.101562 6.207031 11.15625 6.1875 Z M 11.15625 6.1875 "/>
<path style=" stroke:none;fill-rule:nonzero;fill:rgb(0%,0%,53.333333%);fill-opacity:1;" d="M 13.820312 7.066406 L 12.691406 7.570312 L 12.207031 7.894531 L 12.761719 7.683594 Z M 13.820312 7.066406 "/>
<path style=" stroke:none;fill-rule:nonzero;fill:rgb(0%,0%,53.333333%);fill-opacity:1;" d="M 11.710938 6.054688 C 11.773438 6.046875 11.824219 6.085938 11.832031 6.136719 C 11.839844 6.1875 11.800781 6.238281 11.742188 6.246094 C 11.679688 6.25 11.628906 6.214844 11.621094 6.160156 C 11.613281 6.109375 11.652344 6.0625 11.710938 6.054688 Z M 11.710938 6.054688 "/>
<path style=" stroke:none;fill-rule:nonzero;fill:rgb(0%,0%,53.333333%);fill-opacity:1;" d="M 14.027344 7.515625 L 12.792969 7.746094 L 12.230469 7.945312 L 12.828125 7.867188 Z M 14.027344 7.515625 "/>
<path style=" stroke:none;fill-rule:nonzero;fill:rgb(0%,0%,53.333333%);fill-opacity:1;" d="M 12.289062 6.054688 C 12.347656 6.0625 12.390625 6.109375 12.382812 6.160156 C 12.375 6.214844 12.320312 6.25 12.261719 6.246094 C 12.203125 6.238281 12.160156 6.1875 12.167969 6.136719 C 12.175781 6.085938 12.230469 6.046875 12.289062 6.054688 Z M 12.289062 6.054688 "/>
<path style=" stroke:none;fill-rule:nonzero;fill:rgb(0%,0%,53.333333%);fill-opacity:1;" d="M 14.101562 8 L 12.839844 7.9375 L 12.238281 8 L 12.839844 8.0625 Z M 14.101562 8 "/>
<path style=" stroke:none;fill-rule:nonzero;fill:rgb(0%,0%,53.333333%);fill-opacity:1;" d="M 12.847656 6.1875 C 12.902344 6.207031 12.925781 6.261719 12.902344 6.3125 C 12.882812 6.363281 12.816406 6.382812 12.761719 6.363281 C 12.707031 6.34375 12.683594 6.289062 12.703125 6.238281 C 12.726562 6.191406 12.789062 6.167969 12.847656 6.1875 Z M 12.847656 6.1875 "/>
<path style=" stroke:none;fill-rule:nonzero;fill:rgb(0%,0%,53.333333%);fill-opacity:1;" d="M 14.027344 8.484375 L 12.828125 8.132812 L 12.230469 8.054688 L 12.792969 8.253906 Z M 14.027344 8.484375 "/>
<path style=" stroke:none;fill-rule:nonzero;fill:rgb(0%,0%,53.333333%);fill-opacity:1;" d="M 13.34375 6.441406 C 13.390625 6.476562 13.402344 6.535156 13.363281 6.578125 C 13.328125 6.621094 13.261719 6.628906 13.214844 6.59375 C 13.164062 6.5625 13.15625 6.503906 13.195312 6.460938 C 13.230469 6.417969 13.296875 6.410156 13.34375 6.441406 Z M 13.34375 6.441406 "/>
<path style=" stroke:none;fill-rule:nonzero;fill:rgb(0%,0%,53.333333%);fill-opacity:1;" d="M 13.820312 8.933594 L 12.761719 8.316406 L 12.207031 8.105469 L 12.691406 8.429688 Z M 13.820312 8.933594 "/>
<path style=" stroke:none;fill-rule:nonzero;fill:rgb(0%,0%,53.333333%);fill-opacity:1;" d="M 13.753906 6.804688 C 13.789062 6.847656 13.78125 6.90625 13.730469 6.941406 C 13.683594 6.972656 13.617188 6.964844 13.582031 6.921875 C 13.542969 6.878906 13.554688 6.820312 13.601562 6.789062 C 13.648438 6.753906 13.714844 6.761719 13.753906 6.804688 Z M 13.753906 6.804688 "/>
<path style=" stroke:none;fill-rule:nonzero;fill:rgb(0%,0%,53.333333%);fill-opacity:1;" d="M 13.484375 9.320312 L 12.644531 8.484375 L 12.167969 8.152344 L 12.542969 8.574219 Z M 13.484375 9.320312 "/>
<path style=" stroke:none;fill-rule:nonzero;fill:rgb(0%,0%,53.333333%);fill-opacity:1;" d="M 14.039062 7.25 C 14.0625 7.296875 14.035156 7.355469 13.980469 7.375 C 13.925781 7.394531 13.863281 7.371094 13.839844 7.324219 C 13.816406 7.273438 13.84375 7.21875 13.898438 7.199219 C 13.953125 7.175781 14.015625 7.199219 14.039062 7.25 Z M 14.039062 7.25 "/>
<path style=" stroke:none;fill-rule:nonzero;fill:rgb(0%,0%,53.333333%);fill-opacity:1;" d="M 13.050781 9.617188 L 12.480469 8.613281 L 12.121094 8.183594 L 12.359375 8.679688 Z M 13.050781 9.617188 "/>
<path style=" stroke:none;fill-rule:nonzero;fill:rgb(0%,0%,53.333333%);fill-opacity:1;" d="M 14.1875 7.746094 C 14.195312 7.796875 14.15625 7.84375 14.097656 7.851562 C 14.039062 7.859375 13.984375 7.820312 13.976562 7.769531 C 13.96875 7.71875 14.007812 7.667969 14.066406 7.660156 C 14.128906 7.65625 14.179688 7.691406 14.1875 7.746094 Z M 14.1875 7.746094 "/>
<path style=" stroke:none;fill-rule:nonzero;fill:rgb(0%,0%,53.333333%);fill-opacity:1;" d="M 12.542969 9.804688 L 12.285156 8.703125 L 12.0625 8.207031 L 12.148438 8.738281 Z M 12.542969 9.804688 "/>
</g>
</svg>
