<svg width="16" height="14" fill="none" xmlns="http://www.w3.org/2000/svg"><g filter="url(#filter0_d)"><rect width="16" height="14" rx="1" fill="#D8D8D8"/></g><mask id="a" maskUnits="userSpaceOnUse" x="0" y="0" width="16" height="14"><rect width="16" height="14" rx="1" fill="#fff"/></mask><g mask="url(#a)"><path d="M0 0h26v14H0V0z" fill="#fff"/><path fill-rule="evenodd" clip-rule="evenodd" d="M0 0v1.077h26V0H0zm0 2.154V3.23h26V2.154H0zm0 3.23V4.309h26v1.077H0zm0 1.078v1.076h26V6.462H0zm0 3.23V8.615h26v1.077H0zm0 1.077v1.077h26V10.77H0zM0 14v-1.077h26V14H0z" fill="#B22234"/><path d="M0 0h11v7.5H0" fill="#3C3B6E"/><path d="M.649 1.343l.25-.83.252.83L.506.836h.792m1.082.507l.277-.83.276.83-.71-.507h.871m.988.507l.252-.83.251.83L3.94.836h.792m1.082.507l.277-.83.276.83-.71-.507h.871m1.003.507l.277-.83.276.83-.71-.507h.871m1.003.507l.277-.83.276.83-.71-.507h.871M1.507 2.15l.251-.83.252.83-.645-.508h.791m1.083.508l.276-.83.277.83-.71-.508h.871m.988.508l.251-.83.251.83-.644-.508h.791m1.083.508l.276-.83.277.83-.71-.508h.87m1.004.508l.276-.83.277.83-.71-.508h.87M.649 2.955l.25-.829.252.83-.645-.508h.792m1.082.507l.277-.829.276.83-.71-.508h.871m.988.507l.252-.829.251.83-.645-.508h.792m1.082.507l.277-.829.276.83-.71-.508h.871m1.003.507l.277-.829.276.83-.71-.508h.871m1.003.507l.277-.829.276.83-.71-.508h.871M1.507 3.761l.251-.829.252.83-.645-.507h.791m1.083.506l.276-.829.277.83-.71-.507h.871m.988.506l.251-.829.251.83-.644-.507h.791m1.083.506l.276-.829.277.83-.71-.507h.87m1.004.506l.276-.829.277.83-.71-.507h.87M.649 4.343l.25-.83.252.83-.645-.507h.792m1.082.507l.277-.83.276.83-.71-.507h.871m.988.507l.252-.83.251.83-.645-.507h.792m1.082.507l.277-.83.276.83-.71-.507h.871m1.003.507l.277-.83.276.83-.71-.507h.871m1.003.507l.277-.83.276.83-.71-.507h.871M1.507 5.15l.251-.83.252.83-.645-.508h.791m1.083.508l.276-.83.277.83-.71-.508h.871m.988.508l.251-.83.251.83-.644-.508h.791m1.083.508l.276-.83.277.83-.71-.508h.87m1.004.508l.276-.83.277.83-.71-.508h.87M.649 5.955l.25-.829.252.83-.645-.508h.792m1.082.507l.277-.829.276.83-.71-.508h.871m.988.507l.252-.829.251.83-.645-.508h.792m1.082.507l.277-.829.276.83-.71-.508h.871m1.003.507l.277-.829.276.83-.71-.508h.871m1.003.507l.277-.829.276.83-.71-.508h.871M1.507 6.761l.251-.829.252.83-.645-.507h.791m1.083.506l.276-.829.277.83-.71-.507h.871m.988.506l.251-.829.251.83-.644-.507h.791m1.083.506l.276-.829.277.83-.71-.507h.87m1.004.506l.276-.829.277.83-.71-.507h.87" fill="#fff"/></g><defs><filter id="filter0_d" x="-1" y="0" width="18" height="17" filterUnits="userSpaceOnUse" color-interpolation-filters="sRGB"><feFlood flood-opacity="0" result="BackgroundImageFix"/><feColorMatrix in="SourceAlpha" values="0 0 0 0 0 0 0 0 0 0 0 0 0 0 0 0 0 0 127 0"/><feOffset dy="2"/><feGaussianBlur stdDeviation=".5"/><feColorMatrix values="0 0 0 0 0.0102273 0 0 0 0 0.0886364 0 0 0 0 0.15 0 0 0 0.3 0"/><feBlend in2="BackgroundImageFix" result="effect1_dropShadow"/><feBlend in="SourceGraphic" in2="effect1_dropShadow" result="shape"/></filter></defs></svg>