<svg xmlns="http://www.w3.org/2000/svg" xmlns:xlink="http://www.w3.org/1999/xlink" width="24px" height="16px" version="1.1">
<g id="surface1">
<path style=" stroke:none;fill-rule:nonzero;fill:rgb(0%,21.960784%,65.882353%);fill-opacity:1;" d="M 0 0 L 24 0 L 24 8 L 0 8 Z M 0 0 "/>
<path style=" stroke:none;fill-rule:nonzero;fill:rgb(80.784314%,6.666667%,14.901961%);fill-opacity:1;" d="M 0 8 L 24 8 L 24 16 L 0 16 Z M 0 8 "/>
<path style=" stroke:none;fill-rule:nonzero;fill:rgb(100%,100%,100%);fill-opacity:1;" d="M 15.589844 8 L 0 16 L 0 0 "/>
<path style=" stroke:none;fill-rule:nonzero;fill:rgb(98.823529%,81.960784%,8.627451%);fill-opacity:1;" d="M 1 1.414062 L 1.539062 1.832031 L 2.160156 1.527344 L 1.882812 2.109375 L 2.40625 2.542969 L 1.695312 2.488281 L 1.390625 3.0625 L 1.230469 2.445312 L 0.523438 2.367188 L 1.136719 2.035156 Z M 13.144531 7.15625 L 13.160156 7.789062 L 13.832031 8 L 13.160156 8.207031 L 13.144531 8.839844 L 12.710938 8.335938 L 12.03125 8.519531 L 12.433594 8 L 12.03125 7.480469 L 12.710938 7.664062 Z M 1.394531 12.9375 L 1.695312 13.511719 L 2.40625 13.457031 L 1.886719 13.890625 L 2.164062 14.472656 L 1.542969 14.171875 L 1 14.582031 L 1.136719 13.960938 L 0.523438 13.632812 L 1.234375 13.554688 Z M 5.675781 4.636719 L 5.445312 4.84375 L 5.5625 6.410156 L 5.449219 6.421875 L 5.234375 4.988281 L 5.042969 5.15625 L 5.328125 6.4375 C 5.097656 6.476562 4.878906 6.558594 4.683594 6.671875 L 3.871094 5.59375 L 3.601562 5.59375 L 4.589844 6.738281 C 4.558594 6.757812 4.527344 6.78125 4.5 6.804688 L 3.332031 5.621094 L 3.003906 5.621094 L 3.003906 5.914062 L 4.332031 6.945312 L 4.257812 7.03125 L 2.96875 6.152344 L 2.96875 6.390625 L 4.1875 7.113281 C 4.0625 7.285156 3.96875 7.480469 3.921875 7.6875 L 2.484375 7.433594 L 2.296875 7.601562 L 3.902344 7.789062 C 3.894531 7.824219 3.890625 7.859375 3.890625 7.894531 L 2.128906 7.792969 L 1.898438 8 L 2.128906 8.207031 L 3.890625 8.101562 L 3.902344 8.207031 L 2.296875 8.398438 L 2.484375 8.5625 L 3.921875 8.308594 C 3.96875 8.515625 4.058594 8.710938 4.1875 8.882812 L 2.96875 9.605469 L 2.96875 9.847656 L 4.257812 8.96875 C 4.28125 8.996094 4.304688 9.023438 4.332031 9.050781 L 3.003906 10.082031 L 3.003906 10.375 L 3.335938 10.375 L 4.5 9.195312 L 4.59375 9.261719 L 3.601562 10.40625 L 3.871094 10.40625 L 4.683594 9.324219 C 4.875 9.4375 5.097656 9.519531 5.328125 9.558594 L 5.042969 10.839844 L 5.230469 11.007812 L 5.445312 9.578125 C 5.484375 9.582031 5.519531 9.585938 5.5625 9.585938 L 5.449219 11.152344 L 5.675781 11.359375 L 5.914062 11.152344 L 5.796875 9.585938 L 5.910156 9.578125 L 6.125 11.011719 L 6.316406 10.839844 L 6.03125 9.558594 C 6.261719 9.519531 6.480469 9.4375 6.675781 9.324219 L 7.488281 10.40625 L 7.757812 10.40625 L 6.769531 9.261719 C 6.800781 9.242188 6.828125 9.21875 6.859375 9.195312 L 8.023438 10.375 L 8.355469 10.375 L 8.355469 10.082031 L 7.027344 9.050781 L 7.101562 8.96875 L 8.390625 9.847656 L 8.390625 9.605469 L 7.171875 8.882812 C 7.296875 8.714844 7.390625 8.515625 7.4375 8.308594 L 8.871094 8.5625 L 9.0625 8.398438 L 7.453125 8.207031 C 7.460938 8.171875 7.464844 8.140625 7.464844 8.101562 L 9.230469 8.203125 L 9.460938 8 L 9.230469 7.792969 L 7.464844 7.894531 L 7.453125 7.792969 L 9.0625 7.601562 L 8.875 7.4375 L 7.4375 7.6875 C 7.390625 7.480469 7.300781 7.285156 7.171875 7.113281 L 8.390625 6.390625 L 8.390625 6.152344 L 7.101562 7.03125 C 7.078125 7.003906 7.054688 6.976562 7.027344 6.949219 L 8.355469 5.917969 L 8.355469 5.621094 L 8.023438 5.621094 L 6.863281 6.804688 C 6.832031 6.78125 6.800781 6.757812 6.769531 6.738281 L 7.757812 5.59375 L 7.488281 5.59375 L 6.675781 6.671875 C 6.484375 6.558594 6.261719 6.476562 6.03125 6.4375 L 6.316406 5.160156 L 6.128906 4.992188 L 5.914062 6.421875 L 5.796875 6.410156 L 5.910156 4.84375 Z M 5.675781 4.636719 "/>
</g>
</svg>
