<svg xmlns="http://www.w3.org/2000/svg" xmlns:xlink="http://www.w3.org/1999/xlink" width="24px" height="16px" version="1.1">
<g id="surface1">
<rect x="0" y="0" width="24" height="16" style="fill:rgb(93.333333%,10.980392%,14.509804%);fill-opacity:1;stroke:none;"/>
<path style=" stroke:none;fill-rule:nonzero;fill:rgb(100%,100%,0%);fill-opacity:1;" d="M 2.878906 5.921875 L 4.5 1.601562 L 6.121094 5.921875 L 1.800781 3.28125 L 7.199219 3.28125 Z M 2.878906 5.921875 "/>
<path style=" stroke:none;fill-rule:nonzero;fill:rgb(100%,100%,0%);fill-opacity:1;" d="M 9.90625 1.683594 L 8.238281 2.011719 L 9.351562 0.859375 L 9.242188 2.410156 L 8.316406 1.039062 Z M 9.90625 1.683594 "/>
<path style=" stroke:none;fill-rule:nonzero;fill:rgb(100%,100%,0%);fill-opacity:1;" d="M 11.589844 3.578125 L 9.910156 3.304688 L 11.4375 2.628906 L 10.660156 4.019531 L 10.40625 2.433594 Z M 11.589844 3.578125 "/>
<path style=" stroke:none;fill-rule:nonzero;fill:rgb(100%,100%,0%);fill-opacity:1;" d="M 11.34375 6.238281 L 9.933594 5.378906 L 11.640625 5.316406 L 10.292969 6.304688 L 10.789062 4.765625 Z M 11.34375 6.238281 "/>
<path style=" stroke:none;fill-rule:nonzero;fill:rgb(100%,100%,0%);fill-opacity:1;" d="M 9.222656 7.976562 L 8.296875 6.699219 L 9.898438 7.226562 L 8.226562 7.675781 L 9.351562 6.425781 Z M 9.222656 7.976562 "/>
</g>
</svg>
