<svg xmlns="http://www.w3.org/2000/svg" xmlns:xlink="http://www.w3.org/1999/xlink" width="24px" height="16px" version="1.1">
<g id="surface1">
<rect x="0" y="0" width="24" height="16" style="fill:rgb(100%,100%,100%);fill-opacity:1;stroke:none;"/>
<path style=" stroke:none;fill-rule:evenodd;fill:rgb(0%,0%,0%);fill-opacity:1;" d="M 2.628906 4.859375 L 5.125 1.53125 L 5.75 1.902344 L 3.253906 5.230469 Z M 3.566406 5.414062 L 6.0625 2.085938 L 6.6875 2.457031 L 4.1875 5.785156 Z M 4.5 5.96875 L 7 2.640625 L 7.621094 3.011719 L 5.125 6.339844 Z M 4.5 5.96875 "/>
<path style=" stroke:none;fill-rule:evenodd;fill:rgb(0%,0%,0%);fill-opacity:1;" d="M 16.355469 13 L 18.851562 9.671875 L 19.476562 10.039062 L 16.980469 13.367188 Z M 17.292969 13.554688 L 19.789062 10.226562 L 20.414062 10.59375 L 17.917969 13.921875 Z M 18.230469 14.109375 L 20.726562 10.78125 L 21.347656 11.148438 L 18.851562 14.476562 Z M 18.230469 14.109375 "/>
<path style="fill-rule:evenodd;fill:rgb(0%,0%,0%);fill-opacity:1;stroke-width:1;stroke-linecap:butt;stroke-linejoin:miter;stroke:rgb(100%,100%,100%);stroke-opacity:1;stroke-miterlimit:4;" d="M 0.0020388 16.998184 L -0.00128243 27.004453 " transform="matrix(0.208067,-0.277318,0.311983,0.184948,11.989402,8.005219)"/>
<path style=" stroke:none;fill-rule:evenodd;fill:rgb(80.392157%,18.039216%,22.745098%);fill-opacity:1;" d="M 8.246094 5.785156 C 9.625 3.949219 12.417969 3.453125 14.484375 4.675781 C 16.554688 5.902344 17.113281 8.386719 15.734375 10.222656 Z M 8.246094 5.785156 "/>
<path style=" stroke:none;fill-rule:evenodd;fill:rgb(0%,27.843137%,62.745098%);fill-opacity:1;" d="M 8.246094 5.785156 C 6.867188 7.625 7.425781 10.105469 9.492188 11.332031 C 11.558594 12.558594 14.355469 12.0625 15.734375 10.222656 C 16.421875 9.304688 16.144531 8.0625 15.109375 7.449219 C 14.074219 6.839844 12.679688 7.085938 11.988281 8.003906 Z M 8.246094 5.785156 "/>
<path style=" stroke:none;fill-rule:evenodd;fill:rgb(80.392157%,18.039216%,22.745098%);fill-opacity:1;" d="M 11.367188 5.230469 C 12.398438 5.84375 12.679688 7.085938 11.988281 8.003906 C 11.300781 8.925781 9.902344 9.171875 8.867188 8.558594 C 7.835938 7.945312 7.554688 6.703125 8.246094 5.785156 C 8.933594 4.867188 10.332031 4.617188 11.367188 5.230469 Z M 11.367188 5.230469 "/>
<path style=" stroke:none;fill-rule:evenodd;fill:rgb(0%,0%,0%);fill-opacity:1;" d="M 5.136719 14.480469 L 2.640625 11.152344 L 3.265625 10.78125 L 5.761719 14.109375 Z M 6.074219 13.925781 L 3.574219 10.597656 L 4.199219 10.226562 L 6.695312 13.554688 Z M 7.007812 13.371094 L 4.511719 10.042969 L 5.136719 9.671875 L 7.632812 13 Z M 7.007812 13.371094 "/>
<path style=" stroke:none;fill-rule:evenodd;fill:rgb(0%,0%,0%);fill-opacity:1;" d="M 18.863281 6.339844 L 16.367188 3.011719 L 16.992188 2.644531 L 19.488281 5.972656 Z M 19.800781 5.785156 L 17.304688 2.457031 L 17.925781 2.089844 L 20.421875 5.417969 Z M 20.734375 5.230469 L 18.238281 1.902344 L 18.863281 1.535156 L 21.359375 4.863281 Z M 20.734375 5.230469 "/>
<path style="fill-rule:evenodd;fill:rgb(0%,0%,0%);fill-opacity:1;stroke-width:1;stroke-linecap:butt;stroke-linejoin:miter;stroke:rgb(100%,100%,100%);stroke-opacity:1;stroke-miterlimit:4;" d="M 0.00324275 -23.498329 L 0.000555342 -20.495149 M -0.00413916 17.001272 L 0.00175497 20.498484 M -0.00093244 23.501664 L 0.00215978 26.496178 " transform="matrix(-0.208067,-0.277318,0.311983,-0.184948,11.99972,8.006488)"/>
</g>
</svg>
