<svg xmlns="http://www.w3.org/2000/svg" xmlns:xlink="http://www.w3.org/1999/xlink" width="24px" height="16px" version="1.1">
<g id="surface1">
<rect x="0" y="0" width="24" height="16" style="fill:rgb(13.333333%,61.960784%,27.058824%);fill-opacity:1;stroke:none;"/>
<path style=" stroke:none;fill-rule:evenodd;fill:rgb(97.254902%,89.803922%,3.529412%);fill-opacity:1;" d="M 12.050781 14.535156 L 23.359375 8.011719 L 11.984375 1.464844 L 0.640625 8.023438 Z M 12.050781 14.535156 "/>
<path style=" stroke:none;fill-rule:evenodd;fill:rgb(16.862745%,28.627451%,63.921569%);fill-opacity:1;" d="M 16.980469 8 C 16.980469 10.34375 14.839844 12.242188 12.195312 12.242188 C 9.558594 12.238281 7.421875 10.335938 7.425781 7.992188 C 7.429688 5.644531 9.570312 3.746094 12.207031 3.75 C 14.84375 3.753906 16.980469 5.65625 16.980469 8 Z M 16.980469 8 "/>
<path style=" stroke:none;fill-rule:evenodd;fill:rgb(100%,100%,93.72549%);fill-opacity:1;" d="M 10.625 10.542969 L 10.472656 10.464844 L 10.324219 10.535156 L 10.359375 10.382812 L 10.238281 10.269531 L 10.40625 10.253906 L 10.488281 10.121094 L 10.558594 10.261719 L 10.726562 10.285156 L 10.601562 10.386719 M 13.828125 11.261719 L 13.679688 11.1875 L 13.53125 11.253906 L 13.558594 11.101562 L 13.445312 10.992188 L 13.613281 10.976562 L 13.691406 10.839844 L 13.765625 10.980469 L 13.929688 11.007812 L 13.804688 11.109375 M 12.445312 10.109375 L 12.320312 10.042969 L 12.1875 10.101562 L 12.21875 9.972656 L 12.113281 9.875 L 12.261719 9.863281 L 12.328125 9.742188 L 12.390625 9.867188 L 12.535156 9.890625 L 12.421875 9.980469 M 15.6875 9.695312 L 15.558594 9.628906 L 15.425781 9.691406 L 15.457031 9.558594 L 15.355469 9.464844 L 15.503906 9.453125 L 15.570312 9.335938 L 15.628906 9.457031 L 15.773438 9.480469 L 15.664062 9.566406 M 12.390625 8.832031 L 12.238281 8.761719 L 12.089844 8.828125 L 12.121094 8.671875 L 12.003906 8.5625 L 12.171875 8.546875 L 12.25 8.410156 L 12.328125 8.550781 L 12.492188 8.578125 L 12.363281 8.683594 M 8.441406 7.515625 L 8.292969 7.441406 L 8.140625 7.511719 L 8.179688 7.355469 L 8.054688 7.246094 L 8.226562 7.230469 L 8.300781 7.09375 L 8.378906 7.234375 L 8.542969 7.261719 L 8.417969 7.363281 M 8.917969 9.269531 L 8.765625 9.191406 L 8.617188 9.261719 L 8.652344 9.109375 L 8.53125 9 L 8.699219 8.980469 L 8.777344 8.847656 L 8.855469 8.988281 L 9.019531 9.011719 L 8.894531 9.117188 M 13.84375 6.875 L 13.710938 6.808594 L 13.574219 6.867188 L 13.605469 6.734375 L 13.5 6.632812 L 13.648438 6.617188 L 13.722656 6.496094 L 13.785156 6.625 L 13.933594 6.648438 L 13.824219 6.738281 M 13.570312 8.011719 L 13.46875 7.960938 L 13.359375 8.007812 L 13.382812 7.898438 L 13.300781 7.824219 L 13.421875 7.808594 L 13.476562 7.714844 L 13.527344 7.816406 L 13.640625 7.832031 L 13.554688 7.90625 M 8.222656 9.585938 L 8.121094 9.535156 L 8.019531 9.578125 L 8.042969 9.480469 L 7.964844 9.40625 L 8.078125 9.394531 L 8.128906 9.304688 L 8.179688 9.398438 L 8.292969 9.417969 L 8.203125 9.484375 M 15.710938 9.992188 L 15.628906 9.957031 L 15.546875 9.988281 L 15.566406 9.914062 L 15.503906 9.859375 L 15.59375 9.851562 L 15.636719 9.785156 L 15.675781 9.851562 L 15.769531 9.867188 L 15.699219 9.917969 "/>
<path style=" stroke:none;fill-rule:evenodd;fill:rgb(100%,100%,93.72549%);fill-opacity:1;" d="M 8.222656 9.585938 L 8.121094 9.535156 L 8.019531 9.578125 L 8.042969 9.480469 L 7.964844 9.40625 L 8.078125 9.394531 L 8.128906 9.304688 L 8.179688 9.398438 L 8.292969 9.417969 L 8.203125 9.484375 "/>
<path style=" stroke:none;fill-rule:evenodd;fill:rgb(100%,100%,93.72549%);fill-opacity:1;" d="M 8.222656 9.585938 L 8.121094 9.535156 L 8.019531 9.578125 L 8.042969 9.480469 L 7.964844 9.40625 L 8.078125 9.394531 L 8.128906 9.304688 L 8.179688 9.398438 L 8.292969 9.417969 L 8.203125 9.484375 M 9.792969 9.582031 L 9.695312 9.535156 L 9.59375 9.578125 L 9.613281 9.480469 L 9.535156 9.40625 L 9.648438 9.394531 L 9.703125 9.304688 L 9.75 9.398438 L 9.863281 9.414062 L 9.777344 9.484375 M 9.597656 10.050781 L 9.5 10 L 9.398438 10.046875 L 9.421875 9.945312 L 9.339844 9.871094 L 9.453125 9.855469 L 9.507812 9.765625 L 9.554688 9.859375 L 9.667969 9.878906 L 9.582031 9.945312 M 12.859375 9.207031 L 12.761719 9.152344 L 12.65625 9.199219 L 12.679688 9.101562 L 12.605469 9.023438 L 12.714844 9.011719 L 12.769531 8.921875 L 12.8125 9.015625 L 12.925781 9.035156 L 12.84375 9.101562 M 11.902344 9.203125 L 11.800781 9.152344 L 11.699219 9.199219 L 11.722656 9.101562 L 11.648438 9.023438 L 11.761719 9.011719 L 11.8125 8.921875 L 11.859375 9.015625 L 11.96875 9.035156 L 11.886719 9.101562 M 9.308594 8.910156 L 9.242188 8.875 L 9.179688 8.902344 L 9.195312 8.839844 L 9.144531 8.792969 L 9.21875 8.785156 L 9.246094 8.730469 L 9.277344 8.789062 L 9.347656 8.800781 L 9.296875 8.84375 M 15.589844 10.355469 L 15.492188 10.308594 L 15.390625 10.351562 L 15.414062 10.253906 L 15.332031 10.175781 L 15.445312 10.164062 L 15.5 10.074219 L 15.546875 10.167969 L 15.660156 10.1875 L 15.574219 10.253906 M 14.792969 10.453125 L 14.710938 10.40625 L 14.625 10.445312 L 14.644531 10.359375 L 14.578125 10.300781 L 14.671875 10.289062 L 14.71875 10.214844 L 14.757812 10.292969 L 14.851562 10.308594 L 14.777344 10.367188 M 15.167969 10.441406 L 15.09375 10.402344 L 15.015625 10.4375 L 15.03125 10.359375 L 14.96875 10.304688 L 15.054688 10.292969 L 15.097656 10.226562 L 15.136719 10.292969 L 15.222656 10.308594 L 15.15625 10.363281 M 16.25 9.601562 L 16.171875 9.570312 L 16.097656 9.601562 L 16.117188 9.527344 L 16.058594 9.46875 L 16.144531 9.460938 L 16.179688 9.394531 L 16.21875 9.464844 L 16.296875 9.476562 L 16.238281 9.53125 M 14.78125 10.921875 L 14.6875 10.875 L 14.585938 10.917969 L 14.609375 10.824219 L 14.535156 10.757812 L 14.648438 10.746094 L 14.695312 10.664062 L 14.742188 10.75 L 14.855469 10.765625 L 14.765625 10.828125 M 14.789062 11.304688 L 14.699219 11.257812 L 14.609375 11.300781 L 14.632812 11.207031 L 14.5625 11.140625 L 14.664062 11.125 L 14.707031 11.042969 L 14.75 11.128906 L 14.851562 11.148438 L 14.773438 11.214844 M 14.0625 10.441406 L 13.992188 10.402344 L 13.917969 10.4375 L 13.929688 10.363281 L 13.875 10.308594 L 13.957031 10.300781 L 13.996094 10.234375 L 14.03125 10.300781 L 14.113281 10.3125 L 14.054688 10.367188 M 13.386719 10.441406 L 13.3125 10.402344 L 13.238281 10.4375 L 13.257812 10.363281 L 13.195312 10.308594 L 13.28125 10.300781 L 13.320312 10.234375 L 13.359375 10.300781 L 13.4375 10.3125 L 13.375 10.367188 M 12.234375 9.546875 L 12.160156 9.511719 L 12.085938 9.542969 L 12.105469 9.464844 L 12.046875 9.414062 L 12.128906 9.402344 L 12.164062 9.335938 L 12.203125 9.402344 L 12.285156 9.421875 L 12.226562 9.46875 M 12.363281 11.371094 L 12.304688 11.339844 L 12.234375 11.371094 L 12.25 11.304688 L 12.203125 11.257812 L 12.273438 11.25 L 12.308594 11.191406 L 12.335938 11.253906 L 12.410156 11.261719 L 12.355469 11.308594 M 10.625 8.421875 L 10.472656 8.34375 L 10.324219 8.410156 L 10.359375 8.261719 L 10.238281 8.148438 L 10.40625 8.128906 L 10.488281 7.996094 L 10.558594 8.136719 L 10.726562 8.164062 L 10.601562 8.265625 "/>
<path style=" stroke:none;fill-rule:evenodd;fill:rgb(100%,100%,100%);fill-opacity:1;" d="M 16.664062 9.527344 C 16.757812 9.3125 16.832031 9.089844 16.882812 8.867188 C 14.339844 6.882812 11.507812 5.867188 7.929688 6.078125 C 7.800781 6.300781 7.695312 6.53125 7.613281 6.773438 C 11.851562 6.414062 14.960938 8.078125 16.664062 9.527344 Z M 16.664062 9.527344 "/>
<path style=" stroke:none;fill-rule:nonzero;fill:rgb(18.823529%,61.960784%,22.745098%);fill-opacity:1;" d="M 15.523438 8.414062 L 15.609375 8.457031 C 15.597656 8.480469 15.59375 8.503906 15.601562 8.53125 C 15.609375 8.554688 15.628906 8.574219 15.652344 8.585938 C 15.679688 8.601562 15.703125 8.613281 15.726562 8.609375 C 15.75 8.609375 15.765625 8.601562 15.777344 8.585938 C 15.78125 8.578125 15.785156 8.566406 15.785156 8.558594 C 15.78125 8.542969 15.773438 8.53125 15.765625 8.523438 C 15.757812 8.511719 15.738281 8.488281 15.707031 8.464844 C 15.679688 8.433594 15.65625 8.402344 15.640625 8.363281 C 15.621094 8.304688 15.652344 8.242188 15.714844 8.214844 C 15.742188 8.207031 15.773438 8.203125 15.800781 8.210938 C 15.835938 8.21875 15.871094 8.230469 15.898438 8.25 C 15.953125 8.285156 15.984375 8.316406 15.996094 8.355469 C 16.007812 8.394531 16 8.433594 15.976562 8.464844 L 15.886719 8.417969 C 15.894531 8.398438 15.898438 8.375 15.890625 8.359375 C 15.890625 8.34375 15.875 8.328125 15.847656 8.3125 C 15.828125 8.300781 15.804688 8.292969 15.78125 8.289062 C 15.765625 8.289062 15.753906 8.296875 15.746094 8.308594 C 15.738281 8.316406 15.738281 8.328125 15.742188 8.339844 C 15.746094 8.351562 15.765625 8.378906 15.800781 8.414062 C 15.839844 8.445312 15.863281 8.476562 15.878906 8.496094 C 15.90625 8.542969 15.902344 8.597656 15.867188 8.636719 C 15.847656 8.660156 15.824219 8.675781 15.796875 8.6875 C 15.765625 8.699219 15.734375 8.703125 15.703125 8.695312 C 15.671875 8.691406 15.636719 8.675781 15.601562 8.652344 C 15.542969 8.621094 15.511719 8.582031 15.5 8.542969 C 15.488281 8.496094 15.496094 8.449219 15.519531 8.410156 Z M 15.089844 8.160156 L 15.183594 8.203125 C 15.171875 8.226562 15.167969 8.253906 15.175781 8.277344 C 15.1875 8.300781 15.203125 8.320312 15.230469 8.328125 C 15.257812 8.347656 15.28125 8.351562 15.304688 8.351562 C 15.328125 8.351562 15.339844 8.339844 15.351562 8.324219 C 15.359375 8.316406 15.359375 8.304688 15.359375 8.296875 C 15.359375 8.285156 15.351562 8.273438 15.339844 8.261719 C 15.320312 8.242188 15.300781 8.222656 15.28125 8.203125 C 15.238281 8.167969 15.214844 8.136719 15.207031 8.109375 C 15.195312 8.074219 15.199219 8.039062 15.222656 8.007812 C 15.234375 7.984375 15.257812 7.96875 15.28125 7.960938 C 15.308594 7.949219 15.335938 7.945312 15.363281 7.949219 C 15.398438 7.957031 15.429688 7.964844 15.460938 7.984375 C 15.515625 8.015625 15.550781 8.050781 15.5625 8.085938 C 15.578125 8.125 15.570312 8.164062 15.546875 8.199219 L 15.453125 8.152344 C 15.464844 8.128906 15.46875 8.113281 15.460938 8.097656 C 15.453125 8.078125 15.4375 8.0625 15.414062 8.050781 C 15.390625 8.035156 15.367188 8.03125 15.339844 8.03125 C 15.328125 8.03125 15.316406 8.035156 15.3125 8.046875 C 15.304688 8.058594 15.304688 8.066406 15.308594 8.078125 C 15.3125 8.09375 15.332031 8.121094 15.371094 8.152344 C 15.410156 8.1875 15.433594 8.214844 15.445312 8.234375 C 15.476562 8.277344 15.476562 8.332031 15.445312 8.375 C 15.429688 8.398438 15.40625 8.414062 15.378906 8.425781 C 15.351562 8.4375 15.320312 8.441406 15.289062 8.4375 C 15.25 8.429688 15.214844 8.417969 15.179688 8.398438 C 15.132812 8.378906 15.09375 8.339844 15.074219 8.292969 C 15.058594 8.25 15.066406 8.199219 15.089844 8.160156 Z M 14.558594 8.035156 L 14.832031 7.632812 L 15.160156 7.816406 L 15.117188 7.882812 L 14.875 7.75 L 14.816406 7.839844 L 15.042969 7.964844 L 14.992188 8.03125 L 14.765625 7.90625 L 14.691406 8.015625 L 14.945312 8.148438 L 14.898438 8.214844 L 14.5625 8.035156 Z M 13.78125 7.464844 L 13.824219 7.398438 L 14.023438 7.488281 L 13.929688 7.65625 C 13.902344 7.664062 13.863281 7.667969 13.820312 7.664062 C 13.777344 7.660156 13.734375 7.648438 13.695312 7.628906 C 13.648438 7.609375 13.609375 7.582031 13.582031 7.542969 C 13.558594 7.507812 13.542969 7.46875 13.546875 7.425781 C 13.546875 7.382812 13.558594 7.339844 13.582031 7.304688 C 13.605469 7.261719 13.636719 7.230469 13.679688 7.203125 C 13.71875 7.179688 13.765625 7.167969 13.816406 7.167969 C 13.851562 7.167969 13.890625 7.175781 13.933594 7.199219 C 13.996094 7.222656 14.03125 7.257812 14.050781 7.292969 C 14.070312 7.328125 14.074219 7.371094 14.0625 7.410156 L 13.960938 7.382812 C 13.96875 7.359375 13.964844 7.335938 13.953125 7.316406 C 13.941406 7.296875 13.921875 7.285156 13.894531 7.269531 C 13.859375 7.253906 13.816406 7.25 13.777344 7.261719 C 13.738281 7.269531 13.707031 7.300781 13.679688 7.347656 C 13.652344 7.394531 13.640625 7.4375 13.652344 7.472656 C 13.664062 7.507812 13.691406 7.539062 13.730469 7.554688 C 13.746094 7.5625 13.769531 7.570312 13.792969 7.570312 C 13.816406 7.574219 13.835938 7.574219 13.859375 7.570312 L 13.890625 7.515625 Z M 10.398438 6.722656 L 10.472656 6.257812 L 10.632812 6.28125 L 10.671875 6.605469 L 10.820312 6.308594 L 10.976562 6.328125 L 10.902344 6.785156 L 10.800781 6.773438 L 10.863281 6.410156 L 10.699219 6.761719 L 10.597656 6.746094 L 10.554688 6.371094 L 10.496094 6.738281 Z M 9.871094 6.667969 L 9.917969 6.199219 L 10.304688 6.234375 L 10.296875 6.3125 L 10.015625 6.289062 L 10.003906 6.390625 L 10.265625 6.414062 L 10.257812 6.492188 L 9.992188 6.46875 L 9.984375 6.597656 L 10.273438 6.621094 L 10.265625 6.699219 Z M 9.871094 6.667969 "/>
<path style=" stroke:none;fill-rule:nonzero;fill:rgb(18.823529%,61.960784%,22.745098%);fill-opacity:1;" d="M 8.117188 6.375 C 8.117188 6.328125 8.128906 6.289062 8.144531 6.257812 C 8.15625 6.234375 8.175781 6.210938 8.199219 6.191406 C 8.214844 6.175781 8.238281 6.164062 8.265625 6.152344 C 8.300781 6.144531 8.339844 6.136719 8.378906 6.136719 C 8.457031 6.136719 8.515625 6.164062 8.566406 6.203125 C 8.613281 6.253906 8.632812 6.320312 8.625 6.386719 C 8.625 6.460938 8.597656 6.519531 8.550781 6.5625 C 8.5 6.605469 8.429688 6.625 8.363281 6.621094 C 8.292969 6.621094 8.230469 6.597656 8.183594 6.554688 C 8.136719 6.503906 8.113281 6.441406 8.117188 6.375 Z M 8.117188 6.375 "/>
<path style=" stroke:none;fill-rule:nonzero;fill:rgb(96.862745%,100%,100%);fill-opacity:1;" d="M 8.226562 6.375 C 8.226562 6.425781 8.238281 6.464844 8.265625 6.496094 C 8.292969 6.523438 8.324219 6.539062 8.371094 6.539062 C 8.410156 6.542969 8.449219 6.527344 8.476562 6.503906 C 8.5 6.476562 8.511719 6.4375 8.515625 6.378906 C 8.515625 6.328125 8.507812 6.285156 8.480469 6.261719 C 8.453125 6.234375 8.417969 6.21875 8.378906 6.214844 C 8.335938 6.214844 8.300781 6.230469 8.273438 6.257812 C 8.242188 6.285156 8.230469 6.324219 8.226562 6.375 Z M 8.226562 6.375 "/>
<path style=" stroke:none;fill-rule:nonzero;fill:rgb(18.823529%,61.960784%,22.745098%);fill-opacity:1;" d="M 8.738281 6.617188 L 8.746094 6.148438 L 8.96875 6.148438 C 9.027344 6.148438 9.0625 6.15625 9.089844 6.167969 C 9.117188 6.171875 9.136719 6.191406 9.148438 6.210938 C 9.164062 6.230469 9.171875 6.257812 9.171875 6.285156 C 9.171875 6.320312 9.160156 6.351562 9.136719 6.375 C 9.105469 6.394531 9.070312 6.410156 9.035156 6.414062 L 9.089844 6.453125 C 9.105469 6.464844 9.125 6.492188 9.144531 6.53125 L 9.210938 6.625 L 9.082031 6.625 L 9.007812 6.515625 L 8.953125 6.449219 C 8.945312 6.441406 8.933594 6.433594 8.921875 6.429688 C 8.902344 6.425781 8.886719 6.421875 8.867188 6.421875 L 8.847656 6.421875 L 8.847656 6.617188 Z M 8.738281 6.617188 "/>
<path style=" stroke:none;fill-rule:nonzero;fill:rgb(100%,100%,100%);fill-opacity:1;" d="M 8.851562 6.351562 L 8.925781 6.351562 C 8.976562 6.351562 9.011719 6.351562 9.023438 6.34375 C 9.035156 6.34375 9.046875 6.332031 9.050781 6.328125 C 9.058594 6.320312 9.0625 6.304688 9.0625 6.292969 C 9.0625 6.273438 9.058594 6.261719 9.046875 6.253906 C 9.042969 6.242188 9.027344 6.238281 9.011719 6.234375 L 8.9375 6.234375 L 8.851562 6.230469 Z M 8.851562 6.351562 "/>
<path style=" stroke:none;fill-rule:nonzero;fill:rgb(18.823529%,61.960784%,22.745098%);fill-opacity:1;" d="M 9.335938 6.171875 L 9.53125 6.183594 C 9.574219 6.183594 9.609375 6.1875 9.628906 6.191406 C 9.660156 6.203125 9.683594 6.21875 9.703125 6.238281 C 9.726562 6.261719 9.742188 6.289062 9.75 6.320312 C 9.761719 6.351562 9.765625 6.386719 9.761719 6.429688 C 9.761719 6.464844 9.753906 6.496094 9.742188 6.53125 C 9.726562 6.5625 9.703125 6.589844 9.679688 6.609375 C 9.65625 6.625 9.632812 6.636719 9.605469 6.644531 C 9.582031 6.648438 9.546875 6.648438 9.511719 6.648438 L 9.3125 6.640625 Z M 9.335938 6.171875 "/>
<path style=" stroke:none;fill-rule:nonzero;fill:rgb(100%,100%,100%);fill-opacity:1;" d="M 9.4375 6.257812 L 9.421875 6.566406 L 9.5625 6.566406 C 9.582031 6.566406 9.597656 6.558594 9.609375 6.550781 C 9.617188 6.539062 9.628906 6.527344 9.636719 6.507812 C 9.644531 6.488281 9.652344 6.457031 9.652344 6.421875 L 9.648438 6.335938 C 9.644531 6.320312 9.632812 6.304688 9.617188 6.289062 C 9.605469 6.277344 9.589844 6.269531 9.574219 6.265625 C 9.546875 6.261719 9.515625 6.257812 9.488281 6.257812 Z M 9.4375 6.257812 "/>
<path style=" stroke:none;fill-rule:nonzero;fill:rgb(18.823529%,61.960784%,22.745098%);fill-opacity:1;" d="M 11.910156 7.007812 L 12.035156 6.554688 L 12.199219 6.585938 L 12.320312 6.621094 C 12.34375 6.632812 12.367188 6.652344 12.378906 6.683594 C 12.394531 6.710938 12.394531 6.738281 12.386719 6.777344 C 12.378906 6.804688 12.367188 6.828125 12.347656 6.84375 C 12.320312 6.871094 12.28125 6.890625 12.234375 6.890625 C 12.210938 6.890625 12.171875 6.882812 12.125 6.875 L 12.058594 6.855469 L 12.015625 7.03125 Z M 11.910156 7.007812 "/>
<path style=" stroke:none;fill-rule:nonzero;fill:rgb(100%,100%,100%);fill-opacity:1;" d="M 12.113281 6.652344 L 12.082031 6.78125 L 12.140625 6.792969 C 12.175781 6.800781 12.207031 6.808594 12.222656 6.804688 C 12.25 6.800781 12.273438 6.78125 12.28125 6.753906 C 12.28125 6.738281 12.28125 6.722656 12.273438 6.710938 C 12.265625 6.695312 12.253906 6.6875 12.234375 6.679688 L 12.164062 6.664062 L 12.117188 6.652344 Z M 12.113281 6.652344 "/>
<path style=" stroke:none;fill-rule:nonzero;fill:rgb(18.823529%,61.960784%,22.745098%);fill-opacity:1;" d="M 12.398438 7.136719 L 12.574219 6.695312 L 12.78125 6.761719 C 12.835938 6.78125 12.871094 6.796875 12.890625 6.808594 C 12.910156 6.828125 12.925781 6.84375 12.929688 6.871094 C 12.933594 6.898438 12.9375 6.921875 12.929688 6.945312 C 12.914062 6.980469 12.890625 7.003906 12.863281 7.019531 C 12.832031 7.035156 12.796875 7.035156 12.75 7.03125 C 12.765625 7.046875 12.78125 7.0625 12.789062 7.082031 L 12.816406 7.171875 L 12.839844 7.277344 L 12.722656 7.238281 L 12.6875 7.121094 C 12.679688 7.09375 12.671875 7.066406 12.660156 7.039062 C 12.65625 7.03125 12.648438 7.019531 12.636719 7.011719 C 12.628906 7.003906 12.613281 6.996094 12.589844 6.988281 L 12.570312 6.984375 L 12.496094 7.171875 Z M 12.398438 7.136719 "/>
<path style=" stroke:none;fill-rule:nonzero;fill:rgb(100%,100%,100%);fill-opacity:1;" d="M 12.601562 6.914062 L 12.671875 6.9375 C 12.71875 6.953125 12.75 6.960938 12.765625 6.960938 C 12.777344 6.960938 12.789062 6.960938 12.796875 6.949219 C 12.808594 6.941406 12.816406 6.933594 12.820312 6.921875 C 12.828125 6.90625 12.828125 6.894531 12.820312 6.878906 C 12.816406 6.867188 12.804688 6.855469 12.792969 6.851562 L 12.714844 6.828125 L 12.640625 6.804688 L 12.597656 6.914062 Z M 12.601562 6.914062 "/>
<path style=" stroke:none;fill-rule:nonzero;fill:rgb(18.823529%,61.960784%,22.745098%);fill-opacity:1;" d="M 13.011719 7.121094 C 13.027344 7.082031 13.046875 7.042969 13.078125 7.011719 C 13.09375 6.992188 13.117188 6.976562 13.144531 6.964844 C 13.167969 6.953125 13.191406 6.945312 13.21875 6.941406 C 13.257812 6.941406 13.292969 6.941406 13.335938 6.953125 C 13.402344 6.96875 13.460938 7.007812 13.492188 7.0625 C 13.523438 7.117188 13.523438 7.179688 13.5 7.253906 C 13.480469 7.316406 13.4375 7.371094 13.371094 7.402344 C 13.316406 7.433594 13.25 7.4375 13.175781 7.417969 C 13.109375 7.402344 13.050781 7.363281 13.019531 7.308594 C 12.988281 7.246094 12.988281 7.179688 13.011719 7.121094 Z M 13.011719 7.121094 "/>
<path style=" stroke:none;fill-rule:nonzero;fill:rgb(100%,100%,100%);fill-opacity:1;" d="M 13.117188 7.148438 C 13.101562 7.195312 13.097656 7.238281 13.117188 7.273438 C 13.136719 7.308594 13.164062 7.328125 13.203125 7.339844 C 13.242188 7.351562 13.277344 7.347656 13.316406 7.328125 C 13.355469 7.308594 13.375 7.273438 13.394531 7.21875 C 13.414062 7.171875 13.414062 7.128906 13.394531 7.097656 C 13.378906 7.066406 13.351562 7.039062 13.3125 7.03125 C 13.273438 7.019531 13.234375 7.023438 13.199219 7.039062 C 13.164062 7.058594 13.136719 7.09375 13.117188 7.148438 Z M 13.117188 7.148438 "/>
<path style=" stroke:none;fill-rule:nonzero;fill:rgb(18.823529%,61.960784%,22.745098%);fill-opacity:1;" d="M 14.035156 7.769531 L 14.277344 7.355469 L 14.476562 7.445312 C 14.511719 7.460938 14.546875 7.484375 14.578125 7.511719 C 14.59375 7.527344 14.605469 7.546875 14.605469 7.574219 C 14.605469 7.601562 14.605469 7.625 14.589844 7.648438 C 14.578125 7.675781 14.550781 7.699219 14.515625 7.714844 C 14.480469 7.71875 14.441406 7.71875 14.398438 7.707031 C 14.414062 7.726562 14.421875 7.746094 14.429688 7.761719 C 14.4375 7.785156 14.441406 7.8125 14.445312 7.855469 L 14.453125 7.964844 L 14.339844 7.914062 L 14.324219 7.789062 C 14.324219 7.761719 14.320312 7.734375 14.3125 7.707031 C 14.3125 7.695312 14.304688 7.683594 14.296875 7.671875 L 14.25 7.648438 L 14.230469 7.640625 L 14.128906 7.8125 Z M 14.035156 7.769531 "/>
<path style=" stroke:none;fill-rule:nonzero;fill:rgb(100%,100%,100%);fill-opacity:1;" d="M 14.269531 7.574219 L 14.339844 7.605469 C 14.386719 7.625 14.414062 7.640625 14.425781 7.640625 C 14.4375 7.640625 14.453125 7.640625 14.464844 7.632812 C 14.476562 7.628906 14.484375 7.621094 14.488281 7.605469 C 14.496094 7.59375 14.5 7.578125 14.496094 7.566406 C 14.492188 7.554688 14.484375 7.542969 14.472656 7.535156 C 14.449219 7.519531 14.425781 7.511719 14.402344 7.5 L 14.328125 7.464844 Z M 14.269531 7.574219 "/>
<path style=" stroke:none;fill-rule:nonzero;fill:rgb(18.823529%,61.960784%,22.745098%);fill-opacity:1;" d="M 15.980469 8.625 C 16.003906 8.589844 16.035156 8.558594 16.074219 8.535156 C 16.097656 8.523438 16.125 8.511719 16.15625 8.507812 C 16.183594 8.5 16.210938 8.5 16.238281 8.507812 C 16.273438 8.511719 16.308594 8.527344 16.34375 8.546875 C 16.402344 8.578125 16.441406 8.632812 16.453125 8.691406 C 16.464844 8.75 16.449219 8.8125 16.402344 8.875 C 16.363281 8.933594 16.304688 8.972656 16.234375 8.988281 C 16.164062 9 16.09375 8.988281 16.039062 8.949219 C 15.980469 8.917969 15.9375 8.863281 15.925781 8.804688 C 15.914062 8.742188 15.933594 8.683594 15.980469 8.625 Z M 15.980469 8.625 "/>
<path style=" stroke:none;fill-rule:nonzero;fill:rgb(100%,100%,100%);fill-opacity:1;" d="M 16.074219 8.675781 C 16.035156 8.71875 16.023438 8.761719 16.03125 8.796875 C 16.035156 8.832031 16.058594 8.859375 16.089844 8.878906 C 16.128906 8.902344 16.167969 8.910156 16.203125 8.898438 C 16.242188 8.890625 16.277344 8.867188 16.3125 8.820312 C 16.347656 8.773438 16.359375 8.734375 16.355469 8.699219 C 16.351562 8.667969 16.328125 8.636719 16.292969 8.613281 C 16.261719 8.589844 16.21875 8.585938 16.179688 8.597656 C 16.144531 8.601562 16.105469 8.628906 16.070312 8.675781 Z M 16.074219 8.675781 "/>
<path style=" stroke:none;fill-rule:nonzero;fill:rgb(18.823529%,61.960784%,22.745098%);fill-opacity:1;" d="M 11.316406 6.816406 L 11.402344 6.488281 L 11.671875 6.546875 L 11.664062 6.601562 L 11.464844 6.558594 L 11.445312 6.632812 L 11.628906 6.671875 L 11.613281 6.726562 L 11.429688 6.6875 L 11.40625 6.777344 L 11.613281 6.820312 L 11.597656 6.875 Z M 11.316406 6.816406 "/>
</g>
</svg>
