<svg width="32" height="32" viewBox="0 0 32 32" fill="none" xmlns="http://www.w3.org/2000/svg">
<path d="M28.9959 19.1677C27.1926 26.4007 19.8668 30.8025 12.633 28.9988C5.40214 27.1955 1.00026 19.8693 2.80439 12.6368C4.60682 5.40295 11.9326 1.00063 19.1643 2.80394C26.3977 4.60722 30.7992 11.9343 28.9959 19.1677Z" fill="url(#paint0_linear_963_21484)"/>
<path d="M21.8507 13.978C22.1194 12.1815 20.7516 11.2157 18.8812 10.5714L19.4879 8.13777L18.0066 7.76859L17.4159 10.1381C17.0264 10.041 16.6265 9.94949 16.229 9.85876L16.8239 7.47367L15.3434 7.10449L14.7363 9.53729C14.4139 9.46387 14.0975 9.39131 13.7903 9.31492L13.792 9.30733L11.749 8.79723L11.355 10.3794C11.355 10.3794 12.4541 10.6313 12.4309 10.6469C13.0309 10.7967 13.1393 11.1937 13.1212 11.5085L12.43 14.2809C12.4714 14.2915 12.525 14.3067 12.584 14.3303C12.5347 14.3181 12.482 14.3046 12.4275 14.2915L11.4588 18.1752C11.3854 18.3575 11.1993 18.6309 10.7799 18.5271C10.7947 18.5486 9.70317 18.2583 9.70317 18.2583L8.9678 19.9541L10.8955 20.4346C11.2542 20.5245 11.6056 20.6186 11.9516 20.7072L11.3386 23.1687L12.8182 23.5379L13.4254 21.1025C13.8296 21.2122 14.222 21.3135 14.6059 21.4088L14.0009 23.8328L15.4822 24.2019L16.0953 21.7451C18.6213 22.2231 20.5208 22.0303 21.3204 19.7457C21.9646 17.9061 21.2883 16.845 19.9592 16.153C20.9271 15.9298 21.6561 15.2931 21.8507 13.978ZM18.466 18.7241C18.0083 20.5638 14.9109 19.5693 13.9068 19.3199L14.7203 16.0589C15.7244 16.3095 18.9445 16.8057 18.466 18.7241ZM18.9242 13.9514C18.5065 15.6247 15.9286 14.7746 15.0924 14.5662L15.8299 11.6085C16.6661 11.8169 19.3592 12.2059 18.9242 13.9514Z" fill="white"/>
<defs>
<linearGradient id="paint0_linear_963_21484" x1="15.9" y1="2.40063" x2="15.9" y2="2.82255" gradientUnits="userSpaceOnUse">
<stop stop-color="#F9AA4B"/>
<stop offset="1" stop-color="#F7931A"/>
</linearGradient>
</defs>
</svg>
