<svg width="32" height="32" viewBox="0 0 32 32" fill="none" xmlns="http://www.w3.org/2000/svg">
<path d="M15.9981 29.5C23.4531 29.5 29.4966 23.4558 29.4966 16C29.4966 8.54416 23.4531 2.5 15.9981 2.5C8.54316 2.5 2.49971 8.54416 2.49971 16C2.49971 23.4558 8.54316 29.5 15.9981 29.5Z" fill="#988430"/>
<path d="M15.9981 29.0679C23.2145 29.0679 29.0646 23.2171 29.0646 15.9999C29.0646 8.78263 23.2145 2.93188 15.9981 2.93188C8.7817 2.93188 2.93164 8.78263 2.93164 15.9999C2.93164 23.2171 8.7817 29.0679 15.9981 29.0679Z" fill="#7A6A2A"/>
<path d="M15.9981 28.7915C23.0619 28.7915 28.7882 23.0646 28.7882 16C28.7882 8.93545 23.0619 3.2085 15.9981 3.2085C8.9344 3.2085 3.20811 8.93545 3.20811 16C3.20811 23.0646 8.9344 28.7915 15.9981 28.7915Z" fill="#BA9F33"/>
<path fill-rule="evenodd" clip-rule="evenodd" d="M8.4016 14.5585C8.32529 14.4894 8.24466 14.4188 8.16979 14.3483C8.09492 14.2777 8.01861 14.2086 7.9423 14.138L7.71481 13.922C7.67737 13.8846 7.63849 13.8529 7.60106 13.8155C7.56362 13.7823 7.52043 13.7463 7.48299 13.7132C7.18207 13.4267 6.87826 13.1415 6.58022 12.855C6.88834 13.1372 7.18927 13.4166 7.49739 13.7031L7.60394 13.8097C7.64137 13.8471 7.68025 13.8788 7.71768 13.9163L7.94518 14.1265C8.02149 14.1956 8.09636 14.2662 8.17267 14.3425C8.24898 14.4188 8.32529 14.4894 8.4016 14.5585ZM4.40031 14.5153C4.40031 14.5153 5.49603 14.6291 6.03164 14.7054C6.52694 14.7759 8.07764 15.0135 8.07764 15.0135L4.40031 14.5153ZM4.40031 14.5153C4.70844 14.5412 5.01656 14.5743 5.32469 14.6075C5.48163 14.6233 5.63281 14.6406 5.78399 14.655L6.0158 14.6809C6.09212 14.6924 6.16699 14.7025 6.2433 14.714L7.16047 14.8609L7.61978 14.9372C7.77096 14.9631 7.9207 14.9919 8.07908 15.0179C7.9279 15.002 7.77096 14.9804 7.61978 14.9588L7.16191 14.8926L6.24474 14.7572C6.16843 14.7457 6.09356 14.7313 6.01724 14.7198L5.78543 14.6924C5.63425 14.6766 5.47731 14.655 5.32613 14.6377C5.01512 14.6031 4.707 14.5628 4.40031 14.5153ZM7.96821 15.2987C7.96821 15.2987 6.79763 15.5953 6.40168 15.7091C6.01292 15.8156 4.83514 16.1742 4.83514 16.1742L7.96821 15.2987Z" fill="#CFB66C"/>
<path fill-rule="evenodd" clip-rule="evenodd" d="M7.96818 15.2988C7.70901 15.3751 7.44984 15.45 7.18635 15.5191L6.40452 15.7294C6.14391 15.8057 5.88618 15.8806 5.62701 15.9569L5.23826 16.0635C5.10867 16.1009 4.97765 16.1326 4.84518 16.17C4.97333 16.1268 5.10579 16.0822 5.23394 16.0447L5.62269 15.9209C5.8833 15.8403 6.14103 15.7639 6.4002 15.6833C6.66513 15.6171 6.9243 15.5479 7.18923 15.4846C7.43976 15.4212 7.70469 15.3593 7.96818 15.2988ZM5.00069 16.8958C5.12883 16.8483 6.61474 16.1556 6.9603 15.9929C7.13308 15.9123 7.63558 15.7337 7.63558 15.7337L5.00069 16.8958Z" fill="#CFB66C"/>
<path fill-rule="evenodd" clip-rule="evenodd" d="M5.00075 16.8957C5.11449 16.8525 5.22104 16.7992 5.33047 16.7488L5.65443 16.5976L6.3038 16.2851C6.51977 16.1829 6.72999 16.0691 6.95172 15.9727C7.06547 15.9251 7.17921 15.8848 7.29296 15.8488L7.46574 15.7941C7.52477 15.7783 7.57949 15.761 7.63852 15.7466C7.42254 15.8488 7.19505 15.9367 6.97908 16.0375C6.7631 16.144 6.54281 16.2319 6.31963 16.3283L5.66019 16.6192C5.43702 16.7085 5.22104 16.805 5.00075 16.8957ZM5.14473 17.5005C5.14473 17.5005 6.48953 16.7114 6.95316 16.4579C7.19505 16.3226 7.97976 15.9338 7.97976 15.9338L5.14473 17.5005Z" fill="#CFB66C"/>
<path fill-rule="evenodd" clip-rule="evenodd" d="M5.14471 17.5019C5.37221 17.3622 5.60258 17.2197 5.83439 17.0757L6.17994 16.8654C6.29801 16.7963 6.41175 16.7301 6.53126 16.6595C6.64932 16.5889 6.76307 16.5198 6.88257 16.4536C6.94017 16.4176 6.9992 16.3873 7.06111 16.3614L7.24397 16.2693C7.48586 16.1512 7.72919 16.0317 7.98403 15.928C7.75222 16.0749 7.51465 16.1987 7.27564 16.3283C7.15758 16.3945 7.03807 16.4536 6.92001 16.5184C6.80194 16.5832 6.6882 16.6537 6.56869 16.7171C6.45063 16.7862 6.33688 16.8525 6.21738 16.9158L5.86174 17.1102L5.14471 17.5019ZM7.96819 16.108C7.96819 16.108 7.13166 16.7502 6.86098 16.9561C6.59029 17.1621 5.79263 17.7381 5.79263 17.7381L7.96819 16.108Z" fill="#CFB66C"/>
<path fill-rule="evenodd" clip-rule="evenodd" d="M12.7701 21.2878L12.341 20.4771L12.5901 19.4633L14.3668 18.7779L13.6109 17.227L13.9838 15.6603L14.685 14.2577L16.852 13.9164L18.4444 12.3987L21.8828 12.6579L22.5566 16.3356L21.2579 20.9638L20.5163 23.3599L17.5157 23.4737L16.122 22.5089L14.4907 21.8263L12.7701 21.2878Z" fill="#E2CC85"/>
<path fill-rule="evenodd" clip-rule="evenodd" d="M18.0341 21.2603C18.0341 21.2603 17.6194 21.4504 16.911 21.4072C16.7065 21.1322 15.271 21.0026 15.271 21.0026C15.271 21.0026 15.0925 20.9478 14.7757 21.0789C14.4575 21.2085 14.1551 21.1926 13.8729 21.2618C13.5907 21.3309 13.3114 20.9651 13.0954 20.8888C12.8794 20.8081 12.5929 20.6137 12.5929 20.6137L11.9882 20.5547L10.7744 20.0406L8.84503 18.1182L8.32093 18.939L8.15967 19.9542L8.7428 21.1581L10.3137 22.5895L13.3762 23.3671L15.1918 22.8328L17.4653 21.8709L18.0341 21.2603Z" fill="#F1D789"/>
<path fill-rule="evenodd" clip-rule="evenodd" d="M7.15317 14.4678L7.54193 13.2899L8.00556 12.5296L9.49724 12.4043L9.04945 13.7118L7.80254 15.9309L8.32089 17.9123L7.40226 18.3702L7.12149 17.9382L6.894 16.9461L6.87816 15.833L7.15317 14.4678Z" fill="#F4ECB4"/>
<path fill-rule="evenodd" clip-rule="evenodd" d="M8.82635 21.1797L8.53982 20.7794C8.53982 20.7794 8.46351 20.5893 8.50671 20.4237C8.5499 20.2552 8.54414 20.2451 8.52255 20.1818C8.50095 20.1184 8.31665 19.8995 8.32817 19.7123C8.33969 19.5223 8.31233 19.4589 8.45199 19.3077C8.59886 19.1608 8.55422 18.9074 8.55422 18.9074L8.74428 19.0255L8.78748 18.9592C8.78748 18.9592 8.85803 19.0139 8.85803 19.0989C8.87387 18.9808 8.81052 18.4351 8.9545 18.3098C9.09849 18.1845 9.35478 18.893 9.35478 18.893L9.19784 17.8663L8.79324 16.8136L8.07475 15.8517L8.03156 14.7919V14.6997C8.03156 14.6997 7.70183 15.2066 7.60968 15.6069C7.54489 15.8819 7.70183 16.216 7.66872 16.612C7.6428 17.0051 7.60968 16.9749 7.70615 17.1304C7.80262 17.2859 8.03588 17.6071 7.94373 17.8389C7.8631 18.0376 7.58808 17.8979 7.58808 17.8979C7.58808 17.8979 7.53337 18.0592 7.4585 18.1183C7.43258 18.0218 7.40378 17.9613 7.35195 17.9023C7.34763 17.9397 7.33611 17.9901 7.33611 17.9901C7.33611 17.9901 7.2886 17.8389 7.23964 17.6488C7.17485 17.3954 7.1043 17.0613 7.04094 16.8827C7.01502 16.985 6.94879 17.2975 6.94879 17.2975L6.98623 17.7784L7.16477 18.4379L7.33755 18.8699L7.50601 19.3984L7.65144 19.7541L7.76951 20.0248L7.87174 20.6339L8.36704 21.1581L8.63198 21.2762L8.82635 21.1797Z" fill="#F3E19D"/>
<path fill-rule="evenodd" clip-rule="evenodd" d="M7.41381 13.506C7.41381 13.506 7.05816 14.1108 6.95593 14.7199C6.85369 15.3291 6.76154 15.9742 6.82634 16.8036C6.89113 17.6403 7.0164 18.1544 7.11719 18.5201C7.28998 19.1292 7.73778 19.9774 7.73778 19.9774L7.75362 19.9443C7.67875 19.8017 7.61827 19.652 7.57507 19.4964C7.51604 19.2646 7.49444 18.9896 7.43973 18.8657C7.39221 18.7419 7.31014 18.6339 7.27126 18.4812C7.23382 18.3344 7.22806 18.104 7.11431 17.9312C7.0668 17.8606 7.00776 17.6777 6.99048 17.4948C6.96889 17.2198 7.002 16.9116 6.97464 16.6582C6.92713 16.2363 6.89401 15.9497 6.93721 15.7294C6.9804 15.5091 7.2079 14.8827 7.34757 14.3844C7.43973 14.0647 7.38501 13.7969 7.55348 13.519C7.72194 13.2439 7.82417 13.0006 7.86161 12.8335C7.90193 12.6809 7.41381 13.506 7.41381 13.506Z" fill="#F2E8B0"/>
<path fill-rule="evenodd" clip-rule="evenodd" d="M9.10281 13.2639C9.10281 13.2639 8.91994 13.3186 8.83211 13.4151C8.74428 13.5073 8.70684 13.5836 8.59021 13.7391C8.47358 13.8946 8.46638 14.0213 8.36991 14.2157C8.27344 14.4058 8.06177 14.6924 8.03585 14.7946C8.00994 14.8969 7.96674 15.3778 7.91202 15.6053C7.86451 15.8329 7.96674 16.1122 7.96674 16.1122L8.09057 16.0863C8.09057 16.0863 8.09057 16.2476 8.2144 16.357C8.33823 16.4636 8.36127 15.9941 8.36127 15.9941L8.82635 14.4231L9.52757 13.9465L9.60389 13.562L9.10281 13.2639Z" fill="#F5EEC0"/>
<path fill-rule="evenodd" clip-rule="evenodd" d="M9.44256 13.9753C9.44256 13.9753 9.11284 13.9969 8.95157 14.115C8.88678 14.1625 8.85942 14.2028 8.79031 14.2619C8.66072 14.3684 8.5297 14.4678 8.46635 14.6075C8.39579 14.7471 8.31948 14.9588 8.26765 15.3591C8.24605 15.5276 8.24605 15.6831 8.23021 15.8185C8.20861 16.0014 8.1755 16.1483 8.19278 16.2505C8.21437 16.4608 8.43035 16.5702 8.45195 16.8078L8.89974 16.5803L9.32161 14.9171L10.2172 14.3555L9.71037 13.7881L9.44256 13.9753Z" fill="#E6DB9D"/>
<path fill-rule="evenodd" clip-rule="evenodd" d="M7.08133 25.17C7.08277 25.1542 7.08565 25.1369 7.08709 25.1211C7.15188 24.5595 7.1634 24.1332 7.21091 23.8668C7.28146 23.4895 7.32898 23.3484 7.31746 23.2073C7.30162 22.9798 7.28434 22.8142 7.30594 22.6399C7.33906 22.4081 7.56511 22.1331 7.55935 21.943C7.55503 21.7918 7.47872 21.6939 7.41249 21.6017C7.3477 21.5095 7.29442 21.4332 7.29442 21.4332C7.29442 21.4332 7.74221 21.1251 7.73789 19.8838C7.74653 19.8867 7.75517 19.8895 7.7638 19.8953L7.9841 20.5217L8.13528 20.7046L8.71409 21.7831L9.45847 22.506L10.5599 23.2462L11.2496 23.9979L11.3187 26.0009L10.416 27.1716L10.2677 27.4395C9.09852 26.8519 8.02153 26.0859 7.08133 25.17Z" fill="#E5CB7A"/>
<path fill-rule="evenodd" clip-rule="evenodd" d="M9.83569 27.0867C9.83569 27.0867 9.85153 26.8375 10.056 26.6763C10.0891 26.731 10.1107 26.7828 10.1035 26.8231C10.1409 26.7583 10.4001 26.3379 10.9876 26.2284C11.575 26.1219 11.7176 25.6927 11.7176 25.6927L12.9644 24.5595L14.3913 23.2462L16.1249 22.6371L16.9355 22.4383C16.9355 22.4383 16.9513 22.4974 16.9197 22.6284C17.0708 22.6169 17.4049 22.5406 17.7519 22.4182C17.8915 22.3635 18.0226 22.3419 18.0931 22.4139C18.1954 22.5103 18.2112 22.7364 18.2169 22.8718C18.3854 22.8343 18.5798 22.6731 18.7353 22.6889C18.9844 22.7148 19.2047 23.0086 19.4581 23.0086C19.7921 23.0086 19.9433 22.8027 20.1766 22.6414C20.3162 22.5449 20.5178 22.4254 20.6315 22.3447C20.9022 22.146 23.7675 21.2705 23.7675 21.2705L24.7725 21.3367L24.9338 22.4153L24.8474 25.2363C24.8373 25.2463 24.8258 25.2564 24.8157 25.2679L20.2471 27.654L13.9147 28.6246C12.4965 28.3927 11.1272 27.9219 9.86593 27.2321L9.83569 27.0867Z" fill="#D8C173"/>
<path fill-rule="evenodd" clip-rule="evenodd" d="M7.46425 25.5299C7.55495 25.3413 7.63557 25.1843 7.64997 25.1282C7.66148 25.2419 7.68164 25.4911 7.72339 25.756C7.63557 25.6811 7.54919 25.6048 7.46425 25.5299Z" fill="#F1D789"/>
<path fill-rule="evenodd" clip-rule="evenodd" d="M12.0905 28.1838L12.9097 27.9563L12.9788 27.9779C12.9788 27.9779 13.0163 27.9995 13.0163 28.0744C13.1185 28.0153 13.2063 28.0269 13.2697 27.9865C13.3028 28.0557 13.3345 28.2875 13.4799 28.3163C13.6311 28.3494 13.7924 28.2501 13.9565 28.1262C14.1178 27.9981 14.3021 27.8353 14.4417 27.7705C14.4921 27.8641 14.5382 27.9621 14.5771 28.0614C14.7599 27.9145 15.0796 27.3213 15.5331 27.3313C15.6641 27.0217 15.8844 26.7553 16.1638 26.5696C16.5856 26.283 16.8491 26.2614 17.1788 26.2873C17.3099 26.1174 17.4711 25.9734 17.6554 25.8611C17.7101 25.8827 17.8613 25.9748 18.0485 25.887C18.2386 25.7992 18.4531 25.4608 18.7339 25.4176C18.885 25.396 19.0405 25.4291 19.1701 25.5097C19.1701 25.5097 19.9908 24.6947 20.5567 24.424C20.5351 24.3577 20.4905 24.1115 21.1557 23.5657C21.1931 23.5988 21.1672 23.691 21.1931 23.6953C21.2046 23.6953 21.3659 23.6262 21.5703 23.4678C21.8237 23.2777 22.1275 23.079 22.3104 23.0243C22.656 22.922 23.0231 23.1308 23.0231 23.1308C23.0548 23.1092 23.0893 23.0934 23.1253 23.0833C23.2132 23.0675 23.2765 23.0574 23.324 23.0401C23.3197 23.1539 23.3831 23.3483 23.324 23.5168C23.3917 23.5556 23.4651 23.5859 23.54 23.6089C23.5026 23.6896 23.4219 23.8955 23.2866 23.9934C23.4004 24.0481 23.4147 24.1115 23.5774 24.1662C23.5112 24.2584 23.4047 24.4153 23.3572 24.5118C23.3096 24.614 23.1369 25.0403 23.0606 25.2016C22.9799 25.3628 22.8705 25.6609 22.8187 25.72C22.7668 25.779 22.5768 26.0324 22.4299 26.1563C22.5595 26.1088 23.0893 25.946 23.314 25.8856C23.2463 25.9835 22.9079 26.4875 22.5811 26.9713C19.4207 28.8664 15.5979 29.3085 12.089 28.1867L12.0905 28.1838Z" fill="#E0CD81"/>
<path fill-rule="evenodd" clip-rule="evenodd" d="M9.49732 13.9164C9.49732 13.9164 9.30727 13.9164 9.26983 13.9423C9.2324 13.9682 9.45989 14.023 9.529 14.0489C9.59811 14.0748 9.74929 14.1958 9.7896 14.2908C9.82704 14.383 11.1545 14.9172 11.1545 14.9172L12.0933 14.8697L12.4173 14.4218L11.801 13.8818L12.233 12.6089L11.6614 12.701L10.2849 13.5218L9.59523 13.7868L9.49732 13.9164Z" fill="#DFC57C"/>
<path fill-rule="evenodd" clip-rule="evenodd" d="M11.5591 14.3383C11.5865 14.383 11.6355 14.4103 11.6887 14.4075C11.8831 14.4075 12.0616 14.455 12.1365 14.5543C12.2618 14.7113 12.6059 15.2139 12.6059 15.2139L13.4309 15.5105L13.4842 14.5385L12.5814 13.9121L11.5548 14.2894V14.3369L11.5591 14.3383Z" fill="#E5CC7C"/>
<path fill-rule="evenodd" clip-rule="evenodd" d="M11.3979 14.6982C11.3979 14.6982 11.5491 14.7097 11.7391 14.6391C11.9292 14.5686 12.2416 14.4188 12.377 14.4778C12.567 14.5585 12.5281 14.8119 12.7326 15.0394C12.8564 15.1791 13.0839 15.1748 13.2135 15.326C13.3417 15.4772 13.7851 15.4066 13.7851 15.4066L13.9536 16.3138L13.2783 17.1793L13.058 18.2535H12.1452L11.3115 17.9223L10.9011 16.9287L11.107 15.9236L11.3979 14.6982Z" fill="#D2C281"/>
<path fill-rule="evenodd" clip-rule="evenodd" d="M13.1631 14.743C13.1861 14.7502 13.2092 14.7531 13.2322 14.7545C13.2063 14.7761 13.1516 14.8236 13.1732 14.9489C13.1948 15.0742 13.2653 15.2312 13.2063 15.3262C13.2538 15.378 13.2883 15.4385 13.3085 15.5048C13.3459 15.6113 13.356 15.7107 13.5993 15.7251C13.5648 15.7467 13.5317 15.7726 13.5029 15.8014C13.5029 15.8014 13.6713 15.9483 13.7563 16.0836C13.8441 16.0793 14.0745 16.0073 14.0745 16.0073L14.122 16.0404L14.2242 15.9972C14.2242 15.9972 14.1278 15.9598 14.1983 15.7265C14.2631 15.5206 14.3236 15.5321 14.3279 15.5163C14.3322 15.5004 14.3754 15.2844 14.3754 15.1966C14.4085 15.0828 14.4344 14.7387 14.4344 14.7387L14.3653 13.9769L13.9723 13.7393L13.6526 13.4312L13.3517 13.9985L13.153 14.1972L13.1372 14.6883L13.1631 14.743Z" fill="#E2C270"/>
<path fill-rule="evenodd" clip-rule="evenodd" d="M14.109 14.105C14.109 14.105 14.1782 14.3038 14.2055 14.4564C14.2141 14.4262 14.2199 14.3959 14.2213 14.3642C14.2213 14.3642 14.2761 14.6652 14.2861 14.7905C14.3077 14.7862 14.3293 14.779 14.3337 14.802C14.338 14.8236 14.3884 15.067 14.3768 15.2023C14.4676 15.0526 14.5943 14.9258 14.744 14.8351C14.8318 14.7804 14.9341 14.7214 15.0406 14.717C15.2091 14.7127 15.3315 14.8236 15.5316 14.8236C16.0168 14.8236 16.456 14.4679 16.7785 14.3585C17.0161 14.2778 17.222 14.2188 17.366 14.0878C17.4365 14.0287 17.5603 13.8977 17.6741 13.7033C17.8253 13.4441 17.9822 13.218 18.1392 13.1906C18.0686 13.2036 17.9952 13.2094 17.9232 13.2065C17.9232 13.2065 17.9707 13.159 18.0528 13.0927C18.1348 13.0265 18.2313 12.9458 18.371 12.9458C18.6201 12.9458 18.7439 12.9833 18.885 12.9833C19.0247 12.979 19.1053 12.9458 19.1053 12.9458C19.1053 12.9458 19.2522 13.0481 19.5819 13.0481C19.9116 13.0524 20.1319 13.0812 20.3047 13.0956C20.4775 13.11 21.0563 13.0481 21.2219 13.0524C21.3298 13.0567 21.4364 13.0826 21.5343 13.1287L20.9987 11.5735L19.0765 9.89307L17.9318 10.7038L16.1709 12.4649L14.4676 13.0956L14.1119 13.4959V14.105H14.109Z" fill="#CCB360"/>
<path fill-rule="evenodd" clip-rule="evenodd" d="M17.9304 13.2137C17.9304 13.2137 17.9779 13.1661 18.0586 13.0999C18.1392 13.0336 18.2371 12.953 18.3782 12.953C18.6273 12.953 18.7511 12.9904 18.8922 12.9904C19.0319 12.9861 19.1125 12.953 19.1125 12.953C19.1125 12.953 19.2594 13.0552 19.5891 13.0552C19.9188 13.0596 20.1391 13.0884 20.3119 13.1028C20.4846 13.1172 21.0634 13.0552 21.229 13.0596C21.337 13.0639 21.4435 13.0898 21.5415 13.1359L21.2996 12.4346L21.0174 11.8989L20.2139 11.0191C20.2139 11.0191 19.2493 10.4517 19.2421 10.4474C19.2378 10.4431 18.908 10.3552 18.908 10.3552L18.0341 10.8837L17.2407 12.9357L17.2249 13.3677L17.7375 13.6097C17.8656 13.3937 18.0082 13.2209 18.1421 13.1993C18.0226 13.2137 17.9304 13.2137 17.9304 13.2137Z" fill="#D5B457"/>
<path fill-rule="evenodd" clip-rule="evenodd" d="M17.9203 13.359C17.8439 13.3633 17.7806 13.3475 17.7633 13.2942C17.6971 13.1113 17.6453 13.084 17.5905 13.084C17.5358 13.084 17.4624 13.2021 17.4178 13.2121C17.3731 13.2222 17.3213 13.0768 17.3213 13.0768L17.2738 13.0552C17.2738 13.0552 16.9916 13.2381 16.7929 13.4555C16.5942 13.6715 16.2688 14.0387 16.122 14.1035C15.9751 14.1683 15.4726 14.1913 15.3013 14.2288C15.1299 14.2662 14.9385 14.3901 14.9125 14.4189C14.8866 14.4477 14.9888 14.4779 15.0047 14.5067C15.0205 14.5326 14.8362 14.5225 14.8204 14.5499C14.8089 14.5715 14.8636 14.6968 14.8909 14.7601C14.9385 14.7371 14.9888 14.7241 15.0421 14.7227C15.2106 14.7184 15.333 14.8293 15.5331 14.8293C16.0183 14.8293 16.4574 14.4736 16.7799 14.3641C17.0175 14.2835 17.2234 14.2245 17.3674 14.0934C17.4365 14.0344 17.5617 13.9033 17.6755 13.7089C17.759 13.575 17.8396 13.4512 17.9203 13.359Z" fill="#D2B257"/>
<path fill-rule="evenodd" clip-rule="evenodd" d="M10.966 24.1706C10.966 24.1706 10.9228 24.0093 10.5225 23.5917C10.4087 23.4736 10.3396 23.3757 10.2633 23.3052C10.0732 23.1266 9.96238 23.0776 9.82704 22.9754C9.53043 22.7551 9.20647 22.7551 8.95737 22.4844C8.70828 22.2137 8.41887 21.6953 8.21729 21.1668C8.0186 20.6383 7.96388 20.4698 7.96388 20.4554C7.96388 20.441 8.0186 20.3374 8.08771 20.3532C8.15826 20.369 8.15826 20.5044 8.17554 20.5361C8.2101 20.5894 8.25041 20.6398 8.29361 20.6873C8.39584 20.8054 8.5427 20.9465 8.61757 21.1567C8.60173 20.9782 8.54126 20.7794 8.54126 20.7794C8.54126 20.7794 8.9257 21.0214 9.25398 21.2748C9.5837 21.5282 9.71905 21.6161 9.81552 21.7773C9.91199 21.9386 10.138 22.3648 10.2475 22.4901C10.3555 22.614 11.8457 23.0848 11.8457 23.0848L12.5541 23.6133L12.9054 24.3851L12.6304 24.8171L12.102 24.9309L11.2438 24.5464L10.966 24.1706Z" fill="#D2B159"/>
<path fill-rule="evenodd" clip-rule="evenodd" d="M9.05817 21.5138C9.05817 21.5138 9.2367 21.8003 9.67441 22.071C10.0675 22.3086 10.6895 22.5261 11.2453 22.6542C11.5635 22.7306 11.8831 22.7896 12.1696 22.7939C12.9399 22.8054 13.4712 22.5837 14.1292 22.5117C14.4849 22.4742 14.9226 22.4454 15.3761 22.3389C15.9592 22.1992 16.3048 22.0422 16.7742 21.8205C17.1154 21.6635 17.4279 21.5454 17.6798 21.3942C18.0355 21.184 18.2961 20.9507 18.597 20.8816C18.5596 20.9838 18.5207 21.1682 18.2241 21.3582C18.381 21.3539 18.597 21.3424 18.597 21.3424C18.597 21.3424 18.3868 21.4662 18.0182 21.747C17.7907 21.9198 17.4898 22.2122 17.1816 22.4066C16.9829 22.5318 16.767 22.6226 16.6244 22.6974C16.2789 22.8875 16.1392 22.984 15.9132 23.2158C15.9938 23.2115 16.001 23.2158 16.001 23.2158C16.001 23.2158 15.7145 23.2533 15.51 23.3627C15.4668 23.3627 15.3919 23.3469 15.2609 23.3843C15.1587 23.4174 15.0234 23.4909 14.8837 23.5312C14.685 23.5902 14.6202 23.5643 14.6202 23.5643L14.6533 23.6306C14.6533 23.6306 14.3941 23.6262 14.3078 23.6349C14.3236 23.6392 14.3193 23.6464 14.3193 23.6464C14.3034 23.6493 14.289 23.6536 14.2761 23.6622C14.2343 23.6896 14.1883 23.7097 14.1407 23.7213C14.1148 23.7256 14.0932 23.7256 14.0601 23.7328C14.0716 23.7587 14.1566 23.9056 14.1955 23.992C14.1623 24.0136 13.6714 24.3851 13.6714 24.3851C13.6872 24.4096 13.6987 24.4341 13.7088 24.4614C13.7246 24.5089 13.7304 24.5795 13.7462 24.6126C13.7837 24.6789 13.8053 24.689 13.8053 24.689C13.8053 24.689 13.7462 24.7005 13.644 24.7264C13.5562 24.748 13.4496 24.7854 13.2984 24.807C13.2524 24.8128 13.2049 24.8171 13.1588 24.8186C13.1804 24.8661 13.2768 25.0504 13.0997 25.2621C12.9226 25.4737 12.8679 25.504 12.8132 25.6408C12.7859 25.6206 12.7571 25.6019 12.7254 25.5861C12.6664 25.5601 12.5857 25.5213 12.5569 25.468C12.5411 25.5385 12.5181 25.6062 12.4907 25.6739C12.436 25.8208 12.3554 25.9648 12.3395 26.0742C12.2805 26.008 12.1711 25.8798 12.0199 25.9058C11.8687 25.9317 11.7492 26.1376 11.7233 26.1966C11.7233 26.1592 11.6974 26.1304 11.6902 26.175C11.6858 26.2225 11.6023 26.7251 11.1401 27.1312C11.1358 27.0289 11.1358 26.8014 11.1243 26.7265C11.0811 26.7697 11.0278 26.8331 10.714 26.9685C10.4058 27.1038 10.4548 27.2392 10.4548 27.2392C10.4548 27.2392 10.4289 27.0232 10.5945 26.7957C10.7629 26.5681 10.8651 26.4616 10.8651 26.4443C10.8623 26.427 10.8551 26.4097 10.8435 26.3968C10.8219 26.3752 10.7788 26.3493 10.7788 26.3305C10.8047 26.319 11.0653 26.1952 11.0494 25.9374C11.0336 25.7056 10.9357 25.5861 10.8666 25.5011C10.8551 25.4896 10.9688 25.4089 10.9544 25.383C10.9429 25.3672 10.8032 25.2649 10.786 25.2102C10.7903 25.1771 10.7975 25.1454 10.8076 25.1138C10.8234 25.0662 10.8335 25.0331 10.8291 25C10.8176 24.9453 10.7586 24.7941 10.7413 24.7797C10.7572 24.784 10.8651 24.7797 10.8651 24.7797C10.8651 24.7797 10.7773 24.64 10.7629 24.5738C10.7471 24.5075 10.7154 24.3361 10.6967 24.303C10.7341 24.3074 10.8263 24.3146 10.8263 24.303C10.8306 24.2699 10.7456 24.2152 10.7831 24.1734C10.809 24.1778 10.8594 24.1993 10.9069 24.2613C10.881 24.1907 10.8378 24.0554 10.7456 24.0006C10.7888 23.9848 10.9357 23.9459 11.0653 24.0222C11.1934 24.0986 11.2381 24.2051 11.2381 24.2051C11.2381 24.2051 11.3144 24.2642 11.4324 24.352C11.5678 24.4586 11.7406 24.6112 12.0156 24.7192C12.0746 24.7523 12.2258 24.7523 12.3352 24.7307C12.3827 24.7192 12.4288 24.7005 12.4705 24.676C12.4864 24.6674 12.5022 24.6602 12.5181 24.6544C12.495 24.6069 12.4677 24.5622 12.4374 24.519C12.4749 24.519 12.5181 24.5234 12.5181 24.5234C12.5181 24.5234 12.544 24.4643 12.4259 24.3506C12.4518 24.3246 12.4849 24.3073 12.4849 24.2627C12.4475 24.2584 12.3827 24.2037 12.3669 24.1821C12.3885 24.1662 12.4216 24.1158 12.459 24.1014C12.4259 24.0755 12.3453 23.9661 12.3078 23.9546C12.3438 23.9416 12.377 23.9258 12.4101 23.907C12.4101 23.907 12.2272 23.8595 12.1682 23.8192C12.1092 23.776 12.0213 23.7011 11.9695 23.6795C11.9148 23.6579 11.8183 23.6464 11.7794 23.6032C11.8169 23.6147 11.8759 23.6032 11.9191 23.6032C11.9522 23.6032 11.9666 23.6075 11.9781 23.6075C11.9738 23.5917 11.9738 23.56 12.0588 23.5485C12.0991 23.5427 12.1394 23.5298 12.1768 23.511C12.1768 23.511 12.0962 23.5067 12.004 23.4189C11.9119 23.331 11.8356 23.2619 11.7837 23.2504C11.729 23.2389 11.6268 23.2878 11.5635 23.2835C11.4756 23.272 11.4382 23.2288 11.4382 23.2288C11.4382 23.2288 11.1473 23.2547 10.5037 22.8616C9.94654 22.5203 9.70465 22.2194 9.70465 22.2194C9.65281 22.2006 9.60242 22.1776 9.55346 22.1488C9.34325 22.0394 9.05385 21.8118 9.06249 21.5152L9.05817 21.5138Z" fill="#C2A44D"/>
<path fill-rule="evenodd" clip-rule="evenodd" d="M17.0939 8.40263C17.1443 8.41847 17.1889 8.44871 17.2235 8.49047C17.3257 8.60855 17.3919 8.83175 17.1572 9.06935C17.2494 9.10247 17.2868 9.11255 17.3674 9.10247C17.2868 9.19895 17.1039 9.40343 17.0924 9.58343C17.0809 9.73031 17.1731 9.77351 17.1731 9.77351C17.1731 9.77351 17.0334 9.93479 17.0262 10.2055C17.0924 10.1306 17.1644 10.0629 17.2422 9.99959C17.4034 9.86999 17.6266 9.72455 17.7778 9.63239C17.7763 9.67127 17.7807 9.70871 17.7936 9.74615C17.7936 9.74615 18.0758 9.51431 18.312 9.61799C18.4185 9.66551 18.371 9.81671 18.371 9.81671C18.371 9.81671 18.5178 9.76199 18.6201 9.86423C18.7223 9.96647 18.8677 10.2314 18.9426 10.3351C18.9757 10.3826 19.0607 10.4748 19.1485 10.6173C19.268 10.8161 19.3673 11.0263 19.4451 11.2437C19.4494 11.13 19.4782 10.9529 19.8007 11.0652C20.1232 11.1789 20.4904 11.4165 20.7985 11.886C21.1066 12.3554 21.1829 12.8839 21.3384 13.0855C21.4954 13.2799 21.6581 13.6039 21.6682 13.7393C21.6782 13.8746 21.6206 14.3109 21.9432 15.4932C22.0353 15.126 22.175 14.3109 22.175 14.3109L22.2513 13.5924L22.3391 11.369L20.0167 9.43943L18.2011 8.12183L17.019 8.23559L17.0939 8.40263Z" fill="#CAA13E"/>
<path fill-rule="evenodd" clip-rule="evenodd" d="M21.4076 11.7131C21.4076 11.7131 21.3745 11.4971 20.8288 11.1299C20.2831 10.767 19.8569 10.767 19.4638 10.4589C19.1629 10.2169 18.8475 9.65965 18.6431 9.47533C18.4444 9.29389 18.4113 8.76973 18.4113 8.76973L19.0822 8.20813L20.0801 6.76669L20.9238 5.83789L21.3284 6.39949L21.89 7.05901L22.2024 8.38237L22.3162 10.3206L21.4076 11.7131Z" fill="#B59544"/>
<path fill-rule="evenodd" clip-rule="evenodd" d="M22.0829 14.0343C22.0987 13.7405 22.0627 13.4453 21.9763 13.1645C21.8323 12.7167 21.5185 11.9218 21.3716 11.6237C21.3126 11.294 21.3558 11.2681 21.4191 11.2306C21.4825 11.1932 21.72 11.0578 21.8511 10.5826C21.9821 10.1074 22.3867 10.0916 22.3867 10.0916L22.6358 9.90869L23.0144 10.8548L23.3441 11.7087L23.4464 12.3625L23.5227 12.9197L23.3441 14.0977L22.4601 14.8969L22.0829 14.0343Z" fill="#C89D3A"/>
<path fill-rule="evenodd" clip-rule="evenodd" d="M9.74066 27.1586V27.1341C9.75938 27.1226 9.77522 27.1082 9.78818 27.0909C9.80402 27.0693 9.81409 27.0434 9.82561 27.0362C9.84721 27.0247 9.95088 26.993 10.0042 27.0031C10.0589 27.0132 10.2029 27.0722 10.2792 27.0693C10.4361 27.065 10.6204 26.944 10.9098 27.0002C11.3461 27.0808 11.4498 27.3775 11.7032 27.546C11.876 27.6641 12.0545 27.6122 12.0804 27.6122H12.1394C12.151 27.6122 12.2316 27.5201 12.2748 27.5244C12.3626 27.5287 12.3713 27.6007 12.426 27.605C12.5556 27.6209 12.8046 27.5388 12.9285 27.5719C13.0033 27.5949 13.0624 27.654 13.0854 27.7289C13.1113 27.8095 13.0897 27.9117 13.0264 27.9708C12.891 28.0946 12.7629 28.2127 12.7355 28.3164C12.7687 28.3423 12.8003 28.3682 12.832 28.397C11.7521 28.1234 10.7126 27.7073 9.74066 27.1586Z" fill="#CEB052"/>
<path fill-rule="evenodd" clip-rule="evenodd" d="M21.3716 22.7939C21.3716 22.7939 21.7128 22.3388 21.8309 22.1142C21.949 21.8823 21.458 18.9447 21.458 18.9447L22.4457 15.7091L22.4198 14.6564C22.4198 14.6564 22.4673 13.6844 22.5811 13.2625C22.7164 13.5044 23.1383 13.7982 23.2304 13.9523C23.2736 13.6556 23.4205 13.0278 23.3989 12.3596C23.4795 12.4835 23.6739 13.7363 23.6739 13.7363L23.8683 14.5787L24.1217 15.4743L24.4039 16.4204L24.5724 17.0742L24.6688 17.2311L24.7495 17.5062L24.8258 17.8028L25.0461 18.4998L25.1757 19.0715L25.2779 20.1097C25.3009 20.1889 25.3168 20.2695 25.3254 20.3516C25.3297 20.4654 25.3096 20.5302 25.3096 20.5503C25.3096 20.5705 25.347 20.7995 25.3312 20.9723C25.3096 21.1451 25.3096 21.2804 25.1742 21.4043C25.0389 21.5281 24.9539 22.2697 24.9539 22.2697L24.712 22.1084C24.712 22.1084 24.7595 21.8881 24.6458 21.6865C24.532 21.4849 24.3117 21.4446 24.1865 21.4763C24.0627 21.5022 23.8136 21.5411 23.7329 21.6116C23.6566 21.6807 23.4694 21.8982 23.2967 21.9961C23.0807 22.1257 22.7294 22.1358 22.5407 22.179C22.3507 22.2222 22.1405 22.3518 21.9202 22.5015C21.7445 22.6182 21.5616 22.7147 21.3716 22.7939Z" fill="#CCA847"/>
<path fill-rule="evenodd" clip-rule="evenodd" d="M21.3716 27.5676C21.3716 27.5676 21.386 27.5776 21.4133 27.592C22.9655 26.8648 24.3549 25.8338 25.5025 24.5608C25.4895 24.1188 25.4737 23.6652 25.4564 23.4981C25.4189 23.1424 25.4449 22.7796 25.4348 22.5693C25.4247 22.3591 25.3066 21.5052 25.2519 21.2848C25.1929 21.0645 25.0791 20.9551 25.0619 20.9551C25.046 20.9594 24.9553 21.3698 24.9553 21.4735C24.9553 21.5772 24.9337 21.8248 24.9337 21.8882C24.9179 21.8839 24.9121 21.845 24.9121 21.8292C24.8905 21.8839 24.8646 21.9804 24.8531 21.9904C24.8416 22.0005 24.8689 21.8983 24.8531 21.8767C24.8373 21.8551 24.8099 21.8652 24.8157 21.8104C24.8185 21.7788 24.8229 21.7456 24.8315 21.714C24.8315 21.714 24.7653 21.8104 24.7177 22.0552C24.6702 22.2972 24.6702 22.3044 24.6515 22.326C24.6357 22.3519 24.5493 22.4397 24.545 22.4728C24.5406 22.5319 24.6256 22.5909 24.6328 22.624C24.6371 22.6788 24.5565 22.9322 24.5306 23.056C24.5047 23.1799 24.5147 23.4232 24.4874 23.5471C24.4658 23.6608 24.4442 23.7256 24.3693 23.7746C24.424 23.7861 24.4759 23.8005 24.4759 23.8005C24.4759 23.8005 24.5522 24.1231 24.3578 24.3996C24.2872 24.496 24.27 24.5392 24.1965 24.6271C24.0497 24.7884 23.9359 24.9727 23.9258 25.0922C23.9186 25.0562 23.9129 25.0216 23.91 24.9856C23.91 24.9856 23.6825 25.2506 23.5875 25.4004C23.4637 25.5948 23.2909 25.5832 23.2419 25.6322C23.193 25.6812 23.1829 25.7676 23.1987 25.8381C23.1555 25.8496 23.0749 25.864 23.0202 26.0325C22.9943 26.1204 22.928 26.2053 22.8258 26.2644C22.7236 26.3234 22.5983 26.3407 22.535 26.3565C22.5897 26.3724 22.6113 26.3724 22.6372 26.3896C22.6041 26.4444 22.4543 26.5293 22.2859 26.6388C22.1174 26.741 22.0368 26.8922 21.995 26.9901C21.9518 27.0823 21.8885 27.1413 21.7848 27.1514C21.828 27.1773 21.8914 27.2392 21.9245 27.258C21.877 27.2695 21.7949 27.2695 21.6495 27.3933C21.494 27.52 21.4421 27.556 21.3716 27.5676Z" fill="#C39D3C"/>
<path fill-rule="evenodd" clip-rule="evenodd" d="M18.3321 28.58C18.4156 28.521 18.5063 28.4735 18.6013 28.4375C18.9426 28.3021 19.3025 28.2762 19.4451 28.2316C19.5804 28.1884 19.687 28.1293 19.8554 28.0962C19.8511 28.1351 19.8468 28.1711 19.8439 28.2042C19.3472 28.3597 18.8418 28.4864 18.3321 28.58Z" fill="#D2BA6B"/>
<path fill-rule="evenodd" clip-rule="evenodd" d="M24.6155 19.6188C24.6155 19.6188 24.5449 19.9961 24.4211 20.2351C24.2958 20.4727 24.1619 20.8025 24.1619 20.8025C24.1633 20.7276 24.172 20.6541 24.1878 20.5821C24.0309 20.6743 23.6479 20.8946 23.5399 20.9925C23.4377 21.0847 23.2649 21.246 23.2203 21.3223C23.3225 21.0213 23.4305 20.7506 23.4477 20.6253C23.2908 20.7391 22.5565 21.3439 22.1749 21.7442L20.9842 22.7076C20.8474 22.781 20.7049 22.8473 20.5609 22.9063C20.355 22.9941 20.1131 23.0676 19.9346 23.1381C19.9821 23.01 20.0584 22.8962 20.1664 22.7868C20.2801 22.6802 20.6214 22.3101 20.6732 22.1388C20.7207 21.9602 20.7322 21.8522 20.6689 21.7025C20.6098 21.7183 20.4745 21.7241 20.3823 21.75C20.2902 21.7759 20.1923 21.8738 20.1923 21.8738C20.1923 21.8738 20.2614 21.4735 20.4126 21.0962C20.2988 21.1006 20.1045 21.1337 20.1045 21.1337C20.1045 21.1337 20.3751 20.6786 20.8388 20.3633C20.6962 20.3935 20.558 20.4367 20.4241 20.4914C20.1534 20.6052 19.8568 20.7737 19.6351 20.8644C19.7589 20.6916 20.6329 19.4445 21.1527 18.2825C21.671 17.1218 21.8639 16.8252 21.9777 16.2031C22.0367 15.8949 22.0209 15.4399 22.0367 15.0324C22.0525 14.6277 22.1029 14.2663 22.0698 14.0229C22.2052 14.1914 22.712 14.6652 22.7293 15.725C22.7451 16.7849 22.244 18.2148 21.7142 18.9866C21.8438 19.0241 22.1793 19.0673 22.5248 18.4682C22.8704 17.8692 22.8661 17.7022 22.9899 17.453C23.0057 17.5783 23.0014 17.6215 23.0014 17.6215C23.0014 17.6215 23.5039 17.0124 23.7415 16.2449C23.789 16.5746 23.9315 16.8655 23.7084 17.4703C23.5097 18.0161 23.2505 18.15 23.2505 18.15C23.2505 18.15 23.3786 18.1284 23.5687 18.0146C23.6018 18.0953 23.5946 18.1874 23.6493 18.2205C23.704 18.2537 23.7775 18.3084 23.789 18.3602C23.848 18.2724 23.9402 18.1615 23.9675 18.078C23.9459 18.2508 23.9301 19.0068 24.0107 19.3913C24.1792 19.3754 24.352 19.3653 24.47 19.0615C24.3894 19.3581 24.3894 19.5381 24.4441 19.7916C24.5334 19.7268 24.614 19.6173 24.6155 19.6188Z" fill="#C0993A"/>
<path fill-rule="evenodd" clip-rule="evenodd" d="M18.9398 7.57741C18.9398 7.57741 18.7713 7.64653 18.4848 7.64653C18.2357 7.64653 18.3062 7.55005 17.9175 7.55005C17.3185 7.55005 15.2293 7.89565 14.8621 7.89133C14.6245 7.88701 15.6655 7.99357 15.6655 7.99357L18.3278 8.03101L18.8634 7.98781L19.0621 7.58317L18.9398 7.57741Z" fill="#A88F33"/>
<path fill-rule="evenodd" clip-rule="evenodd" d="M12.0358 12.7829C12.0358 12.7829 11.6945 13.0421 11.5505 13.2423C11.4065 13.4425 11.3302 13.5721 11.1661 13.7334C11.205 13.7348 11.2424 13.729 11.2798 13.7175C11.2798 13.7175 11.2798 13.7607 11.2539 13.7722C11.3 13.7665 11.3461 13.7823 11.3777 13.8154C11.3302 13.8414 11.1992 13.9724 11.3014 14.1279C11.3777 14.246 11.539 14.2561 11.539 14.2561C11.539 14.2561 11.5016 14.3626 11.6571 14.3526C11.9911 14.3367 12.3655 14.1913 12.5368 14.2273C12.7096 14.2705 12.8075 14.2863 12.9299 14.498C13.0595 14.7082 13.1718 14.7399 13.1718 14.7399C13.1718 14.7399 13.2481 14.5455 13.2308 14.2546C13.2942 14.0977 13.3287 13.9321 13.333 13.7636L13.2193 12.9269L12.724 12.3005L12.0818 12.6562L12.0358 12.7829Z" fill="#E3C571"/>
<path fill-rule="evenodd" clip-rule="evenodd" d="M12.6447 12.6579C12.6447 12.6579 12.6922 12.7717 12.8938 12.7817C12.8722 12.8293 12.8722 12.8365 12.878 12.8739C12.8823 12.9113 12.8895 12.9661 12.8895 12.9661C12.9111 12.956 12.9312 12.9401 12.9485 12.9229C12.96 12.9704 12.937 13.0467 12.9485 13.1014C12.9557 13.1345 12.9658 13.1677 12.9816 13.1979C12.9845 13.1907 12.9888 13.1835 12.9931 13.1763C12.9975 13.1648 13.0363 13.2944 13.1443 13.3923C13.1443 13.3779 13.1486 13.3621 13.1558 13.3491C13.1573 13.3765 13.1659 13.4024 13.1818 13.4254C13.1731 13.4211 13.1659 13.4168 13.1602 13.4096C13.1602 13.4096 13.1717 13.7552 13.2293 13.9337C13.2394 13.9222 13.248 13.9093 13.2552 13.8963C13.2552 13.8848 13.2509 13.9928 13.2394 14.0691C13.2235 14.1454 13.235 14.252 13.235 14.252C13.2739 14.2203 13.3171 14.1958 13.3632 14.1757C13.4294 14.1497 13.536 14.0691 13.6008 13.8891C13.6382 13.7883 13.6684 13.6832 13.6886 13.5766C13.7102 13.6169 13.7246 13.6616 13.7318 13.7062C13.7361 13.7609 13.8383 13.7321 13.8383 13.7321L13.8599 13.4945L13.9895 12.9545L14.1076 12.6205L14.6748 11.7363L15.7014 10.9457L16.597 11.1517L17.3529 10.1249L16.0513 9.34302L14.8188 9.47262L13.7001 11.0206L12.8045 12.4246L12.6447 12.6579Z" fill="#D8B65B"/>
<path fill-rule="evenodd" clip-rule="evenodd" d="M19.0966 10.4172C19.0966 10.4172 19.0203 10.4331 18.8 10.5468C18.5797 10.6606 18.4271 10.698 18.3407 10.8651C18.2543 11.0321 18.2486 11.166 18.2486 11.166C18.2486 11.166 18.3997 11.1012 18.4861 11.0782C18.5783 11.0566 18.6805 11.0623 18.669 11.0998C18.6589 11.1257 18.6445 11.1487 18.6258 11.1689C18.6258 11.1689 18.7986 11.1646 18.7943 11.2495C18.7899 11.3345 18.7611 11.4281 18.7295 11.4699C18.6963 11.5131 18.561 11.5764 18.5466 11.6268C18.5092 11.7291 18.5624 11.7334 18.5423 11.8169C18.5264 11.8975 18.4545 12.0545 18.2198 12.331C17.9779 12.606 17.8742 12.8004 17.8742 12.8004C17.8742 12.8004 17.7561 12.5801 17.6957 12.39C17.6525 12.4116 17.4207 12.5412 17.4207 12.5412L16.8836 10.6692L16.8951 10.5439C16.8951 10.5439 16.9427 10.4849 16.9542 10.3755C16.8735 10.3495 16.862 10.3279 16.7555 10.2243C16.6489 10.122 16.5611 9.99675 16.3826 9.91179C16.3566 9.86427 16.3235 9.79803 16.1925 9.77211C16.0615 9.74619 15.9823 9.72459 15.9823 9.72459C15.9823 9.72459 16.0514 9.69867 16.0845 9.64395C16.0039 9.65547 15.9377 9.68139 15.762 9.67707C15.5835 9.67275 15.5633 9.66555 15.4654 9.68139C15.3675 9.69723 15.2494 9.74043 15.2048 9.58923C15.1573 9.55179 15.0536 9.58491 14.9672 9.71307C14.8794 9.84123 14.8492 9.94491 14.6807 9.99531C14.6692 10.0687 14.6433 10.1407 14.6044 10.2055C14.5569 10.2862 14.4791 10.3668 14.3769 10.4878C14.2156 10.6779 14.2416 10.9903 13.9838 11.2279C13.7232 11.4655 14.027 10.5684 14.027 10.5684L14.4417 9.57483L15.6238 8.41852L17.4581 8.29468L17.6366 9.24507L18.5322 9.55323L19.0966 10.4172Z" fill="#D3AE4D"/>
<path fill-rule="evenodd" clip-rule="evenodd" d="M19.3875 10.6274L18.6158 9.51568L18.0758 9.10096C18.0758 9.10096 17.6914 8.39392 17.6654 8.37088C17.6438 8.35504 17.281 8.31616 17.0492 8.30176L17.0924 8.40832C17.1428 8.42416 17.1874 8.4544 17.222 8.49616C17.3242 8.61424 17.3904 8.83744 17.1557 9.07504C17.2479 9.10816 17.2853 9.11824 17.366 9.10816C17.2853 9.20464 17.1025 9.40912 17.0909 9.58912C17.0794 9.736 17.1716 9.7792 17.1716 9.7792C17.1716 9.7792 17.0319 9.94048 17.0247 10.2112C17.0909 10.1363 17.1629 10.0686 17.2407 10.0053C17.4019 9.87568 17.6251 9.73024 17.7763 9.63808C17.7749 9.67696 17.7792 9.7144 17.7922 9.75184C17.7922 9.75184 18.0744 9.52 18.3105 9.62224C18.4171 9.66976 18.3695 9.82096 18.3695 9.82096C18.3695 9.82096 18.5164 9.76624 18.6186 9.86848C18.7209 9.97072 18.8677 10.2357 18.9412 10.3379C18.9743 10.3854 19.0592 10.4776 19.1471 10.6202C19.2666 10.8189 19.3659 11.0291 19.4437 11.2466C19.448 11.1587 19.4653 11.0363 19.6165 11.0363L19.3875 10.6274Z" fill="#CAA13E"/>
<path fill-rule="evenodd" clip-rule="evenodd" d="M7.82853 13.7853C7.82853 13.7853 7.77382 13.6499 7.82853 13.385C7.88324 13.12 7.96819 12.9962 7.99699 12.6074C8.02578 12.2186 8.27919 11.7333 8.27919 11.7333L8.98037 11.415L9.47566 11.5504L9.62252 12.2142L8.99621 12.5598C8.99621 12.5598 8.96309 12.7067 8.786 12.8234C8.6089 12.9414 8.36414 13.0336 8.3051 13.1531C8.27055 13.2266 8.24463 13.3043 8.2288 13.385C8.2288 13.385 8.05026 13.3475 7.94227 13.4656C7.82853 13.588 7.83285 13.6946 7.82853 13.7853Z" fill="#F4EFC8"/>
<path fill-rule="evenodd" clip-rule="evenodd" d="M9.24385 13.6082C9.24385 13.6082 9.18482 13.6457 9.14162 13.7378C9.09843 13.6687 8.99476 13.2525 8.99044 12.8796C8.98612 12.5066 8.96309 12.413 9.04948 12.2849C9.13587 12.1567 9.47423 12.0199 9.42671 11.7881C9.3792 11.5677 9.17762 11.4756 8.93141 11.5389C8.75863 11.5821 8.63048 11.9493 8.4505 12.1337C8.31516 12.2733 8.1539 12.2517 8.10927 12.3281C8.05023 12.4303 8.10495 12.534 8.08767 12.5988C8.08335 12.6204 8.02863 12.7385 7.93073 12.881C7.73203 13.1676 7.39511 13.5708 7.35191 13.9337C7.36775 13.7277 7.35623 13.7234 7.41095 13.4973L7.37783 13.4426L7.5938 12.7341L7.73347 12.1509L8.04591 11.1746L8.59593 10.1767L9.13155 9.57764L9.68876 9.61508L9.75355 10.4517L10.0732 12.0228L10.7442 12.8479L9.67004 13.5708L9.24385 13.6082Z" fill="#EBCC73"/>
<path fill-rule="evenodd" clip-rule="evenodd" d="M9.5779 13.9049C9.5779 13.9049 9.48575 13.9265 9.45408 13.9092C9.42096 13.8919 9.38928 13.8718 9.39936 13.8502C9.40944 13.8286 9.46847 13.7911 9.46847 13.7739C9.47135 13.7407 9.44688 13.7119 9.41376 13.7091C9.36337 13.7019 9.34897 13.735 9.34897 13.735C9.34897 13.735 9.30145 13.6975 9.26114 13.6918C9.28418 13.6889 9.30721 13.6875 9.33169 13.6875C9.27122 13.6601 9.20786 13.6414 9.14163 13.6327C9.19635 13.5996 9.30289 13.5031 9.37344 13.5031C9.444 13.5031 9.48719 13.4916 9.47567 13.4556C9.46416 13.4196 9.41088 13.3635 9.35185 13.3419C9.37344 13.3159 9.38928 13.2771 9.33601 13.1691C9.2813 13.0625 9.30289 12.9905 9.32017 12.9631C9.33601 12.93 9.39072 12.871 9.41664 12.8335C9.44256 12.7961 9.46415 12.7457 9.50879 12.7198C9.53039 12.7039 9.60094 12.6766 9.67005 12.6507C9.74636 12.6247 9.80971 12.5916 9.85291 12.6247C9.90042 12.6579 9.87883 12.7011 9.87883 12.7011C9.87883 12.7011 10.03 12.6463 10.1654 12.7169C10.3007 12.7817 10.6304 12.8235 10.6304 12.8235L10.7485 13.0611L9.96666 13.7321L9.64413 13.8934L9.5779 13.9049Z" fill="#E5C66B"/>
<path fill-rule="evenodd" clip-rule="evenodd" d="M10.6636 12.809C10.6636 12.809 10.4217 12.9703 10.367 13.0293C10.4001 13.0336 10.4548 13.0552 10.4318 13.0883C10.4058 13.1215 10.2489 13.2352 10.1611 13.3418C10.0689 13.4483 9.98253 13.5837 9.95085 13.6499C9.91774 13.709 9.66864 13.8818 9.58369 13.9034C9.76223 13.9034 10.1236 13.6831 10.259 13.6831C10.2547 13.7479 10.2964 13.8227 10.3727 13.8299C10.449 13.8357 10.6693 13.8775 10.9674 13.6946C11.264 13.516 11.1661 13.3821 11.2899 13.2943C11.5275 13.1373 11.6239 12.9976 11.755 12.9098C11.886 12.8219 11.9537 12.8032 11.9537 12.8032C11.9537 12.8032 11.958 12.7384 11.9969 12.7442C12.0184 12.7471 12.0372 12.7615 12.0444 12.7816C12.0444 12.7816 12.2719 12.6203 12.5627 12.5757C12.5555 12.5728 12.5512 12.5671 12.5469 12.5599C12.5469 12.5599 12.5685 12.5483 12.5728 12.5383C12.5728 12.5383 12.5886 12.5167 12.5987 12.5267C12.6088 12.5368 12.6246 12.6189 12.6462 12.652C12.6937 12.6304 12.7859 12.4245 12.7859 12.4245L13.0062 11.7938V11.2178L12.8334 11.2509L11.5375 11.801L10.7514 12.616L10.6636 12.809Z" fill="#E6BD62"/>
<path fill-rule="evenodd" clip-rule="evenodd" d="M14.3941 9.98081C14.4647 9.96353 14.5309 9.93617 14.5928 9.90017C14.5669 9.97073 14.5669 10.0471 14.4532 10.2127C14.3394 10.3783 14.3351 10.4027 14.2429 10.5755C14.1508 10.7541 14.1407 11.0119 14.0529 11.1256C14.0918 11.1069 14.1335 11.0939 14.1767 11.0882C14.1767 11.0882 14.0889 11.1645 14.0529 11.2451C14.0155 11.3258 13.9507 11.4943 13.7894 11.5965C13.6281 11.6987 13.4222 11.765 13.2019 12.0069C12.9817 12.2445 12.7542 12.5469 12.6404 12.6549C12.6994 12.5527 12.7801 12.3467 12.8017 12.2114C12.8233 12.076 12.7974 11.9147 12.8348 11.7347C12.8722 11.5562 12.8722 11.4266 13.0508 11.1141C13.2293 10.8016 13.536 9.71585 13.536 9.71585L14.1954 9.50562L14.3941 9.98081Z" fill="#B6933F"/>
<path fill-rule="evenodd" clip-rule="evenodd" d="M13.9191 9.58045C13.9191 9.58045 13.7204 9.86701 13.6657 10.1205C13.6109 10.3739 13.6613 10.3523 13.6282 10.4761C13.6081 10.5525 13.6081 10.6317 13.6282 10.708C13.6973 10.5971 13.7909 10.5035 13.9032 10.4373C14.0904 10.3235 14.2445 10.2429 14.3352 10.1464C14.4273 10.0441 14.5036 9.87565 14.7023 9.74605C14.6217 9.73453 14.5079 9.69853 14.4863 9.70285C14.567 9.61069 14.8089 9.47101 15.0536 9.30252C15.2955 9.12972 15.2811 9.0606 15.6742 8.8878C15.5446 8.9094 15.4841 8.87628 15.3776 8.8878C15.4208 8.79564 15.572 8.75244 15.7231 8.60124C15.8743 8.45003 15.6267 8.22827 15.6267 8.22827L14.4748 8.92524L13.9191 9.58045Z" fill="#C49937"/>
<path fill-rule="evenodd" clip-rule="evenodd" d="M10.7932 9.06072L10.8191 8.85048L11.1488 8.322L11.4944 7.39465V6.12457L11.4684 5.39017L11.5217 4.91065L11.5635 4.75801L11.6081 4.69897L11.8889 4.84441L12.2776 5.37289L12.3151 6.39385L11.9378 8.00376L10.858 9.18024L10.7932 9.06072Z" fill="#DFC068"/>
<path fill-rule="evenodd" clip-rule="evenodd" d="M11.6513 4.63992C11.6513 4.63992 11.4785 4.64424 11.4411 5.3628C11.4036 6.08136 11.3863 6.46008 11.3604 6.81576C11.3345 7.17144 11.2726 7.38744 11.2424 7.59768C11.2121 7.80792 11.1948 8.09304 11.0955 8.26872C11.0523 8.34936 10.9602 8.6028 10.7442 8.79288C10.5023 9.00312 10.1394 9.14856 10.0847 9.16008C9.98825 9.18168 9.50158 9.23064 9.30288 9.33864C9.23232 9.37608 9.11281 9.41928 8.97891 9.54456C8.71397 9.78216 8.36265 10.2084 8.10923 10.7225C7.72047 11.49 7.33171 13.6543 7.33171 13.6543L7.41954 13.5074C7.41954 13.5074 7.43106 13.313 7.62544 12.9718C7.8155 12.6305 7.76079 12.2489 8.02572 11.5951C8.12795 11.346 8.25754 11.0234 8.41448 10.747C8.66358 10.2991 8.96451 9.91464 9.26832 9.7044C9.76363 9.36312 10.3108 9.28968 10.3108 9.28968L10.8982 8.90088C10.8982 8.90088 11.0005 8.70216 11.1358 8.47464C11.3259 8.1564 11.5678 7.79928 11.621 7.28232C11.7017 6.51624 11.5073 6.01368 11.5188 5.55864C11.5303 5.1036 11.5347 4.76952 11.6254 4.68888C11.7175 4.60824 11.6513 4.63992 11.6513 4.63992Z" fill="#A88F33"/>
<path fill-rule="evenodd" clip-rule="evenodd" d="M11.6513 8.06834C11.6513 8.06834 11.9104 7.43042 12.0285 6.86451C12.0501 6.75075 12.0933 6.63699 12.1048 6.54627C12.1595 6.01059 12.1739 5.79027 12.1048 5.49796C12.0501 5.28196 11.8413 5.08756 11.7319 4.93636C11.6253 4.7794 11.5749 4.72036 11.5965 4.68724C11.6181 4.65412 11.7031 4.5994 11.7866 4.6066C11.9651 4.61236 12.1336 4.69012 12.2517 4.8226C12.4201 5.017 12.5526 5.67652 12.5526 5.67652L12.6923 6.54771L13.0479 7.64354L11.6513 8.06834Z" fill="#C99E3D"/>
<path fill-rule="evenodd" clip-rule="evenodd" d="M14.086 7.40459C14.086 7.40459 14.0385 7.42619 13.9507 7.40459C13.9579 7.47659 13.9248 7.54859 13.8629 7.58747C13.7707 7.55003 12.9126 7.62491 12.9126 7.62491C12.9126 7.62491 12.5123 7.55435 12.3885 7.02587C12.3007 6.67451 12.4533 6.18923 12.4043 5.86955C12.328 5.40011 12.2215 5.30795 12.2099 5.16251C12.1984 5.01707 12.1883 4.97963 12.1883 4.88747C12.1408 4.87595 12.112 4.86155 12.0645 4.86155C12.053 4.81835 12.076 4.78091 12.0271 4.70459C12.053 4.71611 12.233 4.73771 12.4418 4.93643C12.6145 5.09771 12.6145 5.15675 12.6405 5.18987C12.6736 5.22299 12.9371 5.44907 13.0508 5.67515C13.1646 5.90123 13.3848 6.62123 13.4352 6.73931C13.4511 6.78683 13.4828 6.83579 13.5648 6.94523C13.6915 7.10075 13.8773 7.36139 14.086 7.40459Z" fill="#B58634"/>
<path fill-rule="evenodd" clip-rule="evenodd" d="M12.6707 5.19995C12.8031 5.41307 12.9212 5.63483 13.0263 5.86379C13.1545 6.15467 13.2322 6.39227 13.3935 6.58667C13.3057 6.33323 13.1516 5.83499 13.0594 5.65787C12.9572 5.47211 12.7484 5.27051 12.6707 5.19995Z" fill="#A88F33"/>
<path fill-rule="evenodd" clip-rule="evenodd" d="M11.1863 8.79126C11.1863 8.79126 10.966 8.84598 10.5556 9.06198C10.4203 9.13254 10.2921 9.19014 10.1669 9.24486C9.8429 9.39174 9.4959 9.5271 9.22089 9.60054C9.24249 9.62646 9.25401 9.63798 9.25401 9.63798C9.25401 9.63798 9.25401 9.74454 9.31304 9.80646C9.27992 9.83958 8.84365 10.1362 8.9718 11.1298C9.05963 11.0967 9.16186 11.0535 9.1777 11.0535C9.20361 11.0578 9.21081 11.1298 9.24249 11.1298C9.27416 11.1298 9.38215 11.0866 9.4959 10.9397C9.49158 10.9988 9.42679 11.5935 9.77811 11.9924C9.8429 11.9161 10.0099 11.6626 10.0099 11.6626L10.0142 11.582C10.0142 11.582 10.0301 11.2997 10.1208 11.042C10.2115 10.7842 10.3915 10.5941 10.3915 10.5941L11.3259 9.25926L11.1863 8.79126Z" fill="#E6C367"/>
<path fill-rule="evenodd" clip-rule="evenodd" d="M10.3122 10.7512C10.269 10.7814 10.2229 10.8044 10.1725 10.8203C10.1567 10.7656 10.1351 10.5784 10.2647 10.394C10.4159 10.1737 10.7456 9.88717 10.8363 9.65965C10.8953 9.51277 10.8694 9.14557 11.3935 8.67613C11.9176 8.20669 12.1235 8.04541 12.1235 8.04541L12.9701 7.62061L14.0126 8.03101L13.4957 10.06L13.094 11.0104L11.4957 10.7094L10.3122 10.7512Z" fill="#DCBA5A"/>
<path fill-rule="evenodd" clip-rule="evenodd" d="M10.9228 10.201L11.1215 9.95188V9.77476C11.1215 9.77476 11.3417 9.71572 11.5793 9.4738C11.8169 9.23188 12.1466 8.76676 12.4374 8.79412C12.7283 8.82724 12.7571 9.42484 12.7672 9.59332C12.7787 9.7618 12.8147 10.1434 12.8737 10.3493C12.9399 10.5552 12.1653 11.3328 12.1653 11.3328L11.6398 11.7332L10.9228 10.201Z" fill="#E9CE77"/>
<path fill-rule="evenodd" clip-rule="evenodd" d="M11.5376 12.2732C11.5376 12.2732 11.6988 12.0197 11.5808 11.965C11.6499 11.8081 11.7795 11.641 11.7795 11.641C11.7795 11.641 11.8716 11.4135 12.1682 11.1341C12.4648 10.8548 12.6491 10.669 12.6966 10.4804C12.7269 10.358 12.7427 10.2327 12.7441 10.1074C12.7758 10.1333 12.8104 10.1564 12.8464 10.1765C12.8939 10.1981 13.1214 10.3868 13.0883 10.7641C13.0551 11.1428 12.9155 11.2997 12.9155 11.2997C12.9155 11.2997 12.7801 11.4351 12.6837 11.5057C12.5814 11.5748 12.544 11.6569 12.3712 11.6626C12.3885 11.6482 12.4087 11.6367 12.4303 11.6295C12.4303 11.6295 12.2517 11.6079 12.1553 11.6943C12.0588 11.7821 11.8543 12.05 11.7521 12.1321C11.6513 12.1997 11.5376 12.2746 11.5376 12.2732Z" fill="#CDAE50"/>
<path fill-rule="evenodd" clip-rule="evenodd" d="M18.8001 8.02532C18.5423 7.93172 18.2702 7.87844 17.9966 7.86836C17.5373 7.85252 16.8678 7.87988 16.2098 7.8842C15.5014 7.88852 14.8592 7.64228 13.9694 7.59764C13.8226 7.5098 13.4511 7.1282 12.2891 7.93892C12.3583 7.9346 13.1329 7.76036 13.4007 8.09588C13.6714 8.42996 13.5951 8.99731 13.5576 9.13267C13.4871 9.43363 13.261 9.87283 13.1689 10.181C13.0767 10.4891 13.0983 10.6504 13.0335 10.8664C12.9673 11.0824 12.8233 11.1904 12.9083 11.4381C13.022 11.369 13.081 11.369 13.2711 10.9427C13.4612 10.5165 13.4223 10.2127 13.7362 9.85267C14.0443 9.48979 14.5569 8.99443 14.7512 8.86916C14.9456 8.74532 16.4949 7.94036 18.1147 8.70788C18.5078 8.66756 18.8001 8.02532 18.8001 8.02532Z" fill="#D2A83E"/>
<path fill-rule="evenodd" clip-rule="evenodd" d="M12.9413 7.7271C12.9399 7.71126 12.9356 7.69398 12.9298 7.67958C12.914 7.6479 12.8953 7.61766 12.8708 7.59174C12.8708 7.59174 12.4864 7.52262 12.292 7.54422C11.9507 7.58166 11.6426 8.00358 11.4986 8.21958C11.3546 8.43558 11.1747 8.76967 10.9803 8.94247C10.9817 8.92519 10.9788 8.90791 10.9688 8.89495C10.9688 8.89495 10.9803 8.91079 10.9572 8.93239C10.9356 8.95399 10.9356 8.96551 10.9457 8.97559L10.9788 9.00871C10.9903 9.00871 11.2913 8.87335 11.7016 8.49031C12.1379 8.08998 12.472 7.8855 12.6476 7.81494C12.7455 7.77462 12.842 7.74582 12.9413 7.7271Z" fill="#C29637"/>
<path fill-rule="evenodd" clip-rule="evenodd" d="M20.3997 6.08569C20.3997 6.08569 20.3291 6.17353 20.2427 6.26857C20.0484 6.47449 19.7949 6.70489 19.579 6.94393C19.3731 7.17145 19.1427 7.34857 18.8821 7.64521C18.6215 7.94185 18.3205 8.27161 18.2442 8.36809C18.1751 8.46457 18.1204 8.62153 18.1204 8.70217C18.0829 8.67625 18.0397 8.64745 18.0397 8.64745C18.0585 8.68201 18.0801 8.71369 18.106 8.74393C18.1607 8.82025 18.2457 8.91673 18.2888 8.97577C18.3421 9.05065 18.381 9.13561 18.4026 9.22489C18.4285 9.22921 18.597 9.26233 18.8072 8.91673C19.0174 8.57113 19.2924 8.19385 19.2924 8.19385L19.7287 7.54441L20.0037 6.99433L20.3493 6.37801L20.3997 6.08569Z" fill="#AC8132"/>
<path fill-rule="evenodd" clip-rule="evenodd" d="M20.8475 5.64355C20.8475 5.64355 20.5826 5.85955 20.4804 5.98915C20.3781 6.11875 20.1348 6.45859 20.1348 6.45859L20.2226 6.44707L20.6661 6.05395L20.8388 5.74579L20.8475 5.64355Z" fill="#A88F33"/>
<path fill-rule="evenodd" clip-rule="evenodd" d="M20.7655 23.0041C20.7655 23.0041 20.7612 22.8255 20.862 22.7175C20.9642 22.611 21.2248 22.4526 21.4782 21.8636C21.7316 21.2746 21.7604 21.1407 21.7604 21.1407C21.7604 21.1407 21.3054 21.5295 21.0261 21.6217C21.0923 21.4863 21.1283 21.3898 21.1614 21.3207C21.124 21.2876 20.9671 21.2516 20.9512 21.2329C21.039 21.145 21.0866 20.9319 21.2637 20.7894C21.4911 20.6166 21.9058 20.3199 22.2283 20.055C22.5508 19.79 23.1844 19.1751 23.2664 18.9951C23.3139 19.0642 23.3255 19.1089 23.3255 19.1089C23.3255 19.1089 23.0073 19.5236 22.8403 19.7886C22.6934 20.0161 22.7049 20.1442 22.7049 20.1442L23.0058 20.0146C23.0058 20.0146 23.0937 20.3372 22.6977 20.8297C22.8705 20.7634 22.9396 20.8038 23.0389 20.749C22.8777 20.8513 22.6545 20.991 22.4443 21.3754C22.2384 21.7599 21.9591 22.2078 21.4883 22.4871C21.029 22.7823 20.7655 23.0026 20.7655 23.0041Z" fill="#A67A2E"/>
<path fill-rule="evenodd" clip-rule="evenodd" d="M19.5819 8.2527C19.5819 8.2527 19.4033 8.62566 19.376 8.91654C19.3717 8.9871 19.3544 9.04038 19.3544 9.12246C19.3501 9.38166 19.3702 9.67254 19.3112 9.8079C19.2896 9.75318 19.2781 9.71574 19.2565 9.69414C19.2234 9.7863 19.1643 10.0714 19.1168 10.1794C19.0952 10.1103 19.0477 9.86694 19.052 9.58038C19.0563 9.29382 19.0635 9.2391 19.0635 9.18006C19.052 9.2679 18.9944 9.38598 18.9714 9.4551C18.9383 9.39606 18.9023 9.31974 18.8576 9.25638C18.8317 9.29958 18.7986 9.36294 18.7698 9.39606C18.7655 9.37014 18.754 9.29958 18.7482 9.20166C18.7439 9.0879 18.7367 8.94246 18.7439 8.91078C18.7554 8.85174 18.8461 8.6199 19.0405 8.40822C19.2723 8.15478 19.5099 7.66806 19.5804 7.51686C19.651 7.36566 19.9476 6.73926 19.9476 6.73926H20.1751L19.8454 7.49094C19.8454 7.49094 19.6467 7.90134 19.5445 8.05254C19.4422 8.20374 19.2248 8.63574 19.1298 8.80422C19.1989 8.71206 19.2579 8.66454 19.3285 8.5767C19.3947 8.51622 19.5819 8.2527 19.5819 8.2527Z" fill="#8C6228"/>
<path fill-rule="evenodd" clip-rule="evenodd" d="M20.8519 5.61621C20.8144 5.72997 20.7554 5.83653 20.6791 5.92869C20.5437 6.08997 20.2529 6.30597 20.1118 6.47877C19.9822 6.64725 19.723 7.10517 19.8411 7.64949C19.8843 7.53141 19.9663 7.29813 20.1823 7.03317C20.3983 6.76821 20.6301 6.46581 20.7439 6.22965C20.8576 5.99205 20.872 5.80341 20.872 5.80341L20.9152 5.74869L20.8893 5.62485L20.8519 5.61621Z" fill="#CBA94C"/>
<path fill-rule="evenodd" clip-rule="evenodd" d="M25.2736 20.1056C25.2736 20.1056 25.1857 19.868 25.1598 19.6505C25.1339 19.4331 25.203 19.3913 25.1224 19.1436C25.0749 18.9924 24.987 19.014 24.9654 18.9924C24.9438 18.9708 24.928 18.7433 24.9323 18.6195C24.9366 18.4956 24.928 18.3329 24.9064 18.2638C24.8733 18.2379 24.8517 18.2163 24.8042 18.0536C24.7494 17.8923 24.7235 17.8116 24.6976 17.7627C24.6717 17.7137 24.5954 17.6705 24.5954 17.623C24.5954 17.5265 24.6832 17.4761 24.6832 17.4502C24.6789 17.3955 24.6127 17.4387 24.5954 17.4243C24.5738 17.3984 24.6501 17.2414 24.6213 17.2184C24.6098 17.2068 24.5335 17.299 24.5148 17.2731C24.4932 17.2472 24.4672 16.9865 24.4269 16.8137C24.3895 16.6452 24.3506 16.5228 24.3463 16.4724C24.342 16.4249 24.0454 15.5768 23.9734 15.3708C23.9158 15.198 23.8668 15.0209 23.8265 14.8424C23.8049 14.7401 23.7891 14.5299 23.779 14.5515C23.7689 14.5731 23.7747 14.6796 23.7574 14.6768C23.7415 14.6724 23.6883 14.2995 23.6696 14.2404C23.6537 14.1814 23.563 13.9812 23.54 13.8358C23.5184 13.6889 23.4709 13.3073 23.4377 13.0467C23.4046 12.786 23.3902 12.6795 23.3902 12.6147C23.396 12.4548 23.3873 12.2964 23.3643 12.138C23.3211 11.863 23.2347 11.5289 23.1584 11.3345C23.0115 10.9673 22.6228 10.0284 22.5537 9.79372C22.5537 9.73468 22.63 9.7678 22.63 9.7678C22.63 9.7678 22.82 10.2444 22.9597 10.6102C23.0951 10.9774 23.2246 11.3 23.2563 11.3331C23.2822 11.3662 23.4881 11.7262 23.5788 12.3166C23.6696 12.907 23.7027 13.4499 23.7574 13.8128C23.7833 13.9856 23.8049 14.1684 23.8596 14.3528C23.9187 14.5515 24.0108 14.7574 24.1303 15.0713C24.2325 15.3363 24.3088 15.5566 24.3506 15.7467C24.3981 15.9886 24.3981 16.1729 24.4269 16.2924C24.4528 16.3947 24.4932 16.6006 24.5839 16.8972C24.676 17.1939 24.8114 17.5769 24.9021 17.8145C25.0806 18.2912 25.1612 18.6886 25.1886 18.9003C25.2145 19.122 25.2952 19.878 25.2736 20.1056Z" fill="#A88F33"/>
<path fill-rule="evenodd" clip-rule="evenodd" d="M20.8619 5.58869L20.8504 5.61461C20.8504 5.61461 20.8835 5.62613 20.8763 5.66933C20.8763 5.72981 20.8734 5.78884 20.8648 5.84788C20.8532 5.9242 20.8316 5.98324 20.8273 6.03076C20.8273 6.133 20.8432 6.25108 20.6977 6.54339C20.6545 6.62403 20.6286 6.69459 20.6056 6.74211C20.5509 6.86019 20.5394 6.87747 20.4918 6.93218C20.5681 6.88899 20.8432 6.71619 20.9828 6.74211C20.8864 6.79683 20.7409 6.90339 20.6488 7.04306C20.6704 7.04738 20.7625 7.06466 20.908 7.04306C21.1498 7.00562 21.422 6.91922 21.6596 6.9365C21.9202 6.95234 21.8165 6.62403 21.8165 6.62403L21.517 5.96452L20.9497 5.56421L20.8619 5.58869Z" fill="#BE9C44"/>
<path fill-rule="evenodd" clip-rule="evenodd" d="M22.3435 10.5309C22.3435 10.5309 22.0901 10.2775 21.9879 9.40773C21.8856 8.53365 21.9072 7.24773 21.9072 7.24773L21.7014 6.74517C21.7014 6.74517 21.6582 6.41109 21.5502 6.28581C21.4422 6.16053 21.232 5.95173 21.1355 5.84949C21.0391 5.74725 20.9296 5.60757 20.8648 5.58453C20.898 5.52981 21.0434 5.22165 21.6049 5.21733C22.1664 5.21301 22.3392 5.52549 22.3982 5.63925C22.4572 5.75301 22.7207 6.24405 22.8201 7.18005C22.9122 8.11461 22.9165 8.18517 22.9007 8.50773C22.8892 8.68629 22.8301 9.10245 22.7279 9.54597C22.6329 9.92181 22.5307 10.3423 22.3435 10.5309Z" fill="#A17C34"/>
<path fill-rule="evenodd" clip-rule="evenodd" d="M21.5487 11.2754C21.6337 11.2812 21.7172 11.2625 21.7906 11.2207C21.8712 11.2164 22.1635 11.2538 22.3895 10.9673C22.4054 11.0321 22.4442 11.2092 22.342 11.3676C22.3967 11.3129 22.4774 11.2913 22.4889 11.2754C22.4932 11.3561 22.5695 11.6052 22.247 12.21C22.3348 12.1135 22.437 12.1179 22.5292 12.1078C22.5335 12.2215 22.5954 12.6031 22.4327 12.8091C22.3262 12.9487 22.1505 12.9055 22.1505 12.9055C22.1534 12.8753 22.1534 12.8436 22.1505 12.8134C22.1462 12.7543 22.1246 12.6953 22.139 12.6564C22.0541 12.6175 21.9778 12.5643 21.9116 12.4995C21.7215 12.3209 21.4753 12.0142 21.4566 11.7867C21.435 11.5332 21.6625 11.4785 21.6625 11.4785C21.6438 11.4612 21.6279 11.441 21.615 11.4194C21.6035 11.3834 21.5919 11.3244 21.5487 11.2754Z" fill="#8C6228"/>
<path fill-rule="evenodd" clip-rule="evenodd" d="M19.8641 8.52784C19.8641 8.52784 19.8526 8.512 19.795 8.58256C19.8065 8.512 19.8166 8.4472 19.8209 8.38384C19.8483 8.3248 19.8843 8.27008 19.9275 8.22256C19.8943 8.28736 19.8727 8.3464 19.8727 8.3464C19.8727 8.3464 19.9534 8.1952 20.0714 8.10448C20.1521 8.03968 20.2543 8.008 20.2989 7.94752C20.3464 7.88272 20.3364 7.8712 20.3464 7.85968C20.3464 7.85968 20.453 7.79056 20.6171 7.58464C20.6387 7.55872 20.6718 7.52992 20.6934 7.504C20.7309 7.48816 20.8173 7.44928 20.9209 7.39744C21.0275 7.3384 21.1484 7.25776 21.2218 7.22464C21.3687 7.15984 21.5228 7.1656 21.5948 7.06336C21.6495 7.04752 21.7085 6.8848 21.697 6.74512C21.7776 6.77824 22.1923 7.036 22.3348 7.59904C22.437 7.99936 22.2542 8.61424 22.1779 8.91232C22.1016 9.20896 22.09 9.43072 21.9835 9.56464C21.8482 9.74464 21.4119 9.99664 21.3039 10.1219C21.2118 10.2242 20.9368 10.4848 20.9483 10.672C20.9598 10.8117 21.1311 10.888 21.1686 10.9139C21.206 10.9398 21.206 10.973 21.2751 10.9571C21.3442 10.9413 21.3716 10.9096 21.4004 10.9096C21.4335 10.9139 21.4335 10.9211 21.4479 10.9211C21.4594 10.9211 21.4695 10.9197 21.481 10.9168C21.481 10.9168 21.4695 11.1155 21.0044 11.176C20.9713 11.1803 20.9382 11.1918 20.8979 11.1976C20.9526 11.1717 20.9857 11.1717 21.0447 11.091C20.9785 11.0795 20.7913 11.0694 20.7438 11.0536C20.7597 11.0277 20.8101 10.9571 20.8504 10.924C20.8878 10.8909 20.8461 10.8808 20.8129 10.8981C20.7568 10.937 20.7021 10.9773 20.6517 11.0219C20.597 11.0694 20.5495 11.1357 20.4616 11.1947C20.4357 11.1069 20.44 10.9413 20.5423 10.8218C20.5163 10.8261 20.4659 10.9024 20.417 10.8866C20.4084 10.8074 20.4141 10.7267 20.4328 10.649C20.4587 10.551 20.6013 10.3782 20.6013 10.3782L21.2866 9.1528L21.4335 8.224L19.8641 8.52784Z" fill="#92723A"/>
<path fill-rule="evenodd" clip-rule="evenodd" d="M19.8267 8.57958C19.8267 8.57958 19.7892 8.6055 19.8641 8.6559C19.8526 8.67174 19.8267 8.72502 19.7935 8.76246C19.7561 8.80566 19.7172 8.83302 19.7014 8.86902C19.6683 8.94534 19.6424 8.99862 19.6424 9.0303C19.6424 9.06342 19.6308 9.27222 19.5401 9.40758C19.507 9.4551 19.4696 9.53718 19.4437 9.59046C19.389 9.68694 19.3414 9.76326 19.3299 9.80646C19.3083 9.88278 19.2925 10.093 19.2925 10.093C19.2925 10.093 19.34 10.034 19.3587 10.0124C19.3328 10.0671 19.304 10.1261 19.2623 10.1693C19.2882 10.1477 19.3645 10.093 19.4941 9.97926C19.6726 9.82806 19.9534 9.57462 20.2931 9.37446C20.1909 9.4119 20.1031 9.4119 20.0325 9.42198C20.0873 9.36726 20.5782 8.79126 20.836 8.73654C20.8518 8.71638 20.859 8.6919 20.8575 8.66598L20.6373 8.64438L20.1895 8.74086L20.1247 8.39526L19.8267 8.57958Z" fill="#B18E3E"/>
<path fill-rule="evenodd" clip-rule="evenodd" d="M20.5394 10.5467C20.5394 10.5467 20.4804 10.6058 20.4257 10.7526C20.3839 10.7094 20.3479 10.659 20.3191 10.6058C20.2385 10.4704 20.1132 10.2976 19.8238 10.3955C19.8195 10.3034 19.8123 10.2558 19.8238 10.1896C19.8713 10.1781 20.0182 10.0614 20.1651 9.88863C20.2673 9.77055 20.3637 9.63519 20.43 9.46239C20.4732 9.42927 20.548 9.37455 20.6459 9.31119C20.7856 9.21471 20.9541 9.08367 20.98 8.93823C20.9137 8.96415 20.7741 9.03039 20.5653 9.01887C20.6459 8.98143 20.7712 8.94255 20.7554 8.78127C20.7885 8.75967 20.8144 8.74383 20.8144 8.74383C20.7899 8.73519 20.764 8.73231 20.7381 8.73231C20.7338 8.71647 20.7266 8.69487 20.6906 8.70639C20.6546 8.71791 20.6474 8.71791 20.6431 8.73231C20.6272 8.73663 20.5768 8.73231 20.5408 8.75823C20.5034 8.78415 20.4012 8.87199 20.3623 8.88639C20.3781 8.86047 20.3997 8.82159 20.3997 8.82159C20.3997 8.82159 20.2932 8.83311 20.2169 8.86479C20.0772 8.91231 19.916 9.00015 19.7518 9.08511C19.7677 9.05919 19.7734 9.04191 19.7849 9.03759C19.7965 9.03327 19.8224 9.02607 19.8224 9.02175C19.8224 9.01743 19.8109 8.97855 19.8181 8.96271C19.867 8.85903 19.9246 8.75967 19.9908 8.66607C20.0671 8.56383 20.083 8.41695 20.083 8.41695L20.417 8.24847L21.3558 8.03247L21.9648 8.06991L21.8885 8.49183L21.5285 9.22767L21.2204 9.89871L20.8691 10.3091L20.5394 10.5467Z" fill="#543E26"/>
<path fill-rule="evenodd" clip-rule="evenodd" d="M22.0613 8.72081C22.0613 8.72081 21.6942 9.17441 21.5919 9.24497C21.6582 9.10529 22.0613 8.27297 22.2082 8.04113C22.1751 8.01521 22.1319 8.01521 22.2341 7.60913C22.1463 7.81505 22.116 7.92161 22.0441 7.97633C21.9721 8.03105 21.9634 8.01377 21.9145 8.01377C21.9231 7.99649 21.9274 7.97777 21.926 7.95905C21.926 7.95905 21.6179 7.92161 21.4076 7.92161C21.1974 7.92161 20.7813 8.03537 20.5495 8.12753C20.3666 8.20385 20.2629 8.20385 20.1981 8.25137C20.1319 8.30609 20.0959 8.36513 20.0628 8.38097C20.0369 8.39681 19.9116 8.43569 19.8843 8.47745C19.8583 8.52065 19.8151 8.56961 19.8151 8.57969C19.8151 8.58977 19.8036 8.60561 19.8367 8.59553C19.8483 8.59121 19.9289 8.54801 20.0196 8.49329C20.1434 8.42417 20.2946 8.34209 20.404 8.29457C20.7165 8.17073 20.8144 8.19233 20.9541 8.16497C21.1009 8.13905 21.3097 8.07713 21.4494 8.07713C21.5891 8.07281 21.854 8.07713 21.9145 8.08865C21.8886 8.11025 21.867 8.13617 21.877 8.22833C21.877 8.25425 21.8554 8.28305 21.8338 8.34641C21.769 8.52497 21.6438 8.82305 21.5747 8.97281C21.4782 9.17873 21.3688 9.35009 21.3155 9.45809C21.2608 9.56465 21.1427 9.84689 21.0246 9.99809C20.9066 10.1493 20.8461 10.24 20.8086 10.2731C20.7712 10.3063 20.5077 10.5007 20.5264 10.5698C20.574 10.5539 20.8778 10.4402 21.0981 10.1925C21.3184 9.94481 21.363 9.79217 21.5343 9.65681C21.7057 9.52145 21.8425 9.29393 21.9231 9.10673C21.9922 8.93105 21.9764 8.87633 22.0613 8.72081Z" fill="#806031"/>
<path fill-rule="evenodd" clip-rule="evenodd" d="M14.1523 12.1119C14.1523 12.1119 14.1048 12.3106 13.9954 12.4085C13.8888 12.505 13.6988 12.5871 13.6772 12.7498C13.6512 12.9111 13.8672 12.9917 13.8672 12.9917C13.8672 12.9917 13.7492 13.1861 13.7492 13.333C13.7492 13.4842 13.7448 13.5116 13.7607 13.657C13.7434 13.6685 13.729 13.6829 13.7175 13.7002C13.7175 13.7002 13.729 13.8399 13.8355 13.9277C13.9421 14.0156 14.0342 14.0674 14.0889 14.0458C14.0976 14.0631 14.1048 14.0818 14.1105 14.1005C14.1105 14.1005 14.1912 13.8946 14.2459 13.716C14.3006 13.5332 14.3481 13.5591 14.3697 13.3114C14.3913 13.0637 14.6289 12.6404 14.6289 12.6404L14.7916 12.2789L14.5281 12.073L14.1523 12.1119Z" fill="#B6903C"/>
<path fill-rule="evenodd" clip-rule="evenodd" d="M14.6433 12.4677C14.5885 12.5239 14.5381 12.5829 14.4935 12.6463C14.4244 12.7428 14.3697 12.8292 14.266 12.8666C14.1623 12.9041 14.0975 12.9041 14.1047 13.0063C14.1105 13.1085 14.207 13.1532 14.2617 13.205C14.3207 13.2597 14.3682 13.3519 14.3423 13.4541C14.3754 13.4383 14.4345 13.421 14.4892 13.3029C14.5439 13.1849 14.9255 12.4663 14.9255 12.4663L14.6433 12.4677Z" fill="#685026"/>
<path fill-rule="evenodd" clip-rule="evenodd" d="M16.1493 10.8103C16.1493 10.8103 16.1824 10.7224 16.1493 10.6591C16.1162 10.5943 15.9175 10.5712 15.8196 10.4978C15.7174 10.4215 15.5921 10.3682 15.4899 10.4013C15.5057 10.3639 15.5662 10.2832 15.5158 10.266C15.4683 10.2501 15.2883 10.3308 15.2408 10.3682C15.1933 10.4056 15.0838 10.4488 15.0622 10.4748C15.0406 10.5007 15.0032 10.5511 14.9816 10.5295C14.96 10.5136 14.9485 10.4748 14.9125 10.4964C14.8765 10.518 14.6965 10.6648 14.6634 10.7498C14.6303 10.8348 14.5569 11.0248 14.3337 11.2408C14.1105 11.4568 14.014 11.5965 14.0803 11.6772C14.1465 11.7578 14.1767 11.6988 14.1868 11.7693C14.1955 11.8384 14.1911 11.9076 14.1753 11.9752C14.1494 12.089 14.1062 12.1956 14.1638 12.2172C14.315 12.2647 14.4604 12.174 14.4935 12.2013C14.5583 12.2604 14.4561 12.472 14.6116 12.5138C14.7685 12.557 14.924 12.4764 14.924 12.4764L15.4956 12.1682L16.0456 11.8773L16.3278 11.32L16.1767 10.8549L16.1493 10.8103Z" fill="#D4B968"/>
<path fill-rule="evenodd" clip-rule="evenodd" d="M15.6094 12.1408C15.6094 12.1408 15.5129 11.994 15.631 11.8658C15.7491 11.7362 15.9175 11.6829 15.9823 11.6023C15.9694 11.5864 15.9535 11.5749 15.9348 11.5692C15.978 11.4914 16.0442 11.428 16.1249 11.3892C16.0917 11.356 16.0485 11.3301 16.001 11.3301C15.8945 11.3301 15.8282 11.3949 15.7303 11.3949C15.6339 11.3949 15.6238 11.3474 15.6238 11.3474C15.6238 11.3474 15.7851 11.3316 15.7707 11.2596C15.7548 11.1832 15.7275 11.1832 15.7275 11.1832C15.7275 11.1832 16.0399 11.0536 16.0946 10.9845C16.1493 10.9154 16.1421 10.8333 16.1537 10.8016C16.1911 10.8016 16.4071 10.6879 16.4949 10.7368C16.5827 10.7858 16.5208 10.9154 16.5208 10.9154C16.5208 10.9154 16.7858 10.7167 16.9197 10.5223C17.0377 10.5338 17.0924 10.4417 17.1788 10.4417C17.2854 10.4417 17.4538 10.5885 17.487 10.8996C17.5086 11.0781 17.5417 11.1818 17.5086 11.4986C17.4927 11.6772 17.497 12.0602 17.5518 12.2503C17.5892 12.4015 17.6756 12.3856 17.6756 12.3856C17.6626 12.4317 17.6353 12.472 17.5993 12.5037C17.5402 12.5584 17.533 12.7024 17.5402 12.7571C17.5489 12.7975 17.5604 12.8363 17.5733 12.8752C17.5733 12.8752 17.5042 12.9559 17.4855 13.0106C17.4697 13.0653 17.3977 13.1027 17.3459 13.1027C17.294 13.1027 17.3199 13.0984 17.2494 13.1027C17.1788 13.1071 17.1572 13.1186 17.114 13.1027C17.0708 13.0869 17.0377 13.0696 17.055 12.9299C17.0708 12.7903 16.5151 12.4648 16.5151 12.4648L15.608 12.1408H15.6094Z" fill="#CCA849"/>
<path fill-rule="evenodd" clip-rule="evenodd" d="M14.567 13.5219C14.567 13.5219 14.7657 13.7868 15.582 13.7868C15.9708 13.7868 16.1061 13.7494 16.1868 13.7278C16.2746 13.7062 16.6014 13.5766 16.9312 13.1878C17.2278 12.8364 17.163 12.6924 17.163 12.6924L16.9902 12.6665L16.4287 12.7428L14.7671 13.4513L14.567 13.5219Z" fill="#585136"/>
<path fill-rule="evenodd" clip-rule="evenodd" d="M15.176 13.5865C15.176 13.5865 14.4676 13.7435 14.4676 13.2956C14.4676 12.8593 14.9038 12.3999 15.0133 12.3193C15.127 12.2386 15.3977 12.1465 15.3977 12.1465H16.0514L16.1752 12.4762L16.1205 13.1891L15.176 13.5865Z" fill="#252211"/>
<path fill-rule="evenodd" clip-rule="evenodd" d="M15.8297 12.2804C15.8297 12.2804 15.6943 12.1551 15.3862 12.3236C15.0781 12.4921 14.829 12.842 14.8132 13.1602C14.7974 13.4425 15.045 13.6513 15.4294 13.6628C15.7159 13.6743 15.8887 13.6412 15.9751 13.6196C15.9535 13.5937 15.8398 13.4511 15.8398 13.4511L15.8297 12.2804Z" fill="#C3B378"/>
<path fill-rule="evenodd" clip-rule="evenodd" d="M15.6958 12.3495C15.6958 12.3495 15.6627 12.3236 15.5662 12.3754C15.4856 12.4186 15.3675 12.5324 15.2753 12.613C15.2163 12.6605 15.1789 12.6821 15.1458 12.7196C15.0104 12.8809 14.8967 13.1458 14.9629 13.2769C15.0291 13.4079 15.2451 13.5591 15.7951 13.4554L15.6943 12.3481L15.6958 12.3495Z" fill="#E6D89C"/>
<path fill-rule="evenodd" clip-rule="evenodd" d="M15.5172 12.6218C15.5172 12.6218 15.4294 12.7571 15.4294 12.9731C15.4294 13.1935 15.5546 13.5448 16.0125 13.5722C16.3638 13.5938 16.5999 13.0653 16.8562 12.8594C17.0506 12.7024 17.1687 12.6981 17.1687 12.6981C17.1687 12.6981 16.97 12.4821 16.4387 12.2027C15.9146 11.9205 15.3271 11.8831 15.0075 12.3165C15.1587 12.305 15.6453 12.1811 15.6453 12.1811L15.8829 12.2575L15.5172 12.6218Z" fill="#252211"/>
<path fill-rule="evenodd" clip-rule="evenodd" d="M16.2026 12.9068C16.1867 12.8737 16.1766 12.8305 16.24 12.819C16.3034 12.8075 16.3322 12.8147 16.3538 12.8622C16.3754 12.9097 16.397 12.95 16.3653 12.9687C16.3322 12.9875 16.2472 12.9702 16.2026 12.9068ZM16.1003 12.5987C16.1003 12.5987 16.0787 12.6145 16.0888 12.5828C16.0931 12.5454 16.1219 12.4806 16.191 12.495C16.2602 12.5094 16.2458 12.5871 16.2342 12.6087C16.2227 12.6303 16.1651 12.6678 16.1205 12.6519C16.1003 12.6476 16.0888 12.6275 16.0946 12.6073C16.096 12.6059 16.0974 12.6015 16.1003 12.5987Z" fill="#6F674D"/>
<path fill-rule="evenodd" clip-rule="evenodd" d="M10.1884 12.7383C10.1884 12.7383 10.3612 12.8679 10.5613 12.8636C10.76 12.8593 11.0163 12.6534 11.133 12.5223C11.2021 12.446 11.2625 12.3654 11.3273 12.302C11.3821 12.2473 11.4195 12.2214 11.4454 12.1839C11.4828 12.1407 11.5217 12.0601 11.5419 12.0327C11.4944 12.0702 11.4238 12.135 11.3518 12.1796C11.2827 12.2228 11.1315 12.3034 11.0696 12.3265C11.0106 12.3481 10.3986 12.6721 10.3986 12.6721L10.1884 12.7383Z" fill="#AC924C"/>
<path fill-rule="evenodd" clip-rule="evenodd" d="M10.4519 11.1255C10.4519 11.1255 10.5483 11.0607 10.7341 11.0189C10.9126 10.9757 11.274 10.9426 11.274 10.9426L11.5706 11.0722L11.6887 11.5201L11.4727 11.9852L11.1977 12.158L10.8852 11.6554L10.4519 11.1255Z" fill="#9F8E57"/>
<path fill-rule="evenodd" clip-rule="evenodd" d="M10.0632 11.5245L9.96095 11.6008C9.96095 11.6008 9.98687 11.5533 10.0085 11.4064C10.0301 11.2595 10.1438 10.9038 10.3094 10.6979C10.475 10.492 10.4707 10.5035 10.4707 10.5035C10.4404 10.4977 10.4073 10.5064 10.3828 10.5251C10.4044 10.4761 10.5441 10.3033 10.6838 10.2169C10.8234 10.1305 10.8781 10.1032 11.025 10.1737C11.1719 10.2443 11.2079 10.2803 11.3159 10.276C11.4224 10.2716 11.5146 10.1579 11.5146 10.1579C11.5146 10.1579 11.5362 10.227 11.4555 10.3897C11.3749 10.551 11.0552 10.8808 11.0552 10.8808L10.3915 11.3344L10.0632 11.5245Z" fill="#EAC970"/>
<path fill-rule="evenodd" clip-rule="evenodd" d="M10.5541 11.071C10.5541 11.071 11.035 11.1358 11.1805 11.0019C11.1848 11.0177 11.2021 11.0177 11.2021 11.0278C11.2006 11.0364 11.1977 11.0436 11.1905 11.0494C11.2064 11.0465 11.2222 11.0451 11.2381 11.0451C11.2568 11.0508 11.2769 11.0552 11.2971 11.0566C11.3129 11.0566 11.3288 11.0552 11.3446 11.0523C11.3417 11.0739 11.3302 11.094 11.3115 11.107C11.3331 11.107 11.3547 11.1113 11.3547 11.1286C11.3547 11.1459 11.359 11.1992 11.3331 11.2092C11.3115 11.215 11.2884 11.2136 11.2668 11.2049C11.2683 11.2467 11.2798 11.287 11.3 11.323C11.3432 11.4036 11.4353 11.4958 11.5591 11.4699C11.5591 11.4699 11.6239 11.6268 11.3489 11.9768C11.3115 12.0243 11.2726 12.0905 11.2251 12.1452C11.2064 12.187 11.192 12.2302 11.1819 12.2748C11.1819 12.2748 11.647 12.0963 11.7809 11.6873C11.9162 11.2769 11.9421 10.8723 11.9162 10.495C11.9119 10.3884 11.8946 10.3121 11.8687 10.2574C11.8039 10.122 11.6196 10.1436 11.5462 10.22C11.4396 10.3265 11.2596 10.5929 11.0106 10.7772C10.76 10.9572 10.7485 10.9889 10.5541 11.071Z" fill="#D7BC6B"/>
<path fill-rule="evenodd" clip-rule="evenodd" d="M9.97816 11.6599C9.97816 11.6599 9.88601 11.7146 9.8385 11.9191C9.79098 12.1293 9.88169 12.3842 9.93496 12.4648C9.98824 12.5455 10.1077 12.7658 10.3568 12.7773C10.4187 12.7773 10.4792 12.7644 10.5354 12.7399C10.6218 12.6996 10.7038 12.6492 10.7773 12.5887C10.8838 12.508 10.9716 12.4375 10.9601 12.4317C10.9342 12.4202 10.3007 11.896 10.3007 11.896L10.0631 11.6296L9.97816 11.6599Z" fill="#585136"/>
<path fill-rule="evenodd" clip-rule="evenodd" d="M10.5772 12.5295C10.5772 12.5295 10.7053 12.518 10.7831 12.4704C10.8594 12.4229 10.3353 11.9031 10.3353 11.9031L10.3727 12.4647L10.5772 12.5295Z" fill="#453A25"/>
<path fill-rule="evenodd" clip-rule="evenodd" d="M10.0199 11.6209C10.0199 11.6209 9.95514 11.7462 9.95514 11.7779C9.94363 11.8844 9.97674 12.2214 10.0027 12.3279C10.0286 12.4417 10.1711 12.6145 10.354 12.6145C10.4677 12.6145 10.6247 12.5454 10.6247 12.5267C10.6247 12.5051 10.4634 12.4835 10.4188 12.4014C10.3929 12.3582 10.3813 12.2502 10.3756 12.1422C10.3713 12.0731 10.3713 11.9953 10.3972 11.9694C10.4562 11.9046 10.4663 11.7159 10.4663 11.7159L10.6765 11.3271H10.4001L10.0703 11.5331L10.0199 11.6209Z" fill="#84754B"/>
<path fill-rule="evenodd" clip-rule="evenodd" d="M9.93933 11.7406C9.93933 11.7406 10.1553 11.454 10.3497 11.3892C10.5441 11.3244 10.6319 11.3633 10.6319 11.3633L10.5181 11.6542L10.3569 11.8328L10.3684 11.9249C10.3684 11.9249 10.3425 12.1668 10.5038 12.3353C10.665 12.5038 10.786 12.4966 10.8551 12.4966C10.9242 12.4966 11.1258 12.4376 11.228 12.1956C11.3201 11.9681 11.3965 11.6772 11.2122 11.3849C11.0322 11.094 10.7168 11.0825 10.6549 11.0825C10.593 11.0825 10.1136 11.107 9.93933 11.7406Z" fill="#252211"/>
<path fill-rule="evenodd" clip-rule="evenodd" d="M15.4841 12.7125C15.4034 12.675 15.4797 12.4489 15.5604 12.3784C15.641 12.3078 15.7433 12.2272 15.9232 12.2171C15.988 12.2128 16.0514 12.2545 16.0413 12.2977C16.0255 12.3784 15.9132 12.4921 15.8095 12.5728C15.6684 12.6851 15.5762 12.7542 15.4841 12.7125Z" fill="#F7F7E7"/>
<path fill-rule="evenodd" clip-rule="evenodd" d="M11.1157 11.4741C11.1747 11.4698 11.2511 11.5173 11.2669 11.5807C11.2827 11.6498 11.2295 11.7909 11.1157 11.7909C11.0235 11.7909 10.976 11.6772 10.976 11.6441C10.9775 11.6167 10.9847 11.5908 10.9976 11.5677C11.0019 11.562 11.0135 11.4857 11.1157 11.4741Z" fill="#F8F6DE"/>
<path fill-rule="evenodd" clip-rule="evenodd" d="M10.2647 11.5244C10.2647 11.5244 10.1136 11.5935 10.0444 11.7404C9.99405 11.8484 9.97965 11.9694 10.0012 12.086C10.0128 12.1407 10.066 12.2761 10.1035 12.3236C10.1409 12.3711 10.1913 12.4042 10.2287 12.3999C10.2662 12.3956 10.3425 12.2977 10.3425 12.2386C10.3425 12.1796 10.3468 11.9305 10.4188 11.7951C10.4807 11.6598 10.2647 11.5244 10.2647 11.5244Z" fill="#D4C38B"/>
<path fill-rule="evenodd" clip-rule="evenodd" d="M10.2863 11.5145C10.2604 11.5303 10.2172 11.5519 10.2273 11.5793C10.2388 11.6052 10.3295 11.6225 10.3626 11.6858C10.4 11.7506 10.4 11.8212 10.3885 11.8543C10.4173 11.8414 10.4432 11.8226 10.4648 11.7996C10.5123 11.7449 10.5714 11.6714 10.6218 11.6714C10.6549 11.6714 10.688 11.6873 10.7182 11.6873C10.7658 11.6873 10.8147 11.6714 10.8205 11.6225C10.832 11.5577 10.7283 11.4972 10.6693 11.5087C10.6808 11.4655 10.6952 11.4021 10.6477 11.3575C10.6002 11.3143 10.449 11.3906 10.4159 11.4122C10.3828 11.4338 10.2863 11.5145 10.2863 11.5145Z" fill="#E2D59D"/>
<path fill-rule="evenodd" clip-rule="evenodd" d="M13.7564 16.1036L14.0789 16.0085L14.171 16.0733C14.171 16.0733 14.2358 16.213 14.3395 16.2303C14.3064 16.2994 14.2214 16.3599 14.2257 16.4089C14.2301 16.4578 14.2733 16.4967 14.2733 16.4967C14.2733 16.4967 13.9824 16.9777 14.5555 17.4615C14.4201 17.5162 14.2473 17.5911 14.1552 17.6343C14.22 17.6501 14.3611 17.6775 14.4187 17.7308C14.4763 17.7841 14.4777 17.7999 14.5324 17.833C14.5871 17.8661 14.6203 17.9093 14.6087 17.9295C14.5713 17.9079 14.4475 17.8417 14.4259 17.9036C14.4043 17.9655 13.8859 17.941 13.8859 17.941L13.012 18.1095C13.012 18.1095 13.0451 18.0217 12.9529 17.941C12.8464 17.8445 12.7154 17.9453 12.5757 17.8388C12.3928 17.6991 12.3856 17.5378 12.3266 17.4759C12.3856 17.4385 12.5051 17.3837 12.7917 17.3463C12.7801 17.3247 12.7442 17.2585 12.7657 17.1994C12.7917 17.1231 12.9011 17.0741 12.868 16.9834C12.9155 16.9719 12.9371 16.9719 13.058 16.8221C13.1718 16.6709 13.2409 16.6393 13.3287 16.6277C13.4166 16.6162 13.4684 16.6277 13.6296 16.4765C13.7434 16.37 13.706 16.2778 13.706 16.2778C13.706 16.2778 13.7837 16.2533 13.7564 16.1036Z" fill="#CBAC5A"/>
<path fill-rule="evenodd" clip-rule="evenodd" d="M12.8017 16.1512C12.806 16.1296 12.8233 16.1181 12.9414 16.1296C13.0595 16.1411 13.8067 16.0605 14.0097 16.0489C14.2156 16.0331 14.9384 16.0446 15.2897 16.1181C15.6411 16.1929 15.9981 16.2793 16.1695 16.324C16.3423 16.3715 16.397 16.3888 16.3898 16.4118C16.3854 16.4334 16.3466 16.455 16.3235 16.4493C16.3019 16.4449 15.7289 16.2707 15.5532 16.2333C15.3761 16.1958 14.7642 16.0979 14.4302 16.1037C14.1177 16.108 13.9939 16.0993 13.729 16.1296C13.464 16.1627 13.0278 16.2059 12.8968 16.1886C12.7686 16.1728 12.796 16.1728 12.8017 16.1512Z" fill="#D6BC6F"/>
<path fill-rule="evenodd" clip-rule="evenodd" d="M14.5612 17.8634C14.5612 17.8634 15.009 18.1053 15.1703 18.4034C15.2883 18.6237 15.1011 18.7332 15.1011 18.7332C15.1011 18.7332 15.3546 18.7332 15.3214 18.8729C15.3056 18.9607 14.8852 19.1954 14.603 19.3207C14.3164 19.446 14.3279 19.4388 14.1883 19.4604C14.0529 19.482 13.6815 19.4172 13.6052 19.5266C13.5288 19.6361 13.562 19.7469 13.5836 19.7642C13.6052 19.7801 13.7823 19.8017 13.7823 19.8017C13.7823 19.8017 13.7448 19.9039 13.3777 19.9154C13.0105 19.9269 12.9183 19.9529 12.8968 19.9917C12.8752 20.0292 12.9659 20.0076 13.1343 20.0349C13.3028 20.0609 13.5389 20.0781 13.5389 20.0781C13.5389 20.0781 13.4626 20.1444 13.2639 20.1962C13.0364 20.2553 12.6808 20.31 12.5742 20.3748C12.6289 20.4122 12.7096 20.4669 12.747 20.4713C12.6549 20.4929 12.5267 20.5418 12.5051 20.5591C12.5382 20.5807 12.5814 20.6066 12.5814 20.6066C12.5814 20.6066 12.3971 20.8269 12.2906 20.8817C12.184 20.9364 11.5678 21.2229 11.3561 21.1682C10.8277 21.0285 10.7615 20.4497 10.6333 20.4065C10.4389 20.3402 10.3468 20.4713 10.174 20.3805C10.2503 20.3258 10.2921 20.2927 10.3727 20.2567C10.2849 20.2135 9.83277 19.9269 9.83277 19.9269C9.78526 19.8233 9.73343 19.7239 9.67583 19.626C9.588 19.4748 9.45986 19.2746 9.36339 19.0975C9.15317 18.7087 9.14309 18.5301 8.95303 18.3084C8.98615 18.2652 9.0999 18.2709 9.0999 18.2709L10.6924 18.7951L13.5159 18.8772L14.2502 17.8289L14.5612 17.8634Z" fill="#DFC677"/>
<path fill-rule="evenodd" clip-rule="evenodd" d="M10.3785 19.4632C10.3958 19.4819 10.4159 19.4978 10.4375 19.5107C10.4923 19.5482 10.5729 19.5914 10.6276 19.6576C10.6492 19.6245 10.7039 19.5654 10.8004 19.6576C10.8968 19.7498 11.0164 19.6835 11.0912 19.7051C11.1675 19.731 11.1719 19.7426 11.1719 19.7426C11.1719 19.7426 11.2151 19.7051 11.3115 19.6662C11.3706 19.6446 11.4411 19.6288 11.5174 19.6072C11.5865 19.5914 11.6643 19.5698 11.7161 19.5698C11.7636 19.6029 11.9364 19.7858 12.629 19.515C13.2826 19.2616 13.4324 19.2328 13.5418 19.2731C13.5533 19.2472 13.5634 19.1968 13.7319 19.204C13.7319 19.1349 13.5922 18.8958 13.5922 18.8958L12.8205 18.6323H12.3986L11.1344 18.8642L10.4332 19.2645L10.3785 19.4632Z" fill="#C4A859"/>
<path fill-rule="evenodd" clip-rule="evenodd" d="M9.9566 19.0197C9.9566 19.0197 9.97244 19.1377 10.1467 19.2616C10.3194 19.3854 10.3742 19.4603 10.3742 19.4603C10.3742 19.4603 10.4073 19.4171 10.4332 19.3725C10.4591 19.3249 10.4807 19.2702 10.5253 19.2544C10.6132 19.2169 10.8119 19.2875 10.8551 19.276C10.8925 19.2645 10.881 19.1881 10.9199 19.1881C11.012 19.1838 11.071 19.2472 11.1027 19.2472C11.1358 19.2472 11.2165 19.2429 11.2265 19.2256C11.2366 19.2083 11.2424 19.0269 11.3662 18.939C11.5015 18.8425 11.6671 18.8843 11.7118 18.9059C11.7118 18.939 11.7161 19.0197 11.8039 19.024C11.8917 19.0283 11.9004 19.0125 11.9767 19.0398C12.053 19.0657 12.1451 19.0355 12.1869 19.1637C12.2243 19.1521 12.3122 19.1421 12.2891 19.0168C12.3323 18.9837 12.3698 18.9621 12.4619 18.8339C12.4835 18.8008 12.5209 18.7648 12.5497 18.7158C12.6261 18.7158 12.7182 18.7 12.8406 18.808C12.8032 18.8339 12.7816 18.8512 12.7715 18.8771C12.8032 18.9088 12.8319 18.9433 12.8593 18.9793C12.8924 19.0225 12.914 19.0758 12.9558 19.0859C13.0479 19.1118 13.1977 19.0744 13.3661 19.0859C13.5274 19.0974 13.6627 19.155 13.7218 19.1925C13.7434 19.1809 13.7434 19.1766 13.7981 19.1881C13.8528 19.1997 13.8945 19.204 13.8355 19.1334C13.8686 19.1493 13.9046 19.1809 13.9377 19.1493C13.9709 19.1176 13.9968 19.0686 14.0889 19.0571C14.1811 19.0456 14.2142 19.0614 14.2502 18.9649C14.2977 18.8469 14.1321 18.8469 14.1321 18.8469C14.1321 18.8469 14.2084 18.7763 14.2934 18.6856C14.3956 18.5891 14.5137 18.4653 14.5425 18.3126C14.59 18.0304 14.315 17.9944 14.315 17.9944L12.9803 18.4048L11.3489 18.3241L9.9566 19.0197Z" fill="#927D49"/>
<path fill-rule="evenodd" clip-rule="evenodd" d="M8.75717 15.1634C8.75717 15.1634 8.71398 15.2182 8.68806 15.3463C8.6607 15.4745 8.67222 15.4601 8.65062 15.5522C8.62903 15.6444 8.35977 16.5574 8.46056 16.8655C8.56135 17.1737 8.73557 17.2874 8.845 17.5366C8.8666 17.5913 8.8882 17.6244 8.89972 17.6719C8.93715 17.8332 8.90403 17.9585 8.94723 18.1198C8.96307 18.1745 9.00194 18.2379 9.06098 18.3027C9.19056 18.438 9.40222 18.5662 9.49293 18.6583C9.62108 18.7937 9.80538 19.0687 10.0386 19.0947C10.1639 19.1105 10.3396 19.0572 10.4864 18.9708C10.616 18.8902 10.6966 18.7764 10.832 18.7116C10.9285 18.6641 11.0307 18.6454 11.1228 18.6238C11.3129 18.5863 11.4857 18.5806 11.5879 18.6022C11.7448 18.6353 12.1163 18.7491 12.3222 18.7491C12.4835 18.7462 12.6433 18.7246 12.7988 18.6828C13.1113 18.5907 13.4885 18.4337 13.7376 18.3631C13.8845 18.3199 14.0011 18.3084 14.122 18.2825C14.3279 18.235 14.4993 18.1687 14.5986 18.0449C14.5338 17.9686 14.4517 17.8505 14.0155 17.8548C13.5202 17.8663 12.9471 18.1414 12.6649 18.1846C12.3827 18.2278 12.2603 18.2652 11.9464 18.1514C11.6383 18.0362 11.6282 17.9614 11.6282 17.9614C11.6282 17.9614 11.3043 17.7353 11.1689 17.1578C11.0336 16.5804 11.1689 16.1599 11.5202 15.7596C11.6124 15.6574 11.5893 15.5652 11.5893 15.5652C11.5893 15.5652 11.8212 15.2527 11.7578 14.9604C11.6887 14.6695 11.2395 14.7286 11.2395 14.7286L8.75717 15.1634Z" fill="#6E6342"/>
<path fill-rule="evenodd" clip-rule="evenodd" d="M9.13015 16.1367C9.11143 16.1727 9.10135 16.213 9.10423 16.2548C9.10855 16.3138 9.12583 16.3902 9.30292 16.563C9.4541 16.7142 9.42099 16.8812 9.42099 16.8812C9.42099 16.8812 9.49729 16.8971 9.70319 16.8006C9.86444 16.7243 9.91915 16.8596 9.91915 16.8596C9.96667 16.8351 10.0171 16.8193 10.0703 16.8121C10.1178 16.8078 10.1639 16.7934 10.2057 16.7689C10.2057 16.7689 10.3957 16.9633 10.5613 17.0555C10.7125 17.1361 10.7989 17.1908 10.8737 17.1361C10.9429 17.0886 10.9429 16.9892 10.9385 16.946C10.9213 16.9057 10.8997 16.8683 10.8737 16.8323C10.8262 16.7631 10.7485 16.6811 10.7442 16.6163C10.7326 16.465 10.8579 16.2865 10.832 16.2433C10.8061 16.2001 10.7082 16.1886 10.4648 16.2764C10.2129 16.357 9.13015 16.1367 9.13015 16.1367Z" fill="#39331F"/>
<path fill-rule="evenodd" clip-rule="evenodd" d="M9.70324 17.1131C9.70324 17.1131 9.57942 16.995 9.62261 16.4233C9.67589 16.4219 9.72772 16.4276 9.77955 16.4392C9.77955 16.4377 9.84723 16.8812 9.70324 17.1131Z" fill="#292311"/>
<path fill-rule="evenodd" clip-rule="evenodd" d="M8.81622 14.7272C8.8335 14.7142 8.84934 14.6998 8.86374 14.684C8.82054 14.7646 8.62184 15.0886 8.78311 15.5969C8.94437 16.1038 9.3504 16.4811 9.85146 16.4998C10.3511 16.5171 10.6146 16.2723 10.9155 15.9051C11.0336 15.7582 11.1689 15.5753 11.2884 15.45C11.4669 15.2556 11.608 15.2009 11.608 15.0137C11.608 14.6292 11.215 14.4564 10.6362 14.2836C10.0574 14.1108 9.53469 14.1324 9.26401 14.2505C8.99908 14.3801 8.88533 14.5155 8.81622 14.7272Z" fill="#252211"/>
<path fill-rule="evenodd" clip-rule="evenodd" d="M10.675 17.2844L10.7182 17.2628C10.7182 17.2628 10.7298 17.09 10.7989 17.0943C10.868 17.1058 10.9011 17.1965 10.8953 17.2297C10.891 17.2628 10.8737 17.3175 10.8032 17.3103C10.711 17.3132 10.675 17.2844 10.675 17.2844Z" fill="#3F3824"/>
<path fill-rule="evenodd" clip-rule="evenodd" d="M10.4807 16.5515C10.4807 16.5515 10.5239 16.5357 10.5771 16.5889C10.6203 16.5889 10.8089 16.5673 10.868 16.6048C10.927 16.6422 10.9443 16.6738 10.9443 16.6738C10.9443 16.6738 10.724 16.7213 10.6031 16.6738C10.4807 16.6321 10.4807 16.5515 10.4807 16.5515Z" fill="#2D2815"/>
<path fill-rule="evenodd" clip-rule="evenodd" d="M11.4526 16.5832C11.4526 16.5717 11.3345 16.4911 11.2107 16.4651C11.1891 16.4608 11.1848 16.4767 11.1675 16.4767C11.156 16.4723 11.1516 16.4392 11.1516 16.4392L11.0811 16.4767C11.0811 16.4767 11.0696 16.4925 11.107 16.5199C11.1401 16.5458 11.1948 16.5674 11.2092 16.612C11.2251 16.6552 11.2251 16.6711 11.2308 16.6783C11.2352 16.6826 11.3115 16.6783 11.3489 16.6567C11.3863 16.6336 11.4569 16.5976 11.4526 16.5832Z" fill="#82764F"/>
<path fill-rule="evenodd" clip-rule="evenodd" d="M10.3497 17.0268C10.3497 17.0268 10.3713 16.8755 10.5182 16.8698C10.6693 16.8583 10.6967 17.0052 10.6967 17.0052L10.6089 17.093C10.6089 17.0901 10.5441 16.9994 10.3497 17.0268Z" fill="#2D2816"/>
<path fill-rule="evenodd" clip-rule="evenodd" d="M11.3 16.3787C11.3 16.3787 11.2193 16.4666 11.0408 16.4925C11.025 16.4709 10.9933 16.4263 11.0408 16.3571C11.0883 16.2866 11.143 16.265 11.1977 16.2866C11.2467 16.2952 11.2856 16.3312 11.3 16.3787Z" fill="#574F35"/>
<path fill-rule="evenodd" clip-rule="evenodd" d="M11.6297 16.4853C11.634 16.4637 11.6182 16.4594 11.6297 16.4479C11.6412 16.4364 11.7002 16.4148 11.7103 16.4263C11.7146 16.4306 11.7103 16.4479 11.7103 16.4695C11.7103 16.4911 11.7103 16.5127 11.6988 16.5285C11.683 16.5501 11.6398 16.5617 11.6182 16.5545C11.5966 16.5473 11.5923 16.517 11.5923 16.5113C11.6038 16.5069 11.6297 16.4969 11.6297 16.4853ZM12.0026 16.2492C12.0026 16.2377 12.0401 16.2161 12.0617 16.2161C12.0948 16.2161 12.0948 16.242 12.0991 16.2492C12.1106 16.2535 12.1106 16.2449 12.1207 16.265C12.1308 16.2852 12.1466 16.3197 12.1365 16.3413C12.1265 16.3629 12.0818 16.3788 12.0717 16.3745C12.0545 16.3629 12.007 16.265 12.0026 16.2492Z" fill="#82764F"/>
<path fill-rule="evenodd" clip-rule="evenodd" d="M11.251 16.5356C11.251 16.5356 11.2985 16.5472 11.3647 16.6019C11.3431 16.6177 11.31 16.635 11.31 16.635C11.31 16.635 11.3057 16.5832 11.251 16.5356Z" fill="#6E6342"/>
<path fill-rule="evenodd" clip-rule="evenodd" d="M11.1445 16.0548C11.133 16.0433 11.1776 16.0174 11.2035 16.0217C11.2294 16.026 11.2409 16.0433 11.2683 16.0476C11.2971 16.0519 11.3014 16.0361 11.3115 16.026C11.3216 16.0159 11.359 16.0217 11.3662 16.026C11.3705 16.0303 11.3734 16.0361 11.3777 16.0419C11.3792 16.0246 11.3864 16.0087 11.3993 15.9987C11.4166 15.9857 11.4382 15.9828 11.4583 15.9871C11.4627 16.003 11.4843 16.0563 11.4799 16.0678C11.4756 16.0793 11.4108 16.0937 11.3993 16.0836C11.4108 16.1095 11.4583 16.1643 11.4641 16.1758C11.4713 16.1873 11.4166 16.2132 11.395 16.2089C11.3648 16.206 11.1761 16.0966 11.1445 16.0548ZM11.431 15.6934C11.4267 15.6819 11.4195 15.6732 11.4094 15.6675C11.3936 15.6631 11.3446 15.6675 11.3446 15.6934C11.3446 15.7193 11.3878 15.8662 11.4367 15.9425C11.4915 16.0188 11.5289 16.0822 11.5649 16.0995C11.5894 16.111 11.6182 16.1009 11.6311 16.0779C11.6354 16.0663 11.647 15.9857 11.6426 15.7956C11.6383 15.6055 11.6311 15.4227 11.621 15.4111C11.611 15.3996 11.5663 15.3996 11.5519 15.4227C11.5332 15.4443 11.4353 15.6603 11.431 15.6934Z" fill="#585136"/>
<path fill-rule="evenodd" clip-rule="evenodd" d="M11.2366 16.8107C11.2366 16.8107 11.1603 16.7631 11.0854 16.7948C11.0163 16.8279 11.0206 16.9561 11.0206 16.9561C11.0523 16.969 11.0883 16.9647 11.1171 16.9446C11.1646 16.9143 11.2251 16.8596 11.2366 16.8107Z" fill="#574F35"/>
<path fill-rule="evenodd" clip-rule="evenodd" d="M11.3806 16.9835C11.3762 16.9403 11.3374 16.9403 11.3374 16.9173C11.3431 16.8957 11.3633 16.8798 11.3849 16.8798C11.4065 16.8798 11.4281 16.9057 11.4554 16.923C11.4813 16.9389 11.5202 16.9662 11.5245 16.9993C11.5289 17.0325 11.4813 17.1232 11.4281 17.1232C11.3762 17.1246 11.3921 17.0267 11.3806 16.9835ZM11.8024 16.9245C11.8024 16.9245 11.7146 16.9504 11.7218 16.9245C11.729 16.8985 11.7477 16.8913 11.7765 16.8913C11.7909 16.8769 11.8096 16.8669 11.8312 16.8654C11.8427 16.8654 11.8543 16.8683 11.8643 16.8769C11.8643 16.8769 11.9234 16.851 11.9406 16.8654C11.9579 16.8813 11.945 16.8813 11.9565 16.8985C11.9709 16.9187 11.9795 16.9403 11.9824 16.9648C11.9824 16.9821 11.9162 17.0195 11.8643 17.0123C11.8024 16.9993 11.8125 16.936 11.8024 16.9245ZM12.3107 16.8265C12.3107 16.8265 12.3366 16.8424 12.315 16.8597C12.2992 16.8755 12.2229 16.9029 12.1581 16.9072C12.0918 16.9072 12.0342 16.9187 12.0342 16.8957C12.0342 16.8726 12.0889 16.8294 12.1221 16.8193C12.135 16.8021 12.1552 16.7934 12.1768 16.7934C12.2027 16.7934 12.3049 16.7819 12.3337 16.7776C12.3596 16.7733 12.3812 16.7891 12.3668 16.8107C12.3582 16.8265 12.3107 16.8265 12.3107 16.8265ZM12.4619 16.1512C12.4619 16.1512 12.4287 16.2203 12.3928 16.2203C12.3553 16.216 12.3553 16.2045 12.3553 16.1944C12.3553 16.1785 12.3928 16.1397 12.3884 16.1296C12.3769 16.1296 12.351 16.1296 12.3553 16.1037C12.3553 16.0821 12.3928 16.0561 12.4244 16.0605C12.4489 16.0403 12.4806 16.0288 12.5123 16.0273C12.5497 16.0273 12.5814 16.0389 12.5814 16.0605C12.5814 16.0821 12.5382 16.1296 12.5223 16.1411C12.5051 16.1584 12.4835 16.1699 12.4619 16.1512ZM11.9637 17.4429C11.9637 17.4429 11.9205 17.4472 11.9205 17.4688C11.9205 17.4803 11.932 17.4803 11.9464 17.4731C11.955 17.4731 11.9637 17.4717 11.9723 17.4688C11.9766 17.4731 11.9766 17.4947 12.0098 17.4947C12.0371 17.4904 12.063 17.4817 12.0861 17.4688C12.112 17.4573 12.1336 17.4472 12.1336 17.4256C12.1221 17.3881 12.1005 17.3709 12.0674 17.3709C12.0501 17.3694 12.0342 17.3737 12.0198 17.3824C12.0198 17.3824 12.0083 17.3608 11.9723 17.3824C11.9349 17.404 11.9392 17.404 11.9507 17.4155C11.9709 17.4328 11.9637 17.4443 11.9637 17.4429ZM11.716 17.6704C11.716 17.6589 11.7707 17.6373 11.7851 17.6445C11.801 17.6488 11.8442 17.7323 11.8442 17.7409C11.8442 17.7525 11.7895 17.7784 11.7679 17.7784C11.7463 17.7784 11.7088 17.7409 11.7088 17.7352C11.7088 17.7309 11.7347 17.7237 11.7347 17.7193C11.7434 17.7078 11.716 17.6819 11.716 17.6704ZM11.5433 17.3507C11.5548 17.3464 11.5548 17.3349 11.5692 17.3248C11.5792 17.319 11.5908 17.3161 11.6023 17.3205C11.6095 17.3061 11.6239 17.2974 11.6397 17.2945C11.6656 17.2902 11.6872 17.2945 11.6829 17.3061C11.6829 17.3392 11.7045 17.3608 11.7045 17.3867C11.7045 17.4126 11.6887 17.4457 11.6354 17.4673C11.5807 17.4832 11.5073 17.4832 11.4957 17.4789C11.4842 17.4745 11.4741 17.4313 11.4842 17.4083C11.4943 17.3853 11.526 17.3622 11.5433 17.3507Z" fill="#82764F"/>
<path fill-rule="evenodd" clip-rule="evenodd" d="M11.6138 17.3665C11.6138 17.3665 11.5764 17.3881 11.5764 17.3996C11.5735 17.4097 11.572 17.4212 11.572 17.4327C11.572 17.4384 11.6196 17.4284 11.6268 17.4212C11.6282 17.4154 11.6138 17.3765 11.6138 17.3665Z" fill="#6E6342"/>
<path fill-rule="evenodd" clip-rule="evenodd" d="M11.2884 17.2628C11.31 17.2672 11.3475 17.2628 11.3763 17.2744C11.3978 17.2859 11.4137 17.3075 11.3921 17.3334C11.3705 17.3593 11.3489 17.3996 11.2999 17.3924C11.2452 17.3881 11.1934 17.3593 11.1934 17.3377C11.192 17.3104 11.2006 17.2816 11.2193 17.2614C11.2409 17.2441 11.251 17.2542 11.2884 17.2628Z" fill="#585136"/>
<path fill-rule="evenodd" clip-rule="evenodd" d="M11.2625 17.2844C11.2625 17.2844 11.1934 17.3391 11.1747 17.3651C11.1531 17.391 11.0466 17.5263 11.0134 17.5551C11.025 17.5364 11.0365 17.5177 11.0509 17.5004C11.0077 17.5278 10.976 17.5695 10.9587 17.6185C10.9328 17.6991 11.1056 17.7438 11.2179 17.7755C11.3302 17.8071 11.3749 17.8187 11.3749 17.8187C11.3331 17.7553 11.2971 17.6891 11.2683 17.6199C11.2251 17.5177 11.2035 17.5062 11.2309 17.4587C11.2525 17.4111 11.2856 17.378 11.2856 17.3406C11.2741 17.3075 11.2625 17.2844 11.2625 17.2844Z" fill="#574F35"/>
<path fill-rule="evenodd" clip-rule="evenodd" d="M8.7731 17.4573C8.78894 17.4602 8.80478 17.4602 8.82062 17.4573C8.85373 17.453 9.19353 17.3277 9.55061 17.3507C9.81698 17.3666 10.0819 17.4098 10.3396 17.4803C10.7874 17.5984 11.3446 17.8316 11.7046 17.9656C11.8011 18.003 11.8947 18.0678 11.9638 18.0937C12.2388 18.2003 12.2503 18.2003 12.4116 18.2291C12.6016 18.255 12.796 18.1916 12.999 18.1484C13.2481 18.0937 13.6743 18.0678 14.0472 18.0131C14.1681 17.9958 14.2877 17.9699 14.4028 17.9324C14.4028 17.9324 14.1062 18.2291 13.3935 18.337C13.1056 18.3802 12.8133 18.3846 12.5239 18.3486C12.2964 18.327 12.1466 18.2938 12.0329 18.2607C11.9033 18.2233 11.6398 18.1254 11.3144 18.0447C11.0869 17.9857 10.8335 17.9425 10.5441 17.8878C9.82706 17.7553 9.04955 17.6056 8.7731 17.4573Z" fill="#252211"/>
<path fill-rule="evenodd" clip-rule="evenodd" d="M7.96823 16.1079C7.79544 16.2548 7.61258 16.3945 7.4326 16.5298L6.89266 16.9445C6.7098 17.0799 6.52982 17.2196 6.34696 17.3549C6.1641 17.4903 5.9798 17.6185 5.78542 17.7437C5.9582 17.5969 6.14106 17.4615 6.32536 17.329C6.50966 17.1965 6.69972 17.0655 6.87538 16.9301L7.41532 16.5154C7.60107 16.3786 7.78105 16.2389 7.96823 16.1079ZM7.01361 17.6372C7.01361 17.6372 7.20799 17.4759 7.44988 17.2484C7.75081 16.9661 8.12085 16.6061 8.23892 16.5413L7.01361 17.6372Z" fill="#CFB66C"/>
<path fill-rule="evenodd" clip-rule="evenodd" d="M7.01357 17.6373C7.11003 17.5408 7.21226 17.4472 7.31448 17.355L7.47142 17.2197C7.51893 17.1765 7.57365 17.1275 7.6226 17.08C7.71907 16.9835 7.81265 16.8813 7.90912 16.7834C7.95663 16.7344 8.00703 16.6869 8.0603 16.6437C8.08622 16.6206 8.11645 16.6005 8.14813 16.5846C8.17404 16.5688 8.20284 16.5414 8.24027 16.5371C8.21868 16.5702 8.19276 16.5846 8.16972 16.6134C8.14381 16.635 8.12221 16.661 8.10061 16.6826C8.0531 16.7301 7.99839 16.7747 7.94943 16.8179C7.84721 16.9057 7.73922 16.9907 7.637 17.0814C7.53477 17.1721 7.43831 17.2715 7.33608 17.3637C7.22378 17.4573 7.12155 17.5494 7.01357 17.6373ZM8.3209 16.7632C8.3209 16.7632 7.6082 17.4601 7.46278 17.5739L8.3209 16.7632Z" fill="#CFB66C"/>
<path fill-rule="evenodd" clip-rule="evenodd" d="M8.32088 16.7632C8.25753 16.8366 8.18842 16.9072 8.115 16.9734L7.89903 17.1793C7.82992 17.2485 7.76369 17.319 7.68882 17.3896C7.61251 17.4558 7.54196 17.5192 7.46133 17.5797L7.67154 17.3737C7.74209 17.3046 7.8184 17.2456 7.89183 17.175L8.10204 16.9691C8.17403 16.8957 8.24314 16.8265 8.32088 16.7632ZM8.35256 17.1405C8.28633 17.3233 8.21002 17.5019 8.12076 17.6761C7.9379 18.0433 7.66146 18.5013 7.54196 18.736L8.35256 17.1405Z" fill="#CFB66C"/>
<path fill-rule="evenodd" clip-rule="evenodd" d="M8.35261 17.1404C8.35261 17.221 8.33101 17.2916 8.30509 17.3607C8.27918 17.4313 8.25038 17.4989 8.21726 17.5666C8.18415 17.6329 8.14671 17.702 8.11072 17.7653C8.07472 17.8287 8.03008 17.8935 7.99697 17.9597L7.77667 18.3485C7.70036 18.4781 7.62549 18.6092 7.54486 18.733C7.59957 18.5933 7.67445 18.4623 7.74356 18.3327C7.81987 18.2031 7.89042 18.0735 7.95953 17.9396C7.99409 17.8733 8.02433 17.8042 8.05168 17.7337C8.0848 17.6631 8.11647 17.5983 8.14383 17.5349C8.17695 17.4658 8.20286 17.3996 8.23598 17.3362C8.27198 17.27 8.30221 17.2037 8.35261 17.1404Z" fill="#CFB66C"/>
<path fill-rule="evenodd" clip-rule="evenodd" d="M9.13013 18.9319C9.13013 18.9319 8.91416 19.2184 8.93575 19.5813C8.99479 19.3912 9.06966 19.1004 9.13013 18.9319ZM9.33603 19.2184C9.33603 19.2184 9.25972 19.996 9.19637 20.3791C9.28564 19.937 9.30291 19.9744 9.33603 19.2184ZM10.7672 20.4251C10.7672 20.4251 10.4447 21.3755 10.4375 21.639C10.5066 21.3683 10.642 20.8125 10.7672 20.4251Z" fill="#DEC270"/>
<path fill-rule="evenodd" clip-rule="evenodd" d="M11.5216 18.8728C11.5216 18.8728 12.0457 19.7382 12.4388 20.4755C12.3337 20.1054 12.0889 19.4243 11.5216 18.8728Z" fill="#CBAF59"/>
<path fill-rule="evenodd" clip-rule="evenodd" d="M12.9313 20.1472C13.2193 20.6555 13.4785 21.1797 13.7088 21.7183C13.6656 21.3467 13.5476 20.7103 12.9313 20.1472Z" fill="#E3C677"/>
<path fill-rule="evenodd" clip-rule="evenodd" d="M17.0723 21.4215C17.1601 21.3668 17.3329 21.0702 17.4826 20.9953C17.6338 20.919 17.7461 20.9031 17.8829 20.7534C18.0182 20.5964 18.0557 20.4999 18.3523 20.3761C18.7669 20.1975 18.4819 19.9657 18.4819 19.9657C18.5279 19.9211 18.5769 19.8793 18.6287 19.8419C18.7353 19.7612 18.8605 19.6633 18.849 19.4905C18.8332 19.1996 18.7799 18.7791 18.5409 18.5343C18.7727 18.4868 19.2162 18.4537 19.4912 18.3831C19.8094 18.3025 19.9562 18.1887 19.9562 18.1887C19.9562 18.1887 19.7734 17.8763 20.07 17.5623C20.3666 17.2484 20.6099 17.0598 20.7885 16.7084C20.5826 16.6825 20.2701 16.5731 19.471 16.8769C19.5142 16.8971 19.556 16.9201 19.5963 16.946C19.5963 16.946 19.1053 17.0814 18.9253 17.2326C18.6129 17.4961 18.574 17.7135 18.2357 17.8748C17.8973 18.0361 17.5561 17.9929 17.2753 18.1239C16.9945 18.255 16.9513 18.3659 16.8491 18.4148C16.8707 18.4407 16.8448 18.4839 16.8865 18.5214C16.8606 18.5588 16.708 18.8079 16.5525 18.8079C16.5683 18.867 16.6994 18.9102 16.6994 18.9102C16.6994 18.9102 16.6029 18.9807 16.3581 18.998C16.482 19.1276 16.6 19.2687 16.9254 19.4747C16.8995 19.5294 16.7901 19.61 16.8333 19.7123C16.8808 19.8145 17.006 19.9542 17.5042 20.0679C17.2508 20.0795 16.9542 20.1371 16.5539 20.0838C16.1537 20.0363 16.0889 20.0075 15.8412 20.0679C15.8671 20.0939 15.9377 20.0939 15.9982 20.1644C15.9319 20.1687 15.5216 20.1169 15.3819 20.2998C15.2351 20.4899 15.1717 20.8023 15.1832 21.0111C15.1069 21.0486 15.0321 21.1134 15.0695 21.2487C15.1069 21.3841 15.3013 21.4273 15.4251 21.5123C15.5489 21.6044 15.5605 21.6361 15.6785 21.6145C15.8024 21.5886 15.9867 21.4633 16.0932 21.4633C16.1997 21.4633 16.2761 21.5439 16.2761 21.5439C16.2761 21.5439 16.5669 21.4043 16.5957 21.4302C16.6216 21.4561 16.6 21.6246 16.6288 21.6505C16.659 21.6707 16.9859 21.4763 17.0723 21.4215Z" fill="#ECD592"/>
<path fill-rule="evenodd" clip-rule="evenodd" d="M23.4219 12.6808C22.0569 9.15571 18.682 8.50195 18.682 8.50195H9.05386L9.0913 12.0933H11.0091V20.1127H9.05386V23.6968H18.4156C20.6718 23.6968 22.4802 21.4288 22.4802 21.4288C25.3772 17.3176 23.4219 12.6808 23.4219 12.6808ZM18.466 19.0125C18.466 19.0125 17.7317 20.0724 16.9326 20.0724H15.3344L15.2969 12.102H17.3473C17.3473 12.102 18.2975 12.3007 18.9613 14.1813C18.9613 14.1813 19.8425 16.8741 18.466 19.0125Z" fill="white" fill-opacity="0.8"/>
</svg>
