<svg width="32" height="32" viewBox="0 0 32 32" fill="none" xmlns="http://www.w3.org/2000/svg">
<path d="M15.9981 29.5999C23.5083 29.5999 29.5965 23.511 29.5965 15.9999C29.5965 8.48883 23.5083 2.3999 15.9981 2.3999C8.48792 2.3999 2.3997 8.48883 2.3997 15.9999C2.3997 23.511 8.48792 29.5999 15.9981 29.5999Z" fill="#627EEA"/>
<path d="M16.4219 5.7981V13.338L22.7936 16.1858L16.4219 5.7981Z" fill="white" fill-opacity="0.602"/>
<path d="M16.4219 5.7981L10.0502 16.1858L16.4219 13.338V5.7981Z" fill="white"/>
<path d="M16.4219 21.0711V26.1944L22.7973 17.3718L16.4219 21.0711Z" fill="white" fill-opacity="0.602"/>
<path d="M16.4219 26.1944V21.0711L10.0502 17.3718L16.4219 26.1944Z" fill="white"/>
<path d="M16.4219 19.8851L22.7936 16.1858L16.4219 13.3379V19.8851Z" fill="white" fill-opacity="0.2"/>
<path d="M10.0502 16.1858L16.4219 19.8851V13.3379L10.0502 16.1858Z" fill="white" fill-opacity="0.602"/>
</svg>
