<svg width="32" height="32" viewBox="0 0 32 32" fill="none" xmlns="http://www.w3.org/2000/svg">
<path d="M15.9981 29.5999C23.5083 29.5999 29.5965 23.511 29.5965 15.9999C29.5965 8.48883 23.5083 2.3999 15.9981 2.3999C8.48793 2.3999 2.39972 8.48883 2.39972 15.9999C2.39972 23.511 8.48793 29.5999 15.9981 29.5999Z" fill="#26A17B"/>
<path d="M17.3064 16.9871C17.2175 16.9871 16.7192 17.0222 15.616 17.0222C14.744 17.0222 14.1212 17.0046 13.9077 16.9871C10.5267 16.8469 8.01771 16.2683 8.01771 15.567C8.01771 14.8658 10.5445 14.2872 13.9077 14.147V16.4086C14.1212 16.4261 14.7618 16.4612 15.6338 16.4612C16.6836 16.4612 17.1997 16.4261 17.3064 16.4086V14.147C20.6696 14.2872 23.1964 14.8658 23.1964 15.567C23.1964 16.2508 20.6696 16.8293 17.3064 16.9871ZM17.3064 13.9015V11.8854H22.0042V8.7998H9.19214V11.8854H13.8899V13.9015C10.0641 14.0769 7.19916 14.8132 7.19916 15.7073C7.19916 16.6014 10.0819 17.3378 13.8899 17.5131V23.9998H17.2887V17.5131C21.1323 17.3553 23.9972 16.619 23.9972 15.7248C23.9972 14.8307 21.1323 14.0769 17.3064 13.9015Z" fill="white"/>
</svg>
