<svg xmlns="http://www.w3.org/2000/svg" width="50" height="56"><defs><linearGradient id="a" x1=".07" x2="42.66" y1=".03" y2="60.48" gradientUnits="userSpaceOnUse"><stop offset="0" stop-color="#ffc600"/><stop offset="1" stop-color="#ff7900"/></linearGradient></defs><path fill="url(#a)" d="M23.028 29.532v23.187h-11.49a1.641 1.641 0 01-1.639-1.64V30.732l3.295-1.201zm3.28 0h3.304v23.187h-3.304zm6.564 0h13.13v21.546c0 .905-.758 1.64-1.661 1.64H32.87zm-27.767-.547L3.422 24.36a1.64 1.64 0 01.98-2.103l13.87-5.05 2.244 6.167zm6.902-20.167a3.345 3.345 0 013.24.693l4.248 3.76-5.33 1.94a3.321 3.321 0 01-3.405-.66c-1.972-1.77-1.22-4.961 1.247-5.733zm12.436 6.145l2.24 6.167-3.078 1.122-2.24-6.167zm.775-8.8a3.349 3.349 0 012.036-2.615 3.343 3.343 0 013.288.391c2.202 1.613 1.674 4.702-.837 5.617l-3.298 1.202-2.015.734zM41.402 8.79a1.64 1.64 0 012.102.98l1.683 4.625-15.41 5.611-2.244-6.166zm7.991 7.566L46.588 8.65a4.927 4.927 0 00-6.308-2.941l-5.16 1.876.025-.152c.338-2.378-.658-4.675-2.664-6.142A6.606 6.606 0 0025.989.52a6.603 6.603 0 00-4.02 5.148l-.736 4.753-3.81-3.368a6.605 6.605 0 00-6.395-1.366c-4.938 1.543-6.29 7.87-2.46 11.307.068.062.139.121.21.18l-5.498 2a4.919 4.919 0 00-2.94 6.31l2.805 7.708 3.494-1.264v19.151c0 2.714 2.186 4.922 4.9 4.922H44.35a4.927 4.927 0 004.922-4.922V26.251h-27.06z"/></svg>