<svg width="80" height="92" viewBox="0 0 80 92" fill="none" xmlns="http://www.w3.org/2000/svg">
<path d="M40 14C33.671 14 27.4841 15.8768 22.2218 19.393C16.9594 22.9092 12.8579 27.9069 10.4359 33.7541C8.01387 39.6014 7.38016 46.0355 8.61489 52.2429C9.84961 58.4503 12.8973 64.1521 17.3726 68.6274C21.8479 73.1027 27.5497 76.1504 33.7571 77.3851C39.9645 78.6198 46.3986 77.9861 52.2459 75.5641C58.0931 73.1421 63.0908 69.0406 66.607 63.7782C70.1232 58.5159 72 52.329 72 46C72 37.5131 68.6286 29.3737 62.6274 23.3726C56.6263 17.3714 48.4869 14 40 14V14ZM40 18.2667C46.6155 18.278 53.0091 20.6539 58.0267 24.9653L18.9653 64.0267C15.5216 60.0005 13.3032 55.0722 12.5725 49.8249C11.8418 44.5775 12.6295 39.2306 14.8422 34.4168C17.055 29.6031 20.6003 25.5238 25.0587 22.6617C29.5171 19.7996 34.702 18.2745 40 18.2667V18.2667ZM40 73.7333C33.3845 73.7219 26.991 71.3461 21.9733 67.0347L61.0347 27.9733C64.4784 31.9995 66.6968 36.9277 67.4275 42.1751C68.1582 47.4225 67.3705 52.7694 65.1578 57.5832C62.945 62.3969 59.3997 66.4762 54.9413 69.3383C50.4829 72.2004 45.298 73.7255 40 73.7333Z" fill="#383448"/>
</svg>
