<svg width="24" height="24" viewBox="0 0 24 24" fill="none" xmlns="http://www.w3.org/2000/svg">
<mask id="path-1-inside-1" fill="white">
<rect x="1" y="3" width="22" height="18" rx="1"/>
</mask>
<rect x="1" y="3" width="22" height="18" rx="1" stroke="white" stroke-width="3" stroke-linejoin="round" mask="url(#path-1-inside-1)"/>
<path d="M16 17V16C16 15.4696 15.7893 14.9609 15.4142 14.5858C15.0391 14.2107 14.5304 14 14 14H10C9.46957 14 8.96086 14.2107 8.58579 14.5858C8.21071 14.9609 8 15.4696 8 16V17" stroke="white" stroke-width="1.5" stroke-linecap="round" stroke-linejoin="round"/>
<path d="M12 13C13.6569 13 15 11.6569 15 10C15 8.34315 13.6569 7 12 7C10.3431 7 9 8.34315 9 10C9 11.6569 10.3431 13 12 13Z" stroke="white" stroke-width="1.5" stroke-linecap="round" stroke-linejoin="round"/>
</svg>
