<svg width="24" height="24" viewBox="0 0 24 24" fill="none" xmlns="http://www.w3.org/2000/svg">
<g>
<path d="M22 4V10H17" stroke="white" stroke-width="1.5" stroke-linecap="round" stroke-linejoin="round"/>
<path d="M2 20V14H7" stroke="white" stroke-width="1.5" stroke-linecap="round" stroke-linejoin="round"/>
<path d="M4.28182 8.99921C4.74288 7.56562 5.52648 6.2839 6.55952 5.27365C7.59255 4.2634 8.84133 3.55755 10.1894 3.22195C11.5374 2.88636 12.9407 2.93196 14.2684 3.3545C15.596 3.77704 16.8048 4.56276 17.7818 5.63833L22 9.99947M2 14.0005L6.21818 18.3617C7.19523 19.4372 8.40398 20.223 9.73165 20.6455C11.0593 21.068 12.4626 21.1136 13.8106 20.7781C15.1587 20.4425 16.4075 19.7366 17.4405 18.7263C18.4735 17.7161 19.2571 16.4344 19.7182 15.0008" stroke="white" stroke-width="1.5" stroke-linecap="round" stroke-linejoin="round"/>
</g>
</svg>
