<svg width="22" height="22" viewBox="0 0 22 22" fill="none" xmlns="http://www.w3.org/2000/svg">
<path d="M21 12C20.7 12 20.5 12.2 20.5 12.5V19C20.5 19.3 20.3 19.5 20 19.5H1.99995C1.69995 19.5 1.49997 19.3 1.49997 19V12.5C1.49997 12.2 1.29995 12 0.999984 12C0.70002 12 0.5 12.2 0.5 12.5V19C0.5 19.85 1.14999 20.5 2 20.5H20C20.85 20.5 21.5 19.85 21.5 19V12.5C21.5 12.2 21.3 12 21 12Z" fill="white"/>
<path d="M20.5 5.00002H1.5C0.649988 5.00002 0 5.65 0 6.50001V9.70002C0 10.4 0.499984 11 1.15002 11.15L9.00002 12.9V14.5C9.00002 14.8 9.20004 15 9.5 15H12.5C12.8 15 13 14.7999 13 14.5V12.9L20.85 11.15C21.5 11 22 10.4 22 9.69998V6.49997C22 5.65 21.35 5.00002 20.5 5.00002ZM12 14H10V12H12V14ZM21 9.69998C21 9.94997 20.85 10.15 20.6 10.2L13 11.9V11.5C13 11.2 12.8 11 12.5 11H9.5C9.2 11 9.00002 11.2 9.00002 11.5V11.9L1.40001 10.2C1.15002 10.15 1.00001 9.95002 1.00001 9.70002V6.50001C1.00001 6.2 1.20003 6.00003 1.5 6.00003H20.5C20.8 6.00003 21 6.20005 21 6.50001V9.69998Z" fill="white"/>
<path d="M13.5 1.5H8.5C7.64999 1.5 7 2.14999 7 3V3.49998C7 3.79999 7.20002 3.99996 7.49998 3.99996C7.79995 3.99996 7.99997 3.79994 7.99997 3.49998V3C7.99997 2.69999 8.19999 2.50001 8.49995 2.50001H13.5C13.8 2.50001 14 2.70003 14 3V3.49998C14 3.79999 14.2 3.99996 14.4999 3.99996C14.7999 3.99996 14.9999 3.79994 14.9999 3.49998V3C15 2.14999 14.35 1.5 13.5 1.5Z" fill="white"/>
</svg>
