<svg width="22" height="22" viewBox="0 0 22 22" fill="none" xmlns="http://www.w3.org/2000/svg">
<path d="M7.68712 6.07745C7.42441 6.78834 7.16169 7.49924 6.89893 8.21022C7.50755 8.72361 8.16092 9.06763 8.94865 9.21869C9.21137 8.5078 9.47409 7.7969 9.7368 7.0861C8.94907 6.93435 8.29579 6.59129 7.68712 6.07745Z" fill="white"/>
<path d="M17.0354 7.01284C17.2764 6.36085 17.5173 5.70905 17.7582 5.0572C16.9561 4.9278 16.1729 4.92858 15.3636 4.97815C15.1228 5.63004 14.8817 6.28199 14.6409 6.93379C15.4503 6.88417 16.2334 6.88353 17.0354 7.01284Z" fill="white"/>
<path d="M5.38818 12.2984C5.99662 12.812 6.65022 13.1556 7.43787 13.307C7.67879 12.6551 7.9197 12.0032 8.16062 11.3513C7.37284 11.2 6.71957 10.8564 6.1109 10.3427C5.86998 10.9946 5.62906 11.6465 5.38818 12.2984Z" fill="white"/>
<path d="M16.7861 14.2422C17.0269 13.5904 17.2679 12.9385 17.5088 12.2867C16.9001 11.7731 16.2469 11.4296 15.4591 11.2781C15.2182 11.93 14.9772 12.5819 14.7363 13.2337C15.5241 13.385 16.1775 13.7286 16.7861 14.2422Z" fill="white"/>
<path d="M9.83252 13.386C10.6699 13.3183 11.5044 13.2223 12.3418 13.1547C12.5827 12.5028 12.8237 11.8508 13.0646 11.199C12.2272 11.2667 11.3927 11.3628 10.5553 11.4303C10.3144 12.0821 10.0734 12.734 9.83252 13.386Z" fill="white"/>
<path d="M16.2473 9.14543C17.035 9.29687 17.6883 9.64033 18.2969 10.154C18.5598 9.44319 18.8225 8.73221 19.0851 8.02131C18.4764 7.50774 17.8232 7.16436 17.0354 7.01284C16.7727 7.72374 16.5099 8.43463 16.2473 9.14543Z" fill="white"/>
<path d="M8.9488 9.2187C8.68612 9.92951 8.42332 10.6405 8.16064 11.3513C8.96273 11.4807 9.74601 11.4799 10.5553 11.4304C10.818 10.7195 11.0807 10.0086 11.3435 9.29766C10.5341 9.34733 9.75093 9.34811 8.9488 9.2187Z" fill="white"/>
<path d="M12.1314 7.16502C12.3724 6.51312 12.6133 5.86123 12.8542 5.20947C12.0448 5.25913 11.2616 5.25987 10.4596 5.13051C10.2187 5.78231 9.97774 6.43421 9.73682 7.08606C10.539 7.21533 11.3219 7.21455 12.1314 7.16502Z" fill="white"/>
<path d="M13.8527 9.06643C13.5899 9.77723 13.3272 10.4881 13.0645 11.1989C13.8738 11.1495 14.6569 11.1486 15.459 11.2781C15.7217 10.5672 15.9845 9.85637 16.2473 9.14548C15.4451 9.01607 14.662 9.01695 13.8527 9.06643Z" fill="white"/>
<path d="M13.8526 9.06645C14.1153 8.35555 14.378 7.64466 14.6407 6.93385C13.8033 7.0015 12.9688 7.09743 12.1314 7.16502C11.8687 7.87583 11.606 8.58682 11.3433 9.29762C12.1806 9.23011 13.0151 9.13405 13.8526 9.06645Z" fill="white"/>
<path d="M18.2428 3.01364C17.8259 2.94181 17.3847 2.90695 16.8939 2.90695C16.1924 2.90695 15.4952 2.97869 14.8209 3.04804C14.6872 3.06179 14.5538 3.07554 14.4208 3.08864L14.2458 3.10598C13.6283 3.16742 12.9898 3.23092 12.3735 3.23092C11.836 3.23097 11.3704 3.18255 10.9499 3.08299C9.84787 2.82215 9.02919 2.11917 8.37338 0.870562C8.26785 0.669558 8.05378 0.549627 7.8273 0.56425C7.60073 0.578919 7.40405 0.725614 7.32532 0.938575L0.0357924 20.6627C-0.0742516 20.9605 0.0779613 21.2911 0.375719 21.4012C0.441433 21.4254 0.50871 21.437 0.57493 21.437C0.808676 21.437 1.0284 21.2933 1.11421 21.0612L3.8734 13.5953C4.68905 14.4465 5.85764 15.105 6.59153 15.2786C7.10004 15.3989 7.65242 15.4574 8.28031 15.4574C8.95446 15.4574 9.6225 15.391 10.2685 15.3266L10.4401 15.3096C10.5739 15.2964 10.7081 15.2825 10.8426 15.2686C11.4887 15.2021 12.1567 15.1334 12.7997 15.1334C13.2247 15.1334 13.6022 15.1629 13.9541 15.2235C15.2116 15.4401 16.123 16.1614 16.8227 17.4935C16.9282 17.6945 17.142 17.8141 17.3688 17.7998C17.5953 17.7852 17.792 17.6385 17.8707 17.4255L21.9644 6.34853C22.0209 6.19577 22.0098 6.02617 21.9341 5.88196C21.0665 4.23038 19.8591 3.29208 18.2428 3.01364ZM17.1938 15.9406C16.4015 14.9139 15.3973 14.3055 14.1492 14.0906C13.7322 14.0187 13.2907 13.9838 12.7997 13.9838C12.0976 13.9838 11.3998 14.0557 10.7248 14.1252C10.5918 14.1389 10.4592 14.1526 10.327 14.1656L10.1546 14.1827C9.53646 14.2442 8.8973 14.3079 8.28022 14.3079C7.7426 14.3079 7.27676 14.2594 6.85613 14.1599C6.18639 14.0015 4.88752 13.1827 4.33473 12.3466L8.00131 2.42566C8.71938 3.36161 9.60507 3.94609 10.685 4.20173C11.1935 4.32208 11.7458 4.38061 12.3735 4.38057C13.0469 4.38057 13.7142 4.31421 14.3595 4.25002L14.5336 4.23272C14.6681 4.21948 14.8031 4.20559 14.9385 4.19161C15.5839 4.12526 16.2513 4.05651 16.8938 4.05651C17.3185 4.05651 17.696 4.08598 18.0476 4.1465C19.2338 4.35082 20.1121 5.00423 20.7951 6.19581L17.1938 15.9406Z" fill="white"/>
</svg>
