<svg width="22" height="22" viewBox="0 0 22 22" fill="none" xmlns="http://www.w3.org/2000/svg">
<path d="M21.9821 7.99086C21.0644 5.35481 19.374 3.45099 19.3025 3.37124C19.2501 3.31285 19.1783 3.27555 19.1004 3.26636C19.0643 3.26206 15.4383 2.83886 11 2.83886C10.0207 2.83886 9.00445 2.85944 7.97968 2.89996C7.80184 2.90701 7.66339 3.05688 7.67039 3.23473C7.6774 3.41258 7.82736 3.55025 8.00516 3.54402C8.76219 3.51407 9.51436 3.49512 10.2502 3.48739C9.4612 4.34887 7.94436 6.10062 6.85468 7.94754C5.70543 6.1374 4.3328 4.58868 3.62858 3.83801C4.21949 3.78043 5.17975 3.69626 6.37841 3.62476C6.55609 3.61414 6.69152 3.46152 6.68091 3.28384C6.6703 3.10621 6.51845 2.97103 6.34 2.98134C4.28141 3.10415 2.9132 3.26472 2.89962 3.26636C2.82176 3.27555 2.74991 3.31285 2.69758 3.37124C2.62604 3.45099 0.935645 5.35485 0.0179185 7.99086C-0.0103979 8.0722 -0.00498384 8.16149 0.0329576 8.23879C0.580766 9.35516 1.18564 10.4621 1.83077 11.5288C1.89136 11.629 1.99775 11.6844 2.10684 11.6844C2.16365 11.6844 2.22114 11.6693 2.27331 11.6378C2.42559 11.5457 2.4744 11.3476 2.38227 11.1953C1.84834 10.3125 1.34247 9.40169 0.874372 8.48096C1.84345 8.58052 3.93186 8.77302 6.59579 8.89097C6.81575 10.0412 7.82904 14.9135 10.1903 20.6042C9.77604 20.2463 9.25117 19.7709 8.6509 19.1793C7.26241 17.8109 5.18281 15.5299 3.16095 12.434C3.06363 12.2849 2.86391 12.243 2.71494 12.3404C2.56592 12.4377 2.52403 12.6374 2.62135 12.7864C4.67453 15.9302 6.78752 18.2478 8.19848 19.6384C9.73221 21.1499 10.7672 21.9069 10.8105 21.9384C10.867 21.9795 10.9335 22 11 22C11.0665 22 11.133 21.9795 11.1895 21.9384C11.2667 21.8823 13.1078 20.5328 15.5168 17.8342C15.6354 17.7015 15.6238 17.4977 15.4911 17.3792C15.3583 17.2607 15.1546 17.2722 15.0361 17.405C13.7294 18.8687 12.5794 19.9378 11.8103 20.6026C14.1712 14.9126 15.1843 10.0411 15.4042 8.89092C18.0682 8.77297 20.1567 8.58052 21.1257 8.48092C19.7045 11.2777 17.9727 13.9117 15.9725 16.3178C15.8587 16.4547 15.8775 16.6579 16.0143 16.7717C16.0745 16.8217 16.1476 16.8461 16.2202 16.8461C16.3127 16.8461 16.4044 16.8065 16.4682 16.7298C18.6259 14.1342 20.476 11.2774 21.967 8.23874C22.005 8.16149 22.0104 8.0722 21.9821 7.99086ZM0.766993 7.82173C1.45905 6.03965 2.504 4.63018 2.95612 4.06704C3.53779 4.67513 5.04372 6.31636 6.27069 8.23079C3.62072 8.10472 1.5941 7.90917 0.766993 7.82173ZM11 20.8671C8.59921 15.2288 7.53113 10.309 7.25759 8.91812C8.42359 8.96242 9.68486 8.99095 11 8.99095C12.3153 8.99095 13.5765 8.96242 14.7426 8.91812C14.4693 10.3085 13.4023 15.2256 11 20.8671ZM15.1452 7.94772C14.9441 7.60719 14.7189 7.25386 14.4724 6.89219C14.3721 6.74511 14.1716 6.70717 14.0246 6.80741C13.8775 6.90766 13.8396 7.10815 13.9398 7.25519C14.1794 7.60672 14.3978 7.94935 14.5923 8.27883C13.4693 8.32013 12.2597 8.34647 11 8.34647C9.74041 8.34647 8.5308 8.32017 7.40781 8.27883C8.60282 6.25513 10.3736 4.29614 11.0002 3.62807C11.3896 4.04276 12.2203 4.95477 13.0766 6.06745C13.1401 6.1499 13.2356 6.19317 13.3322 6.19317C13.4008 6.19317 13.47 6.17134 13.5285 6.12627C13.6696 6.01773 13.6959 5.81539 13.5874 5.67433C12.8849 4.7615 12.1976 3.97938 11.7481 3.48734C14.7216 3.51867 17.2328 3.72771 18.3712 3.83823C17.6669 4.58902 16.2944 6.1377 15.1452 7.94772ZM15.7294 8.23084C16.9564 6.31624 18.4626 4.67487 19.0441 4.06691C19.4961 4.62928 20.5401 6.03668 21.2331 7.82173C20.4061 7.90917 18.3794 8.10472 15.7294 8.23084Z" fill="white"/>
<path d="M3.04125 15.5821C3.21402 15.5393 3.31934 15.3646 3.27654 15.1918C3.23375 15.0191 3.05908 14.9137 2.88626 14.9565L1.17232 15.3811C0.999543 15.4239 0.894227 15.5986 0.937024 15.7714C0.973375 15.9181 1.1049 16.0162 1.24958 16.0162C1.27523 16.0162 1.30131 16.0131 1.32735 16.0067L3.04125 15.5821Z" fill="white"/>
<path d="M4.19064 17.2171L1.41757 18.8113C1.26327 18.9 1.21007 19.097 1.2988 19.2513C1.3584 19.355 1.4669 19.4131 1.57849 19.4131C1.63297 19.4131 1.68819 19.3992 1.7388 19.3701L4.51188 17.7759C4.66618 17.6872 4.71937 17.4902 4.63064 17.3359C4.54191 17.1816 4.34494 17.1284 4.19064 17.2171Z" fill="white"/>
<path d="M6.08535 19.3155C5.94514 19.2058 5.74259 19.2305 5.63293 19.3707L4.85756 20.3614C4.74786 20.5015 4.77257 20.7041 4.91273 20.8138C4.97168 20.86 5.04164 20.8823 5.11112 20.8823C5.20685 20.8823 5.3016 20.8398 5.36515 20.7586L6.14052 19.7679C6.25018 19.6277 6.22547 19.4252 6.08535 19.3155Z" fill="white"/>
<path d="M20.8279 15.241L19.1139 14.8164C18.9412 14.7736 18.7664 14.879 18.7236 15.0517C18.6808 15.2245 18.7862 15.3992 18.9589 15.442L20.6729 15.8666C20.6989 15.873 20.725 15.8761 20.7507 15.8761C20.8953 15.8761 21.0269 15.778 21.0632 15.6313C21.106 15.4585 21.0006 15.2838 20.8279 15.241Z" fill="white"/>
<path d="M20.5827 18.6713L17.8096 17.0771C17.6553 16.9885 17.4583 17.0416 17.3696 17.1959C17.2809 17.3502 17.3341 17.5472 17.4884 17.6359L20.2614 19.23C20.312 19.2591 20.3673 19.273 20.4217 19.273C20.5333 19.273 20.6418 19.2149 20.7014 19.1113C20.7902 18.957 20.737 18.7599 20.5827 18.6713Z" fill="white"/>
<path d="M16.3671 19.2306C16.2573 19.0905 16.0549 19.0657 15.9147 19.1754C15.7745 19.2851 15.7498 19.4877 15.8595 19.6278L16.6349 20.6186C16.6984 20.6998 16.7932 20.7422 16.8889 20.7422C16.9583 20.7422 17.0283 20.7198 17.0873 20.6737C17.2274 20.564 17.2521 20.3615 17.1425 20.2213L16.3671 19.2306Z" fill="white"/>
<path d="M11 1.85475C11.178 1.85475 11.3223 1.71046 11.3223 1.53248V0.322266C11.3223 0.144289 11.178 0 11 0C10.822 0 10.6777 0.144289 10.6777 0.322266V1.53248C10.6777 1.71046 10.822 1.85475 11 1.85475Z" fill="white"/>
<path d="M7.24466 1.98984C7.30464 2.09215 7.41232 2.14913 7.52297 2.14913C7.57835 2.14913 7.63447 2.13482 7.68569 2.10482C7.83922 2.01481 7.89069 1.81736 7.80067 1.66379L7.41039 0.998251C7.32033 0.844723 7.12289 0.793247 6.96936 0.883266C6.81583 0.973286 6.76435 1.17073 6.85437 1.3243L7.24466 1.98984Z" fill="white"/>
<path d="M14.3143 2.10482C14.3655 2.13486 14.4217 2.14912 14.477 2.14912C14.5876 2.14912 14.6954 2.09215 14.7554 1.98984L15.1456 1.32429C15.2357 1.17077 15.1842 0.973325 15.0307 0.883262C14.8771 0.7932 14.6797 0.84472 14.5896 0.998247L14.1993 1.66379C14.1093 1.81736 14.1608 2.0148 14.3143 2.10482Z" fill="white"/>
<path d="M10.7908 17.2968C10.9688 17.2968 11.113 17.1525 11.113 16.9745C11.113 16.7965 10.9688 16.6522 10.7908 16.6522C10.6128 16.6522 10.4685 16.7965 10.4685 16.9745C10.4685 17.1525 10.6128 17.2968 10.7908 17.2968Z" fill="white"/>
<path d="M3.20312 10.2641C3.38111 10.2641 3.52539 10.1198 3.52539 9.94181C3.52539 9.76383 3.38111 9.61954 3.20312 9.61954C3.02514 9.61954 2.88086 9.76383 2.88086 9.94181C2.88086 10.1198 3.02514 10.2641 3.20312 10.2641Z" fill="white"/>
<path d="M5.57788 5.01974C5.75586 5.01974 5.90015 4.87545 5.90015 4.69747C5.90015 4.51949 5.75586 4.37521 5.57788 4.37521C5.3999 4.37521 5.25562 4.51949 5.25562 4.69747C5.25562 4.87545 5.3999 5.01974 5.57788 5.01974Z" fill="white"/>
<path d="M16.2383 4.74989C16.4163 4.74989 16.5605 4.60561 16.5605 4.42763C16.5605 4.24965 16.4163 4.10536 16.2383 4.10536C16.0603 4.10536 15.916 4.24965 15.916 4.42763C15.916 4.60561 16.0603 4.74989 16.2383 4.74989Z" fill="white"/>
<path d="M18.6326 10.442C18.8106 10.442 18.9548 10.2977 18.9548 10.1197C18.9548 9.94172 18.8106 9.79743 18.6326 9.79743C18.4546 9.79743 18.3103 9.94172 18.3103 10.1197C18.3103 10.2977 18.4546 10.442 18.6326 10.442Z" fill="white"/>
</svg>
