<svg width="26" height="28" viewBox="0 0 26 28" fill="none" xmlns="http://www.w3.org/2000/svg">
    <path
        d="M21.6677 8.15612H13.7609L15.8258 6.41069C16.2617 6.04228 16.5116 5.5039 16.5116 4.93354C16.5116 3.86739 15.6442 3 14.5781 3C13.7311 3 12.9903 3.54212 12.7347 4.34901L12 6.66716L11.2654 4.34906C11.0097 3.54212 10.2689 3 9.42194 3C8.35578 3 7.48839 3.86739 7.48839 4.93354C7.48839 5.50385 7.73834 6.04228 8.1742 6.41064L10.2391 8.15612H2.33228V21.0464H10.0665V25L12 23.0665L13.9335 25V21.0464H21.6677V8.15612ZM20.3787 10.7342H13.9335V9.44515H20.3787V10.7342ZM13.9635 4.73839C14.0486 4.46962 14.2956 4.28903 14.5781 4.28903C14.9334 4.28903 15.2226 4.57816 15.2226 4.93354C15.2226 5.12368 15.1392 5.30324 14.9936 5.42621L13.2888 6.8673L13.9635 4.73839ZM8.77742 4.93354C8.77742 4.57816 9.06655 4.28903 9.42194 4.28903C9.70437 4.28903 9.95139 4.46962 10.0366 4.73843L10.7112 6.86735L9.00631 5.42621C8.86082 5.30324 8.77742 5.12368 8.77742 4.93354ZM10.0665 9.44515V10.7342H3.62131V9.44515H10.0665ZM3.62131 19.7574V12.0232H10.0665V19.7574H3.62131ZM12 21.2435L11.3555 21.888V10.1893L12 9.64456L12.6445 10.1893V21.888L12 21.2435ZM13.9335 19.7574V12.0232H20.3787V19.7574H13.9335Z"
        fill="#68C9FF"/>
    <path d="M15.2227 17.1793H19.0897V18.4684H15.2227V17.1793Z" fill="#68C9FF"/>
</svg>
