<svg width="22" height="22" viewBox="0 0 22 22" fill="none" xmlns="http://www.w3.org/2000/svg">
<path d="M20.9609 9.416C20.6456 9.18408 20.3888 8.8819 20.2107 8.53343C20.1861 8.12653 20.2581 7.71957 20.4208 7.3458C20.6261 6.70267 20.8384 6.03827 20.5271 5.5C20.2114 4.9555 19.5232 4.8059 18.8577 4.66217C18.459 4.61739 18.0764 4.4792 17.7412 4.25883C17.5217 3.92356 17.3843 3.54131 17.34 3.14307C17.1963 2.4772 17.0478 1.7886 16.5018 1.4729C15.9639 1.1616 15.2995 1.3739 14.656 1.57923C14.2821 1.7418 13.875 1.81376 13.468 1.78933C13.1197 1.61113 12.8177 1.35428 12.5858 1.03913C12.1235 0.528 11.6453 0 11 0C10.3547 0 9.87653 0.528 9.416 1.03913C9.18408 1.35438 8.8819 1.61123 8.53343 1.78933C8.12653 1.81367 7.71966 1.74171 7.3458 1.57923C6.7034 1.37427 6.03863 1.16123 5.5 1.4729C4.9555 1.7886 4.8059 2.47683 4.66217 3.14233C4.61739 3.54104 4.4792 3.92356 4.25883 4.25883C3.92356 4.47833 3.54131 4.61574 3.14307 4.65997C2.4772 4.8037 1.7886 4.9522 1.4729 5.49817C1.1616 6.03607 1.3739 6.70083 1.57923 7.34397C1.74203 7.71783 1.81404 8.12492 1.78933 8.53197C1.61113 8.88025 1.35428 9.1823 1.03913 9.41417C0.528 9.87653 0 10.3547 0 11C0 11.6453 0.528 12.1235 1.03913 12.5858C1.35438 12.8178 1.61123 13.1199 1.78933 13.4684C1.81395 13.8753 1.74194 14.2823 1.57923 14.656C1.3739 15.2992 1.1616 15.9636 1.4729 16.5018C1.7886 17.0463 2.47683 17.1959 3.14233 17.3397C3.5409 17.3839 3.92338 17.5214 4.25883 17.7412C4.47833 18.0764 4.61574 18.4587 4.65997 18.8569C4.8037 19.5228 4.9522 20.2114 5.49817 20.5271C6.03607 20.8384 6.70047 20.6261 7.34397 20.4208C7.71792 20.2582 8.12497 20.1862 8.53197 20.2107C8.88025 20.3889 9.1823 20.6457 9.41417 20.9609C9.87653 21.472 10.3547 22 11 22C11.6453 22 12.1235 21.472 12.5858 20.9609C12.8178 20.6456 13.1199 20.3888 13.4684 20.2107C13.8753 20.1863 14.2822 20.2583 14.656 20.4208C15.2988 20.6261 15.9628 20.8388 16.5018 20.5271C17.0463 20.2114 17.1959 19.5232 17.3397 18.8577C17.3839 18.4591 17.5214 18.0766 17.7412 17.7412C18.0764 17.5217 18.4587 17.3843 18.8569 17.34C19.5228 17.1963 20.2114 17.0478 20.5271 16.5018C20.8384 15.9639 20.6261 15.2992 20.4208 14.656C20.258 14.2822 20.186 13.8751 20.2107 13.468C20.3889 13.1197 20.6457 12.8177 20.9609 12.5858C21.472 12.1235 22 11.6453 22 11C22 10.3547 21.472 9.87653 20.9609 9.416ZM20.4688 12.0424C20.039 12.3578 19.7045 12.7856 19.5023 13.2788C19.4269 13.8223 19.503 14.376 19.7223 14.879C19.8792 15.3699 20.0394 15.8778 19.8928 16.1344C19.7391 16.3995 19.2119 16.5132 18.7022 16.6232C18.15 16.7424 17.5791 16.8656 17.2227 17.2227C16.8901 17.6514 16.6825 18.1637 16.6228 18.7029C16.5128 19.2122 16.3992 19.7395 16.1348 19.8924C15.877 20.0409 15.3696 19.8788 14.879 19.7223C14.376 19.5034 13.8226 19.4273 13.2792 19.5023C12.7858 19.7043 12.3578 20.0388 12.0424 20.4688C11.6871 20.8611 11.3201 21.2667 11 21.2667C10.6799 21.2667 10.3129 20.8611 9.95757 20.4688C9.64223 20.039 9.21438 19.7045 8.72117 19.5023C8.59975 19.4708 8.47477 19.4553 8.34937 19.4561C7.92903 19.4827 7.51502 19.5719 7.12103 19.7208C6.62897 19.8777 6.12223 20.038 5.86557 19.8913C5.60047 19.7377 5.4868 19.2104 5.3768 18.7007C5.25763 18.1485 5.13443 17.5776 4.7773 17.2212C4.34862 16.8887 3.83634 16.681 3.29707 16.6214C2.78777 16.5114 2.2605 16.3977 2.1076 16.1333C1.9591 15.8767 2.1208 15.3699 2.27773 14.879C2.49695 14.3761 2.57308 13.8226 2.49773 13.2792C2.29565 12.7858 1.96116 12.3578 1.5312 12.0424C1.13887 11.6871 0.733333 11.3201 0.733333 11C0.733333 10.6799 1.13887 10.3129 1.53267 9.95757C1.96249 9.64223 2.29694 9.21438 2.4992 8.72117C2.5746 8.17772 2.49847 7.62396 2.2792 7.12103C2.12227 6.63007 1.96203 6.12223 2.1087 5.86557C2.26233 5.60047 2.7896 5.4868 3.29927 5.3768C3.85147 5.25763 4.42237 5.13443 4.77877 4.7773C5.11133 4.34862 5.31896 3.83634 5.37863 3.29707C5.48863 2.78777 5.6023 2.2605 5.86667 2.1076C6.12333 1.958 6.63007 2.1208 7.12103 2.27773C7.66407 2.45153 8.22653 2.63047 8.7208 2.49773C9.21424 2.29565 9.64223 1.96116 9.95757 1.5312C10.3129 1.13887 10.6799 0.733333 11 0.733333C11.3201 0.733333 11.6871 1.13887 12.0424 1.5312C12.3578 1.96103 12.7856 2.29547 13.2788 2.49773C13.8223 2.5729 14.3759 2.49677 14.879 2.27773C15.3707 2.1208 15.8778 1.96057 16.1344 2.10723C16.3995 2.26087 16.5132 2.78813 16.6232 3.2978C16.7424 3.85 16.8656 4.4209 17.2227 4.7773C17.6514 5.10987 18.1637 5.31749 18.7029 5.37717C19.2122 5.48717 19.7395 5.60083 19.8924 5.8652C20.0409 6.12223 19.8792 6.63007 19.7223 7.12103C19.503 7.62387 19.4269 8.17745 19.5023 8.7208C19.7043 9.21424 20.0388 9.64223 20.4688 9.95757C20.8611 10.3129 21.2667 10.6799 21.2667 11C21.2667 11.3201 20.8611 11.6871 20.4688 12.0424Z" fill="white"/>
<path d="M11 4.4C11.2025 4.4 11.3666 4.23583 11.3666 4.03333V3.3C11.3666 3.09751 11.2025 2.93333 11 2.93333C10.7975 2.93333 10.6333 3.09751 10.6333 3.3V4.03333C10.6333 4.23583 10.7975 4.4 11 4.4Z" fill="white"/>
<path d="M8.8427 4.36553C8.88565 4.52567 9.03071 4.63709 9.19654 4.63723C9.22885 4.63741 9.26107 4.63324 9.29224 4.62476C9.48767 4.57233 9.60372 4.37149 9.55147 4.17596L9.36154 3.46756C9.35998 3.46115 9.35828 3.45478 9.3564 3.44845C9.29865 3.25435 9.09451 3.1438 8.90041 3.20155C8.7063 3.2593 8.59575 3.46344 8.6535 3.65754L8.8427 4.36553Z" fill="white"/>
<path d="M7.4672 4.1481C7.46642 4.14668 7.4656 4.1453 7.46477 4.14388C7.36238 3.96917 7.13771 3.91059 6.96303 4.01298C6.78832 4.11537 6.72974 4.34005 6.83213 4.51472L7.1988 5.15015C7.26434 5.26373 7.38557 5.33362 7.5167 5.33348C7.58096 5.33344 7.64403 5.31648 7.69967 5.28435C7.87503 5.1831 7.93511 4.95884 7.83387 4.78348L7.4672 4.1481Z" fill="white"/>
<path d="M5.81461 6.33306C5.88336 6.40181 5.97659 6.4405 6.07385 6.4405C6.17106 6.4405 6.26424 6.40186 6.33299 6.33315C6.47622 6.18997 6.47622 5.95783 6.33308 5.8146L5.81425 5.29576C5.81131 5.29269 5.80829 5.28971 5.80522 5.28673C5.65956 5.14607 5.42741 5.15011 5.28675 5.29576C5.14609 5.44142 5.15012 5.67357 5.29578 5.81423L5.81461 6.33306Z" fill="white"/>
<path d="M5.81465 15.6669L5.29582 16.1858C5.22711 16.2545 5.18848 16.3477 5.18848 16.4449C5.18843 16.6474 5.35256 16.8116 5.55505 16.8117C5.65231 16.8117 5.74553 16.773 5.81428 16.7042L6.33312 16.1854C6.47034 16.0433 6.47034 15.818 6.33312 15.6759C6.19245 15.5303 5.96031 15.5262 5.81465 15.6669Z" fill="white"/>
<path d="M7.70123 16.7189C7.52651 16.6165 7.30188 16.6751 7.19949 16.8498L6.83283 17.4852C6.8007 17.5409 6.78378 17.6039 6.78369 17.6682C6.78346 17.8707 6.94745 18.035 7.14999 18.0352C7.28112 18.0354 7.40235 17.9655 7.46789 17.8519L7.83455 17.2165C7.93374 17.0421 7.87429 16.8204 7.70123 16.7189Z" fill="white"/>
<path d="M9.29268 17.3772C9.09729 17.3239 8.89572 17.4391 8.84246 17.6345L8.65289 18.3425C8.6446 18.3735 8.64038 18.4054 8.64038 18.4375C8.64043 18.64 8.8046 18.8042 9.00709 18.8041C9.17292 18.804 9.31798 18.6926 9.36093 18.5324L9.55086 17.824C9.60192 17.6295 9.48674 17.4301 9.29268 17.3772Z" fill="white"/>
<path d="M11 17.6C10.7975 17.6 10.6333 17.7642 10.6333 17.9667V18.7C10.6333 18.9025 10.7975 19.0667 11 19.0667C11.2025 19.0667 11.3666 18.9025 11.3666 18.7V17.9667C11.3666 17.7642 11.2025 17.6 11 17.6Z" fill="white"/>
<path d="M13.1575 17.6345C13.1046 17.4404 12.9053 17.3252 12.7107 17.3763C12.5148 17.4277 12.3977 17.6281 12.4491 17.824L12.6391 18.5324C12.682 18.6926 12.8271 18.804 12.9929 18.8041C13.025 18.8041 13.0569 18.7999 13.0879 18.7916C13.2835 18.7392 13.3995 18.5381 13.3471 18.3425L13.1575 17.6345Z" fill="white"/>
<path d="M14.8005 16.8498C14.7997 16.8484 14.7989 16.847 14.798 16.8455C14.6956 16.6709 14.471 16.6123 14.2962 16.7147C14.1215 16.8172 14.063 17.0418 14.1654 17.2165L14.5321 17.8519C14.5976 17.9655 14.7189 18.0354 14.85 18.0353C14.9142 18.0352 14.9773 18.0183 15.033 17.9861C15.2083 17.8849 15.2684 17.6606 15.1672 17.4853L14.8005 16.8498Z" fill="white"/>
<path d="M16.1854 15.6669C16.0433 15.5297 15.818 15.5297 15.6759 15.6669C15.5302 15.8076 15.5262 16.0397 15.6669 16.1854L16.1858 16.7042C16.2545 16.773 16.3477 16.8117 16.445 16.8117C16.5422 16.8117 16.6354 16.773 16.7041 16.7043C16.8474 16.5611 16.8474 16.329 16.7042 16.1858L16.1854 15.6669Z" fill="white"/>
<path d="M15.9261 6.4405C16.0234 6.4405 16.1166 6.40182 16.1854 6.33307L16.7042 5.81424C16.7073 5.8113 16.7103 5.80828 16.7132 5.80525C16.8539 5.6596 16.8499 5.4275 16.7042 5.28679C16.5585 5.14612 16.3264 5.15011 16.1857 5.29577L15.6669 5.8146C15.5982 5.88335 15.5596 5.97658 15.5596 6.07375C15.5595 6.27628 15.7237 6.44046 15.9261 6.4405Z" fill="white"/>
<path d="M14.4832 5.33354C14.6144 5.33367 14.7356 5.26378 14.8011 5.1502L15.1678 4.51477C15.1686 4.51335 15.1695 4.51193 15.1703 4.51051C15.2703 4.33446 15.2088 4.11061 15.0327 4.01056C14.8566 3.9105 14.6328 3.9721 14.5327 4.14815L14.1661 4.78358C14.1339 4.83922 14.117 4.90229 14.1169 4.96655C14.1168 5.16899 14.2808 5.33331 14.4832 5.33354Z" fill="white"/>
<path d="M12.7083 4.62477C12.7394 4.6332 12.7714 4.63742 12.8036 4.63723C12.9694 4.6371 13.1145 4.52568 13.1574 4.36553L13.347 3.6575C13.3489 3.65117 13.3506 3.6448 13.3521 3.63839C13.3993 3.44144 13.2779 3.24358 13.081 3.19642C12.884 3.14925 12.6861 3.27067 12.639 3.46761L12.449 4.17601C12.3968 4.37149 12.5128 4.57233 12.7083 4.62477Z" fill="white"/>
<path d="M12.1 13.2H9.53338V11.3667H11.3667C11.5692 11.3667 11.7334 11.2025 11.7334 11C11.7334 10.7975 11.5692 10.6333 11.3667 10.6333H9.53338V8.8H12.1C12.3025 8.8 12.4667 8.63582 12.4667 8.43333C12.4667 8.23084 12.3025 8.06667 12.1 8.06667H9.16672C8.96422 8.06667 8.80005 8.23084 8.80005 8.43333V13.5667C8.80005 13.7692 8.96422 13.9333 9.16672 13.9333H12.1C12.3025 13.9333 12.4667 13.7692 12.4667 13.5667C12.4667 13.3642 12.3025 13.2 12.1 13.2Z" fill="white"/>
<path d="M7.05435 13.7955C7.07978 13.8261 7.11013 13.8522 7.14418 13.8728C7.15591 13.8815 7.16815 13.8894 7.18085 13.8967C7.22838 13.92 7.28044 13.9325 7.33338 13.9333C7.3771 13.9325 7.42033 13.9238 7.46098 13.9077C7.47477 13.9017 7.48825 13.895 7.50131 13.8875C7.51671 13.8809 7.53165 13.8733 7.54605 13.8648C7.55411 13.8593 7.55815 13.8505 7.56548 13.8439C7.58496 13.8273 7.60256 13.8086 7.61791 13.7881C7.64752 13.7536 7.66847 13.7125 7.67915 13.6682C7.68643 13.6444 7.69138 13.6198 7.69381 13.5949C7.69381 13.5846 7.69968 13.5758 7.69968 13.5656V8.43333C7.69968 8.23098 7.53573 8.06685 7.33338 8.06667C7.13089 8.06667 6.96671 8.23084 6.96671 8.43333V12.4227L3.96481 8.2203C3.95931 8.21223 3.95051 8.2082 3.94391 8.20087C3.92737 8.18139 3.90867 8.16379 3.88818 8.14843C3.87086 8.13454 3.85234 8.12231 3.83281 8.11177C3.81228 8.10191 3.79097 8.09394 3.76901 8.08793C3.74518 8.08032 3.72061 8.07542 3.69568 8.07327C3.68578 8.07327 3.67735 8.0674 3.66708 8.0674C3.65471 8.06923 3.64247 8.0718 3.63041 8.0751C3.60553 8.07721 3.58091 8.08197 3.55708 8.0894C3.53325 8.09733 3.51029 8.10764 3.48851 8.1202C3.47678 8.12487 3.46528 8.1301 3.45405 8.13597C3.44598 8.14147 3.44195 8.15027 3.43461 8.15687C3.41514 8.17341 3.39754 8.19211 3.38218 8.2126C3.36829 8.22979 3.35601 8.24817 3.34551 8.2676C3.33534 8.28836 3.32723 8.31013 3.32131 8.3325C3.31398 8.35638 3.30908 8.38094 3.30665 8.40583C3.30665 8.4161 3.30078 8.4249 3.30078 8.43517V13.5667C3.30078 13.7692 3.46496 13.9333 3.66745 13.9333C3.86994 13.9333 4.03411 13.7692 4.03411 13.5667V9.57733L7.03601 13.7797C7.04078 13.7867 7.04885 13.7892 7.05435 13.7955Z" fill="white"/>
<path d="M18.4115 8.07496C18.4111 8.07487 18.4108 8.07482 18.4104 8.07473C18.2124 8.03215 18.0175 8.15815 17.9749 8.3561C17.9749 8.35619 17.9748 8.35624 17.9748 8.35633L17.1564 12.1763L16.1144 9.0508C16.0511 8.85844 15.8439 8.75371 15.6515 8.81696C15.5409 8.85335 15.4541 8.94011 15.4177 9.0508L14.3771 12.1763L13.5587 8.35633C13.5162 8.15829 13.3212 8.0322 13.1231 8.07473C12.9251 8.11727 12.799 8.31229 12.8415 8.51033L13.9415 13.6437C13.9762 13.8051 14.1147 13.9234 14.2796 13.9326C14.4438 13.9401 14.5933 13.8382 14.6462 13.6825L15.7668 10.3261L16.8858 13.6825C16.9357 13.8322 17.0757 13.9332 17.2334 13.9333H17.254C17.4189 13.9242 17.5573 13.8059 17.592 13.6444L18.692 8.51107C18.735 8.31316 18.6094 8.11791 18.4115 8.07496Z" fill="white"/>
</svg>
