<?xml version="1.0" encoding="utf-8"?><!DOCTYPE svg PUBLIC "-//W3C//DTD SVG 1.1//EN"
    "http://www.w3.org/Graphics/SVG/1.1/DTD/svg11.dtd">
<svg viewBox="0 0 792.049 792.049" xmlns="http://www.w3.org/2000/svg" xmlns:xlink="http://www.w3.org/1999/xlink">
    <style>:root>svg{display:none}:root>svg:target{display:block}</style>
    <svg viewBox="0 0 20 20" id="add" xmlns="http://www.w3.org/2000/svg">
        <path fill="#fff"
              d="M10 0a10 10 0 110 20 10 10 0 010-20zm5.657 15.657A8 8 0 104.343 4.343a8 8 0 0011.314 11.314zM14 9a1 1 0 110 2h-3v3a1 1 0 01-2 0v-3H6a1 1 0 010-2h3V6a1 1 0 012 0v3z"/>
    </svg>
    <svg version="1.1" id="angle" x="0" y="0" viewBox="0 0 792.049 792.049" xml:space="preserve"
         xmlns="http://www.w3.org/2000/svg"><g transform="rotate(90 396.024 396.024)"><script id="abtinyhippos-injected"/><g
        xmlns="http://www.w3.org/2000/svg"><path d="M622.955 342.127L268.424 20.521c-27.36-27.36-71.677-27.36-99.037 0s-27.36 71.676 0 99.037l304.749 276.468-304.749 276.466c-27.36 27.359-27.36 71.676 0 99.036s71.677 27.36 99.037 0l354.531-321.606c14.783-14.783 21.302-34.538 20.084-53.897 1.186-19.36-5.301-39.114-20.084-53.898z" data-original="#000000" class="abactive-path" id="ab_x38__35_"/></g></g></svg>
    <svg viewBox="0 0 792.049 792.049" id="angle_right" xmlns="http://www.w3.org/2000/svg">
        <path
            d="M622.955 342.127L268.424 20.521c-27.36-27.36-71.677-27.36-99.037 0s-27.36 71.676 0 99.037l304.749 276.468-304.749 276.466c-27.36 27.359-27.36 71.676 0 99.036s71.677 27.36 99.037 0l354.531-321.606c14.783-14.783 21.302-34.538 20.084-53.897 1.186-19.36-5.301-39.114-20.084-53.898z"/>
    </svg>
    <svg viewBox="0 0 20 20" id="badge_city" xmlns="http://www.w3.org/2000/svg">
        <path
            d="M20 19.23a.77.77 0 01-.77.77H.77a.77.77 0 010-1.538h.768V.769A.77.77 0 012.308 0h9.23a.77.77 0 01.77.77v2.307h5.384a.77.77 0 01.77.77v14.615h.769a.77.77 0 01.769.769zm-16.923-.768h1.538v-2.308a.77.77 0 01.77-.77h3.077a.77.77 0 01.769.77v2.308h7.692V4.615h-4.615v11.539a.77.77 0 11-1.539 0V1.538H3.077zm4.615-1.539H6.154v1.539h1.538zm0-4.615h1.539v1.538H7.692zm6.154 3.077h1.539v1.538h-1.539zM7.692 9.23h1.539v1.538H7.692zm6.154 3.077h1.539v1.538h-1.539zM7.692 6.154h1.539v1.538H7.692zm6.154 0h1.539v1.538h-1.539zm0 3.077h1.539v1.538h-1.539zM7.692 3.077h1.539v1.538H7.692zm-3.077 9.23h1.539v1.54H4.615zm0-3.076h1.539v1.538H4.615zm0-3.077h1.539v1.538H4.615zm0-3.077h1.539v1.538H4.615z"/>
    </svg>
    <svg viewBox="0 0 20 20" id="badge_date" xmlns="http://www.w3.org/2000/svg">
        <path
            d="M17.708 20H2.292A2.294 2.294 0 010 17.708V3.958a2.293 2.293 0 012.292-2.291h1.875V.625a.625.625 0 011.25 0v1.042h9.166V.625a.625.625 0 011.25 0v1.042h1.875A2.293 2.293 0 0120 3.958v13.75A2.294 2.294 0 0117.708 20zM1.25 17.708c0 .574.468 1.042 1.042 1.042h15.416c.574 0 1.042-.468 1.042-1.042V7.917H1.25zM2.292 2.917c-.574 0-1.042.467-1.042 1.041v2.709h17.5V3.958c0-.574-.468-1.041-1.042-1.041h-1.875v1.458a.625.625 0 01-1.25 0V2.917H5.417v1.458a.625.625 0 01-1.25 0V2.917z"/>
    </svg>
    <svg viewBox="0 0 20 16" id="badge_email" xmlns="http://www.w3.org/2000/svg">
        <path
            d="M18.828 13.53L13.211 8l5.617-5.53zm-16.827.816l5.647-5.56 1.979 1.931a.592.592 0 00.826-.001l1.93-1.9 5.616 5.53zm-.83-.816V2.464l5.655 5.51zM18 1.654l-7.962 7.84-8.03-7.84zM18.242.5H1.758C.79.5 0 1.277 0 2.23v11.54c0 .95.786 1.73 1.758 1.73h16.484c.966 0 1.758-.774 1.758-1.73V2.23C20 1.28 19.214.5 18.242.5z"/>
    </svg>
    <svg viewBox="0 0 15 20" id="badge_flag" xmlns="http://www.w3.org/2000/svg">
        <path
            d="M13.323 9.6zm-6.215.51c-1.72.904-3.463.904-5.056.36a6.801 6.801 0 01-.385-.145V3.749c1.95.63 4.098.601 6.215-.51 1.72-.905 3.463-.905 5.056-.36.145.05.274.1.385.145V9.6c-1.95-.63-4.098-.6-6.215.51zm7.478-8.33a6.397 6.397 0 00-1.099-.477c-1.993-.682-4.2-.682-6.374.46-1.722.903-3.466.903-5.06.358a6.83 6.83 0 01-.386-.145V.833A.833.833 0 000 .833v18.334a.833.833 0 101.667 0v-7.07c1.953.63 4.101.601 6.22-.51 1.722-.904 3.466-.904 5.061-.359.393.135.669.265.8.34a.833.833 0 001.252-.72V2.5a.833.833 0 00-.414-.72z"/>
    </svg>
    <svg viewBox="0 0 16 20" id="badge_location" xmlns="http://www.w3.org/2000/svg">
        <path
            d="M16 8.012v.222c0 2.234-1.28 4.838-3.802 7.739a32.9 32.9 0 01-3.707 3.63L8 20l-.49-.397a32.908 32.908 0 01-3.708-3.63C1.279 13.072 0 10.468 0 8.233v-.22C0 3.593 3.589 0 8 0s8 3.594 8 8.012zm-1.561.222v-.222c0-3.556-2.889-6.449-6.439-6.449-3.55 0-6.439 2.893-6.439 6.45v.22c0 3.777 4.857 8.347 6.439 9.735 1.581-1.387 6.439-5.958 6.439-9.734zm-2.732-.222A3.714 3.714 0 018 11.725a3.714 3.714 0 01-3.707-3.713A3.714 3.714 0 018 4.3a3.714 3.714 0 013.707 3.713zm-1.56 0A2.15 2.15 0 008 5.862a2.15 2.15 0 000 4.3 2.15 2.15 0 002.146-2.15z"/>
    </svg>
    <svg viewBox="0 0 14 20" id="badge_lock" xmlns="http://www.w3.org/2000/svg">
        <path
            d="M10.414 7.51a.64.64 0 01-.188-.453V4.5a3.192 3.192 0 10-6.383 0v2.557a.64.64 0 11-1.276 0V4.5a4.47 4.47 0 018.94 0v2.557a.64.64 0 01-1.093.453zm-4.02 7.224v-1.3a.64.64 0 011.275 0v1.3a.64.64 0 01-.635.641.64.64 0 01-.64-.64zm-4.468 4.462A1.916 1.916 0 01.01 17.279v-6.39c0-1.058.858-1.915 1.916-1.915h10.216c1.059 0 1.917.857 1.917 1.916v6.39a1.916 1.916 0 01-1.917 1.916zm0-8.941a.64.64 0 00-.64.635v6.39a.64.64 0 00.64.64h10.216a.64.64 0 00.641-.64v-6.39a.64.64 0 00-.64-.641z"/>
    </svg>
    <svg viewBox="0 0 20 20" id="badge_post" xmlns="http://www.w3.org/2000/svg">
        <path
            d="M18.838 14.737H8.986v-5.67a4.489 4.489 0 00-1.471-3.325h3.817v3.66a1.762 1.762 0 00-1.173 1.659c0 .97.789 1.76 1.759 1.76.97 0 1.76-.79 1.76-1.76 0-.765-.491-1.417-1.174-1.66V5.743h3.01a3.327 3.327 0 013.324 3.324zm-6.299 4.091h-1.953v-2.93h1.953zm-3.125 0H8.242v-2.93h1.172zm-1.601-4.091H1.172v-5.67a3.326 3.326 0 013.32-3.325 3.325 3.325 0 013.32 3.324zm4.101-4.268a.587.587 0 11-.001 1.173.587.587 0 01.001-1.173zm.586-9.297h1.758a.587.587 0 010 1.172H12.5zm3.008 3.398H12.5V3.516h1.758a1.76 1.76 0 001.758-1.758A1.76 1.76 0 0014.258 0h-2.93v4.57H4.492A4.497 4.497 0 000 9.062v6.836h7.07V20h6.64v-4.102H20V9.063a4.497 4.497 0 00-4.492-4.493z"/>
    </svg>
    <svg viewBox="0 0 18 20" id="badge_user" xmlns="http://www.w3.org/2000/svg">
        <path
            d="M17.578 19.414a.586.586 0 01-.586.586H.586A.586.586 0 010 19.414c0-2.038.791-3.963 2.228-5.422a7.518 7.518 0 015.39-2.273H9.96c2.032 0 3.945.807 5.39 2.273a7.685 7.685 0 012.227 5.422zm-1.198-.586c-.293-3.324-3.06-5.937-6.42-5.937H7.618c-3.359 0-6.126 2.613-6.42 5.937zM14.063 5.273a5.28 5.28 0 01-5.274 5.274 5.28 5.28 0 01-5.273-5.274A5.28 5.28 0 018.789 0a5.28 5.28 0 015.274 5.273zm-1.172 0a4.106 4.106 0 00-4.102-4.101 4.106 4.106 0 00-4.101 4.101 4.106 4.106 0 004.101 4.102 4.106 4.106 0 004.102-4.102z"/>
    </svg>
    <svg viewBox="0 0 20 20" id="badge_wallet" xmlns="http://www.w3.org/2000/svg">
        <path
            d="M13.337 12.354c0-.517.408-.935.91-.935.504 0 .911.418.911.935a.923.923 0 01-.91.935.923.923 0 01-.91-.935zM20 6.739v10.882c0 1.036-.82 1.879-1.83 1.879H2.826c-1.557 0-2.824-1.301-2.824-2.9 0-14.303-.007-13.38.014-13.483C.155 1.65 1.361.5 2.825.5h13.268c1.008 0 1.829.843 1.829 1.879V4.86h.249c1.008 0 1.829.842 1.829 1.878zM1.26 3.326c.038.853.726 1.535 1.566 1.535h13.84V2.379a.581.581 0 00-.573-.589H2.826c-.84 0-1.528.682-1.566 1.536zM18.744 17.62v-2.269h-4.728c-1.61 0-2.92-1.345-2.92-2.998 0-1.654 1.31-3 2.92-3h4.728V6.74a.581.581 0 00-.573-.588H2.826c-.58 0-1.12-.18-1.568-.489V16.6c0 .887.703 1.61 1.568 1.61H18.17a.581.581 0 00.573-.589zm0-6.976h-4.728c-.917 0-1.664.767-1.664 1.709 0 .942.747 1.708 1.664 1.708h4.728z"/>
    </svg>
    <svg viewBox="0 0 18 20" id="bell" xmlns="http://www.w3.org/2000/svg">
        <path fill-rule="evenodd" clip-rule="evenodd"
              d="M8.833 3.75A4.588 4.588 0 004.25 8.333v2.324a6.83 6.83 0 01-2.425 5.225.207.207 0 00-.075.16.21.21 0 00.208.208h13.75a.21.21 0 00.209-.208.206.206 0 00-.074-.159 6.832 6.832 0 01-2.426-5.226V8.333A4.588 4.588 0 008.833 3.75zM8.208.625v1.908A5.842 5.842 0 003 8.333v2.324c0 1.649-.723 3.206-1.99 4.276a1.458 1.458 0 00.948 2.567h3.813A3.13 3.13 0 008.833 20a3.13 3.13 0 003.063-2.5h3.812a1.46 1.46 0 00.94-2.572 5.583 5.583 0 01-1.981-4.271V8.333a5.842 5.842 0 00-5.209-5.8V.625a.625.625 0 00-1.25 0zm.625 18.125c-.815 0-1.51-.522-1.768-1.25h3.536a1.878 1.878 0 01-1.768 1.25z"/>
    </svg>
    <svg viewBox="0 0 20 20" id="bonuses" xmlns="http://www.w3.org/2000/svg">
        <path
            d="M1.806 19.23a.5.5 0 01-.5-.5V9.487H.5a.5.5 0 01-.5-.5v-4.57a.5.5 0 01.5-.5h3.608l-.157-.293A2.461 2.461 0 016.118 0C8.021 0 9.19 1.446 9.836 2.66l.176.33.175-.33C10.833 1.445 12.002 0 13.905 0c.655 0 1.272.256 1.737.72a2.469 2.469 0 01.43 2.903l-.157.293H19.5a.497.497 0 01.5.5v4.57a.5.5 0 01-.5.5h-.782v9.245a.5.5 0 01-.5.5zm8.706-1h7.205V9.486h-7.205zm-8.206 0h7.196V9.486H2.306zm8.206-9.744H19v-3.57h-8.488zM1 8.486h8.511v-3.57h-8.51zm9.824-4.849l-.121.28h3.235c.8-.007 1.425-.647 1.425-1.459 0-.79-.668-1.458-1.458-1.458-.721 0-2.08.343-3.08 2.637zM4.66 2.458c0 .812.626 1.452 1.424 1.458H9.32l-.123-.28C8.19 1.344 6.836 1 6.118 1c-.79 0-1.458.668-1.458 1.458z"/>
    </svg>
    <svg viewBox="0 -31 512 512" id="cart" xmlns="http://www.w3.org/2000/svg">
        <path
            d="M166 300.004h271.004c6.71 0 12.598-4.438 14.414-10.883l60.004-210.004c1.289-4.527.406-9.39-2.434-13.152A15.034 15.034 0 00497.004 60H131.37l-10.723-48.25A15 15 0 00106 0H15C6.71 0 0 6.71 0 15c0 8.293 6.71 15 15 15h78.96l54.169 243.75C132.19 280.68 121 296.543 121 315.004c0 24.812 20.187 45 45 45h271.004c8.293 0 15-6.707 15-15 0-8.29-6.707-15-15-15H166c-8.262 0-15-6.723-15-15s6.738-15 15-15zm0 0M151 405.004c0 24.816 20.188 45 45.004 45 24.812 0 45-20.184 45-45 0-24.813-20.188-45-45-45-24.816 0-45.004 20.187-45.004 45zm0 0M362.004 405.004c0 24.816 20.187 45 45 45 24.816 0 45-20.184 45-45 0-24.813-20.184-45-45-45-24.813 0-45 20.187-45 45zm0 0"/>
    </svg>
    <svg viewBox="0 0 292.362 292.362" id="down-arrow" xmlns="http://www.w3.org/2000/svg">
        <path
            d="M286.935 69.377c-3.614-3.617-7.898-5.424-12.848-5.424H18.274c-4.952 0-9.233 1.807-12.85 5.424C1.807 72.998 0 77.279 0 82.228c0 4.948 1.807 9.229 5.424 12.847l127.907 127.907c3.621 3.617 7.902 5.428 12.85 5.428s9.233-1.811 12.847-5.428L286.935 95.074c3.613-3.617 5.427-7.898 5.427-12.847 0-4.948-1.814-9.229-5.427-12.85z"/>
    </svg>

    <svg  id="home-categories_10" viewBox="0 0 24 24" fill="inherit" xmlns="http://www.w3.org/2000/svg">
        <path d="M12 2L15.09 8.26L22 9.27L17 14.14L18.18 21.02L12 17.77L5.82 21.02L7 14.14L2 9.27L8.91 8.26L12 2Z" stroke="inherit" stroke-linecap="round" stroke-linejoin="round"/>
    </svg>

    <svg id="home-categories_11" viewBox="0 0 24 24" fill="none" xmlns="http://www.w3.org/2000/svg">
        <path d="M22.2237 9.62449C21.873 9.52117 21.6071 9.26252 21.4941 8.9148C21.3811 8.56713 21.4442 8.20155 21.6672 7.91181C22.3533 7.02039 22.3694 5.85625 21.7082 4.94622C21.0469 4.03609 19.9348 3.69175 18.875 4.06877C18.5306 4.19134 18.1634 4.13838 17.8676 3.92345C17.5719 3.70863 17.408 3.37577 17.4181 3.01028C17.4493 1.8858 16.778 0.934515 15.7082 0.58689C14.6383 0.239453 13.5362 0.614359 12.9004 1.54234C12.6938 1.84389 12.3656 2.01691 12 2.01691C11.6344 2.01691 11.3062 1.84394 11.0996 1.54234C10.4638 0.614265 9.36164 0.239218 8.29181 0.58689C7.22194 0.934515 6.55069 1.8858 6.58186 3.01028C6.59198 3.37572 6.42811 3.70858 6.13238 3.92345C5.83659 4.13833 5.46938 4.19134 5.12498 4.06881C4.06505 3.69166 2.95303 4.03609 2.29181 4.94622C1.63055 5.8563 1.64667 7.02039 2.33283 7.91186C2.55586 8.2015 2.61895 8.56713 2.50594 8.9148C2.39297 9.26247 2.12705 9.52122 1.77633 9.62449C0.697266 9.94239 0 10.8746 0 11.9996C0 13.1245 0.697266 14.0568 1.77633 14.3747C2.12705 14.478 2.39292 14.7367 2.50594 15.0844C2.61891 15.4321 2.55581 15.7976 2.33283 16.0874C1.64672 16.9788 1.63059 18.1429 2.29181 19.053C2.95303 19.9631 4.06514 20.3074 5.12498 19.9304C5.46938 19.8078 5.83664 19.8608 6.13238 20.0757C6.42811 20.2906 6.59198 20.6234 6.58186 20.9889C6.55073 22.1134 7.22198 23.0647 8.29181 23.4123C8.55689 23.4984 8.82384 23.5402 9.08527 23.5402C9.87905 23.5401 10.6213 23.1549 11.0996 22.4568C11.3063 22.1553 11.6344 21.9822 12 21.9822C12.3657 21.9822 12.6938 22.1552 12.9005 22.4568C13.5362 23.3848 14.6384 23.7598 15.7082 23.4123C16.7781 23.0646 17.4494 22.1133 17.4182 20.9889C17.4081 20.6234 17.5719 20.2906 17.8677 20.0757C18.1634 19.8608 18.5306 19.8077 18.8751 19.9303C19.9349 20.3074 21.047 19.963 21.7082 19.0529C22.3695 18.1428 22.3534 16.9788 21.6672 16.0873C21.4442 15.7976 21.3811 15.432 21.4941 15.0843C21.6071 14.7367 21.873 14.4779 22.2237 14.3747C23.3027 14.0568 24 13.1245 24 11.9996C24 10.8746 23.3027 9.94239 22.2237 9.62449ZM21.8324 13.0465C21.0485 13.2775 20.4298 13.8794 20.1772 14.6566C19.9247 15.4338 20.0715 16.2843 20.57 16.932C20.9371 17.4089 20.82 17.92 20.5881 18.2392C20.3561 18.5584 19.9062 18.8277 19.3392 18.6259C18.5693 18.352 17.7149 18.4752 17.0538 18.9556C16.3927 19.436 16.0115 20.2104 16.0341 21.0273C16.0507 21.6288 15.6556 21.9736 15.2803 22.0955C14.905 22.2175 14.3828 22.1708 14.0427 21.6743C13.5808 21.0002 12.8172 20.5977 12 20.5977C11.1828 20.5977 10.4192 21.0002 9.95733 21.6743C9.61716 22.1709 9.09492 22.2174 8.71969 22.0955C8.34441 21.9736 7.9493 21.6289 7.96589 21.0273C7.98848 20.2104 7.60734 19.4359 6.94622 18.9556C6.51717 18.6439 6.0068 18.4826 5.49089 18.4826C5.21184 18.4826 4.93111 18.5298 4.66083 18.6259C4.09373 18.8277 3.64392 18.5584 3.41198 18.2392C3.18 17.9199 3.06295 17.4089 3.43008 16.932C3.9285 16.2844 4.07531 15.4338 3.8228 14.6566C3.57028 13.8794 2.95153 13.2775 2.16764 13.0465C1.59033 12.8765 1.38459 12.3942 1.38459 11.9996C1.38459 11.605 1.59028 11.1227 2.16764 10.9526C2.95153 10.7217 3.57023 10.1198 3.82275 9.34262C4.07527 8.56544 3.92845 7.71484 3.43003 7.06722C3.06291 6.59031 3.18 6.07923 3.41194 5.76002C3.64388 5.44075 4.09373 5.17145 4.66083 5.3733C5.43075 5.64719 6.28514 5.524 6.94622 5.04358C7.60734 4.56325 7.98853 3.78878 7.96589 2.97194C7.9493 2.37034 8.34436 2.02562 8.71969 1.9037C9.09497 1.78164 9.6172 1.82837 9.95733 2.32487C10.4191 2.99908 11.1828 3.40159 12 3.40159C12.8171 3.40159 13.5808 2.99908 14.0426 2.32497C14.3828 1.82847 14.9051 1.78187 15.2803 1.9038C15.6555 2.02572 16.0507 2.37034 16.0341 2.97203C16.0115 3.78892 16.3927 4.56339 17.0537 5.04367C17.7149 5.52395 18.5691 5.64733 19.3392 5.37334C19.9061 5.17155 20.356 5.44084 20.588 5.76011C20.82 6.07938 20.937 6.59041 20.5699 7.06731C20.0715 7.71489 19.9247 8.56553 20.1772 9.34272C20.4297 10.1199 21.0485 10.7218 21.8324 10.9527C22.4096 11.1227 22.6153 11.605 22.6153 11.9996C22.6154 12.3942 22.4097 12.8765 21.8324 13.0465Z" fill="white" />
        <path d="M17.066 8.24384C16.7757 7.99498 16.3386 8.02864 16.0899 8.31893L10.9735 14.2879L7.80013 11.9079C7.49427 11.6786 7.06035 11.7406 6.83089 12.0464C6.60144 12.3522 6.6635 12.7862 6.96936 13.0156L10.6617 15.7849C10.7859 15.878 10.9317 15.9233 11.0767 15.9233C11.2723 15.9233 11.4663 15.8407 11.6027 15.6816L17.1411 9.22006C17.3899 8.92967 17.3564 8.49265 17.066 8.24384Z" fill="white" stroke="inherit" stroke-linecap="round" stroke-linejoin="round"/>
    </svg>

    <svg  id="home-categories_12" viewBox="0 0 24 24" fill="none" xmlns="http://www.w3.org/2000/svg">
        <path fill-rule="evenodd" clip-rule="evenodd" d="M8.11849 3.00032C7.32813 3.00032 6.6604 3.66805 6.6604 4.45841C6.6604 5.26996 7.28578 5.91036 8.08414 5.91625H11.3189L11.1962 5.63693C10.1885 3.34287 8.83542 3.00032 8.11849 3.00032ZM15.9051 3.00036C15.1838 3.00036 13.8245 3.34295 12.8241 5.63745L12.7026 5.91625H15.9377C16.7376 5.91036 17.3631 5.27 17.3632 4.45845C17.3632 3.66809 16.6955 3.00036 15.9051 3.00036ZM3.00036 10.4857H11.5115V6.91685H3.00036V10.4857ZM12.5118 10.4857H20.9996L20.9996 6.91685H12.5118V10.4857ZM4.30586 20.2304H11.5115V11.4858H4.30586V20.2304ZM12.5118 20.2304H19.7175V11.4858H12.5118V20.2304ZM3.80566 21.2307C3.52988 21.2307 3.3055 21.0063 3.3055 20.7305V11.4858H2.50016C2.22438 11.4858 2 11.2614 2 10.9857V6.41641C2 6.14064 2.22438 5.91625 2.50016 5.91625H6.10821L5.95127 5.62303C5.76076 5.26713 5.66004 4.86442 5.66004 4.45841C5.66004 3.10283 6.76287 2 8.11845 2C10.0214 2 11.1903 3.44606 11.8358 4.6592L12.0116 4.98972L12.1875 4.6592C12.833 3.4461 14.0019 2 15.9048 2C16.5604 2 17.1774 2.25602 17.6423 2.72092C18.1072 3.18582 18.3632 3.80291 18.3632 4.45845C18.3632 4.86442 18.2625 5.26713 18.072 5.62307L17.9151 5.91625H21.4998C21.6335 5.91625 21.759 5.96829 21.8535 6.06271C21.948 6.15717 22 6.28279 22 6.41637V10.9857C22 11.2614 21.7756 11.4858 21.4998 11.4858H20.7178V20.7305C20.7178 21.0063 20.4934 21.2307 20.2176 21.2307H3.80566Z" fill="white"/>
    </svg>

    <svg  id="home-categories_13" viewBox="0 0 24 24" fill="none" xmlns="http://www.w3.org/2000/svg">
        <g clip-path="url(#clip0)">
            <path d="M23.6296 11.0016C22.123 10.2521 20.7293 9.29446 19.4893 8.1569C20.1263 5.74845 20.5989 3.2995 20.9038 0.826977C20.9753 0.250977 20.6546 0.0650971 20.555 0.0219371C20.2743 -0.0849109 19.9572 0.0202605 19.796 0.273657C17.6069 2.89282 14.6085 2.59398 11.4339 2.27582C8.23446 1.95582 4.93362 1.63118 2.4865 4.44038C2.14429 4.01322 1.58036 3.83124 1.05302 3.97778L0.997939 3.99322C0.272289 4.19703 -0.151575 4.94963 0.0502989 5.67582L4.93386 23.1515C5.07554 23.6573 5.53594 24.0074 6.06122 24.0089C6.16831 24.0087 6.27489 23.994 6.37802 23.9651L6.80534 23.8458H6.80574C7.10517 23.7621 7.35909 23.5629 7.51162 23.292C7.66414 23.0211 7.70278 22.7007 7.61902 22.4013L6.10654 16.9882C8.30918 14.1559 11.3785 14.4558 14.6261 14.7802C17.8698 15.1042 21.2206 15.4386 23.6821 12.495L23.6832 12.4935C23.925 12.1921 24.0246 11.8009 23.9563 11.4206C23.9203 11.2369 23.799 11.0813 23.6296 11.0016ZM6.81434 22.8995C6.76627 22.9858 6.68557 23.0492 6.59034 23.0755L6.16298 23.1948C5.96501 23.2498 5.75984 23.1342 5.70438 22.9364L0.820579 5.46058C0.737218 5.15962 0.912936 4.84793 1.21358 4.76346L1.26826 4.74822C1.31772 4.73429 1.36887 4.72725 1.42026 4.7273C1.67398 4.72771 1.89659 4.89648 1.9655 5.14066L2.00882 5.2957V5.29654L4.50998 14.2467L6.8487 22.6163C6.87548 22.7115 6.86311 22.8134 6.81434 22.8995ZM23.0675 11.9825C20.8781 14.6008 17.8792 14.3014 14.7058 13.984C11.5445 13.668 8.28178 13.342 5.8437 16.0463L3.6585 8.22714L2.83278 5.27222C5.0355 2.44046 8.10462 2.74746 11.3546 3.07194C14.4405 3.37974 17.6261 3.6985 20.0495 1.18814C19.7508 3.46818 19.3056 5.72663 18.7167 7.94946C18.637 8.23686 18.7274 8.54461 18.9499 8.74322C20.2214 9.90723 21.6446 10.8937 23.1807 11.6758C23.1722 11.7866 23.133 11.8927 23.0675 11.9825Z" fill="white"/>
        </g>
        <defs>
            <clipPath id="clip0">
                <rect  fill="white"/>
            </clipPath>
        </defs>
    </svg>

    <svg  viewBox="0 0 24 24" id="home-categories_14" fill="none" xmlns="http://www.w3.org/2000/svg">
        <path d="M20.7669 6.4668H2.90032C1.66689 6.4668 0.666992 7.46669 0.666992 8.70012V19.8667C0.666992 21.1002 1.66689 22.1001 2.90032 22.1001H20.7669C22.0004 22.1001 23.0002 21.1002 23.0002 19.8667V8.70012C23.0002 7.46669 22.0004 6.4668 20.7669 6.4668Z"  stroke-linecap="round" stroke-linejoin="round"/>
        <path d="M16.3005 22.0999V4.23333C16.3005 3.64101 16.0652 3.07296 15.6464 2.65413C15.2275 2.2353 14.6595 2 14.0672 2H9.60051C9.0082 2 8.44014 2.2353 8.02131 2.65413C7.60248 3.07296 7.36719 3.64101 7.36719 4.23333V22.0999" stroke-linecap="round" stroke-linejoin="round"/>
    </svg>

    <svg  viewBox="0 0 24 24" id="home-categories_15" xmlns="http://www.w3.org/2000/svg">
        <g clip-path="url(#clip0)">
            <path d="M17 24C13.606 24 10 22.948 10 21C10 20.724 10.224 20.5 10.5 20.5C10.776 20.5 11 20.724 11 21C11 21.835 13.282 23 17 23C20.718 23 23 21.835 23 21C23 20.724 23.224 20.5 23.5 20.5C23.776 20.5 24 20.724 24 21C24 22.948 20.394 24 17 24Z" fill="white"/>
            <path d="M17 19C13.606 19 10 17.948 10 16C10 14.052 13.606 13 17 13C20.394 13 24 14.052 24 16C24 17.948 20.394 19 17 19ZM17 14C13.282 14 11 15.165 11 16C11 16.835 13.282 18 17 18C20.718 18 23 16.835 23 16C23 15.165 20.718 14 17 14Z" fill="white"/>
            <path d="M23.5 22C23.224 22 23 21.808 23 21.5714V16.4286C23 16.192 23.224 16 23.5 16C23.776 16 24 16.192 24 16.4286V21.5714C24 21.808 23.776 22 23.5 22Z" fill="white"/>
            <path d="M10.5 22C10.224 22 10 21.808 10 21.5714V16.4286C10 16.192 10.224 16 10.5 16C10.776 16 11 16.192 11 16.4286V21.5714C11 21.808 10.776 22 10.5 22Z" fill="white"/>
            <path d="M7 11.5C3.606 11.5 0 10.448 0 8.5C0 8.224 0.224 8 0.5 8C0.776 8 1 8.224 1 8.5C1 9.335 3.282 10.5 7 10.5C10.718 10.5 13 9.335 13 8.5C13 8.224 13.224 8 13.5 8C13.776 8 14 8.224 14 8.5C14 10.448 10.394 11.5 7 11.5Z" fill="white"/>
            <path d="M7 21C3.606 21 0 19.948 0 18C0 17.724 0.224 17.5 0.5 17.5C0.776 17.5 1 17.724 1 18C1 18.835 3.282 20 7 20C7.544 20 8.018 19.978 8.447 19.933C8.718 19.898 8.968 20.103 8.997 20.377C9.026 20.651 8.827 20.898 8.553 20.927C8.087 20.977 7.579 21 7 21Z" fill="white"/>
            <path d="M7 17C3.606 17 0 15.948 0 14C0 13.724 0.224 13.5 0.5 13.5C0.776 13.5 1 13.724 1 14C1 14.835 3.282 16 7 16C7.544 16 8.018 15.978 8.447 15.933C8.718 15.901 8.968 16.102 8.997 16.377C9.026 16.651 8.827 16.898 8.553 16.927C8.087 16.977 7.579 17 7 17Z" fill="white"/>
            <path d="M7 6C3.606 6 0 4.948 0 3C0 1.052 3.606 0 7 0C10.394 0 14 1.052 14 3C14 4.948 10.394 6 7 6ZM7 1C3.282 1 1 2.165 1 3C1 3.835 3.282 5 7 5C10.718 5 13 3.835 13 3C13 2.165 10.718 1 7 1Z" fill="white"/>
            <path d="M0.5 18.5C0.224 18.5 0 18.276 0 18V3C0 2.724 0.224 2.5 0.5 2.5C0.776 2.5 1 2.724 1 3V18C1 18.276 0.776 18.5 0.5 18.5Z" fill="white"/>
            <path d="M13.5 9.5C13.224 9.5 13 9.276 13 9V3C13 2.724 13.224 2.5 13.5 2.5C13.776 2.5 14 2.724 14 3V9C14 9.276 13.776 9.5 13.5 9.5Z" fill="white"/>
        </g>
        <defs>
            <clipPath id="clip0">
                <rect  />
            </clipPath>
        </defs>
    </svg>


    <svg viewBox="0 0 16 16" id="link-nav" xmlns="http://www.w3.org/2000/svg">
        <path
            d="M13.674 6.684c-.595.894-1.316 1.51-2.096 1.804.136-.223.266-.46.391-.71.785-1.569 1.287-3.546 1.457-5.686h1.627c-.074 1.74-.557 3.357-1.38 4.592zM9.083 9.761a2.272 2.272 0 01-1.078.28 2.273 2.273 0 01-1.078-.28c-.368-.195-.724-.488-1.06-.874a.473.473 0 00-.06-.07A7.39 7.39 0 014.87 7.36C4.008 5.637 3.51 3.372 3.453.938h9.104c-.057 2.434-.555 4.699-1.418 6.422a7.395 7.395 0 01-.935 1.457.462.462 0 00-.06.07c-.337.386-.693.68-1.061.874zm-.286 2.781H7.214v-1.666a3.135 3.135 0 001.583 0zm2.51 1.734v.786H4.703v-.786c0-.434.353-.786.788-.786h5.028c.435 0 .788.352.788.786zm-8.98-7.592C1.503 5.45 1.02 3.833.946 2.092h1.627c.17 2.14.672 4.117 1.457 5.687.125.25.255.486.39.709-.779-.295-1.5-.91-2.095-1.804zm13.204-5.53h-2.053c.007-.227.012-.455.012-.685A.469.469 0 0013.02 0H2.98a.469.469 0 00-.47.469c0 .23.005.458.012.686H.469A.469.469 0 000 1.624c0 2.1.549 4.081 1.546 5.58.985 1.48 2.297 2.33 3.715 2.412.321.35.661.635 1.015.853v2.083H5.49c-.951 0-1.724.773-1.724 1.724v.786h-.034a.469.469 0 000 .938h8.536a.469.469 0 100-.938h-.034v-.786c0-.95-.773-1.724-1.724-1.724h-.786v-2.083a4.81 4.81 0 001.015-.853c1.418-.082 2.73-.932 3.715-2.413C15.451 5.705 16 3.723 16 1.623a.469.469 0 00-.469-.468z"/>
    </svg>
    <svg viewBox="-119 -21 682 682.667" id="location" xmlns="http://www.w3.org/2000/svg">
        <path
            d="M216.21 0C93.548 0-6.25 99.797-6.25 222.46-6.25 376.638 216.43 640 216.43 640s222.242-270.945 222.242-417.54C438.672 99.798 338.879 0 216.21 0zm67.122 287.598c-18.508 18.504-42.812 27.757-67.121 27.757-24.305 0-48.617-9.253-67.117-27.757-37.012-37.008-37.012-97.227 0-134.239 17.922-17.93 41.761-27.804 67.117-27.804 25.355 0 49.191 9.879 67.121 27.804 37.012 37.012 37.012 97.23 0 134.239zm0 0"/>
    </svg>
    <svg viewBox="0 0 33 40" id="new" xmlns="http://www.w3.org/2000/svg">
        <path
            d="M16.246 37.551c-7.597 0-13.777-6.18-13.777-13.777 0-1.922 1-4.538 2.906-7.634l1.53 2.708a1.222 1.222 0 001.234 1.013 1.225 1.225 0 001.245-1.047l6.827-14.62 4.15 9.47a1.224 1.224 0 001.248 1.073 1.223 1.223 0 001.188-.828l1.47-1.881c3.772 4.947 5.757 8.99 5.757 11.746 0 7.597-6.181 13.777-13.778 13.777zm8.978-28.276a1.225 1.225 0 00-.957-.461h-.006a1.224 1.224 0 00-.959.47l-1.401 1.794L17.368.733a1.224 1.224 0 00-2.231-.027l-7.09 15.185-1.533-2.713a1.224 1.224 0 00-2.078-.088C1.506 17.387.02 20.982.02 23.774.02 32.72 7.299 40 16.246 40s16.226-7.28 16.226-16.226c0-3.591-2.438-8.47-7.248-14.5z"/>
        <path
            d="M16.27 30.026a2.536 2.536 0 01-2.541-2.525c0-.847 1.185-3.344 2.54-5.728 1.356 2.383 2.541 4.88 2.541 5.728a2.535 2.535 0 01-2.54 2.525zm2.95-7.935a63.7 63.7 0 00-1.919-3.37 1.224 1.224 0 00-2.083 0c-.04.063-.972 1.575-1.919 3.37-1.81 3.428-2.019 4.738-2.019 5.424a4.985 4.985 0 004.98 4.98 4.985 4.985 0 004.98-4.98c0-.686-.21-1.996-2.02-5.424z"/>
    </svg>
    <svg viewBox="0 0 40 28" id="providers" xmlns="http://www.w3.org/2000/svg">
        <path
            d="M31.02 9.1c-1.145 0-2.074.94-2.074 2.1 0 1.16.93 2.1 2.074 2.1 1.145 0 2.075-.94 2.075-2.1 0-1.16-.93-2.1-2.075-2.1zm-5.515-2.8c-1.14 0-2.064.94-2.064 2.1 0 1.16.925 2.1 2.064 2.1 1.14 0 2.065-.94 2.065-2.1 0-1.16-.925-2.1-2.065-2.1zm-13.763-.7H8.99v2.8H6.237v2.8H8.99V14h2.752v-2.8h2.753V8.4h-2.753zm17.074 14.851c-1.55-1.958-2.887-3.651-4.687-3.651H15.87c-1.799 0-3.138 1.693-4.687 3.651-1.762 2.226-3.758 4.749-6.22 4.767-1.263-.613-3.154-8.284-1.655-15.002.754-3.384 2.59-7.416 7.057-7.416h19.268c4.466 0 6.303 4.032 7.057 7.414 1.485 6.657-.357 14.248-1.62 14.986-2.535-.045-4.508-2.542-6.255-4.749zm9.052-15.138C36.064 1.838 33.216 0 29.634 0H10.366c-3.582 0-6.43 1.838-8.234 5.313C.37 8.703 0 12.795 0 15.63 0 20.602 1.295 28 4.861 28c3.884 0 6.424-3.212 8.467-5.793.77-.975 2.061-2.607 2.543-2.607h8.258c.482 0 1.772 1.632 2.545 2.607C28.714 24.788 31.255 28 35.139 28 38.706 28 40 20.602 40 15.63c0-2.834-.369-6.925-2.132-10.317z"/>
    </svg>
    <svg viewBox="0 0 512.002 512.002" id="rating" xmlns="http://www.w3.org/2000/svg">
        <path
            d="M511.267 197.258a14.995 14.995 0 00-12.107-10.209l-158.723-23.065-70.985-143.827a14.998 14.998 0 00-26.901 0l-70.988 143.827-158.72 23.065a14.998 14.998 0 00-8.312 25.585l114.848 111.954-27.108 158.083a14.999 14.999 0 0021.763 15.812l141.967-74.638 141.961 74.637a15 15 0 0021.766-15.813l-27.117-158.081 114.861-111.955a14.994 14.994 0 003.795-15.375z"/>
    </svg>
    <svg viewBox="0 0 30.239 30.239" id="search" xmlns="http://www.w3.org/2000/svg">
        <path
            d="M20.194 3.46c-4.613-4.613-12.121-4.613-16.734 0-4.612 4.614-4.612 12.121 0 16.735 4.108 4.107 10.506 4.547 15.116 1.34.097.459.319.897.676 1.254l6.718 6.718a2.498 2.498 0 003.535 0 2.496 2.496 0 000-3.535l-6.718-6.72a2.5 2.5 0 00-1.253-.674c3.209-4.611 2.769-11.008-1.34-15.118zm-2.121 14.614c-3.444 3.444-9.049 3.444-12.492 0-3.442-3.444-3.442-9.048 0-12.492 3.443-3.443 9.048-3.443 12.492 0 3.444 3.444 3.444 9.048 0 12.492z"/>
    </svg>
    <svg viewBox="0 0 512 512" id="select" xmlns="http://www.w3.org/2000/svg">
        <path d="M256 496C123.664 496 16 388.336 16 256S123.664 16 256 16s240 107.664 240 240-107.664 240-240 240z"
              fill-opacity=".5"/>
        <path
            d="M256 32c123.512 0 224 100.488 224 224S379.512 480 256 480 32 379.512 32 256 132.488 32 256 32m0-32C114.616 0 0 114.616 0 256s114.616 256 256 256 256-114.616 256-256S397.384 0 256 0z"
            fill-opacity=".5" fill="#fff"/>
    </svg>
    <svg viewBox="0 0 21 22" id="show-more" xmlns="http://www.w3.org/2000/svg">
        <path
            d="M20.838 9.639a.815.815 0 10-1.606.27 8.968 8.968 0 11-2.227-4.553l-3.609 1.202a.815.815 0 00.514 1.546h.001l4.888-1.63a.815.815 0 00.557-.772V.815a.815.815 0 10-1.63 0V3.79C13.533-.2 6.897-.033 2.907 4.161c-3.989 4.195-3.823 10.83.372 14.82s10.83 3.824 14.82-.371a10.482 10.482 0 002.74-8.971z"/>
    </svg>
    <svg viewBox="0 0 24 24" id="slot_close" xmlns="http://www.w3.org/2000/svg">
        <path fill-rule="evenodd" clip-rule="evenodd"
              d="M21.262 23.667c.214.214.499.331.803.331.305 0 .59-.117.804-.331l.8-.8c.213-.213.33-.498.33-.803 0-.303-.117-.589-.33-.803l-8.221-8.22a3.58 3.58 0 01-.9 1.506 3.581 3.581 0 01-1.506.9l8.22 8.22zm-10.304-8.22a3.58 3.58 0 01-1.504-.9 3.582 3.582 0 01-.901-1.506l-8.22 8.22a1.13 1.13 0 00-.332.803c0 .305.118.59.331.804l.8.8c.213.213.498.33.803.33.304 0 .59-.117.803-.331l8.22-8.22zm-2.405-4.49c.165-.55.466-1.07.9-1.504a3.58 3.58 0 011.507-.9L2.738.33A1.125 1.125 0 001.935 0c-.305 0-.59.118-.803.331l-.8.8c-.214.214-.332.5-.332.803 0 .304.118.589.332.803l8.22 8.22zm4.488-2.404L21.262.33c.214-.213.499-.331.803-.331.305 0 .59.118.804.331l.8.8c.213.213.331.498.331.803 0 .304-.118.59-.332.803l-8.22 8.221a3.58 3.58 0 00-.9-1.505 3.583 3.583 0 00-1.507-.9z"/>
    </svg>
    <svg viewBox="0 0 24 24" id="slot_screen" xmlns="http://www.w3.org/2000/svg">
        <g fill-rule="evenodd" clip-rule="evenodd">
            <path
                d="M6.935 8.152a.654.654 0 01-.467-.194l-.45-.45-3.884-3.896.002 2.818a.678.678 0 01-.676.678H.74a.674.674 0 01-.676-.678V.696A.68.68 0 01.266.214.683.683 0 01.757 0h5.598c.373 0 .677.304.677.679v.723c0 .17-.075.342-.204.471-.129.13-.3.204-.47.204l-2.807-.004 4.383 4.395c.004.01.01.019.016.029l.01.014.01.013a.674.674 0 01-.042.915l-.51.51a.68.68 0 01-.483.203zM17.531 23.95a.67.67 0 01-.478-.2.674.674 0 01-.198-.478l-.002-.726c0-.354.322-.677.675-.677l2.81.001-4.319-4.33a.695.695 0 01-.006-.969l.51-.512a.685.685 0 01.919-.034l.011.01.012.008a.349.349 0 00.033.02l4.375 4.387-.004-2.816c0-.354.32-.676.673-.676h.722c.373 0 .677.305.677.68l.003 5.617c0 .18-.07.354-.19.475l-.026.026a.674.674 0 01-.48.196l-5.717-.002zM.695 23.956a.656.656 0 01-.479-.202l-.007-.007A.673.673 0 010 23.259v-5.614c0-.18.07-.35.198-.479a.67.67 0 01.479-.2l.721.001c.18 0 .35.071.478.2a.67.67 0 01.197.476l-.004 2.816 4.364-4.376a.569.569 0 00.03-.018l.012-.008.011-.01a.697.697 0 01.45-.164c.18 0 .348.069.472.193l.51.512a.668.668 0 01.192.486.713.713 0 01-.204.492l-.058.059-4.244 4.255 2.81-.002c.179 0 .348.07.475.198a.672.672 0 01.198.478v.725a.677.677 0 01-.675.677H.695zM16.999 8.155a.667.667 0 01-.477-.193l-.51-.513a.688.688 0 01-.032-.922l.01-.012.008-.012a.456.456 0 00.018-.03L20.4 2.078l-2.809.004a.674.674 0 01-.674-.677V.68c0-.18.07-.35.199-.479a.67.67 0 01.478-.199h5.598a.66.66 0 01.48.203l.006.007c.135.13.209.303.209.487v5.732a.678.678 0 01-.676.679h-.722a.666.666 0 01-.477-.2.66.66 0 01-.198-.477l.003-2.816-4.324 4.336a.693.693 0 01-.494.202zM13.833 10.13a2.636 2.636 0 00-3.73 0 2.653 2.653 0 000 3.74 2.635 2.635 0 003.73 0 2.654 2.654 0 000-3.74z"/>
        </g>
    </svg>
    <svg viewBox="0 0 24 24" id="slot_search" xmlns="http://www.w3.org/2000/svg">
        <path fill-rule="evenodd" clip-rule="evenodd"
              d="M17.719 15.92l5.916 5.94c.5.503.484 1.304-.036 1.787a1.327 1.327 0 01-.907.353c-.36 0-.695-.138-.944-.388l-5.961-5.985a10.176 10.176 0 01-5.75 1.753C4.503 19.38 0 15.033 0 9.69 0 4.347 4.503 0 10.037 0c5.534 0 10.036 4.347 10.036 9.69a9.46 9.46 0 01-2.354 6.23zm-.264-6.23c0-3.95-3.328-7.162-7.418-7.162S2.618 5.74 2.618 9.69c0 3.95 3.328 7.162 7.419 7.162 4.09 0 7.418-3.213 7.418-7.162z"/>
    </svg>
    <svg fill="none" viewBox="0 0 16 16" id="slot_time" xmlns="http://www.w3.org/2000/svg">
        <path fill-rule="evenodd" clip-rule="evenodd"
              d="M7.93 1.54c-3.606 0-6.54 2.904-6.54 6.473 0 3.57 2.934 6.473 6.54 6.473 3.607 0 6.54-2.904 6.54-6.473 0-3.57-2.933-6.473-6.54-6.473zm0 14.321c-4.373 0-7.93-3.52-7.93-7.848C0 3.686 3.557.165 7.93.165c4.373 0 7.93 3.52 7.93 7.848 0 4.328-3.557 7.848-7.93 7.848z"
              fill="#fff"/>
        <path fill-rule="evenodd" clip-rule="evenodd"
              d="M7.844 8.92a.498.498 0 01-.5-.494v-4.99c0-.273.225-.495.5-.495.276 0 .5.222.5.495V7.93h3.806c.275 0 .5.222.5.495a.498.498 0 01-.5.494H7.844z"
              fill="#fff"/>
    </svg>
    <svg viewBox="-42 0 512 512.002" id="user" xmlns="http://www.w3.org/2000/svg">
        <path
            d="M210.352 246.633c33.882 0 63.222-12.153 87.195-36.13 23.973-23.972 36.125-53.304 36.125-87.19 0-33.876-12.152-63.211-36.129-87.192C273.566 12.152 244.23 0 210.352 0c-33.887 0-63.22 12.152-87.192 36.125s-36.129 53.309-36.129 87.188c0 33.886 12.156 63.222 36.133 87.195 23.977 23.969 53.313 36.125 87.188 36.125zm0 0M426.129 393.703c-.692-9.976-2.09-20.86-4.149-32.351-2.078-11.579-4.753-22.524-7.957-32.528-3.308-10.34-7.808-20.55-13.37-30.336-5.774-10.156-12.555-19-20.165-26.277-7.957-7.613-17.699-13.734-28.965-18.2-11.226-4.44-23.668-6.69-36.976-6.69-5.227 0-10.281 2.144-20.043 8.5a2711.03 2711.03 0 01-20.879 13.46c-6.707 4.274-15.793 8.278-27.016 11.903-10.949 3.543-22.066 5.34-33.039 5.34-10.972 0-22.086-1.797-33.047-5.34-11.21-3.622-20.296-7.625-26.996-11.899-7.77-4.965-14.8-9.496-20.898-13.469-9.75-6.355-14.809-8.5-20.035-8.5-13.313 0-25.75 2.254-36.973 6.7-11.258 4.457-21.004 10.578-28.969 18.199-7.605 7.281-14.39 16.12-20.156 26.273-5.558 9.785-10.058 19.992-13.371 30.34-3.2 10.004-5.875 20.945-7.953 32.524-2.059 11.476-3.457 22.363-4.149 32.363A438.821 438.821 0 000 423.949c0 26.727 8.496 48.363 25.25 64.32 16.547 15.747 38.441 23.735 65.066 23.735h246.532c26.625 0 48.511-7.984 65.062-23.734 16.758-15.946 25.254-37.586 25.254-64.325-.004-10.316-.351-20.492-1.035-30.242zm0 0"/>
    </svg>
    <svg id="user-nav" viewBox="0 0 24 24" xmlns="http://www.w3.org/2000/svg">
        <path d="M20 21V19C20 17.9391 19.5786 16.9217 18.8284 16.1716C18.0783 15.4214 17.0609 15 16 15H8C6.93913 15 5.92172 15.4214 5.17157 16.1716C4.42143 16.9217 4 17.9391 4 19V21" stroke-width="1.5" stroke-linecap="round" stroke-linejoin="round"/>
        <path d="M12 11C14.2091 11 16 9.20914 16 7C16 4.79086 14.2091 3 12 3C9.79086 3 8 4.79086 8 7C8 9.20914 9.79086 11 12 11Z" stroke-width="1.5" stroke-linecap="round" stroke-linejoin="round"/>
    </svg>

    <svg viewBox="0 0 20 20" id="user-profile" xmlns="http://www.w3.org/2000/svg">
        <path
            d="M15.46 1.634a10 10 0 011.89 15.126 10 10 0 01-14.7 0A10 10 0 0110.001 0a10 10 0 015.459 1.634zm.091 14.116a6 6 0 00-11.1 0 8 8 0 005.55 2.25 8 8 0 005.55-2.25zM8.587 9.414a2 2 0 102.828-2.828 2 2 0 00-2.828 2.828zM18 10a8 8 0 10-16 0 7.92 7.92 0 001.09 4A8 8 0 017 10.62a4 4 0 116 0A8 8 0 0116.91 14 7.92 7.92 0 0018 10z"/>
    </svg>

<!--    <svg viewBox="0 0 40 40" id="main-nav__icon_4" fill="none" xmlns="http://www.w3.org/2000/svg">-->
<!--        <path d="M24.2188 14.8438C23.7875 14.8438 23.4375 15.1937 23.4375 15.625C23.4375 16.0562 23.7875 16.4062 24.2188 16.4062C24.65 16.4062 25 16.0562 25 15.625C25 15.1937 24.65 14.8438 24.2188 14.8438Z" fill="white"/>-->
<!--        <path d="M39.0845 34.6655L28.6563 24.2374C30.3552 21.6785 31.25 18.7152 31.25 15.625C31.25 7.00938 24.2406 0 15.625 0C7.00938 0 0 7.00938 0 15.625C0 24.2406 7.00938 31.25 15.625 31.25C18.7153 31.25 21.6786 30.3551 24.2374 28.6564L27.1198 31.5388C27.1202 31.5392 27.1206 31.5396 27.1211 31.5401L34.6655 39.0845C35.2559 39.6748 36.0405 40 36.875 40C37.7095 40 38.4941 39.6748 39.0842 39.0847C39.6748 38.4946 40 37.7099 40 36.875C40 36.0401 39.6748 35.2554 39.0845 34.6655ZM23.87 27.0099C23.87 27.01 23.8699 27.01 23.8698 27.0101C21.4584 28.7616 18.6074 29.6875 15.625 29.6875C7.87094 29.6875 1.5625 23.3791 1.5625 15.625C1.5625 7.87094 7.87094 1.5625 15.625 1.5625C23.3791 1.5625 29.6875 7.87094 29.6875 15.625C29.6875 18.6074 28.7616 21.4584 27.01 23.8699C26.1337 25.0772 25.0773 26.1337 23.87 27.0099ZM25.5091 27.7182C26.3177 27.0567 27.0568 26.3176 27.7182 25.5091L29.9347 27.7255C29.2606 28.5211 28.5211 29.2607 27.7255 29.9347L25.5091 27.7182ZM37.9796 37.9796C37.6843 38.2749 37.292 38.4375 36.875 38.4375C36.458 38.4375 36.0657 38.2749 35.7704 37.9796L28.8333 31.0425C29.6245 30.3635 30.3635 29.6245 31.0424 28.8334L37.9798 35.7707C38.2749 36.0655 38.4375 36.4577 38.4375 36.875C38.4375 37.2923 38.2749 37.6845 37.9796 37.9796Z" fill="white"/>-->
<!--        <path d="M24.3801 12.2713C23.7074 10.5204 22.536 9.02336 20.9926 7.94219C19.4124 6.83516 17.5563 6.25 15.625 6.25C15.1936 6.25 14.8438 6.59984 14.8438 7.03125C14.8438 7.46266 15.1936 7.8125 15.625 7.8125C18.8359 7.8125 21.7681 9.82953 22.9216 12.8318C23.0409 13.1424 23.337 13.333 23.651 13.333C23.7442 13.333 23.8389 13.3162 23.931 13.2809C24.3338 13.1261 24.5349 12.6741 24.3801 12.2713Z" fill="white"/>-->
<!--    </svg>-->

    <svg viewBox="0 0 40 40" id="main-nav__icon_1" fill="none" xmlns="http://www.w3.org/2000/svg">
        <path d="M39.4059 6.14258H34.7726C34.4445 6.14258 34.1785 6.40859 34.1785 6.73664C34.1785 7.06469 34.4445 7.3307 34.7726 7.3307H35.7698C35.495 8.64258 34.3295 9.6307 32.9372 9.6307C31.5449 9.6307 30.3794 8.64242 30.1046 7.3307H32.0001C32.3281 7.3307 32.5941 7.06469 32.5941 6.73664C32.5941 6.40859 32.3281 6.14258 32.0001 6.14258H26.4685H13.5313H0.594063C0.266016 6.14258 0 6.40859 0 6.73664V23.9924C0 24.3205 0.266016 24.5865 0.594063 24.5865C0.922109 24.5865 1.18813 24.3205 1.18813 23.9924V7.3307H3.2525C3.54102 9.30102 5.2418 10.8188 7.29094 10.8188C9.34008 10.8188 11.0409 9.30094 11.3295 7.3307H12.9373V32.6695H11.3295C11.0408 30.6992 9.34008 29.1814 7.29094 29.1814C5.2418 29.1814 3.54109 30.6993 3.2525 32.6695H1.18813V26.7647C1.18813 26.4366 0.922109 26.1706 0.594063 26.1706C0.266016 26.1706 0 26.4366 0 26.7647V33.2636C0 33.5916 0.266016 33.8577 0.594063 33.8577H13.5313H26.4686H39.4059C39.734 33.8577 40 33.5916 40 33.2636V6.73664C40 6.40859 39.734 6.14258 39.4059 6.14258ZM7.29094 9.63078C5.89875 9.63078 4.7332 8.6425 4.45844 7.33078H10.1234C9.84867 8.64258 8.6832 9.63078 7.29094 9.63078ZM4.45844 32.6697C4.7332 31.3578 5.89875 30.3696 7.29094 30.3696C8.6832 30.3696 9.84875 31.3579 10.1235 32.6697H4.45844ZM22.8325 7.3307C22.5577 8.64258 21.3922 9.6307 20 9.6307C18.6077 9.6307 17.4422 8.64242 17.1674 7.3307H22.8325ZM17.1674 32.6697C17.4422 31.3578 18.6077 30.3696 20 30.3696C21.3922 30.3696 22.5577 31.3578 22.8325 32.6697H17.1674ZM25.8745 32.6696H24.0384C23.7499 30.6993 22.0491 29.1815 20 29.1815C17.9509 29.1815 16.2501 30.6994 15.9615 32.6696H14.1254V7.3307H15.9615C16.2502 9.30102 17.9509 10.8188 20 10.8188C22.0491 10.8188 23.7498 9.30094 24.0384 7.3307H25.8745V32.6696ZM30.1047 32.6697C30.3795 31.3578 31.545 30.3696 32.9373 30.3696C34.3295 30.3696 35.4951 31.3579 35.7698 32.6697H30.1047ZM38.8119 32.6697H36.9758C36.6871 30.6994 34.9864 29.1816 32.9373 29.1816C30.8881 29.1816 29.1873 30.6995 28.8988 32.6697H27.0627V7.3307H28.8988C29.1874 9.30102 30.8881 10.8188 32.9373 10.8188C34.9864 10.8188 36.6872 9.30094 36.9758 7.3307H38.8119V32.6697Z" fill="white"/>
        <path d="M11.8326 15.9616C11.7489 15.8799 11.4291 15.4853 11.1808 15.1666C11.0065 14.943 10.6986 14.8735 10.4454 15.0008L9.18786 15.6327C8.47622 15.2001 6.67466 14.3441 4.56419 15.1566C4.54637 15.1358 4.527 15.1163 4.50637 15.0981C4.37825 14.9853 4.20755 14.9334 4.03841 14.9548L2.59965 15.1391C2.29278 15.1785 2.06754 15.4467 2.08169 15.7556L2.23309 19.0504C2.2477 19.3672 2.50856 19.6167 2.82567 19.6172L4.08716 19.6189C4.08747 19.6189 4.0877 19.6189 4.08801 19.6189C4.26591 19.6189 4.4345 19.5391 4.54731 19.4016C4.66036 19.2639 4.70552 19.0827 4.67052 18.908C4.66739 18.8929 4.6652 18.8287 4.67231 18.7859C4.7302 18.7785 4.862 18.7817 5.08348 18.8468C5.28458 18.9058 5.47067 18.9524 5.64239 18.9888C4.77958 20.0204 3.8163 21.8396 4.13575 24.6456C4.16973 24.9434 4.4202 25.1693 4.71989 25.1723C4.97114 25.1749 5.64427 25.1758 6.4295 25.1758C7.94591 25.1758 9.88044 25.1726 10.0025 25.1723C10.1918 25.172 10.3696 25.0815 10.4813 24.9286C10.5929 24.7756 10.625 24.5788 10.5676 24.3983C10.552 24.3494 9.04607 19.4808 11.8284 16.8157C11.9447 16.7044 12.0108 16.5506 12.0116 16.3895C12.0124 16.2284 11.9478 16.074 11.8326 15.9616ZM8.95982 21.6005C8.97778 22.5659 9.11583 23.4122 9.23872 23.9852C8.17544 23.9866 6.26606 23.9887 5.27255 23.9865C5.08825 20.4298 7.34489 18.9916 7.44294 18.931L7.13622 18.4223L6.85474 17.8992C6.85474 17.8992 6.867 17.89 6.89536 17.88C6.89122 17.8815 6.48325 18.0193 5.41802 17.7067C4.74262 17.5084 4.21856 17.5744 3.86051 17.9026C3.68833 18.0603 3.59106 18.2484 3.53809 18.4301L3.39403 18.4299L3.29372 16.2481L3.55098 16.2151C3.59614 16.349 3.68848 16.4648 3.81426 16.5382C3.99669 16.6447 4.22184 16.6463 4.40583 16.5427C6.70614 15.2445 8.70099 16.7262 8.78294 16.7885C8.9638 16.9284 9.20872 16.952 9.41294 16.8495L10.5466 16.2799C10.57 16.3088 10.5937 16.3381 10.6176 16.3673C9.49138 17.6709 8.92013 19.4667 8.95982 21.6005Z" fill="white"/>
        <path d="M24.77 15.9615C24.6863 15.8798 24.3665 15.4852 24.1183 15.1665C23.9442 14.9429 23.6361 14.8735 23.3829 15.0008L22.1254 15.6326C21.4137 15.2001 19.6122 14.3441 17.5017 15.1565C17.4839 15.1358 17.4646 15.1163 17.4439 15.0981C17.3157 14.9853 17.1451 14.9333 16.9759 14.9547L15.5372 15.1391C15.2303 15.1785 15.005 15.4467 15.0192 15.7556L15.1706 19.0504C15.1852 19.3672 15.4461 19.6167 15.7632 19.6172L17.0246 19.6189C17.0249 19.6189 17.0252 19.6189 17.0255 19.6189C17.2068 19.6189 17.3801 19.5454 17.4928 19.4035C17.6048 19.2623 17.6486 19.0872 17.6088 18.9118C17.6031 18.8728 17.6039 18.8204 17.6098 18.7857C17.6677 18.7779 17.7997 18.7815 18.0209 18.8466C18.2221 18.9056 18.4081 18.9523 18.5799 18.9886C17.717 20.0201 16.7537 21.8394 17.0732 24.6454C17.1072 24.9432 17.3577 25.1691 17.6574 25.1722C17.9086 25.1747 18.5818 25.1756 19.367 25.1756C20.8833 25.1756 22.8179 25.1724 22.9399 25.1722C23.1292 25.1718 23.307 25.0813 23.4187 24.9284C23.5303 24.7754 23.5624 24.5786 23.505 24.3981C23.4895 24.3492 21.9836 19.4806 24.766 16.8156C24.8823 16.7042 24.9484 16.5504 24.9492 16.3893C24.95 16.2283 24.8853 16.0739 24.77 15.9615ZM21.8972 21.6004C21.9151 22.5658 22.0532 23.4121 22.1761 23.9851C21.1128 23.9865 19.2036 23.9886 18.21 23.9864C18.0256 20.4297 20.2822 18.9915 20.3804 18.9309L20.0736 18.4222L19.7921 17.8991C19.7921 17.8991 19.8043 17.8899 19.8327 17.8799C19.8286 17.8815 19.4202 18.0191 18.3554 17.7066C17.6803 17.5084 17.156 17.5742 16.7979 17.9025C16.6257 18.0602 16.5284 18.2483 16.4754 18.43L16.3314 18.4297L16.2311 16.2479L16.4883 16.2149C16.5335 16.3488 16.6258 16.4646 16.7516 16.538C16.934 16.6445 17.1592 16.6461 17.3431 16.5425C19.6434 15.2443 21.6382 16.726 21.7202 16.7883C21.9011 16.9282 22.1461 16.9518 22.3502 16.8493L23.4839 16.2797C23.5072 16.3086 23.531 16.3379 23.5548 16.3672C22.4287 17.6708 21.8575 19.4667 21.8972 21.6004Z" fill="white"/>
        <path d="M37.7067 15.9614C37.623 15.8798 37.3032 15.4852 37.055 15.1666C36.8808 14.9429 36.5728 14.8734 36.3196 15.0007L35.062 15.6326C34.3503 15.2001 32.5488 14.3441 30.4382 15.1565C30.4204 15.1358 30.401 15.1163 30.3804 15.098C30.2522 14.9852 30.0817 14.9333 29.9124 14.9547L28.4737 15.1391C28.1668 15.1784 27.9416 15.4466 27.9557 15.7555L28.1071 19.0503C28.1217 19.3671 28.3826 19.6166 28.6997 19.6171L29.9612 19.6188C29.9615 19.6188 29.9618 19.6188 29.9621 19.6188C30.1434 19.6188 30.3167 19.5454 30.4294 19.4034C30.5414 19.2623 30.5852 19.0873 30.5454 18.9118C30.5397 18.8727 30.5405 18.8204 30.5464 18.7856C30.6043 18.7779 30.7362 18.7815 30.9576 18.8466C31.1587 18.9055 31.3448 18.9522 31.5165 18.9886C30.6536 20.0201 29.6904 21.8394 30.0099 24.6453C30.0438 24.9431 30.2943 25.1691 30.594 25.1721C30.8452 25.1746 31.5184 25.1755 32.3036 25.1755C33.82 25.1755 35.7545 25.1723 35.8766 25.1721C36.0659 25.1718 36.2437 25.0813 36.3554 24.9284C36.467 24.7754 36.4991 24.5785 36.4417 24.398C36.4262 24.3491 34.9203 19.4805 37.7026 16.8155C37.8189 16.7042 37.885 16.5504 37.8858 16.3893C37.8866 16.2282 37.8219 16.0738 37.7067 15.9614ZM34.8339 21.6004C34.8519 22.5658 34.9899 23.4121 35.1128 23.9851C34.0495 23.9866 32.1402 23.9886 31.1467 23.9864C30.9624 20.4297 33.2189 18.9916 33.317 18.9309L33.0102 18.4222L32.7288 17.8991C32.7288 17.8991 32.741 17.89 32.7693 17.8799C32.7652 17.8814 32.3572 18.0192 31.2922 17.7066C30.617 17.5084 30.0927 17.5742 29.7346 17.9025C29.5624 18.0602 29.4652 18.2484 29.4122 18.43L29.2681 18.4298L29.1678 16.248L29.4251 16.215C29.4702 16.3489 29.5626 16.4647 29.6884 16.5381C29.8708 16.6446 30.0959 16.6463 30.2799 16.5426C32.5799 15.2447 34.5753 16.7262 34.6571 16.7884C34.838 16.9284 35.083 16.9519 35.2871 16.8494L36.4208 16.2798C36.4442 16.3088 36.4679 16.338 36.4917 16.3673C35.3654 17.6708 34.7942 19.4666 34.8339 21.6004Z" fill="white"/>
    </svg>

<!--    <svg viewBox="0 0 40 40" fill="none" id="main-nav__icon_4" xmlns="http://www.w3.org/2000/svg">-->
<!--        <path d="M10.0013 28.126C6.89875 28.126 4.375 30.6497 4.375 33.7522V38.1247C4.375 38.8141 4.93562 39.3747 5.625 39.3747H26.8812H28.7575H35C35.3456 39.3747 35.625 39.0954 35.625 38.7497V36.8735C35.625 36.8691 35.6225 36.8654 35.6225 36.861V25.6254C35.6225 25.2797 35.3431 25.0004 34.9975 25.0004H26.8812C26.5356 25.0004 26.2562 25.2797 26.2562 25.6254V28.126H23.75V25.5216C26.7331 23.7891 28.7488 20.5666 28.7488 16.8754V11.2497C28.7488 9.61348 28.3663 8.06785 27.7019 6.68223C27.6863 6.63285 27.6631 6.58848 27.6356 6.54348C25.8962 3.04285 22.2919 0.625977 18.125 0.625977C12.2669 0.625977 7.50125 5.3916 7.50125 11.2497V12.4997C7.50125 12.5266 7.51375 12.5491 7.51625 12.5747C7.52125 12.6166 7.5275 12.6566 7.54062 12.6954C7.55375 12.7347 7.57125 12.7685 7.59063 12.8035C7.61 12.8379 7.63 12.8697 7.65562 12.8997C7.68187 12.931 7.71187 12.9566 7.74437 12.9822C7.775 13.0066 7.805 13.0279 7.83938 13.0466C7.8775 13.0666 7.91687 13.0791 7.95812 13.091C7.9825 13.0979 8.00187 13.1122 8.0275 13.1166C8.27437 13.156 8.50938 13.1854 8.7475 13.2172V16.8754C8.7475 20.5672 10.7644 23.7904 13.7487 25.5229V28.126H10.0013ZM17.3781 29.9872C17.4187 29.996 17.4606 29.9997 17.5006 29.9997C17.5894 29.9997 17.6719 29.9754 17.75 29.9404C17.76 29.9366 17.77 29.9385 17.7794 29.9335L18.75 29.4485L19.7206 29.9335C19.73 29.9385 19.74 29.9366 19.75 29.9404C19.8281 29.9754 19.9113 29.9997 19.9994 29.9997C20.0394 29.9997 20.0813 29.996 20.1219 29.9872L21.9444 29.6235L18.75 35.556L15.5556 29.6241L17.3781 29.9872ZM11.25 29.376H14.0013L18.125 37.0329V38.1247H11.25V29.376ZM10 29.376V38.1247H5.625V33.7522C5.625 31.3397 7.5875 29.3766 10 29.376ZM27.5062 38.1247V37.4985H34.375V38.1247H28.7575H27.5062ZM27.5062 26.2504H34.3725V36.2485H27.5062V26.2504ZM26.2562 36.8735V38.1247H19.375V37.0329L23.4987 29.376H26.2562V36.8735ZM27.4988 11.2497V12.0472C26.5781 11.0785 25.7469 10.5197 24.9419 10.2372L26.9181 8.0341C27.2869 9.03848 27.4988 10.1185 27.4988 11.2497ZM18.125 1.87598C21.6763 1.87598 24.7731 3.8616 26.3631 6.78098L23.4744 10.0022C22.4269 10.0179 21.3581 10.376 20.1231 10.7966C17.7794 11.5929 14.6237 12.6622 9.38688 12.0422C9.38188 12.0422 9.37813 12.0397 9.37375 12.0397C9.3725 12.0397 9.37125 12.0404 9.36938 12.0404C9.16875 12.0166 8.95875 11.9854 8.75125 11.9566V11.2497C8.75125 6.08098 12.9562 1.87598 18.125 1.87598ZM9.99875 16.8754V13.3622C15.0606 13.8341 18.18 12.7772 20.525 11.9797C23.4494 10.9841 24.8113 10.5322 27.4988 13.9691V16.8754C27.4988 21.7004 23.5737 25.6254 18.7487 25.6254C13.9237 25.6254 9.99875 21.7004 9.99875 16.8754ZM18.7487 26.8754C20.0756 26.8754 21.34 26.6097 22.5 26.1385V28.2385L20.0881 28.7197L19.03 28.1904C19.0162 28.1835 19.0006 28.1841 18.9862 28.1785C18.9469 28.1622 18.9075 28.1541 18.8663 28.146C18.8263 28.1391 18.7894 28.1316 18.75 28.1316C18.7106 28.1316 18.6737 28.1397 18.6344 28.1466C18.5931 28.1547 18.5531 28.1622 18.5144 28.1791C18.5 28.1847 18.4844 28.1841 18.4706 28.191L17.4125 28.7204L15 28.2391V26.1397C16.1587 26.6104 17.4231 26.8754 18.7487 26.8754Z" fill="white"/>-->
<!--        <path d="M18.7691 31.876C19.1141 31.876 19.3941 31.5966 19.3941 31.251C19.3941 30.9054 19.1141 30.626 18.7691 30.626H18.7629C18.4179 30.626 18.1416 30.9054 18.1416 31.251C18.1416 31.5966 18.4241 31.876 18.7691 31.876Z" fill="white"/>-->
<!--        <path d="M31.3805 29.2468C31.1361 29.0024 30.7411 29.0024 30.4968 29.2468L28.9343 30.8093C28.6899 31.0536 28.6899 31.4486 28.9343 31.693L30.4968 33.2555C30.6186 33.3774 30.7786 33.4386 30.9386 33.4386C31.0986 33.4386 31.2586 33.3774 31.3805 33.2555L32.943 31.693C33.1874 31.4486 33.1874 31.0536 32.943 30.8093L31.3805 29.2468ZM30.9386 31.9299L30.2599 31.2511L30.9386 30.5724L31.6174 31.2511L30.9386 31.9299Z" fill="white"/>-->
<!--    </svg>-->

    <svg viewBox="0 0 40 40" id="main-nav__icon_2" fill="none" xmlns="http://www.w3.org/2000/svg">
        <g clip-path="url(#clip0)">
            <path d="M19.9953 7.18706e-05C11.9176 0.000388615 4.63534 4.86622 1.54423 12.329C-1.54688 19.7919 0.161641 28.382 5.8735 34.0938C10.912 39.1728 18.2823 41.169 25.1952 39.3265C32.1082 37.4839 37.5078 32.0847 39.3499 25.1718C41.1924 18.2588 39.1963 10.8882 34.1173 5.84971C30.3804 2.09217 25.295 -0.0141816 19.9953 7.18706e-05ZM33.2 33.1765C25.901 40.4328 14.107 40.4157 6.82912 33.1379C-0.44841 25.8604 -0.465831 14.0661 6.79079 6.767C14.0895 -0.489299 25.8839 -0.472194 33.1617 6.80565C40.4392 14.0832 40.4566 25.8775 33.2 33.1765Z" fill="white"/>
            <path d="M19.9952 4.24219C11.3221 4.24219 4.26562 11.2983 4.26562 19.9717C4.26562 28.6452 11.3221 35.7013 19.9952 35.7013C28.6686 35.7013 35.725 28.6452 35.725 19.9717C35.725 11.2983 28.6686 4.24219 19.9952 4.24219ZM30.1931 19.4041C30.0667 17.1084 29.1662 14.9235 27.6389 13.2051L30.6242 10.2198C32.9393 12.7332 34.2832 15.9893 34.4153 19.4041H30.1931ZM26.719 12.29C25.007 10.7852 22.8389 9.89925 20.5628 9.77414V5.55161C23.958 5.68274 27.197 7.01212 29.7053 9.30377L26.719 12.29ZM19.2654 9.78427C17.0083 9.94486 14.8687 10.8536 13.1858 12.3664L10.2011 9.38169C12.679 7.08117 15.8886 5.72709 19.2654 5.55795V9.78427ZM12.2758 13.291C10.7934 14.9969 9.92142 17.1476 9.79757 19.4041H5.57536C5.70555 16.0289 7.02035 12.807 9.2892 10.3044L12.2758 13.291ZM9.80803 20.7015C9.96545 22.9197 10.8457 25.0251 12.3135 26.6956L9.32721 29.6819C7.07293 27.2147 5.74831 24.0394 5.58138 20.7015H9.80803ZM13.2286 27.6151C14.9054 29.1057 17.0279 30.0002 19.2654 30.1592V34.3855C15.9082 34.2173 12.7157 32.8781 10.2432 30.6007L13.2286 27.6151ZM20.5628 30.1693C22.8193 30.0455 24.9703 29.1735 26.676 27.6911L29.6625 30.6777C27.1599 32.9466 23.9383 34.2614 20.5628 34.3919V30.1693ZM19.9952 28.8884C15.0711 28.8884 11.0791 24.8965 11.0791 19.9721C11.0788 15.0476 15.0707 11.0557 19.9952 11.0557C24.9193 11.0557 28.9115 15.0473 28.9115 19.9717C28.9062 24.8936 24.9174 28.8824 19.9952 28.8881V28.8884ZM30.5852 29.7661L27.6008 26.7814C29.1136 25.0986 30.0224 22.959 30.1826 20.7015H34.409C34.2398 24.0786 32.8861 27.2879 30.5852 29.7658V29.7661Z" fill="white"/>
            <path d="M24.1305 19.404H22.721C22.4932 18.3204 21.6466 17.4738 20.5627 17.246V15.8362C20.5627 15.478 20.2722 15.1875 19.914 15.1875C19.5557 15.1875 19.2653 15.478 19.2653 15.8362V17.2853C18.2555 17.5615 17.4852 18.3797 17.2695 19.404H15.8596C15.5014 19.404 15.2109 19.6945 15.2109 20.0527C15.2109 20.4109 15.5014 20.7014 15.8596 20.7014H17.3087C17.5697 21.6535 18.3135 22.3972 19.2653 22.6579V24.107C19.2653 24.4653 19.5557 24.7557 19.914 24.7557C20.2722 24.7557 20.5627 24.4653 20.5627 24.107V22.6972C21.5873 22.4818 22.4052 21.7112 22.6814 20.7014H24.1305C24.4887 20.7014 24.7792 20.4109 24.7792 20.0527C24.7792 19.6945 24.4887 19.404 24.1305 19.404ZM20.0818 21.454C20.0274 21.4391 19.9707 21.4315 19.914 21.4312C19.8734 21.4312 19.8329 21.4353 19.793 21.4429C19.1335 21.3514 18.6153 20.8332 18.5241 20.1737C18.5317 20.1338 18.5355 20.0932 18.5355 20.0527C18.5355 19.996 18.5279 19.9396 18.513 19.8848C18.5548 19.1772 19.0907 18.5976 19.793 18.5003C19.8329 18.5079 19.8734 18.5121 19.914 18.5121C19.9707 18.5117 20.0274 18.5041 20.0818 18.4892C20.8335 18.5339 21.4328 19.1335 21.4774 19.8848C21.4625 19.9396 21.4549 19.996 21.4546 20.0527C21.4549 20.0932 21.4587 20.1338 21.4663 20.1737C21.3691 20.8759 20.7894 21.4119 20.0818 21.454Z" fill="white"/>
        </g>
        <defs>
            <clipPath id="clip0">
                <rect width="40" height="40" fill="white"/>
            </clipPath>
        </defs>
    </svg>

    <svg viewBox="0 0 40 40" id="main-nav__icon_3" fill="none" xmlns="http://www.w3.org/2000/svg">
        <g clip-path="url(#clip0)">
            <path d="M7.28872 8.00805C7.09841 7.74743 6.76733 7.63064 6.45561 7.71415C6.1439 7.79766 5.91554 8.0643 5.88109 8.38523L5.37954 13.0488C5.33344 13.4778 5.64375 13.863 6.07281 13.9091C6.10117 13.9122 6.12937 13.9137 6.15726 13.9137C6.55124 13.9137 6.88998 13.6165 6.9331 13.2159L7.21857 10.5613L8.79299 12.7175C9.04744 13.0659 9.53626 13.1422 9.88469 12.8877C10.2331 12.6333 10.3094 12.1446 10.0549 11.796L7.28872 8.00805Z" fill="white"/>
            <path d="M37.6563 5.93805H24.4484L23.3231 1.73812C23.161 1.13344 22.7732 0.628055 22.2311 0.315013C21.689 0.00197072 21.0575 -0.081153 20.4526 0.0808757L1.7381 5.09541C1.13342 5.25744 0.628037 5.64524 0.314995 6.18742C0.00203144 6.72952 -0.0811704 7.36115 0.0808583 7.96591L7.68355 36.3395C7.84558 36.9442 8.23339 37.4496 8.77557 37.7626C9.13673 37.9711 9.53743 38.0776 9.94359 38.0776C10.1471 38.0776 10.3521 38.0508 10.554 37.9968L15.9379 36.5542V37.6563C15.9379 38.9486 16.9893 40 18.2816 40H37.6563C38.9486 40 40 38.9486 40 37.6563V26.4846C40 26.0531 39.6502 25.7034 39.2188 25.7034C38.7873 25.7034 38.4375 26.0531 38.4375 26.4846V37.6563C38.4375 38.0871 38.0871 38.4375 37.6563 38.4375H18.2816C17.8508 38.4375 17.5004 38.0871 17.5004 37.6563V8.28176C17.5004 7.85099 17.8508 7.50053 18.2816 7.50053H37.6563C38.0871 7.50053 38.4375 7.85099 38.4375 8.28176V19.4535C38.4375 19.8849 38.7873 20.2347 39.2188 20.2347C39.6502 20.2347 40 19.8849 40 19.4535V8.28176C40 6.98944 38.9486 5.93805 37.6563 5.93805ZM15.9379 22.1919C15.1769 22.9552 13.9628 23.1294 13.0121 22.5807C11.8563 21.9133 11.4589 20.43 12.1262 19.2742L14.6704 14.8675L15.9379 15.5993V22.1919ZM15.9379 8.28176V13.795L14.7751 13.1237C14.4013 12.9079 13.9236 13.036 13.7079 13.4097L10.7731 18.4929C10.2412 19.4142 10.0998 20.4876 10.3752 21.5152C10.6505 22.5429 11.3097 23.4018 12.231 23.9337C12.8618 24.2979 13.5507 24.4738 14.2313 24.4738C14.8209 24.4738 15.4041 24.3413 15.9379 24.0854V34.9366L10.1496 36.4876C9.94805 36.5415 9.7375 36.5139 9.5568 36.4095C9.3761 36.3052 9.24681 36.1367 9.19282 35.9352L1.59013 7.56146C1.47865 7.14538 1.72646 6.71616 2.14254 6.6046L20.8571 1.59007C21.0586 1.53609 21.2691 1.56382 21.4499 1.66812C21.6306 1.77241 21.7599 1.94092 21.8139 2.14248L22.8309 5.93797H18.2816C16.9893 5.93805 15.9379 6.98944 15.9379 8.28176Z" fill="white"/>
            <path d="M24.1335 15.5733C24.5359 15.4177 24.7361 14.9654 24.5804 14.5629L22.889 10.188C22.7726 9.88691 22.4831 9.68848 22.1603 9.68848C21.8376 9.68848 21.5481 9.88691 21.4317 10.188L19.7403 14.5629C19.5847 14.9654 19.7848 15.4177 20.1872 15.5733C20.2799 15.6092 20.375 15.6261 20.4688 15.6261C20.7821 15.6261 21.0778 15.4362 21.1976 15.1264L22.1603 12.6362L23.1231 15.1264C23.2787 15.5288 23.7312 15.7291 24.1335 15.5733Z" fill="white"/>
            <path d="M33.0489 35.7507C33.1653 36.0517 33.4549 36.2502 33.7776 36.2502C34.1003 36.2502 34.3898 36.0517 34.5063 35.7507L36.1976 31.3757C36.3533 30.9733 36.1531 30.521 35.7507 30.3653C35.3484 30.2099 34.8959 30.4099 34.7403 30.8123L33.7776 33.3025L32.8148 30.8123C32.6592 30.4099 32.2068 30.2096 31.8044 30.3653C31.402 30.521 31.2019 30.9733 31.3575 31.3757L33.0489 35.7507Z" fill="white"/>
            <path d="M27.4168 28.9124C27.5693 29.065 27.7693 29.1413 27.9692 29.1413C28.1691 29.1413 28.3691 29.065 28.5216 28.9124L32.6721 24.762C34.225 23.209 34.225 20.6821 32.6721 19.1292V19.1291C31.4046 17.8617 29.5016 17.6043 27.9692 18.4356C26.4369 17.6045 24.5337 17.8618 23.2663 19.1291C21.7133 20.682 21.7133 23.2089 23.2663 24.7619L27.4168 28.9124ZM24.3711 20.234C24.8368 19.7683 25.4614 19.5294 26.0881 19.5294C26.5865 19.5294 27.0862 19.6806 27.5081 19.9889C27.7827 20.1896 28.1556 20.1896 28.4302 19.9889C29.3827 19.2927 30.7313 19.3981 31.5672 20.2339C32.5109 21.1777 32.5109 22.7133 31.5672 23.6571L27.9691 27.2551L24.371 23.6571C23.4274 22.7134 23.4274 21.1777 24.3711 20.234Z" fill="white"/>
            <path d="M39.2188 22.1885C39.0133 22.1885 38.8117 22.2721 38.6664 22.4174C38.5211 22.5627 38.4375 22.7643 38.4375 22.9697C38.4375 23.1752 38.5211 23.3768 38.6664 23.5221C38.8117 23.6674 39.0133 23.751 39.2188 23.751C39.4242 23.751 39.6258 23.6674 39.7711 23.5221C39.9164 23.3768 40 23.1752 40 22.9697C40 22.7643 39.9164 22.5627 39.7711 22.4174C39.6258 22.2721 39.4242 22.1885 39.2188 22.1885Z" fill="white"/>
        </g>
        <defs>
            <clipPath id="clip0">
                <rect width="40" height="40" fill="white"/>
            </clipPath>
        </defs>
    </svg>

    <svg xmlns="http://www.w3.org/2000/svg" id="main-nav__icon_5" viewBox="0 0 40 40" fill="none">
        <path d="M31.9375 13.8125C32.0625 13.9375 32.5 14.0625 32.8125 13.75C33.0625 13.5 33 13.125 32.75 12.875L31.125 11.5C31.5625 11.125 31.8125 10.625 31.8125 10.0625C31.8125 9.37497 31.375 8.74997 30.8125 8.43747L32.125 5.56247C32.5 4.68747 32.1875 3.74997 31.4375 3.24997C30.625 2.74997 29.6875 2.93747 29.125 3.62497C28.875 3.87497 28.625 4.06247 28.3125 3.68747C28.3125 3.68747 26.3125 1.18747 26.25 1.12497C25.5 0.437474 24.375 0.499974 23.6875 1.12497L21.6875 3.62497C21.625 3.74997 21.25 3.99997 20.9375 3.62497C20.3125 2.93747 19.375 2.74997 18.5625 3.24997C17.75 3.74997 17.5 4.68747 17.875 5.49997L19.125 8.31247C18.5 8.62497 18.125 9.24997 18.125 9.93747C18.125 10.5 18.375 11.0625 18.8125 11.375L17.1875 12.75C13 16.4375 10.625 21.625 10.625 27.125V28.75C10.625 29.125 10.875 29.375 11.25 29.375C11.625 29.375 11.875 29.125 11.875 28.75V27.125C11.875 22 14.125 17.1875 18.0625 13.8125L20.25 11.875H21.875V13.75C21.875 14.125 22.125 14.375 22.5 14.375C22.875 14.375 23.125 14.125 23.125 13.75V11.875H26.875V16.25C26.875 16.625 27.125 16.875 27.5 16.875C27.875 16.875 28.125 16.625 28.125 16.25V11.875H29.75L31.9375 13.8125ZM20 10.625C19.625 10.625 19.375 10.375 19.375 9.99997C19.375 9.62497 19.625 9.37497 20 9.37497H25.4375C25.8125 9.37497 26.0625 9.12497 26.0625 8.74997C26.0625 8.37497 25.8125 8.12497 25.4375 8.12497H20.375L19 4.99997C18.8125 4.56247 19.125 4.31247 19.25 4.31247C19.375 4.24997 19.6875 4.06247 19.9375 4.43747C20.25 4.81247 20.6875 5.06247 21.1875 5.12497C21.6875 5.18747 22.25 4.93747 22.625 4.56247L24.625 2.06247C24.8125 1.87497 25.1875 1.87497 25.375 2.06247L27.375 4.56247C27.75 4.93747 28.1875 5.12497 28.6875 5.06247C29.1875 5.06247 29.6875 4.81247 30 4.43747C30.3125 4.06247 30.625 4.24997 30.75 4.31247C30.875 4.31247 31.25 4.56247 31.0625 4.99997L29.625 8.12497H28.125C27.75 8.12497 27.5 8.37497 27.5 8.74997C27.5 9.12497 27.75 9.37497 28.125 9.37497H30C30.375 9.37497 30.625 9.62497 30.625 9.99997C30.625 10.375 30.375 10.625 30 10.625H20Z" fill="white"/>
        <path d="M39.375 31.875V27.125C39.375 22.5 37.6875 18 34.5625 14.5625C34.3125 14.3125 33.9375 14.3125 33.6875 14.5C33.4375 14.6875 33.4375 15.125 33.625 15.375C36.5 18.5625 38.125 22.75 38.125 27.0625V31.875C38.125 35.3125 35.3125 38.125 31.875 38.125H28.9375C28.5625 38.125 28.3125 38.375 28.3125 38.75C28.3125 39.125 28.5625 39.375 28.9375 39.375H38.75C39.125 39.375 39.375 39.125 39.375 38.75C39.375 38.375 39.125 38.125 38.75 38.125H36C38.0625 36.75 39.375 34.5 39.375 31.875ZM15.75 20.625C16 20.625 16.1875 20.5 16.3125 20.25C17.1875 18.5 18.4375 16.875 20 15.4375C20.25 15.1875 20.25 14.8125 20.0625 14.5625C19.8125 14.3125 19.4375 14.3125 19.1875 14.5C17.5 16.0625 16.1875 17.75 15.25 19.6875C15.125 20 15.25 20.375 15.5 20.5C15.5625 20.625 15.625 20.625 15.75 20.625Z" fill="white"/>
        <path d="M32.4375 35.625C32.125 35.6875 31.875 36 31.9375 36.3125C32.0625 36.9375 32.625 36.875 32.625 36.8125C35.0625 36.4375 36.9375 34.3125 36.9375 31.8125C36.9375 31.4375 36.6875 31.1875 36.3125 31.1875C35.9375 31.1875 35.6875 31.4375 35.6875 31.8125C35.625 33.75 34.25 35.375 32.4375 35.625ZM36.25 29.375C36.625 29.375 36.875 29.125 36.875 28.75V27.5C36.875 27.125 36.625 26.875 36.25 26.875C35.875 26.875 35.625 27.125 35.625 27.5V28.75C35.625 29.125 35.875 29.375 36.25 29.375ZM26.125 38.125H18.125C14.6875 38.125 11.875 35.3125 11.875 31.875C11.875 31.5 11.625 31.25 11.25 31.25C10.875 31.25 10.625 31.5 10.625 31.875C10.625 34.5 11.9375 36.75 14 38.125H8.125C4.6875 38.125 1.875 35.3125 1.875 31.875V28.375C1.875 24.1875 3.375 20.125 6.125 16.9375C6.375 16.6875 6.3125 16.3125 6.0625 16.0625C5.8125 15.8125 5.375 15.875 5.1875 16.125C2.25 19.5 0.625 23.875 0.625 28.375V31.875C0.625 34.5 1.9375 36.75 4 38.125H1.25C0.875 38.125 0.625 38.375 0.625 38.75C0.625 39.125 0.875 39.375 1.25 39.375H26.125C26.5 39.375 26.75 39.125 26.75 38.75C26.75 38.375 26.5 38.125 26.125 38.125ZM8.0625 15.0625L10.25 13.125H11.875V15C11.875 15.375 12.125 15.625 12.5 15.625C12.875 15.625 13.125 15.375 13.125 15V13.125H15.625C16 13.125 16.25 12.875 16.25 12.5C16.25 12.125 16 11.875 15.625 11.875H10C9.625 11.875 9.375 11.625 9.375 11.25C9.375 10.875 9.625 10.625 10 10.625H16.8125C17.1875 10.625 17.4375 10.375 17.4375 10C17.4375 9.625 17.1875 9.375 16.8125 9.375H10.375L8.9375 6.25C8.75 5.8125 9.0625 5.5625 9.1875 5.5625C9.3125 5.5 9.625 5.3125 9.9375 5.6875C10.25 6.0625 10.75 6.3125 11.25 6.3125C11.75 6.3125 12.25 6.125 12.5625 5.8125L14.5625 3.3125C14.8125 3.125 15.125 3.125 15.3125 3.3125L16 4.1875C16.25 4.375 16.625 4.375 16.9375 4.1875C17.1875 4 17.25 3.5625 17.0625 3.3125L16.3125 2.375C15.625 1.6875 14.5 1.6875 13.75 2.375L11.6875 4.9375C11.5 5 11.25 5.25 10.875 4.875C10.3125 4.1875 9.3125 4 8.5 4.5C7.6875 5 7.4375 5.9375 7.8125 6.8125L9.125 9.625C8.5625 9.9375 8.125 10.5625 8.125 11.25C8.125 11.8125 8.375 12.375 8.8125 12.6875L7.1875 14.0625C6.9375 14.3125 6.875 14.6875 7.125 14.9375C7.5625 15.4375 7.9375 15.125 8.0625 15.0625Z" fill="white"/>
        <path d="M7.4375 36.875C7.4375 36.875 8.0625 36.9375 8.125 36.375C8.1875 36.0625 7.9375 35.6875 7.625 35.6875C5.75 35.375 4.375 33.75 4.375 31.875C4.375 31.5 4.125 31.25 3.75 31.25C3.375 31.25 3.125 31.5 3.125 31.875C3.125 34.375 4.9375 36.5 7.4375 36.875ZM3.75 29.375C4.125 29.375 4.375 29.125 4.375 28.75V27.5C4.375 27.125 4.125 26.875 3.75 26.875C3.375 26.875 3.125 27.125 3.125 27.5V28.75C3.125 29.125 3.375 29.375 3.75 29.375Z" fill="white"/>
        <path d="M29.9713 25.6283C30.2001 24.1572 29.0352 23.3664 27.4424 22.8388L27.9591 20.8461L26.6976 20.5438L26.1945 22.484C25.8629 22.4045 25.5222 22.3296 25.1838 22.2553L25.6904 20.3023L24.4296 20L23.9125 21.9921C23.638 21.9319 23.3685 21.8725 23.1069 21.81L23.1084 21.8038L21.3686 21.3861L21.033 22.6816C21.033 22.6816 21.969 22.8879 21.9492 22.9007C22.4602 23.0233 22.5525 23.3484 22.5371 23.6062L21.9485 25.8763C21.9837 25.885 22.0293 25.8974 22.0796 25.9167C22.0376 25.9067 21.9927 25.8957 21.9463 25.885L21.1214 29.0651C21.0589 29.2144 20.9004 29.4382 20.5432 29.3533C20.5558 29.3709 19.6263 29.1332 19.6263 29.1332L19 30.5217L20.6417 30.9152C20.9471 30.9888 21.2464 31.0658 21.5411 31.1384L21.019 33.1539L22.2791 33.4562L22.7961 31.4621C23.1404 31.5519 23.4745 31.6348 23.8015 31.7129L23.2862 33.6977L24.5478 34L25.0699 31.9883C27.2211 32.3797 28.8387 32.2218 29.5196 30.351C30.0683 28.8447 29.4923 27.9759 28.3605 27.4092C29.1847 27.2265 29.8056 26.7051 29.9713 25.6283ZM27.0888 29.5146C26.699 31.0209 24.0613 30.2066 23.2061 30.0024L23.8989 27.3322C24.754 27.5374 27.4963 27.9437 27.0888 29.5146ZM27.479 25.6065C27.1233 26.9767 24.9279 26.2805 24.2158 26.1099L24.8438 23.688C25.556 23.8587 27.8495 24.1772 27.479 25.6065Z" fill="white"/>
    </svg>


    <svg id="main-nav__icon_4" viewBox="0 0 40 40"  xmlns="http://www.w3.org/2000/svg">
        <g clip-path="url(#clip0)">
            <path
                d="M16.6761 5.33902H14.6769V3.33982C14.6769 2.9718 14.3785 2.67342 14.0105 2.67342H12.0113V0.674214C12.0113 0.306194 11.7129 0.0078125 11.3449 0.0078125H3.34804C2.98002 0.0078125 2.68164 0.306194 2.68164 0.674214V11.3366C2.68164 11.7047 2.98002 12.003 3.34804 12.003H5.34725V14.0022C5.34725 14.3703 5.64563 14.6686 6.01365 14.6686H8.01285V16.6678C8.01285 17.0359 8.31123 17.3342 8.67925 17.3342H16.6761C17.0441 17.3342 17.3425 17.0359 17.3425 16.6678V6.00543C17.3425 5.63741 17.0441 5.33902 16.6761 5.33902ZM5.34725 3.33982V10.6702H4.01444V1.34062H10.6785V2.67342H6.01365C5.64563 2.67342 5.34725 2.9718 5.34725 3.33982ZM8.01285 6.00543V13.3358H6.68005V4.00622H13.3441V5.33902H8.67925C8.31123 5.33902 8.01285 5.63741 8.01285 6.00543ZM16.0097 16.0014H9.34565V11.2147C9.43729 11.5645 9.61955 11.8841 9.87411 12.141L12.2065 14.4734C12.4667 14.7335 12.8886 14.7335 13.1488 14.4734L15.4812 12.141C15.7358 11.8841 15.918 11.5645 16.0097 11.2147V16.0014ZM10.5972 10.6702C10.5983 10.2569 10.9343 9.92278 11.3476 9.92395C11.5447 9.92453 11.7336 10.0028 11.8733 10.1418L12.2065 10.475C12.4667 10.7351 12.8886 10.7351 13.1488 10.475L13.482 10.1418C13.7744 9.85123 14.2465 9.85123 14.5389 10.1418C14.8308 10.4329 14.8314 10.9055 14.5403 11.1973C14.5398 11.1978 14.5394 11.1982 14.5389 11.1987L12.6777 13.06L10.8164 11.1987C10.6756 11.0589 10.5967 10.8687 10.5972 10.6702ZM16.0097 10.1258C15.918 9.77592 15.7358 9.45639 15.4812 9.19949C14.72 8.43937 13.5053 8.38365 12.6777 9.07087C11.8507 8.38298 10.6361 8.43754 9.87411 9.19682C9.61913 9.45447 9.43687 9.77493 9.34565 10.1258V6.67183H16.0097V10.1258Z"
                fill="white"/>
            <path
                d="M36.6683 0.0078125H28.6714C28.3034 0.0078125 28.005 0.306194 28.005 0.674214V2.67342H26.0058C25.6378 2.67342 25.3394 2.9718 25.3394 3.33982V5.33902H23.3402C22.9722 5.33902 22.6738 5.63741 22.6738 6.00543V16.6678C22.6738 17.0359 22.9722 17.3342 23.3402 17.3342H31.337C31.7051 17.3342 32.0034 17.0359 32.0034 16.6678V14.6686H34.0026C34.3707 14.6686 34.6691 14.3703 34.6691 14.0022V12.003H36.6683C37.0363 12.003 37.3347 11.7047 37.3347 11.3366V0.674214C37.3347 0.306194 37.0363 0.0078125 36.6683 0.0078125ZM30.6706 11.3366V16.0014H24.0066V11.3366V6.67183H30.6706V11.3366ZM33.3362 13.3358H32.0034V6.00543C32.0034 5.63741 31.7051 5.33902 31.337 5.33902H26.6722V4.00622H33.3362V13.3358ZM36.0019 10.6702H34.6691V3.33982C34.6691 2.9718 34.3707 2.67342 34.0026 2.67342H29.3378V1.34062H36.0019V10.6702Z"
                fill="white"/>
            <path
                d="M27.8593 7.58907C27.6099 7.3016 27.1747 7.27078 26.8873 7.52018C26.8627 7.5415 26.8397 7.56449 26.8184 7.58907L24.1528 10.9211C24.0584 11.0391 24.0069 11.1857 24.0068 11.3369C24.0069 11.4881 24.0584 11.6347 24.1528 11.7527L26.8184 15.0847C27.0482 15.3722 27.4676 15.4189 27.755 15.189C27.7935 15.1582 27.8285 15.1233 27.8593 15.0847L30.5249 11.7527C30.6193 11.6347 30.6708 11.4881 30.6708 11.3369C30.6708 11.1857 30.6193 11.0391 30.5249 10.9211L27.8593 7.58907ZM27.3388 13.6027L25.5269 11.3369L27.3388 9.07114L29.1508 11.3369L27.3388 13.6027Z"
                fill="white"/>
            <path
                d="M39.9952 38.1144C39.9514 37.7489 39.6196 37.4881 39.2541 37.5319C36.6085 37.8485 33.9163 38.0844 31.2027 38.265L28.7756 30.3348C32.4122 30.0683 35.9814 29.6418 39.4467 29.044C39.8094 28.9814 40.0527 28.6367 39.9902 28.274C39.9276 27.9113 39.5828 27.668 39.2202 27.7305C35.6291 28.3439 32.0095 28.7768 28.3751 29.0273L25.9441 21.0885C29.1286 20.8423 32.2912 20.3661 35.407 19.6637L38.8723 22.9831C39.138 23.2377 39.5599 23.2288 39.8146 22.9631C40.0692 22.6973 40.0603 22.2754 39.7946 22.0208L36.9464 19.2885C37.8254 19.062 38.691 18.8221 39.532 18.5602C39.8831 18.4497 40.0782 18.0756 39.9679 17.7245C39.8574 17.3734 39.4833 17.1783 39.1322 17.2887C32.9276 19.138 26.482 20.052 20.0078 20.0003C13.5333 20.0527 7.08719 19.1395 0.882072 17.2907C0.530962 17.1802 0.156777 17.3754 0.0464047 17.7265C-0.063968 18.0776 0.131121 18.4518 0.482231 18.5622C1.32323 18.8247 2.18889 19.064 3.0672 19.2905L0.219669 22.0228C-0.0460585 22.2774 -0.0549716 22.6994 0.199677 22.9651C0.454326 23.2308 0.876241 23.2397 1.14197 22.9851L4.60726 19.6657C7.7231 20.368 10.8857 20.8442 14.0702 21.0905L11.6405 29.0313C8.00607 28.7808 4.38651 28.3479 0.79544 27.7345C0.432751 27.672 0.0879715 27.9153 0.0254131 28.278C-0.0371454 28.6407 0.206174 28.9854 0.568864 29.048C4.03415 29.6478 7.6034 30.0722 11.24 30.3388L8.84824 38.1504C6.18263 37.9145 3.49303 37.5979 0.779446 37.2007C0.416757 37.1384 0.0721445 37.3818 0.00975263 37.7446C-0.0526392 38.1074 0.190847 38.4519 0.55362 38.5143C0.564032 38.5161 0.574445 38.5176 0.584857 38.5189C7.01463 39.4823 13.5062 39.9747 20.0078 39.9923C26.4929 39.9976 32.9726 39.618 39.4127 38.8554C39.7782 38.8116 40.039 38.4798 39.9952 38.1144ZM24.58 21.1865L27.0097 29.1226C25.8768 29.1893 24.7333 29.2366 23.587 29.2706C23.6457 29.2173 23.707 29.1666 23.763 29.1113C23.767 29.1073 23.773 29.106 23.7776 29.1013C23.7823 29.0966 23.783 29.0913 23.787 29.0866C25.8566 27.0109 25.8566 23.6521 23.787 21.5763C23.783 21.5716 23.7816 21.5656 23.7776 21.5616C23.7736 21.5576 23.767 21.5556 23.763 21.5516C23.6557 21.445 23.5424 21.3437 23.4298 21.2458C23.8116 21.2284 24.1968 21.2098 24.58 21.1865ZM22.2956 26.6769C22.4216 26.4651 22.5169 26.2364 22.5788 25.9979H23.9462C23.8462 26.5914 23.6126 27.1545 23.2632 27.6445L22.2956 26.6769ZM22.3209 28.5868C21.8308 28.9363 21.2677 29.1699 20.6742 29.2699V27.9024C20.9128 27.8406 21.1414 27.7453 21.3533 27.6192L22.3209 28.5868ZM23.9462 24.6651H22.5788C22.5169 24.4265 22.4216 24.1978 22.2956 23.986L23.2632 23.0184C23.6126 23.5084 23.8462 24.0716 23.9462 24.6651ZM20.6742 21.393C21.2677 21.4931 21.8308 21.7267 22.3209 22.0761L21.3533 23.0437C21.1414 22.9177 20.9128 22.8224 20.6742 22.7605V21.393ZM20.0078 23.9987C20.7439 23.9987 21.3406 24.5953 21.3406 25.3315C21.3406 26.0676 20.7439 26.6643 20.0078 26.6643C19.2717 26.6643 18.675 26.0676 18.675 25.3315C18.675 24.5953 19.2717 23.9987 20.0078 23.9987ZM18.6623 27.6192C18.8742 27.7453 19.1028 27.8406 19.3414 27.9024V29.2699C18.7479 29.1699 18.1848 28.9363 17.6947 28.5868L18.6623 27.6192ZM16.7524 27.6445C16.403 27.1545 16.1694 26.5914 16.0694 25.9979H17.4368C17.4987 26.2364 17.594 26.4651 17.72 26.6769L16.7524 27.6445ZM19.3414 21.393V22.7605C19.1028 22.8224 18.8742 22.9177 18.6623 23.0437L17.6947 22.0761C18.1848 21.7267 18.7479 21.4931 19.3414 21.393ZM17.72 23.986C17.594 24.1978 17.4987 24.4265 17.4368 24.6651H16.0694C16.1694 24.0716 16.403 23.5084 16.7524 23.0184L17.72 23.986ZM15.4356 21.1865C15.8188 21.2098 16.204 21.2284 16.5892 21.2458C16.4732 21.3437 16.3599 21.4457 16.2526 21.5516C16.2486 21.5556 16.2426 21.557 16.238 21.5616C16.2333 21.5663 16.2326 21.5716 16.2286 21.5763C14.159 23.6521 14.159 27.0109 16.2286 29.0866C16.2326 29.0913 16.234 29.0973 16.238 29.1013C16.242 29.1053 16.2486 29.1073 16.2526 29.1113C16.3086 29.1666 16.3699 29.2173 16.4286 29.2706C15.2823 29.2366 14.1401 29.1893 13.0059 29.1226L15.4356 21.1865ZM20.0078 38.6595C16.8037 38.6595 13.5277 38.5262 10.207 38.2663L12.6061 30.4368C15.0464 30.5874 17.5137 30.6627 20.0078 30.6627C22.5019 30.6627 24.9698 30.5874 27.4115 30.4368L29.8399 38.3669C26.5898 38.5609 23.3051 38.6595 20.0078 38.6595Z"
                fill="white"/>
        </g>
        <defs>
            <clipPath id="clip0">
                <rect width="40" height="40" fill="white"/>
            </clipPath>
        </defs>
    </svg>

    <svg viewBox="0 0 40 40" id="main-nav__icon_6" fill="none" xmlns="http://www.w3.org/2000/svg">
        <g clip-path="url(#clip0)">
            <path d="M32.3256 20.0398C32.3256 14.4314 27.779 9.88477 22.1706 9.88477C16.5623 9.88477 12.0156 14.4314 12.0156 20.0398C12.0159 25.6481 16.5623 30.1948 22.171 30.1948C27.7767 30.1883 32.3195 25.6456 32.3256 20.0398ZM13.339 20.0398C13.339 15.1621 17.2932 11.2078 22.171 11.2078C27.0487 11.2078 31.0026 15.1621 31.0026 20.0398C31.0026 24.9175 27.0487 28.8718 22.171 28.8718C17.2955 28.8663 13.3445 24.9152 13.339 20.0398Z" fill="white"/>
            <path d="M26.5269 20.8665C26.5269 20.5012 26.2307 20.205 25.8654 20.205H22.3152V15.2894C22.3152 14.9241 22.019 14.6279 21.6537 14.6279C21.2884 14.6279 20.9922 14.9241 20.9922 15.2894V20.8316C20.9922 21.1972 21.2774 21.528 21.6427 21.528H25.8654C26.2307 21.528 26.5269 21.2318 26.5269 20.8665Z" fill="white"/>
            <path d="M22.1708 2.211C13.5058 2.21488 6.09671 8.44471 4.60603 16.9805H0.661798C0.41922 16.9786 0.195376 17.1107 0.0797395 17.3238C-0.03622 17.5367 -0.0249147 17.7964 0.108487 17.9989L4.9271 25.3451C5.04952 25.5315 5.25754 25.6435 5.48041 25.6435C5.70361 25.6432 5.9113 25.5308 6.0334 25.3444L10.8523 17.997C10.9854 17.7948 10.9964 17.5357 10.8804 17.3229C10.7648 17.1103 10.5413 16.9786 10.2994 16.9805H5.94974C7.42459 9.18375 14.2358 3.53824 22.1708 3.5363C31.2719 3.5363 38.6765 10.9396 38.6765 20.041C38.6765 29.1423 31.2719 36.5463 22.1708 36.5463C21.8052 36.5463 21.5093 36.8425 21.5093 37.2078C21.5093 37.5731 21.8052 37.8693 22.1708 37.8693C29.382 37.8693 35.8831 33.5255 38.6429 26.8632C41.4023 20.2009 39.8768 12.532 34.7775 7.43305C31.4414 4.07863 26.9016 2.19808 22.1708 2.211ZM5.48074 23.783L1.88664 18.3035H9.07451L5.48074 23.783Z" fill="white"/>
        </g>
        <defs>
            <clipPath id="clip0">
                <rect width="40" height="40" fill="white"/>
            </clipPath>
        </defs>
    </svg>

    <svg xmlns="http://www.w3.org/2000/svg" id="main-nav__wheel" viewBox="0 0 56 56" fill="none">
        <g filter="url(#filter0_d_708_47172)">
            <circle cx="28" cy="28" r="16" fill="#FF00E6"/>
            <path d="M24.3831 14.4753C27.9701 13.5161 31.7912 14.021 35.0059 15.8791L28 28L24.3831 14.4753Z" fill="url(#paint0_radial_708_47172)"/>
            <path d="M35.0049 15.8785C38.2198 17.7364 40.5649 20.7952 41.5244 24.3821L28 28L35.0049 15.8785Z" fill="url(#paint1_radial_708_47172)"/>
            <path d="M41.5265 24.3898C42.484 27.9773 41.9771 31.7982 40.1175 35.0119L28 28L41.5265 24.3898Z" fill="url(#paint2_radial_708_47172)"/>
            <path d="M40.1178 35.0113C39.197 36.6027 37.9719 37.9971 36.5123 39.1149C35.0526 40.2328 33.3871 41.0522 31.6108 41.5263L28 28L40.1178 35.0113Z" fill="url(#paint3_radial_708_47172)"/>
            <path d="M15.8732 21.0042C14.9545 22.5967 14.3585 24.3546 14.1191 26.1774C13.8798 28.0003 14.0018 29.8524 14.4783 31.6281L28 28L15.8732 21.0042Z" fill="url(#paint4_radial_708_47172)"/>
            <path d="M14.4787 31.6298C14.9554 33.4054 15.7771 35.0698 16.897 36.5278C18.0169 37.9859 19.413 39.2091 21.0057 40.1276L28 28L14.4787 31.6298Z" fill="url(#paint5_radial_708_47172)"/>
            <path d="M15.8746 21.0019C16.7974 19.4029 18.0274 18.0023 19.4936 16.8806C20.9599 15.7589 22.6336 14.9383 24.4182 14.4659L28 28L15.8746 21.0019Z" fill="url(#paint6_radial_708_47172)"/>
            <path d="M20.999 40.1238C24.2144 41.9805 28.0358 42.4839 31.6224 41.5232L28 28L20.999 40.1238Z" fill="url(#paint7_radial_708_47172)"/>
            <g filter="url(#filter1_f_708_47172)">
                <circle cx="28" cy="28" r="12.3481" stroke="white"/>
            </g>
            <g filter="url(#filter2_d_708_47172)">
                <ellipse cx="28.3343" cy="28.3343" rx="4.33429" ry="4.33429" fill="url(#paint8_radial_708_47172)"/>
            </g>
            <circle cx="36.5" cy="15.5" r="0.5" fill="white"/>
            <g filter="url(#filter3_d_708_47172)">
                <circle cx="42.5" cy="24.5" r="0.5" fill="white"/>
            </g>
            <circle cx="41.5" cy="34.5" r="0.5" fill="white"/>
            <g filter="url(#filter4_d_708_47172)">
                <circle cx="34.5" cy="41.5" r="0.5" fill="white"/>
            </g>
            <circle cx="21.5" cy="41.5" r="0.5" fill="white"/>
            <circle cx="14.5" cy="21.5" r="0.5" fill="white"/>
            <g filter="url(#filter5_d_708_47172)">
                <circle cx="24.5" cy="13.5" r="0.5" fill="white"/>
            </g>
            <g filter="url(#filter6_d_708_47172)">
                <circle cx="13.5" cy="31.5" r="0.5" fill="white"/>
            </g>
            <g filter="url(#filter7_d_708_47172)">
                <path d="M36 28L44 23V33L36 28Z" fill="#EDCE13"/>
                <path d="M38 28L43 25V31L38 28Z" fill="url(#paint9_angular_708_47172)"/>
            </g>
        </g>
        <defs>
            <filter id="filter0_d_708_47172" x="0" y="0" width="56" height="56" filterUnits="userSpaceOnUse" color-interpolation-filters="sRGB">
                <feFlood flood-opacity="0" result="BackgroundImageFix"/>
                <feColorMatrix in="SourceAlpha" type="matrix" values="0 0 0 0 0 0 0 0 0 0 0 0 0 0 0 0 0 0 127 0" result="hardAlpha"/>
                <feOffset/>
                <feGaussianBlur stdDeviation="6"/>
                <feComposite in2="hardAlpha" operator="out"/>
                <feColorMatrix type="matrix" values="0 0 0 0 1 0 0 0 0 0.0745098 0 0 0 0 0.909804 0 0 0 0.6 0"/>
                <feBlend mode="normal" in2="BackgroundImageFix" result="effect1_dropShadow_708_47172"/>
                <feBlend mode="normal" in="SourceGraphic" in2="effect1_dropShadow_708_47172" result="shape"/>
            </filter>
            <filter id="filter1_f_708_47172" x="5.15192" y="5.15188" width="45.6962" height="45.6962" filterUnits="userSpaceOnUse" color-interpolation-filters="sRGB">
                <feFlood flood-opacity="0" result="BackgroundImageFix"/>
                <feBlend mode="normal" in="SourceGraphic" in2="BackgroundImageFix" result="shape"/>
                <feGaussianBlur stdDeviation="5" result="effect1_foregroundBlur_708_47172"/>
            </filter>
            <filter id="filter2_d_708_47172" x="22" y="22" width="12.6686" height="12.6686" filterUnits="userSpaceOnUse" color-interpolation-filters="sRGB">
                <feFlood flood-opacity="0" result="BackgroundImageFix"/>
                <feColorMatrix in="SourceAlpha" type="matrix" values="0 0 0 0 0 0 0 0 0 0 0 0 0 0 0 0 0 0 127 0" result="hardAlpha"/>
                <feOffset/>
                <feGaussianBlur stdDeviation="1"/>
                <feComposite in2="hardAlpha" operator="out"/>
                <feColorMatrix type="matrix" values="0 0 0 0 0.1125 0 0 0 0 0.00421875 0 0 0 0 0.101992 0 0 0 0.6 0"/>
                <feBlend mode="normal" in2="BackgroundImageFix" result="effect1_dropShadow_708_47172"/>
                <feBlend mode="normal" in="SourceGraphic" in2="effect1_dropShadow_708_47172" result="shape"/>
            </filter>
            <filter id="filter3_d_708_47172" x="38" y="20" width="9" height="9" filterUnits="userSpaceOnUse" color-interpolation-filters="sRGB">
                <feFlood flood-opacity="0" result="BackgroundImageFix"/>
                <feColorMatrix in="SourceAlpha" type="matrix" values="0 0 0 0 0 0 0 0 0 0 0 0 0 0 0 0 0 0 127 0" result="hardAlpha"/>
                <feMorphology radius="2" operator="dilate" in="SourceAlpha" result="effect1_dropShadow_708_47172"/>
                <feOffset/>
                <feGaussianBlur stdDeviation="1"/>
                <feComposite in2="hardAlpha" operator="out"/>
                <feColorMatrix type="matrix" values="0 0 0 0 1 0 0 0 0 1 0 0 0 0 1 0 0 0 0.5 0"/>
                <feBlend mode="normal" in2="BackgroundImageFix" result="effect1_dropShadow_708_47172"/>
                <feBlend mode="normal" in="SourceGraphic" in2="effect1_dropShadow_708_47172" result="shape"/>
            </filter>
            <filter id="filter4_d_708_47172" x="30" y="37" width="9" height="9" filterUnits="userSpaceOnUse" color-interpolation-filters="sRGB">
                <feFlood flood-opacity="0" result="BackgroundImageFix"/>
                <feColorMatrix in="SourceAlpha" type="matrix" values="0 0 0 0 0 0 0 0 0 0 0 0 0 0 0 0 0 0 127 0" result="hardAlpha"/>
                <feMorphology radius="2" operator="dilate" in="SourceAlpha" result="effect1_dropShadow_708_47172"/>
                <feOffset/>
                <feGaussianBlur stdDeviation="1"/>
                <feComposite in2="hardAlpha" operator="out"/>
                <feColorMatrix type="matrix" values="0 0 0 0 1 0 0 0 0 1 0 0 0 0 1 0 0 0 0.5 0"/>
                <feBlend mode="normal" in2="BackgroundImageFix" result="effect1_dropShadow_708_47172"/>
                <feBlend mode="normal" in="SourceGraphic" in2="effect1_dropShadow_708_47172" result="shape"/>
            </filter>
            <filter id="filter5_d_708_47172" x="20" y="9" width="9" height="9" filterUnits="userSpaceOnUse" color-interpolation-filters="sRGB">
                <feFlood flood-opacity="0" result="BackgroundImageFix"/>
                <feColorMatrix in="SourceAlpha" type="matrix" values="0 0 0 0 0 0 0 0 0 0 0 0 0 0 0 0 0 0 127 0" result="hardAlpha"/>
                <feMorphology radius="2" operator="dilate" in="SourceAlpha" result="effect1_dropShadow_708_47172"/>
                <feOffset/>
                <feGaussianBlur stdDeviation="1"/>
                <feComposite in2="hardAlpha" operator="out"/>
                <feColorMatrix type="matrix" values="0 0 0 0 1 0 0 0 0 1 0 0 0 0 1 0 0 0 0.5 0"/>
                <feBlend mode="normal" in2="BackgroundImageFix" result="effect1_dropShadow_708_47172"/>
                <feBlend mode="normal" in="SourceGraphic" in2="effect1_dropShadow_708_47172" result="shape"/>
            </filter>
            <filter id="filter6_d_708_47172" x="9" y="27" width="9" height="9" filterUnits="userSpaceOnUse" color-interpolation-filters="sRGB">
                <feFlood flood-opacity="0" result="BackgroundImageFix"/>
                <feColorMatrix in="SourceAlpha" type="matrix" values="0 0 0 0 0 0 0 0 0 0 0 0 0 0 0 0 0 0 127 0" result="hardAlpha"/>
                <feMorphology radius="2" operator="dilate" in="SourceAlpha" result="effect1_dropShadow_708_47172"/>
                <feOffset/>
                <feGaussianBlur stdDeviation="1"/>
                <feComposite in2="hardAlpha" operator="out"/>
                <feColorMatrix type="matrix" values="0 0 0 0 1 0 0 0 0 1 0 0 0 0 1 0 0 0 0.5 0"/>
                <feBlend mode="normal" in2="BackgroundImageFix" result="effect1_dropShadow_708_47172"/>
                <feBlend mode="normal" in="SourceGraphic" in2="effect1_dropShadow_708_47172" result="shape"/>
            </filter>
            <filter id="filter7_d_708_47172" x="33" y="21" width="12" height="14" filterUnits="userSpaceOnUse" color-interpolation-filters="sRGB">
                <feFlood flood-opacity="0" result="BackgroundImageFix"/>
                <feColorMatrix in="SourceAlpha" type="matrix" values="0 0 0 0 0 0 0 0 0 0 0 0 0 0 0 0 0 0 127 0" result="hardAlpha"/>
                <feOffset dx="-1"/>
                <feGaussianBlur stdDeviation="1"/>
                <feComposite in2="hardAlpha" operator="out"/>
                <feColorMatrix type="matrix" values="0 0 0 0 0.2 0 0 0 0 0.0183333 0 0 0 0 0.181542 0 0 0 0.5 0"/>
                <feBlend mode="normal" in2="BackgroundImageFix" result="effect1_dropShadow_708_47172"/>
                <feBlend mode="normal" in="SourceGraphic" in2="effect1_dropShadow_708_47172" result="shape"/>
            </filter>
            <radialGradient id="paint0_radial_708_47172" cx="0" cy="0" r="1" gradientUnits="userSpaceOnUse" gradientTransform="translate(28 28) rotate(-90) scale(14)">
                <stop stop-color="#8F0081"/>
                <stop offset="0.914694" stop-color="#FF20E9"/>
                <stop offset="1" stop-color="#500152"/>
            </radialGradient>
            <radialGradient id="paint1_radial_708_47172" cx="0" cy="0" r="1" gradientUnits="userSpaceOnUse" gradientTransform="translate(28 28) rotate(-90) scale(14)">
                <stop stop-color="#D1A301"/>
                <stop offset="0.914734" stop-color="#FFE601"/>
                <stop offset="1" stop-color="#BFAC00"/>
            </radialGradient>
            <radialGradient id="paint2_radial_708_47172" cx="0" cy="0" r="1" gradientUnits="userSpaceOnUse" gradientTransform="translate(28 28) rotate(-90) scale(14)">
                <stop stop-color="#8F0081"/>
                <stop offset="0.914694" stop-color="#FF20E9"/>
                <stop offset="1" stop-color="#500152"/>
            </radialGradient>
            <radialGradient id="paint3_radial_708_47172" cx="0" cy="0" r="1" gradientUnits="userSpaceOnUse" gradientTransform="translate(28 28) rotate(-90) scale(14)">
                <stop stop-color="#D1A301"/>
                <stop offset="0.914734" stop-color="#FFE601"/>
                <stop offset="1" stop-color="#BFAC00"/>
            </radialGradient>
            <radialGradient id="paint4_radial_708_47172" cx="0" cy="0" r="1" gradientUnits="userSpaceOnUse" gradientTransform="translate(28 28) rotate(90) scale(14)">
                <stop stop-color="#8F0081"/>
                <stop offset="0.914694" stop-color="#FF20E9"/>
                <stop offset="1" stop-color="#500152"/>
            </radialGradient>
            <radialGradient id="paint5_radial_708_47172" cx="0" cy="0" r="1" gradientUnits="userSpaceOnUse" gradientTransform="translate(28 28) rotate(90) scale(14)">
                <stop stop-color="#D1A301"/>
                <stop offset="0.914734" stop-color="#FFE601"/>
                <stop offset="1" stop-color="#BFAC00"/>
            </radialGradient>
            <radialGradient id="paint6_radial_708_47172" cx="0" cy="0" r="1" gradientUnits="userSpaceOnUse" gradientTransform="translate(28 28) rotate(90) scale(14)">
                <stop stop-color="#D1A301"/>
                <stop offset="0.914734" stop-color="#FFE601"/>
                <stop offset="1" stop-color="#BFAC00"/>
            </radialGradient>
            <radialGradient id="paint7_radial_708_47172" cx="0" cy="0" r="1" gradientUnits="userSpaceOnUse" gradientTransform="translate(28 28) rotate(90) scale(14)">
                <stop stop-color="#8F0081"/>
                <stop offset="0.914694" stop-color="#FF20E9"/>
                <stop offset="1" stop-color="#500152"/>
            </radialGradient>
            <radialGradient id="paint8_radial_708_47172" cx="0" cy="0" r="1" gradientUnits="userSpaceOnUse" gradientTransform="translate(28.3343 28.3343) rotate(90) scale(4.33429)">
                <stop offset="0.723936" stop-color="white"/>
                <stop offset="1" stop-color="#CFAED2"/>
            </radialGradient>
            <radialGradient id="paint9_angular_708_47172" cx="0" cy="0" r="1" gradientUnits="userSpaceOnUse" gradientTransform="translate(41.3594 28) scale(1.64062 1.96875)">
                <stop offset="0.1653" stop-color="#FF12E8"/>
                <stop offset="0.167565" stop-color="#B800A6"/>
                <stop offset="0.489147" stop-color="#FF11E8"/>
                <stop offset="0.500369" stop-color="#B609AE"/>
                <stop offset="0.842386" stop-color="#771C75"/>
                <stop offset="0.852065" stop-color="#FF12E8"/>
                <stop offset="1" stop-color="#FF60F0"/>
            </radialGradient>
        </defs>
    </svg>

</svg>
