<svg width="37" height="37" viewBox="0 0 37 37" fill="none" xmlns="http://www.w3.org/2000/svg">
<path d="M33.8066 31.208L31.158 26.7958C29.937 24.7592 29.291 22.4282 29.291 20.0525V16.1875C29.291 10.2383 24.4486 5.39587 18.4994 5.39587C12.5501 5.39587 7.70773 10.2383 7.70773 16.1875V20.0525C7.70773 22.4282 7.06175 24.7592 5.84075 26.7958L3.19214 31.208C3.04876 31.4454 3.04566 31.743 3.18137 31.9835C3.3186 32.2255 3.57601 32.3751 3.85351 32.3751H33.1452C33.4227 32.3751 33.6801 32.2256 33.8173 31.9835C33.953 31.7429 33.95 31.4454 33.8066 31.208ZM5.21485 30.8334L7.16198 27.5881C8.52787 25.3126 9.24937 22.7073 9.24937 20.0525V16.1875C9.24937 11.0861 13.398 6.93752 18.4994 6.93752C23.6007 6.93752 27.7494 11.0861 27.7494 16.1875V20.0525C27.7494 22.7073 28.4709 25.3126 29.8352 27.5881L31.7839 30.8334H5.21485Z" fill="white"/>
<path d="M18.4994 0C16.7989 0 15.416 1.38287 15.416 3.08336V6.16671C15.416 6.59214 15.7614 6.9375 16.1869 6.9375C16.6124 6.9375 16.9577 6.59214 16.9577 6.16664V3.08336C16.9577 2.23236 17.6484 1.54171 18.4994 1.54171C19.3504 1.54171 20.041 2.23236 20.041 3.08336V6.16671C20.041 6.59214 20.3864 6.9375 20.8119 6.9375C21.2374 6.9375 21.5827 6.59214 21.5827 6.16664V3.08336C21.5827 1.38287 20.1999 0 18.4994 0Z" fill="white"/>
<path d="M21.8368 31.2141C21.6195 30.8472 21.1492 30.7269 20.7808 30.9381C20.4123 31.154 20.2891 31.6272 20.5048 31.9941C20.7052 32.3349 20.8147 32.7434 20.8147 33.1458C20.8147 34.4207 19.7772 35.4583 18.5022 35.4583C17.2272 35.4583 16.1897 34.4207 16.1897 33.1458C16.1897 32.7434 16.2992 32.3349 16.4996 31.9941C16.7139 31.6256 16.5906 31.1539 16.2236 30.9381C15.8521 30.7269 15.3834 30.8471 15.1676 31.2141C14.8269 31.7968 14.6465 32.4644 14.6465 33.1458C14.6466 35.2717 16.3747 37 18.5007 37C20.6267 37 22.3548 35.2717 22.3579 33.1458C22.3579 32.4644 22.1776 31.7968 21.8368 31.2141Z" fill="white"/>
</svg>
