<svg width="22" height="22" viewBox="0 0 22 22" fill="none" xmlns="http://www.w3.org/2000/svg">
<path d="M16.099 8.18437C16.385 8.63719 17.0643 8.56282 17.2486 8.0635L18.0208 5.97244L20.1812 5.42306C20.6979 5.29167 20.8403 4.62281 20.4215 4.29243L18.6714 2.91187L18.8165 0.687476C18.8512 0.155375 18.2591 -0.186641 17.8154 0.109529L15.9616 1.3474L13.8909 0.522053C13.3958 0.324535 12.8873 0.78196 13.0319 1.29546L13.6364 3.44109L12.2115 5.15538C11.8707 5.56533 12.1486 6.19023 12.6816 6.21133L14.909 6.29954L16.099 8.18437ZM14.969 3.41772L14.6267 2.20291L15.7991 2.67018C15.9961 2.74877 16.2191 2.72531 16.3956 2.60749L17.4452 1.90666L17.3631 3.16602C17.3492 3.37771 17.4405 3.58262 17.607 3.71397L18.5979 4.49558L17.3748 4.80662C17.1692 4.85891 17.0025 5.00899 16.929 5.20797L16.4918 6.39188L15.8181 5.32475C15.7048 5.14541 15.5106 5.03322 15.2986 5.02485L14.0375 4.97492L14.8442 4.00434C14.9798 3.84128 15.0265 3.62189 14.969 3.41772Z" fill="white"/>
<path d="M21.355 10.399H16.156C15.8001 10.399 15.5115 10.6875 15.5115 11.0435V12.977H11C10.6441 12.977 10.3555 13.2655 10.3555 13.6215V15.555H5.84398C5.48804 15.555 5.19947 15.8435 5.19947 16.1995V18.133H0.644991C0.289053 18.133 0.000488281 18.4216 0.000488281 18.7775V21.3555C0.000488281 21.7114 0.289053 22 0.644991 22H21.355C21.7109 22 21.9995 21.7114 21.9995 21.3555V11.0435C21.9995 10.6875 21.7109 10.399 21.355 10.399ZM1.28949 19.422H5.19947V20.711H1.28949V19.422ZM6.48848 16.844H10.3555V20.711H6.48848V16.844ZM11.6445 14.266H15.5115V20.711H11.6445V14.266ZM20.7105 20.711H16.8005V11.688H20.7105V20.711Z" fill="white"/>
<path d="M12.9335 8.46546C12.9335 8.82083 12.6444 9.10996 12.289 9.10996H9.71099C8.64485 9.10996 7.77748 9.97733 7.77748 11.0435C7.77748 11.3988 7.48835 11.688 7.13298 11.688H4.55497C3.48883 11.688 2.62146 12.5553 2.62146 13.6215C2.62146 13.9774 2.91003 14.266 3.26596 14.266C3.6219 14.266 3.91046 13.9774 3.91046 13.6215C3.91046 13.2661 4.19959 12.977 4.55497 12.977H7.13298C8.19911 12.977 9.06648 12.1096 9.06648 11.0435C9.06648 10.6881 9.35561 10.399 9.71099 10.399H12.289C13.3551 10.399 14.2225 9.53159 14.2225 8.46546C14.2225 8.10952 13.9339 7.82095 13.578 7.82095C13.2221 7.82095 12.9335 8.10952 12.9335 8.46546Z" fill="white"/>
</svg>
