<svg width="37" height="37" viewBox="0 0 37 37" fill="none" xmlns="http://www.w3.org/2000/svg">
<g clip-path="url(#clip0)">
<path d="M35.3177 18.6552V13.4549C35.3177 11.6915 33.9499 10.2575 32.2218 10.1184L27.3924 1.68318C26.9449 0.903038 26.2222 0.345445 25.3575 0.11391C24.4969 -0.116049 23.5969 0.00472492 22.8266 0.453054L6.27124 10.0913H3.36361C1.50857 10.0913 0 11.5998 0 13.4549V33.6364C0 35.4914 1.50849 37 3.36361 37H31.9541C33.8091 37 35.3177 35.4915 35.3177 33.6364V28.4361C36.2944 28.0878 36.9994 27.1632 36.9994 26.0683V21.023C36.9994 19.9281 36.2944 19.0035 35.3177 18.6552ZM30.2676 10.0913H22.9383L28.4353 6.89095L30.2676 10.0913ZM27.5998 5.4315L19.5958 10.0913H16.2759L26.7696 3.98166L27.5998 5.4315ZM23.6732 1.90651C24.0534 1.68397 24.4976 1.62484 24.9222 1.7382C25.3517 1.85314 25.7098 2.13072 25.9323 2.51913L25.9341 2.52221L12.9336 10.0913H9.6138L23.6732 1.90651ZM33.6358 33.6364C33.6358 34.5635 32.8812 35.3181 31.9541 35.3181H3.36361C2.43652 35.3181 1.68184 34.5635 1.68184 33.6364V13.4549C1.68184 12.5278 2.43652 11.7731 3.36361 11.7731H31.9541C32.8812 11.7731 33.6358 12.5278 33.6358 13.4549V18.5003H28.5905C25.8083 18.5003 23.5451 20.7634 23.5451 23.5456C23.5451 26.3279 25.8083 28.591 28.5905 28.591H33.6358V33.6364ZM35.3177 26.0683C35.3177 26.5323 34.9408 26.9093 34.4768 26.9093H28.5905C26.7354 26.9093 25.2269 25.4008 25.2269 23.5456C25.2269 21.6906 26.7353 20.182 28.5905 20.182H34.4768C34.9407 20.182 35.3177 20.5589 35.3177 21.023V26.0683Z" fill="white"/>
<path d="M28.59 21.8639C27.6629 21.8639 26.9082 22.6186 26.9082 23.5457C26.9082 24.4727 27.6629 25.2274 28.59 25.2274C29.5171 25.2274 30.2717 24.4727 30.2717 23.5457C30.2718 22.6186 29.5171 21.8639 28.59 21.8639Z" fill="white"/>
</g>
<defs>
<clipPath id="clip0">
<rect width="37" height="37" fill="white"/>
</clipPath>
</defs>
</svg>
