<svg width="40" height="40" viewBox="0 0 40 40" fill="none" xmlns="http://www.w3.org/2000/svg">
<path d="M12.0129 19.7533C11.935 21.1071 12.9771 22.2661 14.3309 22.344C14.3796 22.344 14.4283 22.344 14.477 22.344C15.8405 22.344 16.941 21.2434 16.9313 19.8799C16.9313 18.5164 15.8307 17.4159 14.4672 17.4256C13.1621 17.4256 12.0811 18.4482 12.0129 19.7533Z" fill="#0033AD"/>
<path d="M2.8384 19.1202C2.40013 19.0909 2.0203 19.4318 2.00082 19.8701C1.98134 20.3084 2.31248 20.6882 2.75075 20.7077C3.18902 20.7369 3.55912 20.396 3.58833 19.9578C3.61755 19.5195 3.27667 19.1494 2.8384 19.1202Z" fill="#0033AD"/>
<path d="M11.8571 5.4753C12.2467 5.28051 12.4025 4.79354 12.2077 4.40396C12.0129 4.01438 11.526 3.85855 11.1364 4.05334C10.7468 4.24813 10.591 4.72536 10.7858 5.11494C10.9806 5.51425 11.4578 5.67982 11.8571 5.4753C11.8474 5.4753 11.8571 5.4753 11.8571 5.4753Z" fill="#0033AD"/>
<path d="M14.3505 9.82877C14.9543 9.52685 15.1978 8.78665 14.8959 8.1828C14.594 7.57896 13.8538 7.33547 13.2499 7.63739C12.6461 7.93932 12.4026 8.67951 12.7045 9.28336C13.0065 9.88721 13.7466 10.1307 14.3505 9.82877Z" fill="#0033AD"/>
<path d="M5.95507 12.8187C6.42256 13.1206 7.04588 12.994 7.35754 12.5265C7.65946 12.059 7.53285 11.4357 7.06536 11.124C6.59787 10.8221 5.97455 10.9487 5.66289 11.4162C5.35123 11.8837 5.48758 12.5168 5.95507 12.8187Z" fill="#0033AD"/>
<path d="M7.44511 18.6819C6.76335 18.6429 6.18873 19.1591 6.14977 19.8409C6.11082 20.5226 6.627 21.0972 7.30876 21.1362C7.99052 21.1752 8.56514 20.659 8.6041 19.9772C8.64306 19.3052 8.12687 18.7208 7.44511 18.6819Z" fill="#0033AD"/>
<path d="M6.09154 26.9312C5.59483 27.1845 5.3903 27.7883 5.64353 28.2948C5.89675 28.7915 6.5006 28.996 7.00705 28.7428C7.50376 28.4896 7.70829 27.8857 7.45507 27.3793C7.20184 26.8825 6.58825 26.678 6.09154 26.9312Z" fill="#0033AD"/>
<path d="M10.8636 16.1399C11.5356 16.5781 12.4317 16.3931 12.8602 15.7211C13.2985 15.049 13.1134 14.153 12.4414 13.7245C11.7694 13.2862 10.8733 13.4713 10.4448 14.1433C10.0065 14.8056 10.1916 15.7016 10.8636 16.1399Z" fill="#0033AD"/>
<path d="M26.0085 9.73147C26.5734 10.1016 27.3428 9.94574 27.7129 9.38085C28.083 8.81596 27.9272 8.04655 27.3623 7.67645C26.7974 7.30635 26.028 7.46219 25.6579 8.02707C25.278 8.6017 25.4339 9.36137 26.0085 9.73147Z" fill="#0033AD"/>
<path d="M28.5213 5.39729C28.8914 5.64077 29.3784 5.53364 29.6219 5.16354C29.8653 4.79344 29.7582 4.30647 29.3881 4.06298C29.018 3.8195 28.5311 3.92663 28.2876 4.28699C28.0538 4.65709 28.161 5.1538 28.5213 5.39729Z" fill="#0033AD"/>
<path d="M26.1935 17.4061C24.8398 17.3282 23.671 18.3703 23.6029 19.7241C23.5249 21.0778 24.5671 22.2466 25.9208 22.3147C25.9695 22.3147 26.0182 22.3147 26.0572 22.3147C27.411 22.3147 28.5115 21.2142 28.5115 19.8507C28.5213 18.5553 27.4986 17.4743 26.1935 17.4061Z" fill="#0033AD"/>
<path d="M15.1589 15.9647C15.5777 16.7925 16.425 17.3185 17.36 17.3185C18.7138 17.3185 19.8143 16.2179 19.8143 14.8544C19.8143 14.4745 19.7267 14.0947 19.5514 13.7441C18.9378 12.5267 17.4574 12.0397 16.2497 12.6533C15.0323 13.2766 14.5453 14.757 15.1589 15.9647Z" fill="#0033AD"/>
<path d="M34.4331 12.8188C34.9298 12.5656 35.1246 11.952 34.8714 11.4553C34.6182 10.9586 34.0046 10.7638 33.5079 11.017C33.0112 11.2702 32.8164 11.8741 33.0599 12.3708C33.3229 12.8675 33.9267 13.072 34.4331 12.8188Z" fill="#0033AD"/>
<path d="M28.2 13.5979C27.489 13.9583 27.1968 14.8251 27.5572 15.5361C27.9175 16.2471 28.7843 16.5392 29.4953 16.1789C30.2063 15.8185 30.4984 14.9517 30.1381 14.2407C29.7777 13.5298 28.9109 13.2473 28.2 13.5979Z" fill="#0033AD"/>
<path d="M20.1649 5.02723C20.72 5.05645 21.1972 4.62792 21.2362 4.07277C21.2752 3.51763 20.8369 3.0404 20.2817 3.00144C19.7266 2.97222 19.2494 3.39101 19.2104 3.94616C19.1812 4.51104 19.6097 4.98827 20.1649 5.02723Z" fill="#0033AD"/>
<path d="M20.1551 11.3872C20.9537 11.4359 21.6355 10.8223 21.6744 10.0236C21.7231 9.22501 21.1096 8.54325 20.3109 8.5043C19.5123 8.4556 18.8305 9.06918 18.7916 9.86781C18.7526 10.6664 19.3565 11.3482 20.1551 11.3872Z" fill="#0033AD"/>
<path d="M12.3247 26.152C13.0356 25.7917 13.3278 24.9249 12.9675 24.2139C12.6071 23.5029 11.7403 23.2107 11.0293 23.5711C10.3183 23.9314 10.0262 24.7983 10.3865 25.5092C10.7469 26.2202 11.6137 26.5124 12.3247 26.152Z" fill="#0033AD"/>
<path d="M21.0901 13.5004C20.3499 14.6399 20.6616 16.1593 21.8011 16.8995C22.9406 17.6397 24.4599 17.328 25.2001 16.1885C25.9403 15.049 25.6286 13.5297 24.4891 12.7895C24.0898 12.5265 23.6223 12.3901 23.1451 12.3901C22.3173 12.3901 21.5478 12.8089 21.0901 13.5004Z" fill="#0033AD"/>
<path d="M25.3657 23.7855C24.7521 22.568 23.2717 22.0811 22.064 22.6946C20.8466 23.3082 20.3596 24.7886 20.9732 25.9963C21.5868 27.2137 23.0672 27.7007 24.2749 27.0871C25.4826 26.4833 25.9793 25.0224 25.3754 23.8049C25.3754 23.7952 25.3755 23.7952 25.3657 23.7855Z" fill="#0033AD"/>
<path d="M29.6609 23.6101C28.9889 23.1718 28.0928 23.3569 27.6643 24.0289C27.226 24.7009 27.4111 25.597 28.0831 26.0255C28.7551 26.4638 29.6511 26.2787 30.0797 25.6067C30.5179 24.9444 30.3329 24.0484 29.6609 23.6101Z" fill="#0033AD"/>
<path d="M34.3747 19.9188C34.4137 19.237 33.8975 18.6624 33.2157 18.6234C32.534 18.5844 31.9594 19.1006 31.9204 19.7824C31.8814 20.4642 32.3976 21.0388 33.0794 21.0777C33.7514 21.1167 34.3358 20.5908 34.3747 19.9188Z" fill="#0033AD"/>
<path d="M37.7738 19.0423C37.3356 19.0131 36.9557 19.3539 36.9362 19.7922C36.9168 20.2305 37.2479 20.6103 37.6862 20.6298C38.1244 20.659 38.4945 20.3181 38.5238 19.8799C38.5432 19.4416 38.2121 19.0715 37.7738 19.0423Z" fill="#0033AD"/>
<path d="M34.5695 26.9313C34.102 26.6294 33.4787 26.756 33.167 27.2235C32.8651 27.691 32.9917 28.3143 33.4592 28.626C33.9267 28.9279 34.55 28.8013 34.8617 28.3338C35.1733 27.8663 35.037 27.2332 34.5695 26.9313Z" fill="#0033AD"/>
<path d="M11.9935 34.3527C11.6234 34.1092 11.1364 34.2163 10.8929 34.5767C10.6495 34.9468 10.7566 35.4338 11.1169 35.6772C11.487 35.9207 11.974 35.8136 12.2175 35.4532C12.4707 35.0929 12.3636 34.5961 11.9935 34.3527Z" fill="#0033AD"/>
<path d="M28.6674 34.2749C28.2778 34.4697 28.122 34.9567 28.3168 35.3462C28.5116 35.7358 28.9985 35.8916 29.3881 35.6968C29.7777 35.5021 29.9336 35.0248 29.7388 34.6353C29.544 34.2359 29.0667 34.0704 28.6674 34.2749C28.6771 34.2749 28.6674 34.2749 28.6674 34.2749Z" fill="#0033AD"/>
<path d="M19.4344 26.2495C20.1746 25.11 19.8629 23.5906 18.7234 22.8407C17.5839 22.1005 16.0645 22.4122 15.3146 23.5517C14.5647 24.6912 14.8861 26.2105 16.0256 26.9605C16.4249 27.2234 16.8924 27.3598 17.3696 27.3598C18.2072 27.3695 18.9766 26.9507 19.4344 26.2495Z" fill="#0033AD"/>
<path d="M14.516 30.0186C13.9511 29.6485 13.1817 29.8043 12.8116 30.3692C12.4415 30.9341 12.5973 31.7035 13.1622 32.0736C13.7271 32.4437 14.4965 32.2879 14.8666 31.723C15.2464 31.1581 15.0906 30.3887 14.516 30.0186Z" fill="#0033AD"/>
<path d="M20.2525 34.7228C19.6973 34.6936 19.2201 35.1222 19.1811 35.6773C19.1422 36.2324 19.5804 36.7097 20.1356 36.7486C20.6907 36.7779 21.168 36.3591 21.2069 35.8039C21.2361 35.239 20.8076 34.7618 20.2525 34.7228Z" fill="#0033AD"/>
<path d="M20.2622 28.3629C19.4635 28.3142 18.7818 28.9278 18.7428 29.7265C18.6941 30.5251 19.3077 31.2068 20.1063 31.2458C20.905 31.2848 21.5867 30.6809 21.6257 29.8823C21.6744 29.0934 21.0608 28.4019 20.2622 28.3629Z" fill="#0033AD"/>
<path d="M26.1741 29.9211C25.5703 30.2328 25.3268 30.973 25.6385 31.5768C25.9501 32.1807 26.6903 32.4241 27.2942 32.1125C27.898 31.8106 28.1415 31.0704 27.8396 30.4665C27.5279 29.8627 26.7877 29.6094 26.1741 29.9211Z" fill="#0033AD"/>
</svg>
