<svg width="32" height="32" viewBox="0 0 32 32" fill="none" xmlns="http://www.w3.org/2000/svg">
<path d="M15.9981 29.6C23.5083 29.6 29.5965 23.5111 29.5965 16C29.5965 8.48895 23.5083 2.40002 15.9981 2.40002C8.48793 2.40002 2.39972 8.48895 2.39972 16C2.39972 23.5111 8.48793 29.6 15.9981 29.6Z" fill="#26A17B"/>
<path d="M17.3064 16.9873C17.2175 16.9873 16.7192 17.0224 15.616 17.0224C14.744 17.0224 14.1212 17.0048 13.9077 16.9873C10.5267 16.847 8.01771 16.2685 8.01771 15.5672C8.01771 14.866 10.5445 14.2874 13.9077 14.1472V16.4088C14.1212 16.4263 14.7618 16.4613 15.6338 16.4613C16.6836 16.4613 17.1997 16.4263 17.3064 16.4088V14.1472C20.6696 14.2874 23.1964 14.866 23.1964 15.5672C23.1964 16.251 20.6696 16.8295 17.3064 16.9873ZM17.3064 13.9017V11.8856H22.0042V8.79999H9.19214V11.8856H13.8899V13.9017C10.0641 14.077 7.19916 14.8134 7.19916 15.7075C7.19916 16.6016 10.0819 17.3379 13.8899 17.5133V24H17.2887V17.5133C21.1323 17.3555 23.9972 16.6191 23.9972 15.725C23.9972 14.8309 21.1323 14.077 17.3064 13.9017Z" fill="white"/>
</svg>
