<svg xmlns="http://www.w3.org/2000/svg" width="18" height="17"><path fill="#ffffff" d="M2.171 16.692a.417.417 0 01-.416-.417V8.572h-.672a.417.417 0 01-.416-.417V4.347c0-.23.187-.417.416-.417H4.09l-.13-.244A2.051 2.051 0 015.765.666c1.585 0 2.56 1.206 3.097 2.217l.147.275.146-.275C9.694 1.872 10.668.667 12.254.667c.546 0 1.06.213 1.448.6a2.054 2.054 0 01.358 2.418l-.13.245h2.987a.414.414 0 01.416.417v3.808c0 .23-.187.417-.416.417h-.652v7.703c0 .23-.187.417-.417.417zm7.255-.833h6.005V8.572H9.426zm-6.838 0h5.997V8.572H2.588zm6.838-8.12H16.5V4.763H9.426zm-7.926 0h7.093V4.763H1.5zm8.187-4.041l-.102.232h2.696a1.195 1.195 0 001.188-1.215c0-.658-.556-1.215-1.215-1.215-.6 0-1.734.286-2.567 2.198zM4.55 2.715c0 .677.521 1.21 1.187 1.215h2.695l-.102-.233C7.49 1.786 6.363 1.5 5.765 1.5c-.658 0-1.215.557-1.215 1.215z"/></svg>