<svg xmlns="http://www.w3.org/2000/svg" width="98" height="48"><path fill="#a9c" d="M0 31.514c.02-.112.049-.22.049-.332.005-2.075.01-4.149 0-6.223-.005-.899.225-1.704.858-2.363.568-.595 1.288-.893 2.092-1.025.544-.088 1.093-.17 1.636-.273.437-.083.579-.264.579-.703 0-1.889-.005-3.773 0-5.662.02-4.735 3.312-9.445 8.609-10.48.69-.136 1.401-.185 2.107-.249.24-.02.314-.087.314-.331-.015-1.206 0-2.407-.01-3.612 0-.205.063-.274.264-.26.226.016.456.01.686 0 .152-.004.211.055.196.201-.005.059 0 .112 0 .17v47.269c0 .36 0 .36-.352.36h-.466c-.323 0-.323 0-.323-.311 0-1.187-.01-2.378.005-3.564.004-.253-.084-.317-.324-.312-.784.01-1.568.02-2.352-.015-1.244-.058-2.49-.131-3.734-.234a59.858 59.858 0 01-3.229-.356c-1.186-.161-2.362-.381-3.542-.557-.706-.102-1.368-.302-1.916-.78C.47 41.275.078 40.523.069 39.63c-.025-2.475-.01-4.95-.02-7.42 0-.116-.034-.233-.049-.35v-.347zm1.416.6c0 2.382-.005 4.769 0 7.15 0 1.075.549 1.787 1.593 1.963 1.69.288 3.385.566 5.086.781 1.225.156 2.464.23 3.7.288 1.386.068 2.773.078 4.16.122.24.01.279-.083.279-.293-.005-1.84-.01-3.675 0-5.515 0-.245-.074-.303-.314-.337a10.815 10.815 0 01-1.578-.298c-.661-.185-.867-.64-.637-1.284.226-.634.451-1.269.686-1.898.093-.25.079-.469-.073-.689-.363-.517-.47-1.093-.348-1.713.181-.937 1.039-1.738 1.955-1.777.26-.01.304-.102.304-.331-.01-2.075-.005-4.15-.005-6.224 0-.322 0-.332-.314-.322-1.626.064-3.258.117-4.885.2-.838.044-1.676.117-2.509.215a88.095 88.095 0 00-3.195.425 39.35 39.35 0 00-2.499.444c-.74.16-1.22.63-1.362 1.396a3.657 3.657 0 00-.059.654c.015 2.343.015 4.695.015 7.043zM6.65 20.985c.98-.112 1.906-.229 2.837-.322.236-.024.29-.097.29-.322a370.45 370.45 0 010-5.271 6.615 6.615 0 01.436-2.382c.916-2.343 3.224-3.93 5.747-3.95.211 0 .28-.053.28-.272-.01-.879-.01-1.758 0-2.636 0-.176-.035-.283-.24-.259-.736.093-1.48.117-2.2.278a9.357 9.357 0 00-7.2 9.104c-.014 1.771-.005 3.543 0 5.32.005.234.03.459.05.712zm9.59-5.735v-2.294c0-.844-.01-1.689.005-2.538.004-.259-.084-.332-.324-.303-.215.03-.44.03-.656.069-2.446.439-4.102 2.406-4.107 4.88a776.703 776.703 0 000 4.78c0 .175.054.35.079.526.02.152.112.166.245.161.887-.048 1.774-.097 2.66-.126.603-.02 1.206-.02 1.813-.015.22.005.294-.068.29-.293-.01-1.61-.005-3.231-.005-4.847zm0 14.228c-.069-.014-.103-.024-.133-.024-.558.064-.965.342-1.176.864-.205.517-.147 1.015.27 1.415.299.284.358.572.2.957-.288.732-.533 1.48-.798 2.221-.054.141-.024.234.132.264.387.078.78.166 1.167.239.303.053.333.02.333-.293v-5.364c.005-.083.005-.171.005-.279zm70.399 12.036c-3.43-.014-6.517-1.015-9.212-3.143-.441-.347-.833-.752-1.255-1.128-.112-.097-.117-.185-.039-.312.387-.62.764-1.25 1.152-1.874.485-.781 1.2-.937 1.955-.405.583.405 1.127.859 1.715 1.259 1.225.825 2.543 1.454 4.023 1.694.935.15 1.881.166 2.827.083 1.043-.093 2.038-.352 2.954-.864 1.671-.933 2.622-2.363 2.906-4.247.137-.913.132-1.816-.176-2.694-.378-1.079-1.171-1.82-2.112-2.421-1.054-.669-2.23-1.07-3.41-1.44-1.794-.561-3.602-1.089-5.327-1.855-2.102-.932-3.724-2.352-4.581-4.53-.368-.932-.49-1.908-.54-2.904a8.907 8.907 0 01.888-4.412c1.127-2.319 2.979-3.822 5.375-4.705 1.132-.415 2.308-.6 3.513-.65 2.416-.102 4.739.269 6.929 1.333a11.84 11.84 0 012.89 1.986c.104.093.123.162.06.288-.343.655-.667 1.323-1.015 1.972-.2.376-.47.684-.945.723-.348.03-.632-.117-.907-.303-.446-.298-.882-.615-1.342-.893-1.098-.654-2.264-1.152-3.553-1.298-1.74-.196-3.44-.098-5.022.746-1.554.825-2.43 2.114-2.622 3.866-.118 1.07.025 2.075.676 2.963.476.65 1.083 1.142 1.774 1.552 1.058.625 2.205 1.035 3.366 1.42 1.755.581 3.519 1.143 5.209 1.904 1.455.654 2.759 1.513 3.734 2.797a7.016 7.016 0 011.43 3.724c.182 2.114-.102 4.149-1.048 6.067-1.284 2.602-3.405 4.222-6.14 5.096a11.989 11.989 0 01-3.214.547c-.319.014-.617.039-.916.058zm-40.854-17.18V7.987c0-.332 0-.332.333-.332 4.082 0 8.164-.014 12.25.005 3.043.01 5.91.713 8.517 2.324 2.798 1.723 4.689 4.183 5.865 7.219.568 1.459.906 2.972 1.083 4.53.132 1.166.176 2.332.127 3.504-.122 3.26-.887 6.34-2.68 9.113-2.043 3.153-4.944 5.125-8.556 6.086a15.617 15.617 0 01-4.003.552c-4.238.02-8.472.024-12.71.039-.25 0-.23-.127-.23-.293.004-5.467.004-10.934.004-16.4zm2.411-.03V38.7c0 .43-.064.4.412.4 3.16 0 6.32.005 9.481 0a14.94 14.94 0 003.89-.488c3.641-.972 6.297-3.144 7.939-6.531 1.043-2.148 1.49-4.437 1.582-6.8.05-1.312.005-2.63-.18-3.938-.231-1.65-.672-3.241-1.392-4.745-1.142-2.382-2.838-4.246-5.194-5.496-2.117-1.117-4.396-1.547-6.762-1.557-3.141-.014-6.287-.005-9.433-.005-.348 0-.348 0-.348.342.005 4.813.005 9.616.005 14.423zm-12.483-.681c.137.034.274.073.412.102 1.283.283 2.504.718 3.606 1.45 1.71 1.142 2.778 2.738 3.165 4.74.535 2.757.005 5.295-1.749 7.53-1.303 1.665-3.023 2.724-5.017 3.373-1.588.518-3.23.615-4.88.537-1.995-.092-3.877-.58-5.557-1.703-1.407-.937-2.47-2.177-3.146-3.715-.407-.927-.72-1.893-1.078-2.845-.064-.166-.025-.259.147-.313.377-.122.745-.312 1.132-.366.529-.078.779.122.95.63.353 1.05.765 2.07 1.387 2.997 1.245 1.86 3.009 2.914 5.19 3.3 1.685.297 3.37.292 4.997-.26 2.808-.951 4.763-2.776 5.43-5.73.465-2.064.17-4.046-1.133-5.788-.76-1.016-1.822-1.63-2.994-2.075-1.078-.41-2.2-.649-3.351-.732a45.596 45.596 0 00-1.833-.093c-.161-.005-.21-.058-.206-.214.01-.381.01-.767 0-1.148-.004-.17.054-.22.226-.224 1.465-.068 2.9-.269 4.273-.815 1.347-.537 2.508-1.323 3.322-2.548.906-1.367 1.161-2.885 1.024-4.49-.083-.967-.319-1.885-.789-2.739-.902-1.63-2.283-2.621-4.077-3.055-2.077-.503-4.12-.435-6.086.493-2.16 1.02-3.44 2.772-4.13 4.998-.069.224-.128.454-.186.683-.187.727-.51.937-1.25.8-.265-.048-.53-.102-.794-.131-.166-.02-.215-.093-.186-.24.54-3.153 1.94-5.759 4.802-7.414a9.594 9.594 0 013.88-1.244c.785-.078 1.584-.132 2.368-.088 2.39.132 4.59.805 6.355 2.509 1.215 1.171 1.95 2.606 2.21 4.275.245 1.577.181 3.124-.417 4.623-.862 2.152-2.47 3.548-4.586 4.407-.235.093-.47.176-.71.259-.23.078-.461.142-.696.215-.02.02-.02.034-.025.049z"/></svg>