<svg width="18" height="20" fill="none" xmlns="http://www.w3.org/2000/svg"><path fill-rule="evenodd" clip-rule="evenodd" d="M8.833 3.75A4.588 4.588 0 004.25 8.333v2.324a6.83 6.83 0 01-2.425 5.225.207.207 0 00-.075.16.21.21 0 00.208.208h13.75a.21.21 0 00.209-.208.206.206 0 00-.074-.159 6.832 6.832 0 01-2.426-5.226V8.333A4.588 4.588 0 008.833 3.75zM8.208.625v1.908A5.842 5.842 0 003 8.333v2.324a5.584 5.584 0 01-1.99 4.276 1.458 1.458 0 00.948 2.567h3.813A3.13 3.13 0 008.833 20a3.13 3.13 0 003.063-2.5h3.812a1.46 1.46 0 00.94-2.572 5.583 5.583 0 01-1.981-4.271V8.333a5.842 5.842 0 00-5.209-5.8V.625a.625.625 0 00-1.25 0zm.625 18.125c-.815 0-1.51-.522-1.768-1.25h3.536a1.878 1.878 0 01-1.768 1.25z" fill="#fff"/></svg>