<svg xmlns="http://www.w3.org/2000/svg" width="20" height="18"><defs><linearGradient id="a" x1=".01" x2="19.97" y1=".01" y2="17.97" gradientUnits="userSpaceOnUse"><stop offset="0" stop-color="#ca0023"/><stop offset="1" stop-color="#ff6f07"/></linearGradient></defs><path fill="url(#a)" d="M10.909 6.558c.067.151.091.302.091.472-.024.471-.067.942-.091 1.414-.044.728-.091 1.456-.135 2.183-.023.238-.023.453-.023.687a.725.725 0 01-.741.686c-.404 0-.717-.28-.74-.664l-.203-3.382c-.023-.298-.043-.6-.067-.898 0-.494.293-.901.764-1.03.472-.105.943.11 1.145.532zM16.422 18H3.562A3.53 3.53 0 01.49 16.264a3.437 3.437 0 01-.012-3.518l6.446-10.99A3.52 3.52 0 0110.004 0c1.29 0 2.442.656 3.08 1.76l6.438 10.978a3.41 3.41 0 01-.009 3.497A3.55 3.55 0 0116.422 18zm1.706-4.465L11.685 2.55a1.922 1.922 0 00-1.681-.963c-.707 0-1.332.356-1.682.959L1.876 13.531a1.89 1.89 0 00.004 1.931c.35.595.978.947 1.677.947h12.86c.708 0 1.34-.36 1.698-.967a1.865 1.865 0 00.013-1.907zm-7.129.489c.024.52-.457.976-.987.976C9.462 15 9 14.544 9 14s.461-1 1.012-1a.982.982 0 01.987 1.024z"/></svg>