<svg width="166" height="36" fill="none" xmlns="http://www.w3.org/2000/svg"><path d="M5.568 17v-6.432h6.648V17h4.128V.992h-4.128v5.976H5.568V.992H1.44V17h4.128zm20.908.288c2.464 0 4.504-.776 6.12-2.328 1.616-1.552 2.424-3.536 2.424-5.952s-.808-4.4-2.424-5.952C30.98 1.504 28.94.728 26.476.728s-4.508.776-6.132 2.328c-1.624 1.552-2.436 3.536-2.436 5.952s.812 4.4 2.436 5.952c1.624 1.552 3.668 2.328 6.132 2.328zm0-3.648c-1.312 0-2.368-.44-3.168-1.32-.8-.88-1.2-1.984-1.2-3.312 0-1.328.4-2.432 1.2-3.312.8-.88 1.856-1.32 3.168-1.32 1.296 0 2.344.44 3.144 1.32.8.88 1.2 1.984 1.2 3.312 0 1.328-.4 2.432-1.2 3.312-.8.88-1.848 1.32-3.144 1.32zm17.716 3.648c2.48 0 4.356-.616 5.628-1.848 1.272-1.232 1.908-2.88 1.908-4.944V.992h-4.176v9.384c0 .976-.292 1.764-.876 2.364-.584.6-1.412.9-2.484.9-1.088 0-1.924-.3-2.508-.9-.584-.6-.876-1.388-.876-2.364V.992h-4.2v9.528c0 2.048.64 3.688 1.92 4.92 1.28 1.232 3.168 1.848 5.664 1.848zm15.868 0c2.112 0 3.752-.484 4.92-1.452 1.168-.968 1.752-2.268 1.752-3.9 0-.928-.224-1.728-.672-2.4-.448-.672-1.008-1.168-1.68-1.488a15.116 15.116 0 00-2.172-.828c-.776-.232-1.5-.404-2.172-.516-.672-.112-1.232-.276-1.68-.492-.448-.216-.672-.476-.672-.78 0-.768.576-1.152 1.728-1.152 1.776 0 3.336.552 4.68 1.656l2.256-2.952C64.62 1.496 62.452.752 59.844.752c-1.968 0-3.524.496-4.668 1.488-1.144.992-1.716 2.192-1.716 3.6 0 .96.224 1.784.672 2.472.448.688 1.008 1.188 1.68 1.5.672.312 1.4.584 2.184.816.784.232 1.512.4 2.184.504.672.104 1.232.264 1.68.48.448.216.672.492.672.828 0 .384-.204.7-.612.948-.408.248-.964.372-1.668.372-2 0-3.704-.704-5.112-2.112l-2.184 3.096c1.776 1.696 4.144 2.544 7.104 2.544zM79.888 17v-3.6H72.28v-2.712h7.44v-3.6h-7.44V4.592h7.608v-3.6H68.152V17h11.736z" fill="#fff"/><path d="M5.568 17v-6.432h6.648V17h4.128V.992h-4.128v5.976H5.568V.992H1.44V17h4.128zm20.908.288c2.464 0 4.504-.776 6.12-2.328 1.616-1.552 2.424-3.536 2.424-5.952s-.808-4.4-2.424-5.952C30.98 1.504 28.94.728 26.476.728s-4.508.776-6.132 2.328c-1.624 1.552-2.436 3.536-2.436 5.952s.812 4.4 2.436 5.952c1.624 1.552 3.668 2.328 6.132 2.328zm0-3.648c-1.312 0-2.368-.44-3.168-1.32-.8-.88-1.2-1.984-1.2-3.312 0-1.328.4-2.432 1.2-3.312.8-.88 1.856-1.32 3.168-1.32 1.296 0 2.344.44 3.144 1.32.8.88 1.2 1.984 1.2 3.312 0 1.328-.4 2.432-1.2 3.312-.8.88-1.848 1.32-3.144 1.32zm17.716 3.648c2.48 0 4.356-.616 5.628-1.848 1.272-1.232 1.908-2.88 1.908-4.944V.992h-4.176v9.384c0 .976-.292 1.764-.876 2.364-.584.6-1.412.9-2.484.9-1.088 0-1.924-.3-2.508-.9-.584-.6-.876-1.388-.876-2.364V.992h-4.2v9.528c0 2.048.64 3.688 1.92 4.92 1.28 1.232 3.168 1.848 5.664 1.848zm15.868 0c2.112 0 3.752-.484 4.92-1.452 1.168-.968 1.752-2.268 1.752-3.9 0-.928-.224-1.728-.672-2.4-.448-.672-1.008-1.168-1.68-1.488a15.116 15.116 0 00-2.172-.828c-.776-.232-1.5-.404-2.172-.516-.672-.112-1.232-.276-1.68-.492-.448-.216-.672-.476-.672-.78 0-.768.576-1.152 1.728-1.152 1.776 0 3.336.552 4.68 1.656l2.256-2.952C64.62 1.496 62.452.752 59.844.752c-1.968 0-3.524.496-4.668 1.488-1.144.992-1.716 2.192-1.716 3.6 0 .96.224 1.784.672 2.472.448.688 1.008 1.188 1.68 1.5.672.312 1.4.584 2.184.816.784.232 1.512.4 2.184.504.672.104 1.232.264 1.68.48.448.216.672.492.672.828 0 .384-.204.7-.612.948-.408.248-.964.372-1.668.372-2 0-3.704-.704-5.112-2.112l-2.184 3.096c1.776 1.696 4.144 2.544 7.104 2.544zM79.888 17v-3.6H72.28v-2.712h7.44v-3.6h-7.44V4.592h7.608v-3.6H68.152V17h11.736z" fill="url(#paint0_linear)"/><path d="M93.504 17.288c2.352 0 4.296-.952 5.832-2.856l-1.152-.72c-.512.704-1.184 1.268-2.016 1.692a5.786 5.786 0 01-2.664.636c-1.904 0-3.492-.66-4.764-1.98-1.272-1.32-1.908-3.004-1.908-5.052 0-2.064.636-3.752 1.908-5.064 1.272-1.312 2.86-1.968 4.764-1.968.944 0 1.832.212 2.664.636.832.424 1.504.988 2.016 1.692l1.152-.744C97.816 1.672 95.872.728 93.504.728c-2.304 0-4.232.772-5.784 2.316-1.552 1.544-2.328 3.532-2.328 5.964 0 2.432.776 4.42 2.328 5.964 1.552 1.544 3.48 2.316 5.784 2.316zm8.02-.288l1.584-3.936h8.472L113.164 17h1.584L108.196.992h-1.704L99.94 17h1.584zm9.6-5.184h-7.56l3.768-9.36 3.792 9.36zm10.036 5.472c1.968 0 3.408-.452 4.32-1.356.912-.904 1.368-1.964 1.368-3.18 0-.816-.176-1.516-.528-2.1a3.736 3.736 0 00-1.38-1.356 11.12 11.12 0 00-1.872-.828c-.68-.232-1.36-.44-2.04-.624a19.907 19.907 0 01-1.872-.6c-.568-.216-1.028-.52-1.38-.912a2.03 2.03 0 01-.528-1.404c0-.864.356-1.572 1.068-2.124.712-.552 1.604-.828 2.676-.828 1.936 0 3.464.672 4.584 2.016l.912-1.008C125.16 1.48 123.352.728 121.064.728c-1.488 0-2.736.392-3.744 1.176-1.008.784-1.512 1.816-1.512 3.096 0 .752.176 1.396.528 1.932.352.536.812.952 1.38 1.248.568.296 1.192.552 1.872.768.68.216 1.36.42 2.04.612.68.192 1.304.408 1.872.648.568.24 1.028.58 1.38 1.02.352.44.528.98.528 1.62 0 .832-.332 1.572-.996 2.22-.664.648-1.74.972-3.228.972-2 0-3.664-.776-4.992-2.328l-.888 1.032c1.392 1.696 3.344 2.544 5.856 2.544zm9.844-.288V.992h-1.368V17h1.368zm4.852 0V3.248L145.936 17h1.344V.992h-1.368v13.56L135.88.992h-1.392V17h1.368zm22.084.288c2.304 0 4.176-.784 5.616-2.352 1.44-1.568 2.16-3.544 2.16-5.928s-.72-4.36-2.16-5.928c-1.44-1.568-3.312-2.352-5.616-2.352-2.32 0-4.196.784-5.628 2.352-1.432 1.568-2.148 3.544-2.148 5.928s.716 4.36 2.148 5.928c1.432 1.568 3.308 2.352 5.628 2.352zm0-1.248c-1.92 0-3.456-.66-4.608-1.98-1.152-1.32-1.728-3.004-1.728-5.052 0-2.064.576-3.752 1.728-5.064 1.152-1.312 2.688-1.968 4.608-1.968 1.904 0 3.436.656 4.596 1.968 1.16 1.312 1.74 3 1.74 5.064 0 2.048-.584 3.732-1.752 5.052-1.168 1.32-2.696 1.98-4.584 1.98zM2.64 35v-8.304H.876V35H2.64zm9.98 0v-6.924h2.1l.192-1.38H8.648v1.38h2.208V35h1.764zm9.416-5.004l.216-3.3h-1.584l.216 3.3h1.152zm9.056 5.196c.656 0 1.228-.11 1.716-.33.488-.22.86-.524 1.116-.912.256-.388.384-.838.384-1.35 0-.72-.204-1.274-.612-1.662-.408-.388-1.024-.714-1.848-.978a8.054 8.054 0 01-1.044-.384c-.232-.112-.394-.232-.486-.36a.823.823 0 01-.138-.492c0-.288.11-.51.33-.666.22-.156.514-.234.882-.234.336 0 .652.056.948.168.296.112.592.288.888.528l.84-.972a3.806 3.806 0 00-1.23-.786c-.444-.172-.966-.258-1.566-.258-.56 0-1.06.096-1.5.288-.44.192-.784.466-1.032.822a2.099 2.099 0 00-.372 1.23c0 .632.194 1.144.582 1.536.388.392 1.034.728 1.938 1.008.424.128.748.252.972.372.224.12.382.254.474.402.092.148.138.334.138.558 0 .36-.13.64-.39.84-.26.2-.606.3-1.038.3-.408 0-.784-.07-1.128-.21a3.689 3.689 0 01-.996-.618l-.9.996c.368.36.808.644 1.32.852.512.208 1.096.312 1.752.312zM51.664 35v-6.924h2.1l.192-1.38h-6.264v1.38H49.9V35h1.764zm9.956 0v-8.304h-1.764V35h1.764zm8.084 0l.18-3.336a30.612 30.612 0 000-3.432l1.5 5.88h1.668l1.404-5.868c-.008.168-.012.44-.012.816 0 .704.028 1.56.084 2.568l.18 3.372h1.728l-.636-8.304h-2.268l-1.284 5.724-1.368-5.724h-2.244L67.988 35h1.716zm18.068 0v-1.296h-3.216v-2.292h2.616V30.14h-2.616v-2.16h3l.192-1.284h-4.956V35h4.98zm17.5 0v-6.924h2.1l.192-1.38H101.3v1.38h2.208V35h1.764zm11.048.192c.76 0 1.416-.172 1.968-.516.552-.344.976-.842 1.272-1.494.296-.652.444-1.43.444-2.334 0-.92-.148-1.704-.444-2.352-.296-.648-.72-1.142-1.272-1.482-.552-.34-1.208-.51-1.968-.51-.752 0-1.406.174-1.962.522-.556.348-.984.848-1.284 1.5-.3.652-.45 1.426-.45 2.322 0 .912.148 1.694.444 2.346.296.652.722 1.148 1.278 1.488.556.34 1.214.51 1.974.51zm0-1.32c-.6 0-1.056-.24-1.368-.72-.312-.48-.468-1.248-.468-2.304 0-1.056.154-1.824.462-2.304.308-.48.766-.72 1.374-.72.608 0 1.064.238 1.368.714.304.476.456 1.246.456 2.31s-.152 1.834-.456 2.31c-.304.476-.76.714-1.368.714zM137.216 35l1.212-6.492L139.58 35h2.292l1.452-8.304h-1.668l-1.068 6.936-1.212-6.936h-1.86l-1.26 6.936-.948-6.936h-1.764l1.44 8.304h2.232zm13.916 0v-8.304h-1.764V35h1.764zm8.36 0v-3.228c0-.672-.022-1.258-.066-1.758-.044-.5-.102-1.034-.174-1.602l2.64 6.588h2.268v-8.304h-1.596v3.648c0 .896.08 1.88.24 2.952l-2.688-6.6h-2.22V35h1.596z" fill="#fff"/><defs><linearGradient id="paint0_linear" x1="1.485" y1="8.639" x2="76.409" y2="24.456" gradientUnits="userSpaceOnUse"><stop stop-color="#F60"/><stop offset="1" stop-color="#F90"/></linearGradient></defs></svg>