<svg width="20" height="20" viewBox="0 0 20 20" fill="none" xmlns="http://www.w3.org/2000/svg">
<path fill-rule="evenodd" clip-rule="evenodd" d="M18.1708 4.86055H17.922V2.37861C17.922 1.34277 17.1014 0.5 16.0928 0.5H2.82553C1.36147 0.5 0.15436 1.65008 0.015014 3.1167C0.0137449 3.12288 0.0125785 3.12541 0.011507 3.12773L0.0112764 3.12823C-0.000591749 3.15415 -0.00058555 3.18551 0.000383815 8.08943C0.00077072 10.0467 0.00131106 12.7803 0.00131106 16.5995C0.00131106 18.1989 1.26822 19.5 2.82549 19.5H18.1708C19.1794 19.5 20 18.6573 20 17.6214V6.73916C20 5.70332 19.1795 4.86055 18.1708 4.86055ZM2.82553 1.79041H16.0928C16.4086 1.79041 16.6656 2.05429 16.6656 2.37865V4.86059H2.82553C1.98556 4.86059 1.29795 4.17859 1.25962 3.3255C1.29791 2.47237 1.98553 1.79041 2.82553 1.79041ZM2.82553 18.2096H18.1708C18.4867 18.2096 18.7436 17.9458 18.7436 17.6214V15.3524H14.016C12.4059 15.3524 11.096 14.0072 11.096 12.3536C11.096 10.7001 12.4059 9.35482 14.016 9.35482H18.7436V6.73916C18.7436 6.4148 18.4867 6.15092 18.1708 6.15092H2.82553C2.24592 6.15092 1.7066 5.97071 1.25778 5.66195V16.5995C1.25778 17.4874 1.96106 18.2096 2.82553 18.2096ZM18.7436 14.0621H14.016C13.0987 14.0621 12.3524 13.2957 12.3524 12.3537C12.3524 11.4116 13.0987 10.6452 14.016 10.6452H18.7436V14.0621ZM14.2478 13.2887C14.7507 13.2887 15.1583 12.8701 15.1583 12.3537C15.1583 11.8373 14.7507 11.4186 14.2478 11.4186C13.745 11.4186 13.3374 11.8373 13.3374 12.3537C13.3374 12.8701 13.745 13.2887 14.2478 13.2887Z" fill="white"/>
</svg>
