<svg xmlns="http://www.w3.org/2000/svg" width="18" height="18"><defs><linearGradient id="a" x1=".01" x2="17.89" y1=".01" y2="17.89" gradientUnits="userSpaceOnUse"><stop offset="0" stop-color="#aece04"/><stop offset="1" stop-color="#3b8d00"/></linearGradient></defs><path fill="url(#a)" d="M18 9c0 4.963-4.037 9-9 9s-9-4.037-9-9 4.037-9 9-9 9 4.037 9 9zm-1.46 0c0-4.158-3.382-7.54-7.54-7.54-4.158 0-7.54 3.382-7.54 7.54 0 4.158 3.382 7.54 7.54 7.54 4.158 0 7.54-3.382 7.54-7.54zm-3.734-1.814L8.38 11.812a.593.593 0 01-.43.188.594.594 0 01-.446-.208L5.177 9.16a.737.737 0 01.011-.972.583.583 0 01.882.013l1.898 2.148 3.98-4.16a.583.583 0 01.88.026.737.737 0 01-.022.972z"/></svg>