<svg width="24" height="24" fill="none" xmlns="http://www.w3.org/2000/svg"><path fill-rule="evenodd" clip-rule="evenodd" d="M21.262 23.667c.214.214.499.331.803.331.305 0 .59-.117.804-.331l.8-.8c.213-.213.33-.498.33-.803 0-.303-.117-.589-.33-.803l-8.221-8.22a3.58 3.58 0 01-.9 1.506 3.581 3.581 0 01-1.506.9l8.22 8.22zm-10.304-8.22a3.58 3.58 0 01-1.504-.9 3.582 3.582 0 01-.901-1.506l-8.22 8.22a1.13 1.13 0 00-.332.803c0 .305.118.59.331.804l.8.8c.213.213.498.33.803.33.304 0 .59-.117.803-.331l8.22-8.22zm-2.405-4.49a3.58 3.58 0 01.9-1.504 3.58 3.58 0 011.507-.9L2.738.33A1.125 1.125 0 001.935 0c-.305 0-.59.118-.803.331l-.8.8A1.13 1.13 0 000 1.934c0 .304.118.589.332.803l8.22 8.22zm4.488-2.404L21.262.33a1.13 1.13 0 01.803-.331c.305 0 .59.118.804.331l.8.8c.213.213.331.498.331.803 0 .304-.118.59-.332.803l-8.22 8.221a3.58 3.58 0 00-.9-1.505 3.583 3.583 0 00-1.507-.9z" fill="#fff"/></svg>