<svg width="16" height="16" fill="none" xmlns="http://www.w3.org/2000/svg"><path fill-rule="evenodd" clip-rule="evenodd" d="M7.93 1.54c-3.606 0-6.54 2.904-6.54 6.473 0 3.57 2.934 6.473 6.54 6.473 3.607 0 6.54-2.904 6.54-6.473 0-3.57-2.933-6.473-6.54-6.473zm0 14.321c-4.373 0-7.93-3.52-7.93-7.848C0 3.686 3.557.165 7.93.165c4.373 0 7.93 3.52 7.93 7.848 0 4.328-3.557 7.848-7.93 7.848z" fill="#fff"/><path fill-rule="evenodd" clip-rule="evenodd" d="M7.844 8.92a.498.498 0 01-.5-.494v-4.99c0-.273.225-.495.5-.495.276 0 .5.222.5.495V7.93h3.806c.275 0 .5.222.5.495a.498.498 0 01-.5.494H7.844z" fill="#fff"/></svg>