<svg width="24" height="24" fill="none" xmlns="http://www.w3.org/2000/svg"><path d="M6.935 8.152a.654.654 0 01-.467-.194l-.45-.45-3.884-3.896.002 2.818a.678.678 0 01-.676.678H.74a.674.674 0 01-.676-.678V.696A.68.68 0 01.266.214.683.683 0 01.757 0h5.598c.373 0 .677.304.677.679v.723c0 .17-.075.342-.204.471a.67.67 0 01-.47.204l-2.807-.004 4.383 4.395c.004.01.01.019.016.029l.01.014.01.013a.674.674 0 01-.042.915l-.51.51a.68.68 0 01-.483.203zM17.531 23.95a.67.67 0 01-.478-.2.674.674 0 01-.198-.478l-.002-.726c0-.354.322-.677.675-.677l2.81.001-4.319-4.33a.695.695 0 01-.006-.969l.51-.512a.685.685 0 01.919-.034l.011.01.012.008a.349.349 0 00.033.02l4.375 4.387-.004-2.816a.7.7 0 01.673-.676h.722a.68.68 0 01.677.68l.003 5.617a.68.68 0 01-.19.475l-.026.026a.674.674 0 01-.48.196l-5.717-.002zm-16.836.006a.656.656 0 01-.479-.202l-.007-.007A.673.673 0 010 23.259v-5.614c0-.18.07-.35.198-.479a.67.67 0 01.479-.2l.721.001c.18 0 .35.071.478.2a.67.67 0 01.197.476l-.004 2.816 4.364-4.376a.569.569 0 00.03-.018l.012-.008.011-.01a.697.697 0 01.45-.164c.18 0 .348.069.472.193l.51.512a.668.668 0 01.192.486.713.713 0 01-.204.492l-.058.059-4.244 4.255 2.81-.002c.179 0 .348.07.475.198a.672.672 0 01.198.478v.725a.677.677 0 01-.675.677H.695zM16.999 8.155a.667.667 0 01-.477-.193l-.51-.513a.688.688 0 01-.032-.922l.01-.012.008-.012a.456.456 0 00.018-.03L20.4 2.078l-2.809.004a.674.674 0 01-.674-.677V.68c0-.18.07-.35.199-.479a.67.67 0 01.478-.199h5.598a.66.66 0 01.48.203l.006.007c.135.13.209.303.209.487v5.732a.678.678 0 01-.676.679h-.722a.666.666 0 01-.477-.2.66.66 0 01-.198-.477l.003-2.816-4.324 4.336a.693.693 0 01-.494.202zm-3.166 1.975a2.636 2.636 0 00-3.73 0 2.653 2.653 0 000 3.74 2.635 2.635 0 003.73 0 2.654 2.654 0 000-3.74z" fill-rule="evenodd" clip-rule="evenodd" fill="#fff"/></svg>