<svg width="40" height="40" viewBox="0 0 40 40" fill="none" xmlns="http://www.w3.org/2000/svg">
<path d="M36.2449 23.9597C33.9908 33.0009 24.8335 38.5033 15.7913 36.2486C6.75269 33.9945 1.25033 24.8368 3.50549 15.7961C5.75853 6.75381 14.9158 1.25091 23.9554 3.50504C32.9971 5.75914 38.499 14.918 36.2449 23.9597Z" fill="url(#paint0_linear_611_24465)"/>
<path d="M27.3134 17.4727C27.6494 15.2271 25.9396 14.0198 23.6016 13.2145L24.36 10.1725L22.5083 9.71098L21.7699 12.6728C21.2831 12.5515 20.7832 12.4371 20.2863 12.3237L21.03 9.34233L19.1793 8.88086L18.4204 11.9219C18.0175 11.8301 17.6219 11.7394 17.238 11.6439L17.2401 11.6344L14.6864 10.9968L14.1938 12.9745C14.1938 12.9745 15.5677 13.2894 15.5387 13.3089C16.2887 13.4961 16.4242 13.9924 16.4015 14.3859L15.5376 17.8514C15.5893 17.8646 15.6563 17.8836 15.7301 17.9131C15.6684 17.8978 15.6025 17.8809 15.5345 17.8646L14.3236 22.7193C14.2318 22.9472 13.9992 23.2889 13.475 23.1592C13.4934 23.186 12.129 22.8232 12.129 22.8232L11.2098 24.9428L13.6195 25.5435C14.0678 25.6559 14.5071 25.7734 14.9396 25.8842L14.1733 28.9611L16.0229 29.4226L16.7818 26.3784C17.287 26.5155 17.7776 26.6421 18.2574 26.7613L17.5012 29.7912L19.3529 30.2527L20.1192 27.1816C23.2767 27.7791 25.6511 27.5382 26.6505 24.6823C27.4558 22.3828 26.6104 21.0565 24.9491 20.1915C26.159 19.9125 27.0703 19.1166 27.3134 17.4727ZM23.0826 23.4054C22.5104 25.7049 18.6387 24.4618 17.3835 24.1502L18.4004 20.0739C19.6556 20.3872 23.6807 21.0074 23.0826 23.4054ZM23.6554 17.4395C23.1332 19.5312 19.9108 18.4685 18.8656 18.2079L19.7874 14.5109C20.8327 14.7714 24.1991 15.2576 23.6554 17.4395Z" fill="white"/>
<defs>
<linearGradient id="paint0_linear_611_24465" x1="19.875" y1="3.00091" x2="19.875" y2="3.52832" gradientUnits="userSpaceOnUse">
<stop stop-color="#F9AA4B"/>
<stop offset="1" stop-color="#F7931A"/>
</linearGradient>
</defs>
</svg>
