<svg width="56" height="56" viewBox="0 0 56 56" fill="none" xmlns="http://www.w3.org/2000/svg">
<g clip-path="url(#clip0_2031_308)">
<path d="M24.2666 18.7816H19.7302L22.5676 1.43457H27.1038L24.2666 18.7816Z" fill="#00579F"/>
<path d="M40.7115 1.85865C39.8167 1.50766 38.3975 1.12012 36.6427 1.12012C32.1628 1.12012 29.0082 3.48214 28.9888 6.85913C28.9516 9.35066 31.2475 10.7345 32.9646 11.5653C34.7197 12.4142 35.3163 12.9683 35.3163 13.7249C35.2984 14.8871 33.8981 15.4228 32.592 15.4228C30.7809 15.4228 29.8104 15.1466 28.3357 14.5L27.7383 14.2229L27.1035 18.1169C28.1675 18.5962 30.1277 19.0215 32.1628 19.0401C36.9227 19.0401 40.0216 16.7146 40.0583 13.1159C40.0764 11.1412 38.8641 9.62807 36.2505 8.39163C34.6638 7.59791 33.6922 7.06271 33.6922 6.2506C33.7108 5.51231 34.514 4.75612 36.305 4.75612C37.7798 4.71908 38.8634 5.06958 39.6842 5.42033L40.0945 5.60453L40.7115 1.85865Z" fill="#00579F"/>
<path d="M46.7407 12.6362C47.1143 11.6396 48.5518 7.78261 48.5518 7.78261C48.533 7.81964 48.9247 6.76765 49.1487 6.12183L49.4657 7.61655C49.4657 7.61655 50.3248 11.7689 50.5113 12.6362C49.8024 12.6362 47.6367 12.6362 46.7407 12.6362ZM52.3403 1.43457H48.8314C47.7494 1.43457 46.9273 1.74804 46.4604 2.87386L39.7222 18.7814H44.4821C44.4821 18.7814 45.2657 16.6403 45.4341 16.1792C45.9563 16.1792 50.5867 16.1792 51.2585 16.1792C51.3887 16.7882 51.7998 18.7814 51.7998 18.7814H56L52.3403 1.43457Z" fill="#00579F"/>
<path d="M15.9413 1.43457L11.4987 13.2636L11.0132 10.8645C10.1918 8.09632 7.61593 5.08872 4.74133 3.59326L8.81062 18.7632H13.6077L20.7381 1.43457H15.9413Z" fill="#00579F"/>
<path d="M7.37328 1.43457H0.0746677L0 1.78507C5.69337 3.22461 9.46398 6.69455 11.0132 10.8653L9.42653 2.89275C9.16531 1.78483 8.36257 1.47112 7.37328 1.43457Z" fill="#FAA61A"/>
</g>
<g clip-path="url(#clip1_2031_308)">
<path d="M35.0312 29.696H23.9359V49.5113H35.0312V29.696Z" fill="#FF5A00"/>
<path d="M24.6745 39.6038C24.6745 35.5779 26.5785 32.0048 29.5 29.6961C27.3499 28.0156 24.6376 27 21.6791 27C14.6707 27 9 32.637 9 39.6038C9 46.5705 14.6707 52.2075 21.6791 52.2075C24.6376 52.2075 27.3499 51.1919 29.5 49.5114C26.5744 47.2354 24.6745 43.6296 24.6745 39.6038Z" fill="#EB001B"/>
<path d="M50 39.6038C50 46.5705 44.3293 52.2075 37.3209 52.2075C34.3624 52.2075 31.6501 51.1919 29.5 49.5114C32.4585 47.1987 34.3255 43.6296 34.3255 39.6038C34.3255 35.5779 32.4215 32.0048 29.5 29.6961C31.646 28.0156 34.3583 27 37.3168 27C44.3293 27 50 32.6737 50 39.6038Z" fill="#F79E1B"/>
</g>
<defs>
<clipPath id="clip0_2031_308">
<rect width="56" height="17.92" fill="white" transform="translate(0 1.12012)"/>
</clipPath>
<clipPath id="clip1_2031_308">
<rect width="41" height="26" fill="white" transform="translate(9 27)"/>
</clipPath>
</defs>
</svg>
