<svg width="40" height="40" viewBox="0 0 40 40" fill="none" xmlns="http://www.w3.org/2000/svg">
<path d="M20 36.875C29.3198 36.875 36.875 29.3198 36.875 20C36.875 10.6802 29.3198 3.125 20 3.125C10.6802 3.125 3.125 10.6802 3.125 20C3.125 29.3198 10.6802 36.875 20 36.875Z" fill="#988430"/>
<path d="M20 36.335C29.0216 36.335 36.335 29.0216 36.335 20C36.335 10.9785 29.0216 3.66504 20 3.66504C10.9785 3.66504 3.66504 10.9785 3.66504 20C3.66504 29.0216 10.9785 36.335 20 36.335Z" fill="#7A6A2A"/>
<path d="M20 35.9894C28.8307 35.9894 35.9894 28.8307 35.9894 20C35.9894 11.1693 28.8307 4.01062 20 4.01062C11.1693 4.01062 4.01062 11.1693 4.01062 20C4.01062 28.8307 11.1693 35.9894 20 35.9894Z" fill="#BA9F33"/>
<path fill-rule="evenodd" clip-rule="evenodd" d="M10.5032 18.1982C10.4078 18.1118 10.307 18.0236 10.2134 17.9354C10.1198 17.8472 10.0244 17.7608 9.92898 17.6726L9.64458 17.4026C9.59778 17.3558 9.54918 17.3162 9.50238 17.2694C9.45558 17.228 9.40158 17.183 9.35478 17.1416C8.97858 16.7834 8.59878 16.427 8.22618 16.0688C8.61138 16.4216 8.98758 16.7708 9.37278 17.129L9.50598 17.2622C9.55278 17.309 9.60138 17.3486 9.64818 17.3954L9.93258 17.6582C10.028 17.7446 10.1216 17.8328 10.217 17.9282C10.3124 18.0236 10.4078 18.1118 10.5032 18.1982ZM5.50098 18.1442C5.50098 18.1442 6.87078 18.2864 7.54038 18.3818C8.15958 18.47 10.0982 18.767 10.0982 18.767L5.50098 18.1442ZM5.50098 18.1442C5.88618 18.1766 6.27138 18.218 6.65658 18.2594C6.85278 18.2792 7.04178 18.3008 7.23078 18.3188L7.52058 18.3512C7.61598 18.3656 7.70958 18.3782 7.80498 18.3926L8.95158 18.5762L9.52578 18.6716C9.71478 18.704 9.90198 18.74 10.1 18.7724C9.91098 18.7526 9.71478 18.7256 9.52578 18.6986L8.95338 18.6158L7.80678 18.4466C7.71138 18.4322 7.61778 18.4142 7.52238 18.3998L7.23258 18.3656C7.04358 18.3458 6.84738 18.3188 6.65838 18.2972C6.26958 18.254 5.88438 18.2036 5.50098 18.1442ZM9.96138 19.1234C9.96138 19.1234 8.49798 19.4942 8.00298 19.6364C7.51698 19.7696 6.04458 20.2178 6.04458 20.2178L9.96138 19.1234Z" fill="#CFB66C"/>
<path fill-rule="evenodd" clip-rule="evenodd" d="M9.96145 19.1234C9.63745 19.2188 9.31345 19.3124 8.98405 19.3988L8.00665 19.6616C7.68085 19.757 7.35865 19.8506 7.03465 19.946L6.54865 20.0792C6.38665 20.126 6.22285 20.1656 6.05725 20.2124C6.21745 20.1584 6.38305 20.1026 6.54325 20.0558L7.02925 19.901C7.35505 19.8002 7.67725 19.7048 8.00125 19.604C8.33245 19.5212 8.65645 19.4348 8.98765 19.3556C9.30085 19.2764 9.63205 19.199 9.96145 19.1234ZM6.25165 21.1196C6.41185 21.0602 8.26945 20.1944 8.70145 19.991C8.91745 19.8902 9.54565 19.667 9.54565 19.667L6.25165 21.1196Z" fill="#CFB66C"/>
<path fill-rule="evenodd" clip-rule="evenodd" d="M6.25159 21.1196C6.39379 21.0656 6.52699 20.999 6.66379 20.936L7.06879 20.747L7.88059 20.3564C8.15059 20.2286 8.41339 20.0864 8.69059 19.9658C8.83279 19.9064 8.97499 19.856 9.11719 19.811L9.33319 19.7426C9.40699 19.7228 9.47539 19.7012 9.54919 19.6832C9.27919 19.811 8.99479 19.9208 8.72479 20.0468C8.45479 20.18 8.17939 20.2898 7.90039 20.4104L7.07599 20.774C6.79699 20.8856 6.52699 21.0062 6.25159 21.1196ZM6.43159 21.8756C6.43159 21.8756 8.11279 20.8892 8.69239 20.5724C8.99479 20.4032 9.97579 19.9172 9.97579 19.9172L6.43159 21.8756Z" fill="#CFB66C"/>
<path fill-rule="evenodd" clip-rule="evenodd" d="M6.43164 21.8774C6.71604 21.7028 7.00404 21.5246 7.29383 21.3446L7.72583 21.0818C7.87343 20.9954 8.01562 20.9126 8.16502 20.8244C8.31262 20.7362 8.45482 20.6498 8.60422 20.567C8.67622 20.522 8.75002 20.4842 8.82742 20.4518L9.05601 20.3366C9.35841 20.189 9.66261 20.0396 9.9812 19.91C9.69141 20.0936 9.39441 20.2484 9.09561 20.4104C8.94801 20.4932 8.79862 20.567 8.65102 20.648C8.50342 20.729 8.36122 20.8172 8.21182 20.8964C8.06422 20.9828 7.92203 21.0656 7.77263 21.1448L7.32803 21.3878L6.43164 21.8774ZM9.9614 20.135C9.9614 20.135 8.91562 20.9378 8.57722 21.1952C8.23882 21.4526 7.24163 22.1726 7.24163 22.1726L9.9614 20.135Z" fill="#CFB66C"/>
<path fill-rule="evenodd" clip-rule="evenodd" d="M15.9644 26.6095L15.428 25.5961L15.7394 24.3289L17.9606 23.4721L17.0156 21.5336L17.4818 19.5752L18.3584 17.822L21.0674 17.3954L23.0582 15.4982L27.3566 15.8222L28.199 20.4194L26.5754 26.2045L25.6484 29.1997L21.8972 29.3419L20.1548 28.1359L18.1154 27.2827L15.9644 26.6095Z" fill="#E2CC85"/>
<path fill-rule="evenodd" clip-rule="evenodd" d="M22.5452 26.5754C22.5452 26.5754 22.0268 26.813 21.1412 26.759C20.8856 26.4152 19.091 26.2532 19.091 26.2532C19.091 26.2532 18.8678 26.1848 18.4718 26.3486C18.074 26.5106 17.696 26.4908 17.3432 26.5772C16.9904 26.6636 16.6412 26.2064 16.3712 26.111C16.1012 26.0102 15.743 25.7672 15.743 25.7672L14.987 25.6934L13.4696 25.0508L11.0576 22.6477L10.4024 23.6737L10.2008 24.9428L10.9298 26.4476L12.8936 28.2368L16.7222 29.2089L18.992 28.541L21.8342 27.3386L22.5452 26.5754Z" fill="#F1D789"/>
<path fill-rule="evenodd" clip-rule="evenodd" d="M8.94256 18.0848L9.42856 16.6124L10.0082 15.662L11.873 15.5054L11.3132 17.1398L9.75437 19.9136L10.4024 22.3904L9.25396 22.9628L8.90296 22.4228L8.61855 21.1826L8.59875 19.7912L8.94256 18.0848Z" fill="#F4ECB4"/>
<path fill-rule="evenodd" clip-rule="evenodd" d="M11.0342 26.4746L10.676 25.9742C10.676 25.9742 10.5806 25.7366 10.6346 25.5296C10.6886 25.319 10.6814 25.3064 10.6544 25.2272C10.6274 25.148 10.397 24.8744 10.4114 24.6404C10.4258 24.4028 10.3916 24.3236 10.5662 24.1346C10.7498 23.951 10.694 23.6342 10.694 23.6342L10.9316 23.7818L10.9856 23.699C10.9856 23.699 11.0738 23.7674 11.0738 23.8736C11.0936 23.726 11.0144 23.0438 11.1944 22.8872C11.3744 22.7306 11.6948 23.6162 11.6948 23.6162L11.4986 22.3328L10.9928 21.017L10.0946 19.8146L10.0406 18.4898V18.3746C10.0406 18.3746 9.62842 19.0082 9.51322 19.5086C9.43222 19.8524 9.62842 20.27 9.58702 20.765C9.55462 21.2564 9.51322 21.2186 9.63382 21.413C9.75443 21.6074 10.046 22.0088 9.93083 22.2986C9.83003 22.547 9.48622 22.3724 9.48622 22.3724C9.48622 22.3724 9.41782 22.574 9.32422 22.6478C9.29182 22.5272 9.25582 22.4516 9.19102 22.3778C9.18562 22.4246 9.17122 22.4876 9.17122 22.4876C9.17122 22.4876 9.11182 22.2986 9.05062 22.061C8.96962 21.7442 8.88141 21.3266 8.80221 21.1034C8.76981 21.2312 8.68701 21.6218 8.68701 21.6218L8.73381 22.223L8.95702 23.0474L9.17302 23.5874L9.38362 24.248L9.56542 24.6926L9.71302 25.031L9.84083 25.7924L10.46 26.4476L10.7912 26.5952L11.0342 26.4746Z" fill="#F3E19D"/>
<path fill-rule="evenodd" clip-rule="evenodd" d="M9.26837 16.8825C9.26837 16.8825 8.82376 17.6385 8.69595 18.3999C8.56815 19.1613 8.45294 19.9677 8.53395 21.0045C8.61495 22.0503 8.77155 22.6929 8.89756 23.1501C9.11357 23.9115 9.67338 24.9717 9.67338 24.9717L9.69318 24.9303C9.59958 24.7521 9.52398 24.5649 9.46998 24.3705C9.39617 24.0807 9.36917 23.7369 9.30077 23.5821C9.24137 23.4273 9.13877 23.2923 9.09017 23.1015C9.04336 22.9179 9.03616 22.6299 8.89396 22.4139C8.83456 22.3257 8.76075 22.0971 8.73915 21.8685C8.71215 21.5247 8.75355 21.1395 8.71935 20.8227C8.65995 20.2953 8.61855 19.9371 8.67255 19.6617C8.72655 19.3863 9.01096 18.6033 9.18557 17.9805C9.30077 17.5809 9.23237 17.2461 9.44298 16.8987C9.65358 16.5549 9.78139 16.2507 9.82819 16.0419C9.87859 15.8511 9.26837 16.8825 9.26837 16.8825Z" fill="#F2E8B0"/>
<path fill-rule="evenodd" clip-rule="evenodd" d="M11.3798 16.58C11.3798 16.58 11.1512 16.6484 11.0414 16.769C10.9315 16.8842 10.8847 16.9796 10.7389 17.174C10.5931 17.3684 10.5841 17.5267 10.4635 17.7697C10.3429 18.0073 10.0783 18.3655 10.0459 18.4933C10.0135 18.6211 9.95951 19.2223 9.89111 19.5067C9.83171 19.7911 9.95951 20.1403 9.95951 20.1403L10.1143 20.1079C10.1143 20.1079 10.1143 20.3095 10.2691 20.4463C10.4239 20.5795 10.4527 19.9927 10.4527 19.9927L11.0342 18.0289L11.9108 17.4331L12.0062 16.9526L11.3798 16.58Z" fill="#F5EEC0"/>
<path fill-rule="evenodd" clip-rule="evenodd" d="M11.8046 17.4692C11.8046 17.4692 11.3924 17.4962 11.1908 17.6438C11.1098 17.7032 11.0756 17.7536 10.9892 17.8274C10.8272 17.9606 10.6634 18.0848 10.5842 18.2594C10.496 18.434 10.4006 18.6986 10.3358 19.199C10.3088 19.4097 10.3088 19.6041 10.289 19.7733C10.262 20.0019 10.2206 20.1855 10.2422 20.3133C10.2692 20.5761 10.5392 20.7129 10.5662 21.0099L11.126 20.7255L11.6534 18.6464L12.773 17.9444L12.1394 17.2352L11.8046 17.4692Z" fill="#E6DB9D"/>
<path fill-rule="evenodd" clip-rule="evenodd" d="M8.85266 31.4624C8.85446 31.4426 8.85806 31.421 8.85986 31.4012C8.94086 30.6992 8.95526 30.1664 9.01466 29.8334C9.10286 29.3618 9.16226 29.1854 9.14786 29.009C9.12806 28.7246 9.10646 28.5176 9.13346 28.2998C9.17486 28.01 9.45746 27.6662 9.45026 27.4286C9.44486 27.2396 9.34946 27.1172 9.26666 27.002C9.18566 26.8868 9.11906 26.7914 9.11906 26.7914C9.11906 26.7914 9.67885 26.4062 9.67345 24.8546C9.68425 24.8582 9.69506 24.8618 9.70586 24.869L9.98125 25.652L10.1703 25.8806L10.8938 27.2288L11.8244 28.1324L13.2014 29.0576L14.0636 29.9972L14.15 32.501L13.0214 33.9644L12.836 34.2992C11.3744 33.5648 10.0281 32.6072 8.85266 31.4624Z" fill="#E5CB7A"/>
<path fill-rule="evenodd" clip-rule="evenodd" d="M12.296 33.8582C12.296 33.8582 12.3158 33.5468 12.5714 33.3452C12.6128 33.4136 12.6398 33.4784 12.6308 33.5288C12.6776 33.4478 13.0016 32.9222 13.736 32.7854C14.4704 32.6522 14.6486 32.1158 14.6486 32.1158L16.2074 30.6992L17.9912 29.0576L20.1584 28.2962L21.1718 28.0478C21.1718 28.0478 21.1916 28.1216 21.152 28.2854C21.341 28.271 21.7586 28.1756 22.1924 28.0226C22.367 27.9542 22.5308 27.9272 22.619 28.0172C22.7468 28.1378 22.7666 28.4204 22.7738 28.5896C22.9844 28.5428 23.2274 28.3412 23.4218 28.361C23.7332 28.3934 24.0086 28.7606 24.3254 28.7606C24.743 28.7606 24.932 28.5032 25.2236 28.3016C25.3982 28.181 25.6502 28.0316 25.7924 27.9308C26.1308 27.6824 29.7128 26.588 29.7128 26.588L30.9692 26.6708L31.1708 28.019L31.0628 31.5452C31.0502 31.5578 31.0358 31.5704 31.0232 31.5848L25.3118 34.5674L17.3954 35.7806C15.6224 35.4908 13.9106 34.9022 12.3338 34.04L12.296 33.8582Z" fill="#D8C173"/>
<path fill-rule="evenodd" clip-rule="evenodd" d="M9.33142 31.9124C9.44481 31.6766 9.5456 31.4804 9.56359 31.4102C9.57799 31.5524 9.60319 31.8638 9.65538 32.195C9.5456 32.1014 9.43761 32.006 9.33142 31.9124Z" fill="#F1D789"/>
<path fill-rule="evenodd" clip-rule="evenodd" d="M15.1148 35.2298L16.139 34.9454L16.2254 34.9724C16.2254 34.9724 16.2722 34.9994 16.2722 35.093C16.4 35.0192 16.5098 35.0336 16.589 34.9832C16.6304 35.0696 16.67 35.3594 16.8518 35.3954C17.0408 35.4368 17.2424 35.3126 17.4476 35.1578C17.6492 34.9976 17.8796 34.7942 18.0542 34.7132C18.1172 34.8302 18.1748 34.9526 18.2234 35.0768C18.452 34.8932 18.8516 34.1516 19.4186 34.1642C19.5824 33.7772 19.8578 33.4442 20.207 33.212C20.7344 32.8538 21.0638 32.8268 21.476 32.8592C21.6398 32.6468 21.8414 32.4668 22.0718 32.3264C22.1402 32.3534 22.3292 32.4686 22.5632 32.3588C22.8008 32.249 23.069 31.826 23.42 31.772C23.609 31.745 23.8034 31.7864 23.9654 31.8872C23.9654 31.8872 24.9914 30.8684 25.6988 30.53C25.6718 30.4472 25.616 30.1394 26.4476 29.4572C26.4944 29.4986 26.462 29.6138 26.4944 29.6192C26.5088 29.6192 26.7104 29.5328 26.966 29.3348C27.2828 29.0972 27.6626 28.8487 27.8912 28.7803C28.3232 28.6525 28.7822 28.9135 28.7822 28.9135C28.8218 28.8865 28.865 28.8668 28.91 28.8542C29.0198 28.8344 29.099 28.8218 29.1584 28.8002C29.153 28.9424 29.2322 29.1854 29.1584 29.396C29.243 29.4446 29.3348 29.4824 29.4284 29.5112C29.3816 29.612 29.2808 29.8694 29.1116 29.9918C29.2538 30.0602 29.2718 30.1394 29.4752 30.2078C29.3924 30.323 29.2592 30.5192 29.1998 30.6398C29.1404 30.7676 28.9244 31.3004 28.829 31.502C28.7282 31.7036 28.5914 32.0762 28.5266 32.15C28.4618 32.2238 28.2242 32.5406 28.0406 32.6954C28.2026 32.636 28.865 32.4326 29.1458 32.357C29.0612 32.4794 28.6382 33.1094 28.2296 33.7142C24.2786 36.083 19.4996 36.6356 15.113 35.2334L15.1148 35.2298Z" fill="#E0CD81"/>
<path fill-rule="evenodd" clip-rule="evenodd" d="M11.8731 17.3954C11.8731 17.3954 11.6355 17.3954 11.5887 17.4278C11.5419 17.4602 11.8263 17.5286 11.9127 17.561C11.9991 17.5934 12.1881 17.7446 12.2385 17.8634C12.2853 17.9786 13.9448 18.6464 13.9448 18.6464L15.1184 18.587L15.5234 18.0272L14.753 17.3522L15.293 15.761L14.5784 15.8762L12.8576 16.9022L11.9955 17.2334L11.8731 17.3954Z" fill="#DFC57C"/>
<path fill-rule="evenodd" clip-rule="evenodd" d="M14.4506 17.9228C14.4848 17.9786 14.546 18.0128 14.6126 18.0092C14.8556 18.0092 15.0788 18.0686 15.1724 18.1928C15.329 18.389 15.7592 19.0172 15.7592 19.0172L16.7906 19.388L16.8572 18.173L15.7286 17.39L14.4452 17.8616V17.921L14.4506 17.9228Z" fill="#E5CC7C"/>
<path fill-rule="evenodd" clip-rule="evenodd" d="M14.2491 18.3728C14.2491 18.3728 14.4381 18.3872 14.6757 18.299C14.9133 18.2108 15.3039 18.0236 15.4731 18.0974C15.7107 18.1982 15.6621 18.515 15.9177 18.7994C16.0725 18.974 16.3569 18.9686 16.5189 19.1576C16.6791 19.3466 17.2334 19.2584 17.2334 19.2584L17.4441 20.3924L16.5999 21.4742L16.3244 22.817H15.1832L14.1411 22.403L13.6281 21.161L13.8855 19.9046L14.2491 18.3728Z" fill="#D2C281"/>
<path fill-rule="evenodd" clip-rule="evenodd" d="M16.4557 18.4286C16.4845 18.4376 16.5133 18.4412 16.5421 18.443C16.5097 18.47 16.4413 18.5294 16.4683 18.686C16.4953 18.8426 16.5835 19.0388 16.5097 19.1576C16.5691 19.2224 16.6123 19.298 16.6375 19.3808C16.6843 19.514 16.6969 19.6382 17.0011 19.6562C16.9579 19.6832 16.9165 19.7156 16.8805 19.7516C16.8805 19.7516 17.0911 19.9352 17.1973 20.1044C17.3071 20.099 17.5951 20.009 17.5951 20.009L17.6545 20.0504L17.7823 19.9964C17.7823 19.9964 17.6617 19.9496 17.7499 19.658C17.8309 19.4006 17.9065 19.415 17.9119 19.3952C17.9173 19.3754 17.9713 19.1054 17.9713 18.9956C18.0127 18.8534 18.0451 18.4232 18.0451 18.4232L17.9587 17.471L17.4673 17.174L17.0677 16.7888L16.6915 17.498L16.4431 17.7464L16.4233 18.3602L16.4557 18.4286Z" fill="#E2C270"/>
<path fill-rule="evenodd" clip-rule="evenodd" d="M17.6383 17.6312C17.6383 17.6312 17.7247 17.8796 17.7589 18.0704C17.7697 18.0326 17.7769 17.9948 17.7787 17.9552C17.7787 17.9552 17.8471 18.3314 17.8597 18.488C17.8867 18.4826 17.9137 18.4736 17.9191 18.5024C17.9245 18.5294 17.9875 18.8336 17.9731 19.0028C18.0865 18.8156 18.2449 18.6572 18.4321 18.5438C18.5419 18.4754 18.6697 18.4016 18.8029 18.3962C19.0135 18.3908 19.1665 18.5294 19.4167 18.5294C20.0233 18.5294 20.5723 18.0848 20.9755 17.948C21.2725 17.8472 21.5299 17.7734 21.7099 17.6096C21.7981 17.5358 21.9529 17.372 22.0951 17.129C22.2841 16.805 22.4803 16.5224 22.6765 16.4882C22.5883 16.5044 22.4965 16.5116 22.4065 16.508C22.4065 16.508 22.4659 16.4486 22.5685 16.3658C22.6711 16.283 22.7917 16.1822 22.9663 16.1822C23.2778 16.1822 23.4326 16.229 23.609 16.229C23.7836 16.2236 23.8844 16.1822 23.8844 16.1822C23.8844 16.1822 24.068 16.31 24.4802 16.31C24.8924 16.3154 25.1678 16.3514 25.3838 16.3694C25.5998 16.3874 26.3234 16.31 26.5304 16.3154C26.6654 16.3208 26.7986 16.3532 26.921 16.4108L26.2514 14.4668L23.8484 12.3662L22.4173 13.3796L20.2159 15.581L18.0865 16.3694L17.6419 16.8698V17.6312H17.6383Z" fill="#CCB360"/>
<path fill-rule="evenodd" clip-rule="evenodd" d="M22.4157 16.517C22.4157 16.517 22.4751 16.4576 22.5759 16.3748C22.6767 16.292 22.7991 16.1912 22.9755 16.1912C23.2869 16.1912 23.4417 16.238 23.6181 16.238C23.7927 16.2326 23.8935 16.1912 23.8935 16.1912C23.8935 16.1912 24.0771 16.319 24.4892 16.319C24.9014 16.3244 25.1768 16.3604 25.3928 16.3784C25.6088 16.3964 26.3324 16.319 26.5394 16.3244C26.6744 16.3298 26.8076 16.3622 26.93 16.4198L26.6276 15.5432L26.2748 14.8736L25.2704 13.7738C25.2704 13.7738 24.0645 13.0646 24.0555 13.0592C24.0501 13.0538 23.6379 12.944 23.6379 12.944L22.5453 13.6046L21.5535 16.1696L21.5337 16.7096L22.1745 17.012C22.3347 16.742 22.5129 16.526 22.6803 16.499C22.5309 16.517 22.4157 16.517 22.4157 16.517Z" fill="#D5B457"/>
<path fill-rule="evenodd" clip-rule="evenodd" d="M22.4029 16.6988C22.3075 16.7042 22.2283 16.6844 22.2067 16.6178C22.1239 16.3892 22.0591 16.355 21.9907 16.355C21.9223 16.355 21.8305 16.5026 21.7747 16.5152C21.7189 16.5278 21.6541 16.346 21.6541 16.346L21.5947 16.319C21.5947 16.319 21.2419 16.5476 20.9935 16.8194C20.7451 17.0894 20.3383 17.5484 20.1548 17.6294C19.9712 17.7104 19.343 17.7392 19.1288 17.786C18.9146 17.8328 18.6752 17.9876 18.6428 18.0236C18.6104 18.0596 18.7382 18.0974 18.758 18.1334C18.7778 18.1658 18.5474 18.1532 18.5276 18.1874C18.5132 18.2144 18.5816 18.371 18.6158 18.4502C18.6752 18.4214 18.7382 18.4052 18.8048 18.4034C19.0154 18.398 19.1684 18.5366 19.4186 18.5366C20.0252 18.5366 20.5741 18.092 20.9773 17.9552C21.2743 17.8544 21.5317 17.7806 21.7117 17.6168C21.7981 17.543 21.9547 17.3792 22.0969 17.1362C22.2013 16.9688 22.3021 16.814 22.4029 16.6988Z" fill="#D2B257"/>
<path fill-rule="evenodd" clip-rule="evenodd" d="M13.7091 30.2132C13.7091 30.2132 13.6551 30.0116 13.1547 29.4896C13.0125 29.342 12.9261 29.2196 12.8307 29.1314C12.5931 28.9082 12.4545 28.847 12.2853 28.7192C11.9145 28.4439 11.5095 28.4439 11.1981 28.1055C10.8867 27.7671 10.5249 27.1191 10.2729 26.4585C10.0245 25.7979 9.95605 25.5873 9.95605 25.5693C9.95605 25.5513 10.0245 25.4217 10.1109 25.4415C10.1991 25.4613 10.1991 25.6305 10.2207 25.6701C10.2639 25.7367 10.3143 25.7997 10.3683 25.8591C10.4961 26.0067 10.6797 26.1831 10.7733 26.4459C10.7535 26.2227 10.6779 25.9743 10.6779 25.9743C10.6779 25.9743 11.1585 26.2767 11.5689 26.5935C11.9811 26.9103 12.1503 27.0201 12.2709 27.2217C12.3915 27.4233 12.6741 27.9561 12.8109 28.1127C12.9459 28.2675 14.8089 28.856 14.8089 28.856L15.6945 29.5166L16.1337 30.4814L15.7899 31.0214L15.1293 31.1636L14.0565 30.683L13.7091 30.2132Z" fill="#D2B159"/>
<path fill-rule="evenodd" clip-rule="evenodd" d="M11.324 26.8923C11.324 26.8923 11.5472 27.2505 12.0944 27.5889C12.5858 27.8859 13.3634 28.1576 14.0582 28.3179C14.456 28.4132 14.8556 28.487 15.2138 28.4924C16.1767 28.5068 16.8409 28.2296 17.6635 28.1396C18.1081 28.0928 18.6553 28.0568 19.2223 27.9236C19.9513 27.749 20.3833 27.5528 20.9701 27.2756C21.3967 27.0794 21.7873 26.9319 22.1023 26.7429C22.5469 26.4801 22.8727 26.1885 23.2489 26.1021C23.2021 26.2299 23.1535 26.4603 22.7827 26.6979C22.9789 26.6925 23.2489 26.6781 23.2489 26.6781C23.2489 26.6781 22.9861 26.8329 22.5253 27.1839C22.2409 27.3999 21.8647 27.7653 21.4795 28.0083C21.2311 28.1649 20.9611 28.2782 20.7829 28.3719C20.3509 28.6094 20.1763 28.73 19.8937 29.0199C19.9945 29.0144 20.0035 29.0199 20.0035 29.0199C20.0035 29.0199 19.6453 29.0666 19.3897 29.2034C19.3357 29.2034 19.2421 29.1836 19.0783 29.2304C18.9505 29.2718 18.7813 29.3637 18.6067 29.4141C18.3583 29.4879 18.2773 29.4554 18.2773 29.4554L18.3187 29.5383C18.3187 29.5383 17.9947 29.5328 17.8867 29.5436C17.9065 29.549 17.9011 29.5581 17.9011 29.5581C17.8813 29.5617 17.8633 29.567 17.8471 29.5778C17.7949 29.612 17.7373 29.6372 17.6779 29.6516C17.6455 29.657 17.6185 29.6571 17.5771 29.6661C17.5915 29.6985 17.6977 29.8821 17.7463 29.9901C17.7049 30.0171 17.0911 30.4814 17.0911 30.4814C17.1109 30.512 17.1253 30.5426 17.1379 30.5768C17.1577 30.6362 17.1649 30.7244 17.1847 30.7658C17.2315 30.8486 17.2585 30.8613 17.2585 30.8613C17.2585 30.8613 17.1847 30.8756 17.0569 30.9081C16.9471 30.9351 16.8139 30.9818 16.6249 31.0088C16.5673 31.016 16.5079 31.0215 16.4503 31.0233C16.4773 31.0827 16.5979 31.313 16.3765 31.5776C16.1551 31.8422 16.0867 31.88 16.0183 32.051C15.9841 32.0258 15.9481 32.0024 15.9085 31.9826C15.8347 31.9502 15.7339 31.9016 15.6979 31.8351C15.6781 31.9232 15.6493 32.0078 15.6151 32.0924C15.5467 32.276 15.4459 32.456 15.4261 32.5928C15.3523 32.51 15.2156 32.3499 15.0266 32.3823C14.8376 32.4147 14.6882 32.672 14.6558 32.7458C14.6558 32.699 14.6234 32.663 14.6144 32.7188C14.609 32.7782 14.5046 33.4064 13.9268 33.914C13.9214 33.7862 13.9214 33.5019 13.907 33.4083C13.853 33.4623 13.7864 33.5414 13.394 33.7106C13.0088 33.8798 13.07 34.049 13.07 34.049C13.07 34.049 13.0376 33.779 13.2446 33.4946C13.4552 33.2102 13.583 33.077 13.583 33.0554C13.5794 33.0338 13.5704 33.0122 13.556 32.996C13.529 32.969 13.475 32.9367 13.475 32.9133C13.5074 32.8989 13.8332 32.744 13.8134 32.4218C13.7936 32.132 13.6712 31.9826 13.5848 31.8764C13.5704 31.862 13.7126 31.7612 13.6946 31.7288C13.6802 31.709 13.5056 31.5812 13.484 31.5128C13.4894 31.4714 13.4984 31.4319 13.511 31.3923C13.5308 31.3329 13.5434 31.2915 13.538 31.2501C13.5236 31.1817 13.4498 30.9926 13.4282 30.9746C13.448 30.98 13.583 30.9746 13.583 30.9746C13.583 30.9746 13.4732 30.8001 13.4552 30.7173C13.4354 30.6345 13.3958 30.4202 13.3724 30.3788C13.4192 30.3842 13.5344 30.3932 13.5344 30.3788C13.5398 30.3374 13.4336 30.269 13.4804 30.2168C13.5128 30.2222 13.5758 30.2492 13.6352 30.3266C13.6028 30.2384 13.5488 30.0692 13.4336 30.0008C13.4876 29.981 13.6712 29.9324 13.8332 30.0278C13.9934 30.1232 14.0492 30.2564 14.0492 30.2564C14.0492 30.2564 14.1446 30.3303 14.2922 30.4401C14.4614 30.5733 14.6774 30.7641 15.0212 30.8991C15.095 30.9405 15.284 30.9404 15.4207 30.9134C15.4801 30.899 15.5377 30.8756 15.5899 30.845C15.6097 30.8342 15.6295 30.8253 15.6493 30.818C15.6205 30.7587 15.5863 30.7028 15.5485 30.6488C15.5953 30.6488 15.6493 30.6543 15.6493 30.6543C15.6493 30.6543 15.6817 30.5805 15.5341 30.4383C15.5665 30.4059 15.6079 30.3842 15.6079 30.3284C15.5611 30.323 15.4801 30.2546 15.4603 30.2276C15.4873 30.2078 15.5287 30.1448 15.5755 30.1268C15.5341 30.0944 15.4333 29.9577 15.3865 29.9433C15.4315 29.9271 15.4729 29.9072 15.5143 29.8838C15.5143 29.8838 15.2858 29.8245 15.212 29.7741C15.1382 29.7201 15.0284 29.6264 14.9636 29.5994C14.8952 29.5724 14.7746 29.5581 14.726 29.5041C14.7728 29.5185 14.8466 29.5041 14.9006 29.5041C14.942 29.5041 14.96 29.5094 14.9744 29.5094C14.969 29.4896 14.969 29.45 15.0752 29.4356C15.1256 29.4284 15.176 29.4122 15.2228 29.3888C15.2228 29.3888 15.122 29.3834 15.0068 29.2736C14.8916 29.1638 14.7962 29.0775 14.7314 29.0631C14.663 29.0487 14.5352 29.1098 14.456 29.1044C14.3462 29.09 14.2994 29.0361 14.2994 29.0361C14.2994 29.0361 13.9358 29.0685 13.1312 28.5771C12.4346 28.1505 12.1322 27.7743 12.1322 27.7743C12.0674 27.7509 12.0044 27.7221 11.9432 27.6861C11.6804 27.5493 11.3186 27.2649 11.3294 26.8941L11.324 26.8923Z" fill="#C2A44D"/>
<path fill-rule="evenodd" clip-rule="evenodd" d="M21.3698 10.5032C21.4328 10.523 21.4886 10.5608 21.5318 10.613C21.6596 10.7606 21.7424 11.0396 21.449 11.3366C21.5642 11.378 21.611 11.3906 21.7118 11.378C21.611 11.4986 21.3824 11.7542 21.368 11.9792C21.3536 12.1628 21.4688 12.2168 21.4688 12.2168C21.4688 12.2168 21.2942 12.4184 21.2852 12.7568C21.368 12.6632 21.458 12.5786 21.5552 12.4994C21.7568 12.3374 22.0358 12.1556 22.2248 12.0404C22.223 12.089 22.2284 12.1358 22.2446 12.1826C22.2446 12.1826 22.5974 11.8928 22.8926 12.0224C23.0258 12.0818 22.9664 12.2708 22.9664 12.2708C22.9664 12.2708 23.15 12.2024 23.2778 12.3302C23.4056 12.458 23.5874 12.7892 23.681 12.9188C23.7224 12.9782 23.8286 13.0934 23.9384 13.2716C24.0878 13.52 24.212 13.7828 24.3092 14.0546C24.3146 13.9124 24.3506 13.691 24.7538 13.8314C25.157 13.9736 25.616 14.2706 26.0012 14.8574C26.3864 15.4442 26.4818 16.1048 26.6762 16.3568C26.8724 16.5998 27.0758 17.0048 27.0884 17.174C27.101 17.3432 27.029 17.8886 27.4322 19.3664C27.5474 18.9074 27.722 17.8886 27.722 17.8886L27.8174 16.9904L27.9272 14.2112L25.0238 11.7992L22.754 10.1522L21.2762 10.2944L21.3698 10.5032Z" fill="#CAA13E"/>
<path fill-rule="evenodd" clip-rule="evenodd" d="M26.7627 14.6414C26.7627 14.6414 26.7213 14.3714 26.0391 13.9124C25.3569 13.4588 24.8241 13.4588 24.3327 13.0736C23.9565 12.7712 23.5623 12.0746 23.3066 11.8442C23.0582 11.6174 23.0168 10.9622 23.0168 10.9622L23.8557 10.2602L25.1031 8.45836L26.1579 7.29736L26.6637 7.99936L27.3657 8.82376L27.7563 10.478L27.8985 12.9008L26.7627 14.6414Z" fill="#B59544"/>
<path fill-rule="evenodd" clip-rule="evenodd" d="M27.6068 17.543C27.6266 17.1758 27.5816 16.8068 27.4736 16.4558C27.2936 15.896 26.9012 14.9024 26.7176 14.5298C26.6438 14.1176 26.6978 14.0852 26.777 14.0384C26.8562 13.9916 27.1532 13.8224 27.317 13.2284C27.4808 12.6344 27.9866 12.6146 27.9866 12.6146L28.298 12.386L28.7714 13.5686L29.1836 14.636L29.3114 15.4532L29.4068 16.1498L29.1836 17.6222L28.0784 18.6212L27.6068 17.543Z" fill="#C89D3A"/>
<path fill-rule="evenodd" clip-rule="evenodd" d="M12.1772 33.9481V33.9175C12.2006 33.9031 12.2204 33.8851 12.2366 33.8635C12.2564 33.8365 12.269 33.8041 12.2834 33.7951C12.3104 33.7807 12.44 33.7411 12.5066 33.7537C12.5751 33.7663 12.7551 33.8401 12.8505 33.8365C13.0467 33.8311 13.2771 33.6799 13.6389 33.7501C14.1843 33.8509 14.3139 34.2217 14.6307 34.4323C14.8467 34.5799 15.0699 34.5151 15.1023 34.5151H15.1761C15.1905 34.5151 15.2913 34.3999 15.3453 34.4053C15.4551 34.4107 15.4659 34.5007 15.5343 34.5061C15.6963 34.5259 16.0077 34.4233 16.1625 34.4647C16.2561 34.4935 16.3299 34.5673 16.3587 34.661C16.3911 34.7618 16.3641 34.8896 16.2849 34.9634C16.1157 35.1182 15.9555 35.2658 15.9213 35.3954C15.9627 35.4278 16.0023 35.4602 16.0419 35.4962C14.6919 35.1542 13.3923 34.634 12.1772 33.9481Z" fill="#CEB052"/>
<path fill-rule="evenodd" clip-rule="evenodd" d="M26.7175 28.4924C26.7175 28.4924 27.1441 27.9236 27.2917 27.6428C27.4393 27.353 26.8255 23.681 26.8255 23.681L28.0603 19.6364L28.0279 18.3206C28.0279 18.3206 28.0873 17.1056 28.2295 16.5782C28.3987 16.8806 28.9262 17.2478 29.0414 17.4404C29.0954 17.0696 29.279 16.2848 29.252 15.4496C29.3528 15.6044 29.5958 17.1704 29.5958 17.1704L29.8388 18.2234L30.1556 19.343L30.5084 20.5256L30.719 21.3428L30.8396 21.539L30.9404 21.8828L31.0358 22.2536L31.3112 23.1248L31.4732 23.8394L31.601 25.1372C31.6298 25.2362 31.6496 25.337 31.6604 25.4396C31.6658 25.5818 31.6406 25.6628 31.6406 25.688C31.6406 25.7132 31.6874 25.9994 31.6676 26.2154C31.6406 26.4314 31.6406 26.6006 31.4714 26.7554C31.3022 26.9102 31.196 27.8372 31.196 27.8372L30.8936 27.6356C30.8936 27.6356 30.953 27.3602 30.8108 27.1082C30.6686 26.8562 30.3932 26.8058 30.2366 26.8454C30.0818 26.8778 29.7704 26.9264 29.6696 27.0146C29.5742 27.101 29.3402 27.3728 29.1242 27.4952C28.8542 27.6572 28.4149 27.6698 28.1791 27.7238C27.9415 27.7778 27.6787 27.9398 27.4033 28.127C27.1837 28.2728 26.9551 28.3934 26.7175 28.4924Z" fill="#CCA847"/>
<path fill-rule="evenodd" clip-rule="evenodd" d="M26.7175 34.4594C26.7175 34.4594 26.7355 34.472 26.7697 34.49C28.7101 33.581 30.4471 32.2922 31.8817 30.701C31.8655 30.1484 31.8457 29.5814 31.8241 29.3726C31.7773 28.928 31.8097 28.4744 31.7971 28.2116C31.7845 27.9488 31.6369 26.8814 31.5685 26.606C31.4947 26.3306 31.3525 26.1938 31.3309 26.1938C31.3111 26.1992 31.1977 26.7122 31.1977 26.8418C31.1977 26.9714 31.1707 27.281 31.1707 27.3602C31.1509 27.3548 31.1437 27.3062 31.1437 27.2864C31.1167 27.3548 31.0843 27.4754 31.0699 27.488C31.0555 27.5006 31.0897 27.3728 31.0699 27.3458C31.0501 27.3188 31.0159 27.3314 31.0231 27.263C31.0267 27.2234 31.0321 27.182 31.0429 27.1424C31.0429 27.1424 30.9601 27.263 30.9007 27.569C30.8413 27.8714 30.8413 27.8804 30.8179 27.9074C30.7981 27.9398 30.6901 28.0496 30.6847 28.091C30.6793 28.1648 30.7855 28.2386 30.7945 28.28C30.7999 28.3484 30.6991 28.6652 30.6667 28.82C30.6343 28.9748 30.6469 29.279 30.6127 29.4338C30.5857 29.576 30.5587 29.657 30.4651 29.7182C30.5335 29.7326 30.5983 29.7506 30.5983 29.7506C30.5983 29.7506 30.6937 30.1538 30.4507 30.4994C30.3625 30.62 30.3409 30.674 30.2491 30.7838C30.0655 30.9854 29.9233 31.2158 29.9107 31.3652C29.9017 31.3202 29.8945 31.277 29.8909 31.232C29.8909 31.232 29.6065 31.5632 29.4877 31.7504C29.3329 31.9934 29.1169 31.979 29.0557 32.0402C28.9945 32.1014 28.9819 32.2094 29.0017 32.2976C28.9477 32.312 28.8469 32.33 28.7785 32.5406C28.7461 32.6504 28.6633 32.7566 28.5355 32.8304C28.4077 32.9042 28.2511 32.9258 28.1719 32.9456C28.2403 32.9654 28.2673 32.9654 28.2997 32.987C28.2583 33.0554 28.0711 33.1616 27.8605 33.2984C27.6499 33.4262 27.5491 33.6152 27.4969 33.7376C27.4429 33.8528 27.3637 33.9266 27.2341 33.9392C27.2881 33.9716 27.3673 34.049 27.4087 34.0724C27.3493 34.0868 27.2467 34.0868 27.0649 34.2416C26.8705 34.4 26.8057 34.445 26.7175 34.4594Z" fill="#C39D3C"/>
<path fill-rule="evenodd" clip-rule="evenodd" d="M22.9177 35.7248C23.0221 35.651 23.1355 35.5916 23.2543 35.5466C23.6809 35.3774 24.1309 35.345 24.3091 35.2892C24.4783 35.2352 24.6115 35.1614 24.8221 35.12C24.8167 35.1686 24.8113 35.2136 24.8077 35.255C24.1867 35.4494 23.5549 35.6078 22.9177 35.7248Z" fill="#D2BA6B"/>
<path fill-rule="evenodd" clip-rule="evenodd" d="M30.773 24.5234C30.773 24.5234 30.6848 24.995 30.53 25.2938C30.3734 25.5908 30.206 26.003 30.206 26.003C30.2078 25.9094 30.2186 25.8176 30.2384 25.7276C30.0422 25.8428 29.5634 26.1182 29.4284 26.2406C29.3006 26.3558 29.0846 26.5574 29.0288 26.6528C29.1566 26.2766 29.2916 25.9382 29.3132 25.7816C29.117 25.9238 28.199 26.6798 27.722 27.1802L26.2334 28.3844C26.0624 28.4762 25.8842 28.559 25.7042 28.6328C25.4468 28.7426 25.1444 28.8344 24.9212 28.9226C24.9806 28.7624 25.076 28.6202 25.211 28.4834C25.3532 28.3502 25.7798 27.8876 25.8446 27.6734C25.904 27.4502 25.9184 27.3152 25.8392 27.128C25.7654 27.1478 25.5962 27.155 25.481 27.1874C25.3658 27.2198 25.2434 27.3422 25.2434 27.3422C25.2434 27.3422 25.3298 26.8418 25.5188 26.3702C25.3766 26.3756 25.1336 26.417 25.1336 26.417C25.1336 26.417 25.472 25.8482 26.0516 25.454C25.8734 25.4918 25.7006 25.5458 25.5332 25.6142C25.1948 25.7564 24.824 25.967 24.5468 26.0804C24.7016 25.8644 25.7942 24.3056 26.444 22.853C27.092 21.4022 27.3332 21.0314 27.4754 20.2538C27.5492 19.8686 27.5294 19.2998 27.5492 18.7904C27.569 18.2846 27.632 17.8328 27.5906 17.5286C27.7598 17.7392 28.3934 18.3314 28.415 19.6562C28.4348 20.981 27.8084 22.7684 27.146 23.7332C27.308 23.78 27.7274 23.834 28.1594 23.0852C28.5914 22.3364 28.586 22.1276 28.7408 21.8162C28.7606 21.9728 28.7552 22.0268 28.7552 22.0268C28.7552 22.0268 29.3834 21.2654 29.6804 20.306C29.7398 20.7182 29.918 21.0818 29.639 21.8378C29.3906 22.52 29.0666 22.6874 29.0666 22.6874C29.0666 22.6874 29.2268 22.6604 29.4644 22.5182C29.5058 22.619 29.4968 22.7342 29.5652 22.7756C29.6336 22.817 29.7254 22.8854 29.7398 22.9502C29.8136 22.8404 29.9288 22.7018 29.963 22.5974C29.936 22.8134 29.9162 23.7584 30.017 24.239C30.2276 24.2192 30.4436 24.2066 30.5912 23.8268C30.4904 24.1976 30.4904 24.4226 30.5588 24.7394C30.6704 24.6584 30.7712 24.5216 30.773 24.5234Z" fill="#C0993A"/>
<path fill-rule="evenodd" clip-rule="evenodd" d="M23.6774 9.47182C23.6774 9.47182 23.4668 9.55822 23.1086 9.55822C22.7972 9.55822 22.8854 9.43762 22.3994 9.43762C21.6506 9.43762 19.0387 9.86962 18.5797 9.86422C18.2827 9.85882 19.5841 9.99202 19.5841 9.99202L22.9124 10.0388L23.582 9.98482L23.8304 9.47902L23.6774 9.47182Z" fill="#A88F33"/>
<path fill-rule="evenodd" clip-rule="evenodd" d="M15.0464 15.9787C15.0464 15.9787 14.6198 16.3027 14.4398 16.5529C14.2598 16.8032 14.1644 16.9652 13.9592 17.1668C14.0078 17.1686 14.0546 17.1614 14.1014 17.147C14.1014 17.147 14.1014 17.201 14.069 17.2154C14.1266 17.2082 14.1842 17.228 14.2238 17.2694C14.1644 17.3018 14.0006 17.4656 14.1284 17.66C14.2238 17.8076 14.4254 17.8202 14.4254 17.8202C14.4254 17.8202 14.3786 17.9534 14.573 17.9408C14.9906 17.921 15.4586 17.7392 15.6728 17.7842C15.8888 17.8382 16.0112 17.858 16.1642 18.1226C16.3262 18.3854 16.4666 18.425 16.4666 18.425C16.4666 18.425 16.562 18.182 16.5404 17.8184C16.6196 17.6222 16.6628 17.4152 16.6682 17.2046L16.526 16.1587L15.9068 15.3757L15.104 15.8203L15.0464 15.9787Z" fill="#E3C571"/>
<path fill-rule="evenodd" clip-rule="evenodd" d="M15.8077 15.8222C15.8077 15.8222 15.8671 15.9644 16.1191 15.977C16.0921 16.0364 16.0921 16.0454 16.0993 16.0922C16.1047 16.139 16.1137 16.2074 16.1137 16.2074C16.1407 16.1948 16.1659 16.175 16.1875 16.1534C16.2019 16.2128 16.1731 16.3082 16.1875 16.3766C16.1965 16.418 16.2091 16.4594 16.2289 16.4972C16.2325 16.4882 16.2379 16.4792 16.2433 16.4702C16.2487 16.4558 16.2973 16.6178 16.4323 16.7402C16.4323 16.7222 16.4377 16.7024 16.4467 16.6862C16.4485 16.7204 16.4593 16.7528 16.4791 16.7816C16.4683 16.7762 16.4593 16.7708 16.4521 16.7618C16.4521 16.7618 16.4665 17.1938 16.5385 17.417C16.5511 17.4026 16.5619 17.3864 16.5709 17.3702C16.5709 17.3558 16.5655 17.4908 16.5511 17.5862C16.5313 17.6816 16.5457 17.8148 16.5457 17.8148C16.5943 17.7752 16.6483 17.7446 16.7059 17.7194C16.7887 17.687 16.9219 17.5862 17.0029 17.3612C17.0497 17.2352 17.0875 17.1038 17.1127 16.9706C17.1397 17.021 17.1577 17.0768 17.1667 17.1326C17.1721 17.201 17.2999 17.165 17.2999 17.165L17.3269 16.868L17.4889 16.193L17.6365 15.7754L18.3457 14.6702L19.6291 13.682L20.7487 13.9394L21.6937 12.656L20.0665 11.6786L18.5257 11.8406L17.1271 13.7756L16.0075 15.5306L15.8077 15.8222Z" fill="#D8B65B"/>
<path fill-rule="evenodd" clip-rule="evenodd" d="M23.8736 13.0215C23.8736 13.0215 23.7782 13.0413 23.5028 13.1835C23.2274 13.3257 23.0366 13.3725 22.9286 13.5813C22.8206 13.7901 22.8134 13.9575 22.8134 13.9575C22.8134 13.9575 23.0024 13.8765 23.1104 13.8477C23.2256 13.8207 23.3534 13.8279 23.339 13.8747C23.3264 13.9071 23.3084 13.9359 23.285 13.9611C23.285 13.9611 23.501 13.9557 23.4956 14.0619C23.4902 14.1681 23.4542 14.2851 23.4146 14.3373C23.3732 14.3913 23.204 14.4705 23.186 14.5335C23.1392 14.6613 23.2058 14.6667 23.1806 14.7711C23.1608 14.8719 23.0708 15.0681 22.7774 15.4137C22.475 15.7575 22.3454 16.0005 22.3454 16.0005C22.3454 16.0005 22.1978 15.7251 22.1222 15.4875C22.0682 15.5145 21.7784 15.6765 21.7784 15.6765L21.107 13.3365L21.1214 13.1799C21.1214 13.1799 21.1808 13.1061 21.1952 12.9693C21.0944 12.9369 21.08 12.9099 20.9468 12.7803C20.8136 12.6525 20.7038 12.4959 20.4806 12.3897C20.4482 12.3303 20.4068 12.2475 20.243 12.2151C20.0792 12.1827 19.9802 12.1557 19.9802 12.1557C19.9802 12.1557 20.0666 12.1233 20.108 12.0549C20.0072 12.0693 19.9244 12.1017 19.7048 12.0963C19.4816 12.0909 19.4564 12.0819 19.334 12.1017C19.2116 12.1215 19.064 12.1755 19.0082 11.9865C18.9488 11.9397 18.8192 11.9811 18.7113 12.1413C18.6015 12.3015 18.5637 12.4311 18.3531 12.4941C18.3387 12.5859 18.3063 12.6759 18.2577 12.7569C18.1983 12.8577 18.1011 12.9585 17.9733 13.1097C17.7717 13.3473 17.8041 13.7379 17.4819 14.0349C17.1561 14.3319 17.5359 13.2105 17.5359 13.2105L18.0543 11.9685L19.532 10.5231L21.8252 10.3683L22.0484 11.5563L23.168 11.9415L23.8736 13.0215Z" fill="#D3AE4D"/>
<path fill-rule="evenodd" clip-rule="evenodd" d="M24.2372 13.2842L23.2724 11.8946L22.5974 11.3762C22.5974 11.3762 22.1167 10.4924 22.0843 10.4636C22.0573 10.4438 21.6037 10.3952 21.3139 10.3772L21.3679 10.5104C21.4309 10.5302 21.4867 10.568 21.5299 10.6202C21.6577 10.7678 21.7405 11.0468 21.4471 11.3438C21.5623 11.3852 21.6091 11.3978 21.7099 11.3852C21.6091 11.5058 21.3805 11.7614 21.3661 11.9864C21.3517 12.17 21.4669 12.224 21.4669 12.224C21.4669 12.224 21.2923 12.4256 21.2833 12.764C21.3661 12.6704 21.4561 12.5858 21.5533 12.5066C21.7549 12.3446 22.0339 12.1628 22.2229 12.0476C22.2211 12.0962 22.2265 12.143 22.2427 12.1898C22.2427 12.1898 22.5956 11.9 22.8908 12.0278C23.024 12.0872 22.9646 12.2762 22.9646 12.2762C22.9646 12.2762 23.1482 12.2078 23.276 12.3356C23.4038 12.4634 23.5874 12.7946 23.6792 12.9224C23.7206 12.9818 23.8268 13.097 23.9366 13.2752C24.086 13.5236 24.2102 13.7864 24.3074 14.0582C24.3128 13.9484 24.3344 13.7954 24.5234 13.7954L24.2372 13.2842Z" fill="#CAA13E"/>
<path fill-rule="evenodd" clip-rule="evenodd" d="M9.78675 17.2316C9.78675 17.2316 9.71835 17.0624 9.78675 16.7312C9.85515 16.4 9.96134 16.2452 9.99734 15.7592C10.0333 15.2732 10.3501 14.6666 10.3501 14.6666L11.2267 14.2688L11.8459 14.438L12.0295 15.2678L11.2465 15.6998C11.2465 15.6998 11.2051 15.8834 10.9837 16.0292C10.7623 16.1768 10.4563 16.292 10.3825 16.4414C10.3393 16.5332 10.3069 16.6304 10.2871 16.7312C10.2871 16.7312 10.0639 16.6844 9.92894 16.832C9.78675 16.985 9.79215 17.1182 9.78675 17.2316Z" fill="#F4EFC8"/>
<path fill-rule="evenodd" clip-rule="evenodd" d="M11.5561 17.0103C11.5561 17.0103 11.4823 17.0571 11.4283 17.1723C11.3743 17.0859 11.2447 16.5657 11.2393 16.0995C11.2339 15.6333 11.2051 15.5163 11.3131 15.3561C11.4211 15.1959 11.8441 15.0249 11.7847 14.7351C11.7253 14.4597 11.4733 14.3445 11.1655 14.4237C10.9495 14.4777 10.7893 14.9367 10.5643 15.1671C10.3951 15.3417 10.1935 15.3147 10.1377 15.4101C10.0639 15.5379 10.1323 15.6675 10.1107 15.7485C10.1053 15.7755 10.0369 15.9231 9.91452 16.1013C9.66612 16.4595 9.24492 16.9635 9.19092 17.4171C9.21072 17.1597 9.19632 17.1543 9.26472 16.8717L9.22332 16.8033L9.49332 15.9177L9.66792 15.1887L10.0585 13.9683L10.7461 12.7209L11.4157 11.972L12.1123 12.0188L12.1933 13.0647L12.5929 15.0285L13.4317 16.0599L12.0889 16.9635L11.5561 17.0103Z" fill="#EBCC73"/>
<path fill-rule="evenodd" clip-rule="evenodd" d="M11.9737 17.381C11.9737 17.381 11.8585 17.408 11.8189 17.3864C11.7775 17.3648 11.7379 17.3396 11.7505 17.3126C11.7631 17.2856 11.8369 17.2388 11.8369 17.2172C11.8405 17.1758 11.8099 17.1398 11.7685 17.1362C11.7055 17.1272 11.6875 17.1686 11.6875 17.1686C11.6875 17.1686 11.6281 17.1218 11.5777 17.1146C11.6065 17.111 11.6353 17.1092 11.6659 17.1092C11.5903 17.075 11.5111 17.0516 11.4283 17.0408C11.4967 16.9994 11.6299 16.8788 11.7181 16.8788C11.8063 16.8788 11.8603 16.8644 11.8459 16.8194C11.8315 16.7744 11.7649 16.7042 11.6911 16.6772C11.7181 16.6448 11.7379 16.5962 11.6713 16.4612C11.6029 16.328 11.6299 16.238 11.6515 16.2038C11.6713 16.1624 11.7397 16.0886 11.7721 16.0418C11.8045 15.995 11.8315 15.932 11.8873 15.8996C11.9143 15.8798 12.0025 15.8456 12.0889 15.8132C12.1843 15.7808 12.2635 15.7394 12.3175 15.7808C12.3769 15.8222 12.3499 15.8762 12.3499 15.8762C12.3499 15.8762 12.5389 15.8078 12.7081 15.896C12.8773 15.977 13.2895 16.0292 13.2895 16.0292L13.4371 16.3262L12.4597 17.165L12.0565 17.3666L11.9737 17.381Z" fill="#E5C66B"/>
<path fill-rule="evenodd" clip-rule="evenodd" d="M13.3311 16.0112C13.3311 16.0112 13.0287 16.2128 12.9603 16.2866C13.0017 16.292 13.0701 16.319 13.0413 16.3604C13.0089 16.4018 12.8127 16.544 12.7029 16.6772C12.5877 16.8104 12.4797 16.9796 12.4401 17.0624C12.3987 17.1362 12.0873 17.3522 11.9811 17.3792C12.2043 17.3792 12.6561 17.1038 12.8253 17.1038C12.8199 17.1848 12.8721 17.2784 12.9675 17.2874C13.0629 17.2946 13.3383 17.3468 13.7109 17.1182C14.0817 16.895 13.9593 16.7276 14.1141 16.6178C14.4111 16.4216 14.5317 16.247 14.6955 16.1372C14.8593 16.0274 14.9439 16.004 14.9439 16.004C14.9439 16.004 14.9493 15.923 14.9979 15.9302C15.0249 15.9338 15.0483 15.9518 15.0573 15.977C15.0573 15.977 15.3417 15.7754 15.7053 15.7196C15.6963 15.716 15.6909 15.7088 15.6855 15.6998C15.6855 15.6998 15.7125 15.6854 15.7179 15.6728C15.7179 15.6728 15.7377 15.6458 15.7503 15.6584C15.7629 15.671 15.7827 15.7736 15.8097 15.815C15.8691 15.788 15.9843 15.5306 15.9843 15.5306L16.2597 14.7422V14.0222L16.0437 14.0636L14.4237 14.7512L13.4409 15.77L13.3311 16.0112Z" fill="#E6BD62"/>
<path fill-rule="evenodd" clip-rule="evenodd" d="M17.9948 12.476C18.083 12.4544 18.1658 12.4202 18.2432 12.3752C18.2108 12.4634 18.2108 12.5588 18.0686 12.7658C17.9264 12.9728 17.921 13.0034 17.8058 13.2194C17.6906 13.4426 17.678 13.7648 17.5682 13.907C17.6168 13.8836 17.669 13.8674 17.723 13.8602C17.723 13.8602 17.6132 13.9556 17.5682 14.0564C17.5214 14.1572 17.4404 14.3678 17.2388 14.4956C17.0372 14.6234 16.7798 14.7062 16.5044 15.0086C16.229 15.3056 15.9446 15.6836 15.8024 15.8186C15.8762 15.6908 15.977 15.4334 16.004 15.2642C16.031 15.095 15.9986 14.8934 16.0454 14.6684C16.0922 14.4452 16.0922 14.2832 16.3154 13.8926C16.5386 13.502 16.922 12.1448 16.922 12.1448L17.7464 11.882L17.9948 12.476Z" fill="#B6933F"/>
<path fill-rule="evenodd" clip-rule="evenodd" d="M17.4008 11.9756C17.4008 11.9756 17.1524 12.3338 17.084 12.6506C17.0156 12.9674 17.0786 12.9404 17.0372 13.0952C17.012 13.1906 17.012 13.2896 17.0372 13.385C17.1236 13.2464 17.2406 13.1294 17.381 13.0466C17.615 12.9044 17.8076 12.8036 17.921 12.683C18.0362 12.5552 18.1316 12.3446 18.38 12.1826C18.2792 12.1682 18.137 12.1232 18.11 12.1286C18.2108 12.0134 18.5132 11.8388 18.8192 11.6282C19.1216 11.4122 19.1036 11.3258 19.595 11.1098C19.433 11.1368 19.3574 11.0954 19.2242 11.1098C19.2782 10.9946 19.4672 10.9406 19.6562 10.7516C19.8452 10.5626 19.5356 10.2854 19.5356 10.2854L18.0956 11.1566L17.4008 11.9756Z" fill="#C49937"/>
<path fill-rule="evenodd" clip-rule="evenodd" d="M13.493 11.3257L13.5254 11.0629L13.9376 10.4023L14.3696 9.24312V7.65553L14.3372 6.73753L14.4038 6.13813L14.456 5.94734L14.5118 5.87354L14.8628 6.05533L15.3488 6.71593L15.3956 7.99213L14.924 10.0045L13.574 11.4751L13.493 11.3257Z" fill="#DFC068"/>
<path fill-rule="evenodd" clip-rule="evenodd" d="M14.5659 5.79978C14.5659 5.79978 14.3499 5.80518 14.3031 6.70338C14.2563 7.60158 14.2347 8.07498 14.2023 8.51958C14.1699 8.96418 14.0925 9.23418 14.0547 9.49698C14.0169 9.75978 13.9953 10.1162 13.8711 10.3358C13.8171 10.4366 13.7019 10.7534 13.4318 10.991C13.1294 11.2538 12.6758 11.4356 12.6074 11.45C12.4868 11.477 11.8784 11.5382 11.63 11.6732C11.5418 11.72 11.3924 11.774 11.225 11.9306C10.8938 12.2276 10.4546 12.7604 10.1378 13.403C9.65178 14.3624 9.16577 17.0678 9.16577 17.0678L9.27557 16.8842C9.27557 16.8842 9.28997 16.6412 9.53298 16.2146C9.77058 15.788 9.70218 15.311 10.0334 14.4938C10.1612 14.1824 10.3232 13.7792 10.5194 13.4336C10.8308 12.8738 11.207 12.3932 11.5868 12.1304C12.206 11.7038 12.89 11.612 12.89 11.612L13.6245 11.126C13.6245 11.126 13.7523 10.8776 13.9215 10.5932C14.1591 10.1954 14.4615 9.74898 14.5281 9.10278C14.6289 8.14518 14.3859 7.51698 14.4003 6.94818C14.4147 6.37938 14.4201 5.96178 14.5335 5.86098C14.6487 5.76018 14.5659 5.79978 14.5659 5.79978Z" fill="#A88F33"/>
<path fill-rule="evenodd" clip-rule="evenodd" d="M14.5658 10.0855C14.5658 10.0855 14.8898 9.28815 15.0374 8.58076C15.0644 8.43856 15.1184 8.29636 15.1328 8.18296C15.2012 7.51336 15.2192 7.23797 15.1328 6.87257C15.0644 6.60257 14.8034 6.35957 14.6666 6.17057C14.5334 5.97437 14.4704 5.90057 14.4974 5.85917C14.5244 5.81777 14.6306 5.74938 14.735 5.75838C14.9582 5.76558 15.1688 5.86277 15.3164 6.02837C15.527 6.27137 15.6926 7.09577 15.6926 7.09577L15.8672 8.18476L16.3118 9.55455L14.5658 10.0855Z" fill="#C99E3D"/>
<path fill-rule="evenodd" clip-rule="evenodd" d="M17.6096 9.25586C17.6096 9.25586 17.5502 9.28286 17.4404 9.25586C17.4494 9.34586 17.408 9.43586 17.3306 9.48446C17.2154 9.43766 16.1426 9.53126 16.1426 9.53126C16.1426 9.53126 15.6422 9.44306 15.4874 8.78246C15.3776 8.34326 15.5684 7.73666 15.5072 7.33706C15.4118 6.75026 15.2786 6.63506 15.2642 6.45326C15.2498 6.27146 15.2372 6.22466 15.2372 6.10946C15.1778 6.09506 15.1418 6.07706 15.0824 6.07706C15.068 6.02306 15.0968 5.97626 15.0356 5.88086C15.068 5.89526 15.293 5.92226 15.554 6.17066C15.77 6.37226 15.77 6.44606 15.8024 6.48746C15.8438 6.52886 16.1732 6.81146 16.3154 7.09406C16.4576 7.37666 16.733 8.27666 16.796 8.42426C16.8158 8.48366 16.8554 8.54486 16.958 8.68166C17.1164 8.87606 17.3486 9.20186 17.6096 9.25586Z" fill="#B58634"/>
<path fill-rule="evenodd" clip-rule="evenodd" d="M15.8402 6.5C16.0058 6.7664 16.1534 7.0436 16.2848 7.3298C16.445 7.6934 16.5422 7.9904 16.7438 8.2334C16.634 7.9166 16.4414 7.2938 16.3262 7.0724C16.1984 6.8402 15.9374 6.5882 15.8402 6.5Z" fill="#A88F33"/>
<path fill-rule="evenodd" clip-rule="evenodd" d="M13.9844 10.9891C13.9844 10.9891 13.709 11.0575 13.196 11.3275C13.0268 11.4157 12.8666 11.4877 12.71 11.5561C12.305 11.7397 11.8712 11.9089 11.5274 12.0007C11.5544 12.0331 11.5688 12.0475 11.5688 12.0475C11.5688 12.0475 11.5688 12.1807 11.6426 12.2581C11.6012 12.2995 11.0558 12.6703 11.216 13.9123C11.3258 13.8709 11.4536 13.8169 11.4734 13.8169C11.5058 13.8223 11.5148 13.9123 11.5544 13.9123C11.594 13.9123 11.729 13.8583 11.8712 13.6747C11.8658 13.7485 11.7848 14.4919 12.224 14.9905C12.305 14.8951 12.5138 14.5783 12.5138 14.5783L12.5192 14.4775C12.5192 14.4775 12.539 14.1247 12.6524 13.8025C12.7658 13.4803 12.9908 13.2427 12.9908 13.2427L14.159 11.5741L13.9844 10.9891Z" fill="#E6C367"/>
<path fill-rule="evenodd" clip-rule="evenodd" d="M12.8918 13.4391C12.8378 13.4769 12.7802 13.5057 12.7172 13.5255C12.6974 13.4571 12.6704 13.2231 12.8324 12.9927C13.0214 12.7173 13.4336 12.3591 13.547 12.0747C13.6208 11.8911 13.5884 11.4321 14.2436 10.8453C14.8988 10.2585 15.1562 10.0569 15.1562 10.0569L16.2146 9.52588L17.5178 10.0389L16.8716 12.5751L16.3694 13.7631L14.3714 13.3869L12.8918 13.4391Z" fill="#DCBA5A"/>
<path fill-rule="evenodd" clip-rule="evenodd" d="M13.655 12.7514L13.9034 12.44V12.2186C13.9034 12.2186 14.1788 12.1448 14.4758 11.8424C14.7728 11.54 15.185 10.9586 15.5486 10.9928C15.9122 11.0342 15.9482 11.7812 15.9608 11.9918C15.9752 12.2024 16.0202 12.6794 16.094 12.9368C16.1768 13.1942 15.2084 14.1662 15.2084 14.1662L14.5514 14.6666L13.655 12.7514Z" fill="#E9CE77"/>
<path fill-rule="evenodd" clip-rule="evenodd" d="M14.4237 15.3416C14.4237 15.3416 14.6253 15.0248 14.4777 14.9564C14.5641 14.7602 14.7261 14.5514 14.7261 14.5514C14.7261 14.5514 14.8413 14.267 15.2121 13.9178C15.5829 13.5686 15.8133 13.3364 15.8727 13.1006C15.9105 12.9476 15.9303 12.791 15.9321 12.6344C15.9717 12.6668 16.0149 12.6956 16.0599 12.7208C16.1193 12.7478 16.4037 12.9836 16.3623 13.4552C16.3209 13.9286 16.1463 14.1248 16.1463 14.1248C16.1463 14.1248 15.9771 14.294 15.8565 14.3822C15.7287 14.4686 15.6819 14.5712 15.4659 14.5784C15.4875 14.5604 15.5127 14.546 15.5397 14.537C15.5397 14.537 15.3165 14.51 15.1959 14.618C15.0753 14.7278 14.8197 15.0626 14.6919 15.1652C14.5659 15.2498 14.4237 15.3434 14.4237 15.3416Z" fill="#CDAE50"/>
<path fill-rule="evenodd" clip-rule="evenodd" d="M23.5029 10.0316C23.1807 9.91465 22.8405 9.84805 22.4985 9.83545C21.9243 9.81565 21.0873 9.84985 20.2647 9.85525C19.3791 9.86065 18.5763 9.55285 17.4639 9.49705C17.2803 9.38725 16.8159 8.91025 15.3633 9.92365C15.4497 9.91825 16.4181 9.70045 16.7529 10.1198C17.0913 10.5374 16.9959 11.2466 16.9491 11.4158C16.8609 11.792 16.5783 12.341 16.4631 12.7262C16.3479 13.1114 16.3749 13.313 16.2939 13.583C16.2111 13.853 16.0311 13.988 16.1373 14.2976C16.2795 14.2112 16.3533 14.2112 16.5909 13.6784C16.8285 13.1456 16.7799 12.7658 17.1723 12.3158C17.5575 11.8622 18.1983 11.243 18.4413 11.0864C18.6843 10.9316 20.6211 9.92545 22.6461 10.8848C23.1375 10.8344 23.5029 10.0316 23.5029 10.0316Z" fill="#D2A83E"/>
<path fill-rule="evenodd" clip-rule="evenodd" d="M16.1786 9.659C16.1768 9.6392 16.1714 9.6176 16.1642 9.5996C16.1444 9.56 16.121 9.5222 16.0904 9.4898C16.0904 9.4898 15.6098 9.4034 15.3668 9.4304C14.9402 9.4772 14.555 10.0046 14.375 10.2746C14.195 10.5446 13.97 10.9622 13.727 11.1782C13.7288 11.1566 13.7252 11.135 13.7126 11.1188C13.7126 11.1188 13.727 11.1386 13.6982 11.1656C13.6712 11.1926 13.6712 11.207 13.6838 11.2196L13.7252 11.261C13.7396 11.261 14.1158 11.0918 14.6288 10.613C15.1742 10.1126 15.5918 9.857 15.8114 9.7688C15.9338 9.7184 16.0544 9.6824 16.1786 9.659Z" fill="#C29637"/>
<path fill-rule="evenodd" clip-rule="evenodd" d="M25.5026 7.60706C25.5026 7.60706 25.4144 7.71686 25.3064 7.83566C25.0634 8.09306 24.7466 8.38106 24.4766 8.67986C24.2192 8.96426 23.9312 9.18566 23.6054 9.55646C23.2796 9.92726 22.9034 10.3395 22.808 10.4601C22.7216 10.5807 22.6532 10.7769 22.6532 10.8777C22.6064 10.8453 22.5524 10.8093 22.5524 10.8093C22.5758 10.8525 22.6028 10.8921 22.6352 10.9299C22.7036 11.0253 22.8098 11.1459 22.8638 11.2197C22.9304 11.3133 22.979 11.4195 23.006 11.5311C23.0384 11.5365 23.249 11.5779 23.5118 11.1459C23.7746 10.7139 24.1184 10.2423 24.1184 10.2423L24.6638 9.43046L25.0076 8.74286L25.4396 7.97246L25.5026 7.60706Z" fill="#AC8132"/>
<path fill-rule="evenodd" clip-rule="evenodd" d="M26.0624 7.05444C26.0624 7.05444 25.7313 7.32444 25.6035 7.48644C25.4757 7.64844 25.1715 8.07324 25.1715 8.07324L25.2813 8.05884L25.8357 7.56744L26.0516 7.18224L26.0624 7.05444Z" fill="#A88F33"/>
<path fill-rule="evenodd" clip-rule="evenodd" d="M25.9599 28.7552C25.9599 28.7552 25.9545 28.532 26.0805 28.397C26.2083 28.2638 26.5341 28.0658 26.8509 27.3296C27.1677 26.5934 27.2037 26.426 27.2037 26.426C27.2037 26.426 26.6349 26.912 26.2857 27.0272C26.3685 26.858 26.4135 26.7374 26.4549 26.651C26.4081 26.6096 26.2119 26.5646 26.1921 26.5412C26.3019 26.4314 26.3613 26.165 26.5827 25.9868C26.8671 25.7708 27.3855 25.4 27.7886 25.0688C28.1918 24.7376 28.9838 23.969 29.0864 23.744C29.1458 23.8304 29.1602 23.8862 29.1602 23.8862C29.1602 23.8862 28.7624 24.4046 28.5536 24.7358C28.37 25.0202 28.3844 25.1804 28.3844 25.1804L28.7606 25.0184C28.7606 25.0184 28.8704 25.4216 28.3754 26.0372C28.5914 25.9544 28.6778 26.0048 28.802 25.9364C28.6004 26.0642 28.3214 26.2388 28.0586 26.7194C27.8012 27.2 27.452 27.7598 26.8635 28.109C26.2893 28.478 25.9599 28.7534 25.9599 28.7552Z" fill="#A67A2E"/>
<path fill-rule="evenodd" clip-rule="evenodd" d="M24.4803 10.316C24.4803 10.316 24.2571 10.7822 24.2229 11.1458C24.2175 11.234 24.1959 11.3006 24.1959 11.4032C24.1905 11.7272 24.2157 12.0908 24.1419 12.26C24.1149 12.1916 24.1005 12.1448 24.0735 12.1178C24.0321 12.233 23.9583 12.5894 23.8989 12.7244C23.8719 12.638 23.8125 12.3338 23.8179 11.9756C23.8233 11.6174 23.8323 11.549 23.8323 11.4752C23.8179 11.585 23.7459 11.7326 23.7171 11.819C23.6757 11.7452 23.6307 11.6498 23.5749 11.5706C23.5425 11.6246 23.5011 11.7038 23.4651 11.7452C23.4597 11.7128 23.4453 11.6246 23.4381 11.5022C23.4327 11.36 23.4237 11.1782 23.4327 11.1386C23.4471 11.0648 23.5605 10.775 23.8035 10.5104C24.0933 10.1936 24.3903 9.58519 24.4785 9.39619C24.5667 9.20719 24.9375 8.42419 24.9375 8.42419H25.2219L24.8097 9.36379C24.8097 9.36379 24.5613 9.87679 24.4335 10.0658C24.3057 10.2548 24.0339 10.7948 23.9151 11.0054C24.0015 10.8902 24.0753 10.8308 24.1635 10.721C24.2463 10.6454 24.4803 10.316 24.4803 10.316Z" fill="#8C6228"/>
<path fill-rule="evenodd" clip-rule="evenodd" d="M26.0678 7.02014C26.021 7.16234 25.9472 7.29554 25.8518 7.41074C25.6826 7.61234 25.319 7.88234 25.1426 8.09834C24.9806 8.30894 24.6566 8.88134 24.8042 9.56174C24.8582 9.41414 24.9608 9.12254 25.2308 8.79134C25.5008 8.46014 25.7906 8.08214 25.9328 7.78694C26.075 7.48994 26.093 7.25414 26.093 7.25414L26.147 7.18574L26.1146 7.03094L26.0678 7.02014Z" fill="#CBA94C"/>
<path fill-rule="evenodd" clip-rule="evenodd" d="M31.5957 25.1318C31.5957 25.1318 31.4859 24.8348 31.4535 24.563C31.4211 24.2912 31.5075 24.239 31.4067 23.9294C31.3473 23.7404 31.2375 23.7674 31.2105 23.7404C31.1835 23.7134 31.1637 23.429 31.1691 23.2742C31.1745 23.1194 31.1637 22.916 31.1367 22.8296C31.0953 22.7972 31.0683 22.7702 31.0089 22.5668C30.9405 22.3652 30.9081 22.2644 30.8757 22.2032C30.8433 22.142 30.7479 22.088 30.7479 22.0286C30.7479 21.908 30.8577 21.845 30.8577 21.8126C30.8523 21.7442 30.7695 21.7982 30.7479 21.7802C30.7209 21.7478 30.8163 21.5516 30.7803 21.5228C30.7659 21.5084 30.6705 21.6236 30.6471 21.5912C30.6201 21.5588 30.5877 21.233 30.5373 21.017C30.4905 20.8064 30.4419 20.6534 30.4365 20.5904C30.4311 20.531 30.0603 19.4708 29.9703 19.2134C29.8983 18.9974 29.8371 18.776 29.7867 18.5528C29.7597 18.425 29.7399 18.1622 29.7273 18.1892C29.7147 18.2162 29.7219 18.3494 29.7003 18.3458C29.6805 18.3404 29.6139 17.8742 29.5905 17.8004C29.5707 17.7266 29.4573 17.4764 29.4285 17.2946C29.4015 17.111 29.3421 16.634 29.3007 16.3082C29.2593 15.9824 29.2413 15.8492 29.2413 15.7682C29.2485 15.5684 29.2377 15.3704 29.2089 15.1724C29.1549 14.8286 29.0468 14.411 28.9514 14.168C28.7678 13.709 28.2818 12.5354 28.1954 12.242C28.1954 12.1682 28.2908 12.2096 28.2908 12.2096C28.2908 12.2096 28.5284 12.8054 28.703 13.2626C28.8722 13.7216 29.0342 14.1248 29.0739 14.1662C29.1063 14.2076 29.3637 14.6576 29.4771 15.3956C29.5905 16.1336 29.6319 16.8122 29.7003 17.2658C29.7327 17.4818 29.7597 17.7104 29.8281 17.9408C29.9019 18.1892 30.0171 18.4466 30.1665 18.839C30.2943 19.1702 30.3897 19.4456 30.4419 19.6832C30.5013 19.9856 30.5013 20.216 30.5373 20.3654C30.5697 20.4932 30.6201 20.7506 30.7335 21.1214C30.8487 21.4922 31.0179 21.971 31.1313 22.268C31.3545 22.8638 31.4553 23.3606 31.4895 23.6252C31.5219 23.9024 31.6227 24.8474 31.5957 25.1318Z" fill="#A88F33"/>
<path fill-rule="evenodd" clip-rule="evenodd" d="M26.0804 6.98604L26.066 7.01844C26.066 7.01844 26.1074 7.03284 26.0984 7.08684C26.0984 7.16244 26.0948 7.23624 26.084 7.31004C26.0696 7.40544 26.0426 7.47923 26.0372 7.53863C26.0372 7.66643 26.057 7.81403 25.8752 8.17942C25.8212 8.28022 25.7888 8.36842 25.76 8.42782C25.6916 8.57542 25.6772 8.59702 25.6178 8.66541C25.7132 8.61142 26.057 8.39542 26.2316 8.42782C26.111 8.49622 25.9292 8.62941 25.814 8.80401C25.841 8.80941 25.9562 8.83101 26.138 8.80401C26.4404 8.75721 26.7806 8.64921 27.0776 8.67081C27.4034 8.69061 27.2738 8.28022 27.2738 8.28022L26.8994 7.45584L26.1902 6.95544L26.0804 6.98604Z" fill="#BE9C44"/>
<path fill-rule="evenodd" clip-rule="evenodd" d="M27.9327 13.1637C27.9327 13.1637 27.6159 12.8469 27.4881 11.7597C27.3603 10.6671 27.3873 9.05966 27.3873 9.05966L27.1299 8.43146C27.1299 8.43146 27.0759 8.01386 26.9409 7.85726C26.8059 7.70066 26.5431 7.43966 26.4225 7.31186C26.3019 7.18406 26.1651 7.00946 26.0841 6.98066C26.1255 6.91226 26.3073 6.52706 27.0093 6.52166C27.7113 6.51626 27.9273 6.90686 28.0011 7.04906C28.0748 7.19126 28.4042 7.80506 28.5284 8.97506C28.6436 10.1433 28.649 10.2315 28.6292 10.6347C28.6148 10.8579 28.541 11.3781 28.4132 11.9325C28.2944 12.4023 28.1666 12.9279 27.9327 13.1637Z" fill="#A17C34"/>
<path fill-rule="evenodd" clip-rule="evenodd" d="M26.9391 14.0942C27.0453 14.1014 27.1497 14.078 27.2415 14.0258C27.3423 14.0204 27.7077 14.0672 27.9903 13.709C28.0101 13.79 28.0587 14.0114 27.9309 14.2094C27.9993 14.141 28.1 14.114 28.1144 14.0942C28.1198 14.195 28.2152 14.5064 27.8121 15.2624C27.9219 15.1418 28.0497 15.1472 28.1648 15.1346C28.1702 15.2768 28.2476 15.7538 28.0443 16.0112C27.9111 16.1858 27.6915 16.1318 27.6915 16.1318C27.6951 16.094 27.6951 16.0544 27.6915 16.0166C27.6861 15.9428 27.6591 15.869 27.6771 15.8204C27.5709 15.7718 27.4755 15.7052 27.3927 15.6242C27.1551 15.401 26.8473 15.0176 26.824 14.7332C26.797 14.4164 27.0813 14.348 27.0813 14.348C27.0579 14.3264 27.0381 14.3012 27.0219 14.2742C27.0075 14.2292 26.9931 14.1554 26.9391 14.0942Z" fill="#8C6228"/>
<path fill-rule="evenodd" clip-rule="evenodd" d="M24.8331 10.6598C24.8331 10.6598 24.8187 10.64 24.7467 10.7282C24.7611 10.64 24.7737 10.559 24.7791 10.4798C24.8133 10.406 24.8583 10.3376 24.9123 10.2782C24.8709 10.3592 24.8439 10.433 24.8439 10.433C24.8439 10.433 24.9447 10.244 25.0923 10.1306C25.1931 10.0496 25.3209 10.01 25.3767 9.9344C25.4361 9.8534 25.4235 9.839 25.4361 9.8246C25.4361 9.8246 25.5693 9.7382 25.7745 9.4808C25.8015 9.4484 25.8429 9.4124 25.8699 9.38C25.9167 9.3602 26.0247 9.3116 26.1543 9.2468C26.2875 9.173 26.4387 9.0722 26.5305 9.0308C26.7141 8.9498 26.9067 8.957 26.9967 8.8292C27.0651 8.8094 27.1389 8.606 27.1245 8.4314C27.2253 8.4728 27.7437 8.795 27.9218 9.4988C28.0496 9.9992 27.821 10.7678 27.7257 11.1404C27.6303 11.5112 27.6159 11.7884 27.4827 11.9558C27.3135 12.1808 26.7681 12.4958 26.6331 12.6524C26.5179 12.7802 26.1741 13.106 26.1885 13.34C26.2029 13.5146 26.4171 13.61 26.4639 13.6424C26.5107 13.6748 26.5107 13.7162 26.5971 13.6964C26.6835 13.6766 26.7177 13.637 26.7537 13.637C26.7951 13.6424 26.7951 13.6514 26.8131 13.6514C26.8275 13.6514 26.8401 13.6496 26.8545 13.646C26.8545 13.646 26.8401 13.8944 26.2587 13.97C26.2173 13.9754 26.1759 13.9898 26.1255 13.997C26.1939 13.9646 26.2353 13.9646 26.3091 13.8638C26.2263 13.8494 25.9923 13.8368 25.9329 13.817C25.9527 13.7846 26.0157 13.6964 26.0661 13.655C26.1129 13.6136 26.0607 13.601 26.0193 13.6226C25.9491 13.6712 25.8807 13.7216 25.8177 13.7774C25.7493 13.8368 25.6899 13.9196 25.5801 13.9934C25.5477 13.8836 25.5531 13.6766 25.6809 13.5272C25.6485 13.5326 25.5855 13.628 25.5243 13.6082C25.5135 13.5092 25.5207 13.4084 25.5441 13.3112C25.5765 13.1888 25.7547 12.9728 25.7547 12.9728L26.6115 11.441L26.7951 10.28L24.8331 10.6598Z" fill="#92723A"/>
<path fill-rule="evenodd" clip-rule="evenodd" d="M24.7861 10.7245C24.7861 10.7245 24.7394 10.7569 24.8329 10.8199C24.8185 10.8397 24.7861 10.9063 24.7448 10.9531C24.698 11.0071 24.6494 11.0413 24.6296 11.0863C24.5882 11.1817 24.5558 11.2483 24.5558 11.2879C24.5558 11.3293 24.5414 11.5903 24.428 11.7595C24.3866 11.8189 24.3398 11.9215 24.3074 11.9881C24.239 12.1087 24.1796 12.2041 24.1652 12.2581C24.1382 12.3535 24.1184 12.6163 24.1184 12.6163C24.1184 12.6163 24.1778 12.5425 24.2012 12.5155C24.1688 12.5839 24.1328 12.6577 24.0806 12.7117C24.113 12.6847 24.2084 12.6163 24.3704 12.4741C24.5936 12.2851 24.9445 11.9683 25.3693 11.7181C25.2415 11.7649 25.1317 11.7649 25.0435 11.7775C25.1119 11.7091 25.7257 10.9891 26.0479 10.9207C26.0677 10.8955 26.0767 10.8649 26.0749 10.8325L25.7995 10.8055L25.2397 10.9261L25.1587 10.4941L24.7861 10.7245Z" fill="#B18E3E"/>
<path fill-rule="evenodd" clip-rule="evenodd" d="M25.6772 13.1835C25.6772 13.1835 25.6034 13.2573 25.535 13.4409C25.4828 13.3869 25.4378 13.3239 25.4018 13.2573C25.301 13.0881 25.1444 12.8721 24.7826 12.9945C24.7772 12.8793 24.7682 12.8199 24.7826 12.7371C24.842 12.7227 25.0256 12.5769 25.2092 12.3609C25.337 12.2133 25.4576 12.0441 25.5404 11.8281C25.5944 11.7867 25.688 11.7183 25.8104 11.6391C25.985 11.5185 26.1956 11.3547 26.228 11.1729C26.1452 11.2053 25.9706 11.288 25.7096 11.2736C25.8104 11.2268 25.967 11.1782 25.9472 10.9766C25.9886 10.9496 26.021 10.9298 26.021 10.9298C25.9904 10.919 25.958 10.9155 25.9256 10.9155C25.9202 10.8957 25.9112 10.8687 25.8662 10.8831C25.8212 10.8975 25.8122 10.8975 25.8068 10.9155C25.787 10.9209 25.724 10.9154 25.679 10.9478C25.6322 10.9803 25.5044 11.0901 25.4558 11.1081C25.4756 11.0757 25.5026 11.0271 25.5026 11.0271C25.5026 11.0271 25.3694 11.0415 25.274 11.0811C25.0994 11.1405 24.8978 11.2503 24.6926 11.3565C24.7124 11.3241 24.7196 11.3025 24.734 11.2971C24.7484 11.2917 24.7808 11.2826 24.7808 11.2772C24.7808 11.2718 24.7664 11.2233 24.7754 11.2035C24.8366 11.0739 24.9086 10.9496 24.9914 10.8326C25.0868 10.7048 25.1066 10.5212 25.1066 10.5212L25.5242 10.3106L26.6978 10.0406L27.4591 10.0875L27.3638 10.6148L26.9138 11.5346L26.5286 12.3735L26.0894 12.8865L25.6772 13.1835Z" fill="#543E26"/>
<path fill-rule="evenodd" clip-rule="evenodd" d="M27.5799 10.901C27.5799 10.901 27.1209 11.468 26.9931 11.5562C27.0759 11.3816 27.5799 10.3412 27.7635 10.0514C27.7221 10.019 27.6681 10.019 27.7959 9.51135C27.6861 9.76875 27.6483 9.90195 27.5583 9.97035C27.4683 10.0388 27.4575 10.0172 27.3963 10.0172C27.4071 9.99555 27.4125 9.97215 27.4107 9.94875C27.4107 9.94875 27.0255 9.90195 26.7627 9.90195C26.4999 9.90195 25.9797 10.0442 25.6899 10.1594C25.4613 10.2548 25.3316 10.2548 25.2506 10.3142C25.1678 10.3826 25.1228 10.4564 25.0814 10.4762C25.049 10.496 24.8924 10.5446 24.8582 10.5968C24.8258 10.6508 24.7718 10.712 24.7718 10.7246C24.7718 10.7372 24.7574 10.757 24.7988 10.7444C24.8132 10.739 24.914 10.685 25.0274 10.6166C25.1822 10.5302 25.3712 10.4276 25.5081 10.3682C25.8987 10.2134 26.0211 10.2404 26.1957 10.2062C26.3793 10.1738 26.6403 10.0964 26.8149 10.0964C26.9895 10.091 27.3207 10.0964 27.3963 10.1108C27.3639 10.1378 27.3369 10.1702 27.3495 10.2854C27.3495 10.3178 27.3225 10.3538 27.2955 10.433C27.2145 10.6562 27.0579 11.0288 26.9715 11.216C26.8509 11.4734 26.7141 11.6876 26.6475 11.8226C26.5791 11.9558 26.4315 12.3086 26.2839 12.4976C26.1363 12.6866 26.0607 12.8 26.0139 12.8414C25.9671 12.8828 25.6377 13.1258 25.6611 13.2122C25.7205 13.1924 26.1003 13.0502 26.3757 12.7406C26.6511 12.431 26.7069 12.2402 26.9211 12.071C27.1353 11.9018 27.3063 11.6174 27.4071 11.3834C27.4935 11.1638 27.4737 11.0954 27.5799 10.901Z" fill="#806031"/>
<path fill-rule="evenodd" clip-rule="evenodd" d="M17.6924 15.14C17.6924 15.14 17.633 15.3884 17.4962 15.5108C17.363 15.6314 17.1254 15.734 17.0984 15.9374C17.066 16.139 17.336 16.2398 17.336 16.2398C17.336 16.2398 17.1884 16.4828 17.1884 16.6664C17.1884 16.8554 17.183 16.8896 17.2028 17.0714C17.1812 17.0858 17.1632 17.1038 17.1488 17.1254C17.1488 17.1254 17.1632 17.3 17.2964 17.4098C17.4296 17.5196 17.5448 17.5844 17.6132 17.5574C17.624 17.579 17.633 17.6024 17.6402 17.6258C17.6402 17.6258 17.741 17.3684 17.8094 17.1452C17.8778 16.9166 17.9372 16.949 17.9642 16.6394C17.9912 16.3298 18.2882 15.8006 18.2882 15.8006L18.4916 15.3488L18.1622 15.0914L17.6924 15.14Z" fill="#B6903C"/>
<path fill-rule="evenodd" clip-rule="evenodd" d="M18.3062 15.5846C18.2378 15.6548 18.1748 15.7286 18.119 15.8078C18.0326 15.9284 17.9642 16.0364 17.8346 16.0832C17.705 16.13 17.624 16.13 17.633 16.2578C17.6402 16.3856 17.7608 16.4414 17.8292 16.5062C17.903 16.5746 17.9624 16.6898 17.93 16.8176C17.9714 16.7978 18.0452 16.7762 18.1136 16.6286C18.182 16.481 18.659 15.5828 18.659 15.5828L18.3062 15.5846Z" fill="#685026"/>
<path fill-rule="evenodd" clip-rule="evenodd" d="M20.1889 13.5128C20.1889 13.5128 20.2303 13.403 20.1889 13.3238C20.1475 13.2428 19.8991 13.214 19.7767 13.1222C19.6489 13.0268 19.4923 12.9602 19.3645 13.0016C19.3843 12.9548 19.4599 12.854 19.3969 12.8324C19.3375 12.8126 19.1125 12.9134 19.0531 12.9602C18.9937 13.007 18.8569 13.061 18.8299 13.0934C18.8029 13.1258 18.7561 13.1888 18.7291 13.1618C18.7021 13.142 18.6877 13.0934 18.6427 13.1204C18.5977 13.1474 18.3727 13.331 18.3313 13.4372C18.2899 13.5434 18.1981 13.781 17.9191 14.051C17.6401 14.321 17.5195 14.4956 17.6023 14.5964C17.6851 14.6972 17.7229 14.6234 17.7355 14.7116C17.7463 14.798 17.7409 14.8844 17.7211 14.969C17.6887 15.1112 17.6347 15.2444 17.7067 15.2714C17.8957 15.3308 18.0775 15.2174 18.1189 15.2516C18.1999 15.3254 18.0721 15.59 18.2665 15.6422C18.4627 15.6962 18.6571 15.5954 18.6571 15.5954L19.3717 15.2102L20.0593 14.8466L20.4121 14.15L20.2231 13.5686L20.1889 13.5128Z" fill="#D4B968"/>
<path fill-rule="evenodd" clip-rule="evenodd" d="M19.5141 15.176C19.5141 15.176 19.3935 14.9924 19.5411 14.8322C19.6887 14.6702 19.8993 14.6036 19.9803 14.5028C19.9641 14.483 19.9443 14.4686 19.9209 14.4614C19.9749 14.3642 20.0577 14.285 20.1585 14.2364C20.1171 14.195 20.0631 14.1626 20.0037 14.1626C19.8705 14.1626 19.7877 14.2436 19.6653 14.2436C19.5447 14.2436 19.5321 14.1842 19.5321 14.1842C19.5321 14.1842 19.7337 14.1644 19.7157 14.0744C19.6959 13.979 19.6617 13.979 19.6617 13.979C19.6617 13.979 20.0523 13.817 20.1207 13.7306C20.1891 13.6442 20.1801 13.5416 20.1945 13.502C20.2413 13.502 20.5113 13.3598 20.6211 13.421C20.7309 13.4822 20.6535 13.6442 20.6535 13.6442C20.6535 13.6442 20.9847 13.3958 21.1521 13.1528C21.2997 13.1672 21.3681 13.052 21.4761 13.052C21.6093 13.052 21.8199 13.2356 21.8613 13.6244C21.8883 13.8476 21.9297 13.9772 21.8883 14.3732C21.8685 14.5964 21.8739 15.0752 21.9423 15.3128C21.9891 15.5018 22.0971 15.482 22.0971 15.482C22.0809 15.5396 22.0467 15.59 22.0017 15.6296C21.9279 15.698 21.9189 15.878 21.9279 15.9464C21.9387 15.9968 21.9531 16.0454 21.9693 16.094C21.9693 16.094 21.8829 16.1948 21.8595 16.2632C21.8397 16.3316 21.7497 16.3784 21.6849 16.3784C21.6201 16.3784 21.6525 16.373 21.5643 16.3784C21.4761 16.3838 21.4491 16.3982 21.3951 16.3784C21.3411 16.3586 21.2997 16.337 21.3213 16.1624C21.3411 15.9878 20.6463 15.581 20.6463 15.581L19.5123 15.176H19.5141Z" fill="#CCA849"/>
<path fill-rule="evenodd" clip-rule="evenodd" d="M18.2108 16.9022C18.2108 16.9022 18.4592 17.2334 19.4798 17.2334C19.9658 17.2334 20.135 17.1866 20.2358 17.1596C20.3456 17.1326 20.7542 16.9706 21.1664 16.4846C21.5372 16.0454 21.4562 15.8654 21.4562 15.8654L21.2402 15.833L20.5382 15.9284L18.461 16.814L18.2108 16.9022Z" fill="#585136"/>
<path fill-rule="evenodd" clip-rule="evenodd" d="M18.9721 16.9832C18.9721 16.9832 18.0865 17.1794 18.0865 16.6196C18.0865 16.0742 18.6319 15.5 18.7687 15.3992C18.9109 15.2984 19.2493 15.1832 19.2493 15.1832H20.0665L20.2213 15.5954L20.1529 16.4864L18.9721 16.9832Z" fill="#252211"/>
<path fill-rule="evenodd" clip-rule="evenodd" d="M19.7893 15.3505C19.7893 15.3505 19.6202 15.1939 19.235 15.4045C18.8498 15.6151 18.5384 16.0525 18.5186 16.4503C18.4988 16.8031 18.8084 17.0641 19.289 17.0785C19.6472 17.0929 19.8631 17.0515 19.9711 17.0245C19.9441 16.9921 19.8019 16.8139 19.8019 16.8139L19.7893 15.3505Z" fill="#C3B378"/>
<path fill-rule="evenodd" clip-rule="evenodd" d="M19.6221 15.4371C19.6221 15.4371 19.5807 15.4047 19.4601 15.4695C19.3593 15.5235 19.2117 15.6657 19.0965 15.7665C19.0227 15.8259 18.9759 15.8529 18.9345 15.8997C18.7653 16.1013 18.6231 16.4325 18.7059 16.5963C18.7887 16.7601 19.0587 16.9491 19.7463 16.8195L19.6203 15.4353L19.6221 15.4371Z" fill="#E6D89C"/>
<path fill-rule="evenodd" clip-rule="evenodd" d="M19.3988 15.7772C19.3988 15.7772 19.289 15.9464 19.289 16.2164C19.289 16.4918 19.4456 16.931 20.018 16.9652C20.4572 16.9922 20.7524 16.3316 21.0728 16.0742C21.3158 15.878 21.4634 15.8726 21.4634 15.8726C21.4634 15.8726 21.215 15.6026 20.5508 15.2534C19.8956 14.9006 19.1612 14.8538 18.7616 15.3956C18.9506 15.3812 19.559 15.2264 19.559 15.2264L19.856 15.3218L19.3988 15.7772Z" fill="#252211"/>
<path fill-rule="evenodd" clip-rule="evenodd" d="M20.2556 16.1336C20.2358 16.0922 20.2232 16.0382 20.3024 16.0238C20.3816 16.0094 20.4176 16.0184 20.4446 16.0778C20.4716 16.1372 20.4986 16.1876 20.459 16.211C20.4176 16.2344 20.3114 16.2128 20.2556 16.1336ZM20.1277 15.7484C20.1277 15.7484 20.1007 15.7682 20.1133 15.7286C20.1187 15.6818 20.1547 15.6008 20.2412 15.6188C20.3276 15.6368 20.3096 15.734 20.2952 15.761C20.2808 15.788 20.2088 15.8348 20.1529 15.815C20.1277 15.8096 20.1133 15.7844 20.1205 15.7592C20.1223 15.7574 20.1241 15.752 20.1277 15.7484Z" fill="#6F674D"/>
<path fill-rule="evenodd" clip-rule="evenodd" d="M12.7371 15.923C12.7371 15.923 12.9531 16.085 13.2033 16.0796C13.4517 16.0742 13.7721 15.8168 13.9179 15.653C14.0043 15.5576 14.0799 15.4568 14.1609 15.3776C14.2293 15.3092 14.2761 15.2768 14.3085 15.23C14.3553 15.176 14.4039 15.0752 14.4291 15.041C14.3697 15.0878 14.2815 15.1688 14.1915 15.2246C14.1051 15.2786 13.9161 15.3794 13.8387 15.4082C13.7649 15.4352 12.9999 15.8402 12.9999 15.8402L12.7371 15.923Z" fill="#AC924C"/>
<path fill-rule="evenodd" clip-rule="evenodd" d="M13.0663 13.9069C13.0663 13.9069 13.1869 13.8259 13.4191 13.7737C13.6423 13.7197 14.0941 13.6783 14.0941 13.6783L14.4649 13.8403L14.6125 14.4001L14.3425 14.9815L13.9987 15.1975L13.6081 14.5693L13.0663 13.9069Z" fill="#9F8E57"/>
<path fill-rule="evenodd" clip-rule="evenodd" d="M12.5804 14.4056L12.4526 14.501C12.4526 14.501 12.485 14.4416 12.512 14.258C12.539 14.0744 12.6812 13.6298 12.8882 13.3724C13.0952 13.115 13.0898 13.1294 13.0898 13.1294C13.052 13.1222 13.0106 13.133 12.98 13.1564C13.007 13.0952 13.1816 12.8792 13.3562 12.7712C13.5309 12.6632 13.5993 12.629 13.7829 12.7172C13.9665 12.8054 14.0115 12.8504 14.1465 12.845C14.2797 12.8396 14.3949 12.6974 14.3949 12.6974C14.3949 12.6974 14.4219 12.7838 14.3211 12.9872C14.2203 13.1888 13.8207 13.601 13.8207 13.601L12.9908 14.168L12.5804 14.4056Z" fill="#EAC970"/>
<path fill-rule="evenodd" clip-rule="evenodd" d="M13.1942 13.8386C13.1942 13.8386 13.7954 13.9196 13.9772 13.7522C13.9826 13.772 14.0042 13.772 14.0042 13.7846C14.0024 13.7954 13.9988 13.8044 13.9898 13.8116C14.0096 13.808 14.0294 13.8062 14.0492 13.8062C14.0726 13.8134 14.0978 13.8188 14.123 13.8206C14.1428 13.8206 14.1626 13.8188 14.1824 13.8152C14.1788 13.8422 14.1644 13.8674 14.141 13.8836C14.168 13.8836 14.195 13.889 14.195 13.9106C14.195 13.9322 14.2004 13.9988 14.168 14.0114C14.141 14.0186 14.1122 14.0168 14.0852 14.006C14.087 14.0582 14.1014 14.1086 14.1266 14.1536C14.1806 14.2544 14.2958 14.3696 14.4506 14.3372C14.4506 14.3372 14.5316 14.5334 14.1878 14.9708C14.141 15.0302 14.0924 15.113 14.033 15.1814C14.0096 15.2336 13.9916 15.2876 13.979 15.3434C13.979 15.3434 14.5604 15.1202 14.7278 14.609C14.897 14.096 14.9294 13.5902 14.897 13.1186C14.8916 12.9854 14.87 12.89 14.8376 12.8216C14.7566 12.6524 14.5262 12.6794 14.4344 12.7748C14.3012 12.908 14.0762 13.241 13.7648 13.4714C13.4516 13.6964 13.4372 13.736 13.1942 13.8386Z" fill="#D7BC6B"/>
<path fill-rule="evenodd" clip-rule="evenodd" d="M12.4742 14.5748C12.4742 14.5748 12.359 14.6432 12.2996 14.8988C12.2402 15.1616 12.3536 15.4802 12.4202 15.581C12.4868 15.6818 12.6362 15.9572 12.9476 15.9716C13.025 15.9716 13.1006 15.9554 13.1708 15.9248C13.2788 15.8744 13.3814 15.8114 13.4732 15.7358C13.6064 15.635 13.7162 15.5468 13.7018 15.5396C13.6694 15.5252 12.8774 14.87 12.8774 14.87L12.5804 14.537L12.4742 14.5748Z" fill="#585136"/>
<path fill-rule="evenodd" clip-rule="evenodd" d="M13.223 15.662C13.223 15.662 13.3832 15.6476 13.4804 15.5882C13.5758 15.5288 12.9207 14.879 12.9207 14.879L12.9675 15.581L13.223 15.662Z" fill="#453A25"/>
<path fill-rule="evenodd" clip-rule="evenodd" d="M12.5263 14.5263C12.5263 14.5263 12.4453 14.6829 12.4453 14.7225C12.4309 14.8557 12.4723 15.2769 12.5047 15.4101C12.5371 15.5523 12.7153 15.7683 12.9439 15.7683C13.0861 15.7683 13.2823 15.6819 13.2823 15.6585C13.2823 15.6315 13.0807 15.6045 13.0249 15.5019C12.9925 15.4479 12.9781 15.3129 12.9709 15.1779C12.9655 15.0915 12.9655 14.9943 12.9979 14.9619C13.0717 14.8809 13.0843 14.6451 13.0843 14.6451L13.3471 14.1591H13.0015L12.5893 14.4165L12.5263 14.5263Z" fill="#84754B"/>
<path fill-rule="evenodd" clip-rule="evenodd" d="M12.4257 14.6756C12.4257 14.6756 12.6957 14.3174 12.9387 14.2364C13.1817 14.1554 13.2915 14.204 13.2915 14.204L13.1493 14.5676L12.9477 14.7908L12.9621 14.906C12.9621 14.906 12.9297 15.2084 13.1313 15.419C13.3329 15.6296 13.4841 15.6206 13.5705 15.6206C13.6569 15.6206 13.9089 15.5468 14.0367 15.2444C14.1519 14.96 14.2473 14.5964 14.0169 14.231C13.7919 13.8674 13.3977 13.853 13.3203 13.853C13.2429 13.853 12.6435 13.8836 12.4257 14.6756Z" fill="#252211"/>
<path fill-rule="evenodd" clip-rule="evenodd" d="M19.3574 15.8906C19.2565 15.8438 19.352 15.5612 19.4528 15.473C19.5536 15.3848 19.6814 15.284 19.9064 15.2714C19.9874 15.266 20.0666 15.3182 20.054 15.3722C20.0342 15.473 19.8938 15.6152 19.7642 15.716C19.5878 15.8564 19.4726 15.9428 19.3574 15.8906Z" fill="#F7F7E7"/>
<path fill-rule="evenodd" clip-rule="evenodd" d="M13.8963 14.3426C13.9701 14.3372 14.0655 14.3966 14.0853 14.4758C14.1051 14.5622 14.0385 14.7386 13.8963 14.7386C13.7811 14.7386 13.7217 14.5964 13.7217 14.555C13.7235 14.5208 13.7325 14.4884 13.7487 14.4596C13.7541 14.4524 13.7685 14.357 13.8963 14.3426Z" fill="#F8F6DE"/>
<path fill-rule="evenodd" clip-rule="evenodd" d="M12.8324 14.4056C12.8324 14.4056 12.6434 14.492 12.557 14.6756C12.494 14.8106 12.476 14.9618 12.503 15.1076C12.5174 15.176 12.584 15.3452 12.6308 15.4046C12.6776 15.464 12.7406 15.5054 12.7874 15.5C12.8342 15.4946 12.9296 15.3722 12.9296 15.2984C12.9296 15.2246 12.935 14.9132 13.025 14.744C13.1024 14.5748 12.8324 14.4056 12.8324 14.4056Z" fill="#D4C38B"/>
<path fill-rule="evenodd" clip-rule="evenodd" d="M12.8594 14.393C12.827 14.4128 12.773 14.4398 12.7856 14.474C12.8 14.5064 12.9134 14.528 12.9548 14.6072C13.0016 14.6882 13.0016 14.7764 12.9872 14.8178C13.0232 14.8016 13.0556 14.7782 13.0826 14.7494C13.142 14.681 13.2158 14.5892 13.2788 14.5892C13.3202 14.5892 13.3616 14.609 13.3994 14.609C13.4588 14.609 13.52 14.5892 13.5272 14.528C13.5416 14.447 13.412 14.3714 13.3382 14.3858C13.3526 14.3318 13.3706 14.2526 13.3112 14.1968C13.2518 14.1428 13.0628 14.2382 13.0214 14.2652C12.98 14.2922 12.8594 14.393 12.8594 14.393Z" fill="#E2D59D"/>
<path fill-rule="evenodd" clip-rule="evenodd" d="M17.1974 20.1295L17.6006 20.0107L17.7158 20.0917C17.7158 20.0917 17.7968 20.2663 17.9264 20.2879C17.885 20.3743 17.7788 20.4499 17.7842 20.5111C17.7896 20.5723 17.8436 20.6209 17.8436 20.6209C17.8436 20.6209 17.48 21.2221 18.1964 21.8269C18.0272 21.8953 17.8112 21.9889 17.696 22.0429C17.777 22.0627 17.9534 22.0969 18.0254 22.1635C18.0974 22.2301 18.0992 22.2499 18.1676 22.2913C18.236 22.3327 18.2774 22.3867 18.263 22.4119C18.2162 22.3849 18.0614 22.3021 18.0344 22.3795C18.0074 22.4569 17.3594 22.4263 17.3594 22.4263L16.2668 22.6369C16.2668 22.6369 16.3082 22.5271 16.193 22.4263C16.0598 22.3057 15.896 22.4317 15.7214 22.2985C15.4928 22.1239 15.4838 21.9223 15.41 21.8449C15.4838 21.7981 15.6332 21.7297 15.9914 21.6829C15.977 21.6559 15.932 21.5731 15.959 21.4993C15.9914 21.4039 16.1282 21.3427 16.0868 21.2293C16.1462 21.2149 16.1732 21.2149 16.3244 21.0277C16.4666 20.8387 16.553 20.7991 16.6628 20.7847C16.7726 20.7703 16.8374 20.7847 17.039 20.5957C17.1812 20.4625 17.1344 20.3473 17.1344 20.3473C17.1344 20.3473 17.2316 20.3167 17.1974 20.1295Z" fill="#CBAC5A"/>
<path fill-rule="evenodd" clip-rule="evenodd" d="M16.0041 20.189C16.0095 20.162 16.0311 20.1476 16.1787 20.162C16.3263 20.1764 17.2605 20.0756 17.5143 20.0612C17.7717 20.0414 18.6753 20.0558 19.1145 20.1476C19.5537 20.2412 20.0001 20.3492 20.2143 20.405C20.4303 20.4644 20.4987 20.486 20.4897 20.5148C20.4843 20.5418 20.4357 20.5688 20.4069 20.5616C20.3799 20.5562 19.6635 20.3384 19.4439 20.2916C19.2225 20.2448 18.4575 20.1224 18.0399 20.1296C17.6493 20.135 17.4945 20.1242 17.1633 20.162C16.8321 20.2034 16.2867 20.2574 16.1229 20.2358C15.9627 20.216 15.9969 20.216 16.0041 20.189Z" fill="#D6BC6F"/>
<path fill-rule="evenodd" clip-rule="evenodd" d="M18.2037 22.3292C18.2037 22.3292 18.7635 22.6316 18.9651 23.0042C19.1127 23.2796 18.8787 23.4164 18.8787 23.4164C18.8787 23.4164 19.1955 23.4164 19.1541 23.591C19.1343 23.7008 18.6087 23.9942 18.2559 24.1508C17.8977 24.3074 17.9121 24.2984 17.7375 24.3254C17.5683 24.3524 17.1039 24.2714 17.0085 24.4082C16.9131 24.545 16.9545 24.6836 16.9815 24.7052C17.0085 24.725 17.2299 24.752 17.2299 24.752C17.2299 24.752 17.1831 24.8798 16.7241 24.8942C16.2651 24.9086 16.1499 24.941 16.1228 24.9896C16.0958 25.0364 16.2093 25.0094 16.4199 25.0436C16.6305 25.076 16.9257 25.0976 16.9257 25.0976C16.9257 25.0976 16.8303 25.1804 16.5819 25.2452C16.2975 25.319 15.8528 25.3874 15.7196 25.4684C15.788 25.5152 15.8888 25.5836 15.9356 25.589C15.8204 25.616 15.6602 25.6772 15.6332 25.6988C15.6746 25.7258 15.7286 25.7582 15.7286 25.7582C15.7286 25.7582 15.4982 26.0336 15.365 26.102C15.2318 26.1704 14.4614 26.5286 14.1968 26.4602C13.5362 26.2856 13.4534 25.562 13.2932 25.508C13.0502 25.4252 12.935 25.589 12.719 25.4756C12.8144 25.4072 12.8666 25.3658 12.9674 25.3208C12.8576 25.2668 12.2924 24.9086 12.2924 24.9086C12.233 24.779 12.1682 24.6548 12.0962 24.5324C11.9864 24.3434 11.8262 24.0932 11.7056 23.8718C11.4428 23.3858 11.4302 23.1626 11.1926 22.8854C11.234 22.8314 11.3762 22.8386 11.3762 22.8386L13.367 23.4938L16.8969 23.5964L17.8149 22.286L18.2037 22.3292Z" fill="#DFC677"/>
<path fill-rule="evenodd" clip-rule="evenodd" d="M12.9746 24.329C12.9962 24.3524 13.0214 24.3722 13.0484 24.3884C13.1168 24.4352 13.2176 24.4892 13.286 24.572C13.313 24.5306 13.3814 24.4568 13.502 24.572C13.6226 24.6872 13.772 24.6044 13.8656 24.6314C13.961 24.6638 13.9664 24.6782 13.9664 24.6782C13.9664 24.6782 14.0204 24.6314 14.141 24.5828C14.2148 24.5558 14.303 24.536 14.3984 24.509C14.4848 24.4892 14.582 24.4622 14.6468 24.4622C14.7062 24.5036 14.9222 24.7322 15.788 24.3938C16.6052 24.077 16.7924 24.041 16.9292 24.0914C16.9436 24.059 16.9562 23.996 17.1668 24.005C17.1668 23.9186 16.9922 23.6198 16.9922 23.6198L16.0274 23.2904H15.5L13.9196 23.5802L13.043 24.0806L12.9746 24.329Z" fill="#C4A859"/>
<path fill-rule="evenodd" clip-rule="evenodd" d="M12.4473 23.7746C12.4473 23.7746 12.4671 23.9222 12.6849 24.077C12.9009 24.2318 12.9693 24.3254 12.9693 24.3254C12.9693 24.3254 13.0107 24.2714 13.0431 24.2156C13.0755 24.1562 13.1025 24.0878 13.1583 24.068C13.2681 24.0212 13.5165 24.1094 13.5705 24.095C13.6173 24.0806 13.6029 23.9852 13.6515 23.9852C13.7667 23.9798 13.8405 24.059 13.8801 24.059C13.9215 24.059 14.0223 24.0536 14.0349 24.032C14.0475 24.0104 14.0547 23.7836 14.2095 23.6738C14.3787 23.5532 14.5857 23.6054 14.6415 23.6324C14.6415 23.6738 14.6469 23.7746 14.7567 23.78C14.8665 23.7854 14.8773 23.7656 14.9727 23.7998C15.0681 23.8322 15.1833 23.7944 15.2355 23.9546C15.2823 23.9402 15.3921 23.9276 15.3633 23.771C15.4173 23.7296 15.4641 23.7026 15.5793 23.5424C15.6063 23.501 15.6531 23.456 15.6891 23.3948C15.7845 23.3948 15.8997 23.375 16.0527 23.51C16.0059 23.5424 15.9789 23.564 15.9663 23.5964C16.0059 23.636 16.0419 23.6792 16.0761 23.7242C16.1175 23.7782 16.1445 23.8448 16.1967 23.8574C16.3119 23.8898 16.4991 23.843 16.7097 23.8574C16.9113 23.8718 17.0805 23.9438 17.1543 23.9906C17.1813 23.9762 17.1813 23.9708 17.2497 23.9852C17.3181 23.9996 17.3703 24.005 17.2965 23.9168C17.3379 23.9366 17.3829 23.9762 17.4243 23.9366C17.4657 23.897 17.4981 23.8358 17.6133 23.8214C17.7285 23.807 17.7699 23.8268 17.8149 23.7062C17.8743 23.5586 17.6673 23.5586 17.6673 23.5586C17.6673 23.5586 17.7627 23.4704 17.8689 23.357C17.9967 23.2364 18.1443 23.0816 18.1803 22.8908C18.2397 22.538 17.8959 22.493 17.8959 22.493L16.2273 23.006L14.1879 22.9052L12.4473 23.7746Z" fill="#927D49"/>
<path fill-rule="evenodd" clip-rule="evenodd" d="M10.9478 18.9542C10.9478 18.9542 10.8938 19.0226 10.8614 19.1828C10.8272 19.343 10.8416 19.325 10.8146 19.4402C10.7876 19.5554 10.451 20.6966 10.577 21.0818C10.703 21.467 10.9208 21.6092 11.0576 21.9206C11.0846 21.989 11.1116 22.0304 11.126 22.0898C11.1728 22.2914 11.1314 22.448 11.1854 22.6496C11.2052 22.718 11.2538 22.7972 11.3276 22.8782C11.4896 23.0474 11.7542 23.2076 11.8676 23.3228C12.0278 23.492 12.2582 23.8358 12.5498 23.8682C12.7064 23.888 12.926 23.8214 13.1096 23.7134C13.2716 23.6126 13.3724 23.4704 13.5416 23.3894C13.6622 23.33 13.79 23.3066 13.9052 23.2796C14.1428 23.2328 14.3588 23.2256 14.4866 23.2526C14.6828 23.294 15.1472 23.4362 15.4046 23.4362C15.6062 23.4326 15.806 23.4056 16.0004 23.3534C16.391 23.2382 16.8626 23.042 17.174 22.9538C17.3576 22.8998 17.5034 22.8854 17.6546 22.853C17.912 22.7936 18.1262 22.7108 18.2504 22.556C18.1694 22.4606 18.0668 22.313 17.5214 22.3184C16.9022 22.3328 16.1858 22.6766 15.833 22.7306C15.4802 22.7846 15.3272 22.8314 14.9348 22.6892C14.5496 22.5452 14.537 22.4516 14.537 22.4516C14.537 22.4516 14.132 22.169 13.9628 21.4472C13.7936 20.7254 13.9628 20.1998 14.402 19.6994C14.5172 19.5716 14.4884 19.4564 14.4884 19.4564C14.4884 19.4564 14.7782 19.0658 14.699 18.7004C14.6126 18.3368 14.051 18.4106 14.051 18.4106L10.9478 18.9542Z" fill="#6E6342"/>
<path fill-rule="evenodd" clip-rule="evenodd" d="M11.414 20.171C11.3906 20.216 11.378 20.2664 11.3816 20.3186C11.387 20.3924 11.4086 20.4878 11.63 20.7038C11.819 20.8928 11.7776 21.1016 11.7776 21.1016C11.7776 21.1016 11.873 21.1214 12.1304 21.0008C12.332 20.9054 12.4004 21.0746 12.4004 21.0746C12.4598 21.044 12.5228 21.0242 12.5894 21.0152C12.6488 21.0098 12.7064 20.9918 12.7586 20.9612C12.7586 20.9612 12.9961 21.2042 13.2031 21.3194C13.3921 21.4203 13.5001 21.4887 13.5937 21.4203C13.6801 21.3609 13.6801 21.2366 13.6747 21.1826C13.6531 21.1322 13.6261 21.0854 13.5937 21.0404C13.5343 20.954 13.4371 20.8514 13.4317 20.7704C13.4173 20.5814 13.5739 20.3582 13.5415 20.3042C13.5091 20.2502 13.3867 20.2358 13.0825 20.3456C12.7676 20.4464 11.414 20.171 11.414 20.171Z" fill="#39331F"/>
<path fill-rule="evenodd" clip-rule="evenodd" d="M12.1304 21.3914C12.1304 21.3914 11.9756 21.2438 12.0296 20.5292C12.0962 20.5274 12.161 20.5346 12.2258 20.549C12.2258 20.5472 12.3104 21.1016 12.1304 21.3914Z" fill="#292311"/>
<path fill-rule="evenodd" clip-rule="evenodd" d="M11.0215 18.4088C11.0431 18.3926 11.0629 18.3746 11.0809 18.3548C11.0269 18.4556 10.7785 18.8606 10.9801 19.496C11.1817 20.1296 11.6893 20.6012 12.3157 20.6246C12.9403 20.6462 13.2697 20.3402 13.6459 19.8812C13.7935 19.6976 13.9627 19.469 14.1121 19.3124C14.3353 19.0694 14.5117 19.001 14.5117 18.767C14.5117 18.2864 14.0203 18.0704 13.2967 17.8544C12.5731 17.6384 11.9197 17.6654 11.5813 17.813C11.2501 17.975 11.1079 18.1442 11.0215 18.4088Z" fill="#252211"/>
<path fill-rule="evenodd" clip-rule="evenodd" d="M13.3453 21.6056L13.3993 21.5786C13.3993 21.5786 13.4137 21.3626 13.5001 21.368C13.5865 21.3824 13.6279 21.4958 13.6207 21.5372C13.6153 21.5786 13.5937 21.647 13.5055 21.638C13.3903 21.6416 13.3453 21.6056 13.3453 21.6056Z" fill="#3F3824"/>
<path fill-rule="evenodd" clip-rule="evenodd" d="M13.1024 20.6895C13.1024 20.6895 13.1564 20.6697 13.223 20.7363C13.277 20.7363 13.5128 20.7093 13.5866 20.7561C13.6604 20.8029 13.682 20.8424 13.682 20.8424C13.682 20.8424 13.4066 20.9018 13.2554 20.8424C13.1024 20.7903 13.1024 20.6895 13.1024 20.6895Z" fill="#2D2815"/>
<path fill-rule="evenodd" clip-rule="evenodd" d="M14.3173 20.729C14.3173 20.7146 14.1697 20.6138 14.0149 20.5814C13.9879 20.576 13.9825 20.5958 13.9609 20.5958C13.9465 20.5904 13.9411 20.549 13.9411 20.549L13.8529 20.5958C13.8529 20.5958 13.8385 20.6156 13.8853 20.6498C13.9267 20.6822 13.9951 20.7092 14.0131 20.765C14.0329 20.819 14.0329 20.8388 14.0401 20.8478C14.0455 20.8532 14.1409 20.8478 14.1877 20.8208C14.2345 20.792 14.3227 20.747 14.3173 20.729Z" fill="#82764F"/>
<path fill-rule="evenodd" clip-rule="evenodd" d="M12.9386 21.2834C12.9386 21.2834 12.9656 21.0944 13.1492 21.0872C13.3382 21.0728 13.3724 21.2564 13.3724 21.2564L13.2626 21.3663C13.2626 21.3627 13.1816 21.2492 12.9386 21.2834Z" fill="#2D2816"/>
<path fill-rule="evenodd" clip-rule="evenodd" d="M14.1266 20.4734C14.1266 20.4734 14.0258 20.5832 13.8026 20.6156C13.7828 20.5886 13.7432 20.5328 13.8026 20.4464C13.862 20.3582 13.9304 20.3312 13.9988 20.3582C14.06 20.369 14.1086 20.414 14.1266 20.4734Z" fill="#574F35"/>
<path fill-rule="evenodd" clip-rule="evenodd" d="M14.5389 20.6066C14.5443 20.5796 14.5245 20.5742 14.5389 20.5598C14.5533 20.5454 14.6271 20.5184 14.6397 20.5328C14.6451 20.5382 14.6397 20.5598 14.6397 20.5868C14.6397 20.6138 14.6397 20.6408 14.6253 20.6606C14.6055 20.6876 14.5515 20.702 14.5245 20.693C14.4975 20.684 14.4921 20.6462 14.4921 20.639C14.5065 20.6336 14.5389 20.621 14.5389 20.6066ZM15.0051 20.3114C15.0051 20.297 15.0519 20.27 15.0789 20.27C15.1203 20.27 15.1203 20.3024 15.1257 20.3114C15.1401 20.3168 15.1401 20.306 15.1527 20.3312C15.1653 20.3564 15.1851 20.3996 15.1725 20.4266C15.1599 20.4536 15.1041 20.4734 15.0915 20.468C15.0699 20.4536 15.0105 20.3312 15.0051 20.3114Z" fill="#82764F"/>
<path fill-rule="evenodd" clip-rule="evenodd" d="M14.0653 20.6696C14.0653 20.6696 14.1247 20.684 14.2075 20.7524C14.1805 20.7722 14.1391 20.7938 14.1391 20.7938C14.1391 20.7938 14.1337 20.729 14.0653 20.6696Z" fill="#6E6342"/>
<path fill-rule="evenodd" clip-rule="evenodd" d="M13.9323 20.0685C13.9179 20.0541 13.9737 20.0217 14.0061 20.0271C14.0385 20.0325 14.0529 20.0541 14.0871 20.0595C14.1231 20.0649 14.1285 20.0451 14.1411 20.0325C14.1537 20.0199 14.2005 20.0271 14.2095 20.0325C14.2149 20.0379 14.2185 20.0451 14.2239 20.0523C14.2257 20.0307 14.2347 20.0109 14.2509 19.9983C14.2725 19.9821 14.2994 19.9785 14.3246 19.9839C14.33 20.0037 14.357 20.0703 14.3516 20.0847C14.3462 20.0991 14.2653 20.1171 14.2509 20.1045C14.2653 20.1369 14.3246 20.2053 14.3318 20.2197C14.3408 20.2341 14.2725 20.2665 14.2455 20.2611C14.2077 20.2575 13.9719 20.1207 13.9323 20.0685ZM14.2904 19.6167C14.285 19.6023 14.2761 19.5915 14.2635 19.5843C14.2437 19.5789 14.1825 19.5843 14.1825 19.6167C14.1825 19.6491 14.2365 19.8327 14.2976 19.9281C14.366 20.0235 14.4128 20.1027 14.4578 20.1243C14.4884 20.1387 14.5244 20.1261 14.5406 20.0973C14.546 20.0829 14.5604 19.9821 14.555 19.7445C14.5496 19.5069 14.5406 19.2783 14.528 19.2639C14.5154 19.2495 14.4596 19.2495 14.4416 19.2783C14.4182 19.3053 14.2958 19.5753 14.2904 19.6167Z" fill="#585136"/>
<path fill-rule="evenodd" clip-rule="evenodd" d="M14.0473 21.0134C14.0473 21.0134 13.9519 20.954 13.8583 20.9936C13.7719 21.035 13.7773 21.1952 13.7773 21.1952C13.8169 21.2114 13.8619 21.206 13.8979 21.1808C13.9573 21.143 14.0329 21.0746 14.0473 21.0134Z" fill="#574F35"/>
<path fill-rule="evenodd" clip-rule="evenodd" d="M14.2273 21.2294C14.2219 21.1754 14.1733 21.1754 14.1733 21.1466C14.1805 21.1196 14.2057 21.0998 14.2327 21.0998C14.2597 21.0998 14.2867 21.1322 14.3209 21.1538C14.3533 21.1736 14.4019 21.2078 14.4073 21.2492C14.4127 21.2906 14.3533 21.404 14.2867 21.404C14.2219 21.4058 14.2417 21.2834 14.2273 21.2294ZM14.7547 21.1556C14.7547 21.1556 14.6449 21.188 14.6539 21.1556C14.6629 21.1232 14.6863 21.1142 14.7223 21.1142C14.7403 21.0962 14.7637 21.0836 14.7907 21.0818C14.8051 21.0818 14.8195 21.0854 14.8321 21.0962C14.8321 21.0962 14.9059 21.0638 14.9275 21.0818C14.9491 21.1016 14.9329 21.1016 14.9473 21.1232C14.9653 21.1484 14.9761 21.1754 14.9797 21.206C14.9797 21.2276 14.8969 21.2744 14.8321 21.2654C14.7547 21.2492 14.7673 21.17 14.7547 21.1556ZM15.3901 21.0332C15.3901 21.0332 15.4225 21.053 15.3955 21.0746C15.3757 21.0944 15.2803 21.1286 15.1993 21.134C15.1165 21.134 15.0445 21.1484 15.0445 21.1196C15.0445 21.0908 15.1129 21.0368 15.1543 21.0242C15.1705 21.0026 15.1957 20.9918 15.2227 20.9918C15.2551 20.9918 15.3829 20.9774 15.4189 20.972C15.4513 20.9666 15.4783 20.9864 15.4603 21.0134C15.4495 21.0332 15.3901 21.0332 15.3901 21.0332ZM15.5791 20.189C15.5791 20.189 15.5377 20.2754 15.4927 20.2754C15.4459 20.27 15.4459 20.2556 15.4459 20.243C15.4459 20.2232 15.4927 20.1746 15.4873 20.162C15.4729 20.162 15.4405 20.162 15.4459 20.1296C15.4459 20.1026 15.4927 20.0702 15.5323 20.0756C15.5629 20.0504 15.6025 20.036 15.6421 20.0342C15.6889 20.0342 15.7285 20.0486 15.7285 20.0756C15.7285 20.1026 15.6745 20.162 15.6547 20.1764C15.6331 20.198 15.6061 20.2124 15.5791 20.189ZM14.9563 21.8036C14.9563 21.8036 14.9023 21.809 14.9023 21.836C14.9023 21.8504 14.9167 21.8504 14.9347 21.8414C14.9455 21.8414 14.9563 21.8396 14.9671 21.836C14.9725 21.8414 14.9725 21.8684 15.0139 21.8684C15.0481 21.863 15.0805 21.8522 15.1093 21.836C15.1417 21.8216 15.1687 21.809 15.1687 21.782C15.1543 21.7352 15.1273 21.7136 15.0859 21.7136C15.0643 21.7118 15.0445 21.7172 15.0265 21.728C15.0265 21.728 15.0121 21.701 14.9671 21.728C14.9203 21.755 14.9257 21.755 14.9401 21.7694C14.9653 21.791 14.9563 21.8054 14.9563 21.8036ZM14.6467 22.088C14.6467 22.0736 14.7151 22.0466 14.7331 22.0556C14.7529 22.061 14.8069 22.1654 14.8069 22.1762C14.8069 22.1906 14.7385 22.223 14.7115 22.223C14.6845 22.223 14.6377 22.1762 14.6377 22.169C14.6377 22.1636 14.6701 22.1546 14.6701 22.1492C14.6809 22.1348 14.6467 22.1024 14.6467 22.088ZM14.4307 21.6884C14.4451 21.683 14.4451 21.6686 14.4631 21.656C14.4757 21.6488 14.4901 21.6452 14.5045 21.6506C14.5135 21.6326 14.5315 21.6218 14.5513 21.6182C14.5837 21.6128 14.6107 21.6182 14.6053 21.6326C14.6053 21.674 14.6323 21.701 14.6323 21.7334C14.6323 21.7658 14.6125 21.8072 14.5459 21.8342C14.4775 21.854 14.3857 21.854 14.3713 21.8486C14.3569 21.8432 14.3443 21.7892 14.3569 21.7604C14.3695 21.7316 14.4091 21.7028 14.4307 21.6884Z" fill="#82764F"/>
<path fill-rule="evenodd" clip-rule="evenodd" d="M14.519 21.7083C14.519 21.7083 14.4722 21.7352 14.4722 21.7496C14.4686 21.7622 14.4668 21.7766 14.4668 21.791C14.4668 21.7982 14.5262 21.7856 14.5352 21.7766C14.537 21.7694 14.519 21.7209 14.519 21.7083Z" fill="#6E6342"/>
<path fill-rule="evenodd" clip-rule="evenodd" d="M14.1122 21.5785C14.1392 21.5839 14.186 21.5786 14.222 21.593C14.249 21.6074 14.2688 21.6344 14.2418 21.6668C14.2148 21.6992 14.1878 21.7496 14.1266 21.7406C14.0582 21.7352 13.9934 21.6992 13.9934 21.6722C13.9916 21.638 14.0024 21.602 14.0258 21.5768C14.0528 21.5551 14.0654 21.5677 14.1122 21.5785Z" fill="#585136"/>
<path fill-rule="evenodd" clip-rule="evenodd" d="M14.0799 21.6056C14.0799 21.6056 13.9935 21.674 13.9701 21.7064C13.9431 21.7388 13.8098 21.908 13.7684 21.944C13.7828 21.9206 13.7972 21.8972 13.8152 21.8756C13.7612 21.9098 13.7216 21.962 13.7 22.0232C13.6676 22.124 13.8837 22.1798 14.0241 22.2194C14.1645 22.259 14.2203 22.2734 14.2203 22.2734C14.1681 22.1942 14.1231 22.1114 14.0871 22.025C14.0331 21.8972 14.0061 21.8828 14.0403 21.8234C14.0673 21.764 14.1087 21.7226 14.1087 21.6758C14.0943 21.6344 14.0799 21.6056 14.0799 21.6056Z" fill="#574F35"/>
<path fill-rule="evenodd" clip-rule="evenodd" d="M10.9677 21.8217C10.9875 21.8253 11.0073 21.8253 11.0271 21.8217C11.0685 21.8163 11.4933 21.6597 11.9397 21.6885C12.2727 21.7083 12.6039 21.7623 12.9261 21.8505C13.4859 21.998 14.1825 22.2896 14.6325 22.457C14.7531 22.5038 14.8701 22.5848 14.9565 22.6172C15.3003 22.7504 15.3147 22.7504 15.5162 22.7864C15.7538 22.8188 15.9969 22.7396 16.2507 22.6856C16.5621 22.6172 17.0949 22.5848 17.5611 22.5164C17.7123 22.4948 17.8617 22.4624 18.0057 22.4156C18.0057 22.4156 17.6349 22.7864 16.7439 22.9214C16.3839 22.9754 16.0185 22.9808 15.6567 22.9358C15.3723 22.9088 15.1851 22.8674 15.0429 22.826C14.8809 22.7792 14.5515 22.6568 14.1447 22.556C13.8603 22.4822 13.5435 22.4282 13.1817 22.3598C12.2853 22.1942 11.3133 22.007 10.9677 21.8217Z" fill="#252211"/>
<path fill-rule="evenodd" clip-rule="evenodd" d="M9.96138 20.135C9.74537 20.3186 9.51677 20.4932 9.29177 20.6624L8.61676 21.1808C8.38816 21.35 8.16316 21.5246 7.93455 21.6938C7.70595 21.863 7.47555 22.0232 7.23254 22.1798C7.44855 21.9962 7.67715 21.827 7.90755 21.6614C8.13795 21.4958 8.37556 21.332 8.59516 21.1628L9.27017 20.6444C9.50237 20.4734 9.72737 20.2988 9.96138 20.135ZM8.76796 22.0466C8.76796 22.0466 9.01097 21.845 9.31337 21.5606C9.68957 21.2078 10.1522 20.7578 10.2998 20.6768L8.76796 22.0466Z" fill="#CFB66C"/>
<path fill-rule="evenodd" clip-rule="evenodd" d="M8.76794 22.0466C8.88854 21.926 9.01634 21.809 9.14414 21.6938L9.34033 21.5246C9.39973 21.4706 9.46813 21.4094 9.52933 21.35C9.64992 21.2294 9.76692 21.1016 9.88752 20.9792C9.94692 20.918 10.0099 20.8586 10.0765 20.8046C10.1089 20.7758 10.1467 20.7506 10.1863 20.7308C10.2187 20.711 10.2547 20.6768 10.3015 20.6714C10.2745 20.7128 10.2421 20.7308 10.2133 20.7668C10.1809 20.7938 10.1539 20.8262 10.1269 20.8532C10.0675 20.9126 9.99912 20.9684 9.93792 21.0224C9.81012 21.1322 9.67512 21.2384 9.54733 21.3518C9.41953 21.4652 9.29893 21.5894 9.17114 21.7046C9.03074 21.8216 8.90294 21.9368 8.76794 22.0466ZM10.4023 20.954C10.4023 20.954 9.51133 21.8252 9.32953 21.9674L10.4023 20.954Z" fill="#CFB66C"/>
<path fill-rule="evenodd" clip-rule="evenodd" d="M10.4023 20.954C10.3231 21.0458 10.2367 21.134 10.1449 21.2168L9.87494 21.4742C9.78854 21.5606 9.70575 21.6488 9.61215 21.737C9.51675 21.8198 9.42856 21.899 9.32776 21.9746L9.59055 21.7172C9.67875 21.6308 9.77414 21.557 9.86594 21.4688L10.1287 21.2114C10.2187 21.1196 10.3051 21.0332 10.4023 20.954ZM10.4419 21.4256C10.3591 21.6542 10.2637 21.8774 10.1521 22.0952C9.92354 22.5542 9.57795 23.1266 9.42856 23.42L10.4419 21.4256Z" fill="#CFB66C"/>
<path fill-rule="evenodd" clip-rule="evenodd" d="M10.4419 21.4257C10.4419 21.5265 10.4149 21.6147 10.3825 21.7011C10.3501 21.7893 10.3141 21.8739 10.2727 21.9585C10.2313 22.0413 10.1845 22.1277 10.1395 22.2069C10.0945 22.2861 10.0387 22.3671 9.99733 22.4499L9.72193 22.9359C9.62653 23.0979 9.53293 23.2617 9.43213 23.4165C9.50053 23.2419 9.59413 23.0781 9.68053 22.9161C9.77593 22.7541 9.86413 22.5921 9.95053 22.4247C9.99373 22.3419 10.0315 22.2555 10.0657 22.1673C10.1071 22.0791 10.1467 21.9981 10.1809 21.9189C10.2223 21.8325 10.2547 21.7497 10.2961 21.6705C10.3411 21.5877 10.3789 21.5049 10.4419 21.4257Z" fill="#CFB66C"/>
<path fill-rule="evenodd" clip-rule="evenodd" d="M11.414 23.6648C11.414 23.6648 11.144 24.023 11.171 24.4766C11.2448 24.239 11.3384 23.8754 11.414 23.6648ZM11.6714 24.023C11.6714 24.023 11.576 24.995 11.4968 25.4738C11.6084 24.9212 11.63 24.968 11.6714 24.023ZM13.4606 25.5314C13.4606 25.5314 13.0574 26.7193 13.0484 27.0487C13.1348 26.7103 13.304 26.0155 13.4606 25.5314Z" fill="#DEC270"/>
<path fill-rule="evenodd" clip-rule="evenodd" d="M14.4038 23.5911C14.4038 23.5911 15.059 24.6729 15.5504 25.5945C15.419 25.1319 15.113 24.2805 14.4038 23.5911Z" fill="#CBAF59"/>
<path fill-rule="evenodd" clip-rule="evenodd" d="M16.166 25.184C16.526 25.8194 16.85 26.4746 17.138 27.1478C17.084 26.6834 16.9364 25.8878 16.166 25.184Z" fill="#E3C677"/>
<path fill-rule="evenodd" clip-rule="evenodd" d="M21.3429 26.7769C21.4527 26.7085 21.6687 26.3377 21.8559 26.2441C22.0449 26.1487 22.1853 26.1289 22.3563 25.9417C22.5255 25.7455 22.5723 25.6249 22.9431 25.4701C23.4615 25.2469 23.1051 24.9571 23.1051 24.9571C23.1627 24.9013 23.2239 24.8491 23.2887 24.8023C23.4219 24.7015 23.5785 24.5791 23.5641 24.3631C23.5443 23.9995 23.4777 23.4739 23.1789 23.1679C23.4687 23.1085 24.0231 23.0671 24.3669 22.9789C24.7646 22.8781 24.9482 22.7359 24.9482 22.7359C24.9482 22.7359 24.7196 22.3453 25.0904 21.9529C25.4612 21.5605 25.7654 21.3247 25.9886 20.8855C25.7312 20.8531 25.3406 20.7163 24.3417 21.0961C24.3957 21.1213 24.4478 21.1501 24.4982 21.1825C24.4982 21.1825 23.8845 21.3517 23.6595 21.5407C23.2689 21.8701 23.2203 22.1419 22.7973 22.3435C22.3743 22.5451 21.9477 22.4911 21.5967 22.6549C21.2457 22.8187 21.1917 22.9573 21.0639 23.0185C21.0909 23.0509 21.0585 23.1049 21.1107 23.1517C21.0783 23.1985 20.8875 23.5099 20.6931 23.5099C20.7129 23.5837 20.8767 23.6377 20.8767 23.6377C20.8767 23.6377 20.7561 23.7259 20.4501 23.7475C20.6049 23.9095 20.7525 24.0859 21.1593 24.3433C21.1269 24.4117 20.9901 24.5125 21.0441 24.6403C21.1035 24.7681 21.2601 24.9427 21.8829 25.0849C21.5661 25.0993 21.1953 25.1713 20.6949 25.1047C20.1945 25.0453 20.1135 25.0093 19.8039 25.0849C19.8363 25.1173 19.9245 25.1173 20.0001 25.2055C19.9173 25.2109 19.4043 25.1461 19.2297 25.3747C19.0461 25.6123 18.9669 26.0029 18.9813 26.2639C18.8859 26.3107 18.7923 26.3917 18.8391 26.5609C18.8859 26.7301 19.1289 26.7841 19.2837 26.8903C19.4385 27.0055 19.4529 27.0451 19.6005 27.0181C19.7553 26.9857 19.9857 26.8291 20.1189 26.8291C20.2521 26.8291 20.3475 26.9299 20.3475 26.9299C20.3475 26.9299 20.7111 26.7553 20.7471 26.7877C20.7795 26.8201 20.7525 27.0307 20.7885 27.0631C20.8263 27.0883 21.2349 26.8453 21.3429 26.7769Z" fill="#ECD592"/>
<path fill-rule="evenodd" clip-rule="evenodd" d="M29.2807 15.8509C27.5743 11.4445 23.3552 10.6273 23.3552 10.6273H11.3186L11.3654 15.1165H13.763V25.1407H11.3186V29.6209H23.0222C25.8427 29.6209 28.1035 26.7859 28.1035 26.7859C31.7251 21.6469 29.2807 15.8509 29.2807 15.8509ZM23.0852 23.7655C23.0852 23.7655 22.1672 25.0903 21.1682 25.0903H19.1702L19.1234 15.1273H21.6866C21.6866 15.1273 22.8746 15.3757 23.7044 17.7265C23.7044 17.7265 24.8059 21.0925 23.0852 23.7655Z" fill="white" fill-opacity="0.8"/>
</svg>
