<svg width="40" height="40" viewBox="0 0 40 40" fill="none" xmlns="http://www.w3.org/2000/svg">
<path d="M20 37C29.3888 37 37 29.3888 37 20C37 10.6112 29.3888 3 20 3C10.6112 3 3 10.6112 3 20C3 29.3888 10.6112 37 20 37Z" fill="#26A17B"/>
<path d="M21.6356 21.2341C21.5244 21.2341 20.9015 21.278 19.5222 21.278C18.4322 21.278 17.6536 21.2561 17.3867 21.2341C13.16 21.0588 10.0233 20.3356 10.0233 19.4591C10.0233 18.5825 13.1822 17.8593 17.3867 17.684V20.511C17.6536 20.5329 18.4544 20.5767 19.5445 20.5767C20.857 20.5767 21.5021 20.5329 21.6356 20.511V17.684C25.84 17.8593 28.9989 18.5825 28.9989 19.4591C28.9989 20.3137 25.84 21.0369 21.6356 21.2341ZM21.6356 17.3772V14.857H27.5085V11H11.4915V14.857H17.3644V17.3772C12.5816 17.5963 9 18.5167 9 19.6344C9 20.752 12.6038 21.6724 17.3644 21.8916V30H21.6133V21.8916C26.4184 21.6943 30 20.7739 30 19.6563C30 18.5386 26.4184 17.5963 21.6356 17.3772Z" fill="white"/>
<g opacity="0.6">
<g opacity="0.6">
<path opacity="0.6" d="M30.8988 25.1095L25 27.7946L30.8988 31.2828L36.7951 27.7946L30.8988 25.1095Z" fill="#010101"/>
</g>
</g>
<g opacity="0.45">
<path opacity="0.45" d="M25 27.7959L30.8988 31.284V18L25 27.7959Z" fill="#010101"/>
</g>
<g opacity="0.8">
<g opacity="0.8">
<path d="M30.8989 18V31.284L36.7952 27.7959L30.8989 18Z" fill="#010101"/>
</g>
</g>
<g opacity="0.45">
<path opacity="0.45" d="M25 28.9144L30.8988 37.2319V32.4026L25 28.9144Z" fill="#010101"/>
</g>
<g opacity="0.8">
<path opacity="0.8" d="M30.8989 32.4025V37.2321L36.7999 28.9147L30.8989 32.4025Z" fill="#010101"/>
</g>
</svg>
