<svg width="40" height="40" viewBox="0 0 40 40" fill="none" xmlns="http://www.w3.org/2000/svg">
<path d="M20 37C29.3888 37 37 29.3888 37 20C37 10.6112 29.3888 3 20 3C10.6112 3 3 10.6112 3 20C3 29.3888 10.6112 37 20 37Z" fill="#26A17B"/>
<path d="M21.6356 21.2341C21.5244 21.2341 20.9015 21.278 19.5222 21.278C18.4322 21.278 17.6536 21.2561 17.3867 21.2341C13.16 21.0588 10.0233 20.3356 10.0233 19.4591C10.0233 18.5825 13.1822 17.8593 17.3867 17.684V20.511C17.6536 20.5329 18.4544 20.5767 19.5445 20.5767C20.857 20.5767 21.5021 20.5329 21.6356 20.511V17.684C25.84 17.8593 28.9989 18.5825 28.9989 19.4591C28.9989 20.3137 25.84 21.0369 21.6356 21.2341ZM21.6356 17.3772V14.857H27.5085V11H11.4915V14.857H17.3644V17.3772C12.5816 17.5963 9 18.5167 9 19.6344C9 20.752 12.6038 21.6724 17.3644 21.8916V30H21.6133V21.8916C26.4184 21.6943 30 20.7739 30 19.6563C30 18.5386 26.4184 17.5963 21.6356 17.3772Z" fill="white"/>
<path d="M36.9375 25.1215C36.1406 24.3857 35.0383 23.2621 34.1405 22.4652L34.0873 22.428C33.999 22.3571 33.8993 22.3014 33.7925 22.2634V22.2634C31.6277 21.8596 21.5525 19.9763 21.3559 20.0002C21.3009 20.0079 21.2482 20.0279 21.2019 20.0587L21.1514 20.0985C21.0893 20.1616 21.0421 20.2379 21.0133 20.3216L21 20.3562V20.5448V20.574C22.1342 23.7323 26.6127 34.0783 27.4945 36.5062C27.5477 36.6708 27.6486 36.9843 27.8372 37.0002H27.8797C27.9806 37.0002 28.4109 36.4318 28.4109 36.4318C28.4109 36.4318 36.1034 27.103 36.8817 26.1096C36.9825 25.9872 37.0714 25.8556 37.1473 25.7165C37.1667 25.6076 37.1576 25.4956 37.1208 25.3913C37.084 25.2871 37.0209 25.1941 36.9375 25.1215V25.1215ZM30.3845 26.2079L33.6677 23.4852L35.5934 25.2596L30.3845 26.2079ZM29.1095 26.0299L23.457 21.3974L32.6025 23.0841L29.1095 26.0299ZM29.6195 27.2438L35.4048 26.3115L28.7908 34.2802L29.6195 27.2438ZM22.6894 21.8596L28.6367 26.9065L27.7761 34.2855L22.6894 21.8596Z" fill="#FF060A"/>
</svg>
