<svg version="1.0" xmlns="http://www.w3.org/2000/svg" width="1493.333" height="1493.333" viewBox="0 0 1120 1120"><path d="M376.2 148.2c-.7.7-1.2 1.5-1.2 1.9 0 .4-1.5 4-3.4 8.1-1.8 4-6.4 14-10.1 22.3-9.3 20.8-10.3 23-14.3 31.5-1.9 4.1-3.6 7.9-3.7 8.5-.2.5-2.6 5.9-5.4 11.9-2.8 5.9-5.1 11-5.1 11.2 0 .3-1.5 3.5-3.3 7.2-1.8 3.7-3.4 7-3.6 7.4-.3 1.2-3.6 8.7-7.2 16.3-1.8 3.8-3.3 7.2-3.4 7.5-.1.3-.8 2.1-1.7 4-.9 1.9-3.7 8.2-6.3 14-7.2 16.1-8.6 19.1-11.1 24.4-1.3 2.8-2.4 5.6-2.4 6.3 0 .7-.4 1.3-1 1.3-.5 0-1 .6-1 1.3 0 .8-.6 2.7-1.4 4.3-.8 1.6-3.8 8.1-6.6 14.4-2.9 6.3-6.8 14.9-8.8 19-1.9 4.1-3.5 8.1-3.5 8.7 0 .7-.4 1.3-.9 1.3-.4 0-.8.5-.8 1.1 0 .5-1.8 4.8-4 9.5s-4 8.7-4 8.9c0 .2-1.5 3.6-3.4 7.7-2.9 6.3-19.8 43.4-24.4 53.8-.9 1.9-1.5 3.8-1.4 4.2.1.5-.2.8-.8.8-.6 0-.9.3-.8.7.1.5-1.5 4.4-3.5 8.7-2 4.3-3.7 8-3.7 8.2 0 .2-2.3 5.1-5 10.9-2.8 5.8-5 10.8-5 11 0 .2-1.5 3.6-3.4 7.7-9.5 20.7-10.3 22.6-10.4 24.2 0 .5-.4 1.2-.9 1.5-1.3 1-3 4.5-3.8 7.9-.3 1.8-1.1 3.2-1.6 3.2s-.9.5-.9 1.1c0 .6-1.6 4.5-3.5 8.6s-3.5 7.6-3.5 7.8c0 .2-2.2 5.1-5 11-2.7 5.9-5 11.2-5 12 0 .7-.7 1.8-1.5 2.5s-1.5 1.8-1.5 2.4c0 .7-1.1 3.4-2.4 6.2-2.7 5.7-3.8 8.2-9.9 21.9-2.5 5.5-5.9 13.1-7.7 17-1.7 3.8-3.8 8.3-4.5 10-.7 1.6-2.8 6.1-4.5 10-7.9 17.3-11.1 24.3-17.3 38-8 17.8-9.8 21.9-12.8 28.3-1.6 3.4-2.9 6.7-2.9 7.2 0 .6-.4 1-1 1-.5 0-.9.3-.8.7.2 1-.7 3.4-3.7 9.8-3.8 8.2-7.8 17-8 17.5-.1.3-.9 2.2-1.8 4.4-.9 2.1-1.7 4.2-1.7 4.7s-.4.9-1 .9c-.5 0-1 .5-1 1.1 0 .5-.9 2.9-1.9 5.2-1 2.3-3.8 8.5-6.1 13.7-2.4 5.2-6.2 13.7-8.6 18.9-2.4 5.1-4.4 9.9-4.4 10.6 0 .7-.7 1.8-1.5 2.5s-1.5 1.9-1.5 2.7c0 .8-.7 2.7-1.5 4.1-.8 1.5-2.4 4.9-3.6 7.7-1.2 2.7-3.7 8.4-5.6 12.5-3.4 7.2-5.5 11.9-5.8 13-.1.3-1.4 3.2-3 6.5s-2.9 6.2-3 6.5c-.1.3-1.2 2.7-2.4 5.5-1.3 2.7-2.3 5.1-2.3 5.2.1.2-1.7 3.9-3.8 8.3-2.2 4.4-4 8.2-4 8.4 0 .3-1.8 4.4-4.1 9.3-3.7 8-6 13-6.4 14.3-.2.7-3.5 7.7-7.6 16.5-1.8 3.8-3.3 7.2-3.4 7.5-.3.9-2.3 5.5-5.3 12.2l-3.1 6.7 43.1-.1h43l2.7-6.1c1.6-3.4 3.9-8.7 5.3-11.7 2.5-5.5 4-9 4.2-10 .1-.3.6-1.2 1.1-2 .5-.8 3-6.2 5.6-12 2.5-5.8 5.6-12.8 6.9-15.5 1.3-2.8 2.4-5.2 2.5-5.5.1-.6 2.1-4.9 6.1-13.5 1.5-3.3 2.8-6.2 2.9-6.5.1-.6.4-1.3 14.5-32.5 6.1-13.8 12.5-27.8 14.1-31.3 1.6-3.5 2.9-6.8 2.9-7.3s.5-.9 1-.9c.6 0 .9-.3.9-.8-.1-.4 0-1 .1-1.5.1-.4.3-1 .4-1.5.1-.4 1.4-3.3 2.9-6.5 2.6-5.5 4.8-10.3 10-21.7 1.3-3 3.4-7.6 4.6-10.2 1.1-2.6 2.1-4.9 2.1-5.1 0-.3 2-4.7 4.4-9.8 2.4-5.2 6.5-14.4 9.2-20.4 2.6-6.1 5.2-11.3 5.7-11.6.5-.3.8-.9.6-1.3-.2-.7 1.3-4.2 8.1-19.1 1.8-3.9 3.9-8.6 4.7-10.5.8-1.9 2.5-5.5 3.6-8 1.2-2.5 2.2-4.7 2.2-5 .1-.3 1.6-3.5 3.3-7.3 1.8-3.7 3.2-6.9 3.2-7.2 0-.2 1.5-3.6 3.4-7.7 3.6-7.8 4.8-10.6 11.9-26.3 2.5-5.5 5.6-12.5 7-15.5 2.1-4.6 8.7-19.4 22.9-51 1.1-2.5 3.4-7.4 5-11 3.8-8.4 4.3-9.6 6.7-15 1-2.5 6.9-15.5 13-28.9 6.1-13.5 11.1-25 11.1-25.7 0-.7.4-1.4.9-1.6.5-.2 1.1-1.2 1.3-2.3.1-1.1.6-2.2.9-2.5.4-.3 1.9-3.3 3.3-6.7 2.7-6.6 4.7-11 11.5-25.6 2.3-4.9 4.1-9.1 4.1-9.4 0-.3 2-4.8 4.5-10s4.5-9.6 4.5-9.8c0-.2 1.5-3.6 3.4-7.7 1.8-4 4.1-9 4.9-11.1 1.6-3.7 7.5-16.6 14.3-31.4 1.9-4 3.4-7.5 3.4-7.7 0-.3 1.6-4 3.6-8.3 4.3-9.3 7.7-16.6 7.9-17.3.4-1.3 2.7-6.3 6.4-14.3 2.3-4.9 4.1-9 4.1-9.2 0-.2 1.8-4.3 4.1-9.2 2.2-4.8 4.7-10.2 5.4-11.8 1.6-3.5 9.7-21.7 12.7-28.4 1.1-2.5 3.8-8.3 5.9-12.9 2.2-4.6 3.9-8.5 3.9-8.7 0-.2 1.8-4.3 4-9s4-8.8 4-9c0-.2 2-4.8 4.5-10.1s4.5-9.7 4.5-9.9c0-.2 1.8-4.3 4.1-9.2 2.2-4.8 4.6-10.2 5.4-11.8.7-1.7 2.2-5.1 3.4-7.7 1.2-2.7 2-4.9 1.9-5-.1-.2.5-1.7 1.5-3.3 1.6-2.9 9.7-20.5 9.7-21.1 0-.1-18.6-.3-41.3-.3-30.2 0-41.7.3-42.5 1.1zM494 163.8c-8.9 20-14 31.2-18.7 41.2-1.9 4.1-3.6 7.9-3.7 8.5-.1.5-1.3 3-2.6 5.5-1.2 2.5-2.3 4.7-2.3 5 0 .5-4 9.5-9 20-1.7 3.6-3.2 6.9-3.3 7.5-.1.5-2.3 5.4-4.8 10.8-2.5 5.3-4.6 9.9-4.6 10.2-.1.2-2.1 4.6-4.4 9.7-2.4 5.1-5.3 11.3-6.4 13.8-7.5 16.7-21.1 46.9-24.3 53.8-2.2 4.6-3.9 8.5-3.9 8.7 0 .2-1.8 4.2-4 8.9s-4 9-4 9.6c0 .5-.5 1-1 1-.6 0-.9.3-.8.7.1.5-.5 2.4-1.4 4.3-.8 1.9-3.4 7.8-5.8 13-2.3 5.2-5.3 11.7-6.5 14.5-1.3 2.7-3.3 7.2-4.5 10-1.3 2.7-3.5 7.7-5 11s-3.8 8.2-5 11c-1.2 2.7-3.8 8.3-5.6 12.3-1.9 4.1-3.4 7.9-3.4 8.7 0 .7-.7 1.8-1.5 2.5s-1.5 1.8-1.5 2.4c0 .7-1.1 3.4-2.4 6.2-1.3 2.7-3.1 6.7-4 8.9-1 2.2-2.2 4.7-2.7 5.5-.5.8-1.2 2.2-1.5 3-.3.8-1.4 3.3-2.4 5.5s-2.9 6.5-4.3 9.5c-1.3 3-3.4 7.7-4.7 10.5-1.2 2.7-3.1 6.8-4 9-1 2.2-3.2 7.1-5 11-1.8 3.8-4.9 10.8-7 15.5-2.1 4.7-4.9 11-6.3 14-3.2 7-12.1 26.8-15.3 34-1.4 3-3.1 6.7-3.9 8.1-.8 1.4-1.2 2.8-.9 3.1.2.3-.2 1.1-1.1 1.8-.8.7-1.5 1.8-1.5 2.5s-2.2 5.9-4.9 11.6c-7.5 16.2-11.1 24-11.1 24.4 0 .6-5.7 13.2-8 17.7-1 2-1.6 3.9-1.3 4.2.4.3.1.6-.5.6s-1.4 1-1.7 2.2c-.4 1.3-1.7 4.5-3 7.3-4.3 9.6-6.8 15-10.1 22.3-1.9 4.1-3.4 7.5-3.4 7.7 0 .2-1.7 4.1-3.9 8.7-2.1 4.5-4.9 10.5-6.1 13.3-1.2 2.7-3.2 7-4.3 9.5-1.2 2.5-2.2 4.7-2.2 5-.2.7-9.2 20.4-15.9 35-1.1 2.5-2.1 4.7-2.1 5-.1.3-1.6 3.6-3.4 7.5-6.7 14.4-8.8 19.1-10.1 22.5-.7 1.9-1.9 4.2-2.7 5.1-.7.8-1.3 2-1.3 2.6 0 .6-1.8 4.9-3.9 9.5-2.1 4.5-5.9 12.8-8.4 18.3-7.5 16.6-9.7 21.6-13.7 30.2-2.1 4.5-3.5 8.4-3.2 8.7.3.3 0 .6-.6.6-.7 0-1.2.5-1.2 1.2 0 .6-1.2 3.6-2.7 6.7-1.5 3.1-2.8 5.8-2.8 6.1-.3 1-5 11.4-11.4 25.3-1.7 3.7-3.1 7.2-3.1 7.7 0 .6-.5 1-1 1-.6 0-.9.3-.8.7.3 1.3-2.5 8.3-3.4 8.3-.4 0-.8.6-.8 1.3 0 1.2-3.7 9.9-6 13.9-2.7 4.8-3.9 4.7 41.4 4.7h42.4l2.3-4.7c3.8-8.1 13.8-30.4 22.2-49.2 1.1-2.5 3.7-8.3 5.8-12.8 2.2-4.6 3.9-8.5 3.9-8.7 0-.1 1.4-3.3 3.2-7.1 1.7-3.8 3.2-7.1 3.3-7.4.2-.5 2.8-6.4 7-15.6 6.6-14.4 7.5-16.5 7.5-16.9 0-.2 1.8-4.1 3.9-8.5 2.2-4.4 4-8.3 4-8.5.1-.3 1.3-3.1 2.7-6.2 4.2-9.4 4.7-10.8 4.6-11.6-.1-.4.2-.7.7-.7.5 0 1.1-1 1.5-2.3.3-1.2 2.2-5.8 4.3-10.2 2-4.4 3.8-8.2 3.8-8.5.2-.5 1.3-3 6.5-14.5 9.1-20.3 14.9-33.2 17.3-38.5 3.3-7.8 6.1-13.9 9.9-22 2.2-4.7 4.1-9.1 4.1-9.8 0-.6.4-1.2.9-1.2.4 0 .8-.4.8-.9s1.2-3.5 2.7-6.7c1.5-3.3 2.7-6.1 2.8-6.4.5-1.5 5.7-13.2 11.1-24.5 1.5-3.3 2.9-6.5 3-7 .4-2.1 4.8-11 5.8-11.7.6-.4.8-.8.4-.8-.6 0 2-6.1 8.5-20 1.1-2.5 2-4.8 1.9-5.3-.1-.4.3-.7 1-.7.6 0 .9-.3.6-.6-.3-.3 1.3-4.7 3.7-9.7 7.5-16.2 10.5-22.8 10.5-23.2 0-.2 1.3-3.2 2.9-6.7 3.7-8 7.2-15.9 10.1-22.3 1.2-2.8 3.2-7.3 4.5-10 1.2-2.8 3.2-7 4.3-9.5 1.1-2.5 3.7-8 5.6-12.3 2-4.3 3.6-8 3.6-8.2 0-.2 1.6-3.8 3.6-8.2 5.2-11.4 7.2-15.8 11.4-25.3 2.1-4.7 5.2-11.7 7-15.5 1.8-3.9 4.7-10.4 6.5-14.5 3-6.9 6.6-15 11.5-25.5 2.3-5.1 5.6-12.2 11.5-25.5 6.8-15.2 7.1-16 9.6-21.5 1.2-2.8 3.9-8.7 6-13.2 2.2-4.6 3.9-8.5 3.9-8.7 0-.3 1.8-4.2 3.9-8.8 3.6-7.6 7.2-15.6 7.6-16.8.5-1.5 2.7-6.4 6.4-14.3 2.3-4.9 4.1-9 4.1-9.2 0-.2 1.6-3.9 3.6-8.2 2-4.3 4.8-10.3 6.2-13.3 1.4-3 2.6-5.7 2.7-6 .5-1.5 2.7-6.3 5.9-13.3 2-4.3 3.6-8 3.6-8.2 0-.2 2.1-4.8 4.7-10.2 2.5-5.4 4.7-10.3 4.8-10.8.3-.9 5.9-13.4 13.5-30 1.8-3.9 3.7-8.1 4.3-9.5.6-1.4 1.1-2.7 1.3-3 .1-.3.5-1.5.9-2.8.4-1.2 1.1-2.2 1.6-2.2s.8-.3.7-.8c-.3-1.2 2.5-8.2 3.4-8.2.4 0 .7-.3.6-.8-.1-.8.6-2.6 5.2-12.7 3.1-6.8 5.2-11.5 5.5-12.5.1-.3 1.2-2.8 2.5-5.5 1.3-2.8 2.4-5.3 2.4-5.7.1-.3.4-1 .9-1.4.4-.4.7-1.1.7-1.6 0-.4-18.8-.8-41.7-.7h-41.8l-7.5 16.7zm132-15.9c0 .5-1.7 4.5-3.7 8.8-2 4.3-3.7 8-3.8 8.3-.4 1.1-2.5 6-5.8 13-3.1 6.8-14.3 31.6-17.8 39.7-.8 1.8-1.7 3.3-2 3.3-.3 0-.6.6-.6 1.2 0 .7-1.4 4.2-3 7.8-6.1 13.1-10.3 22.2-10.3 22.5 0 .2-2 4.6-4.4 9.7-2.4 5.1-5.4 11.8-6.7 14.8-1.2 3-2.8 5.8-3.3 6.2-.6.4-.8.8-.4.8s-.6 2.8-2.2 6.2c-1.7 3.5-3 6.9-3 7.5 0 .7-.4 1.3-1 1.3-.5 0-1 .4-1 1 0 .9-4 10-11.9 27.2-5 11-6.4 14.2-6.7 15.8-.2.8-.8 1.6-1.3 1.8-.6.2-1.1 1-1.1 1.7s-1.9 5.3-4.2 10.1c-2.3 4.9-4.1 9.4-4.1 10.1 0 .7-.4 1.3-.9 1.3-.4 0-.8.9-.8 2s-.4 2-1 2c-.5 0-1 .6-1 1.4 0 .8-.7 2.7-1.5 4.3-1.8 3.4-10.5 22.3-10.5 22.8 0 .2-1.6 3.9-3.6 8.2-2 4.3-4.6 10-5.8 12.8-10.9 23.9-13.3 29.3-21.1 46.5-2.4 5.2-5.5 12.2-7 15.5-1.5 3.3-3.8 8.4-5.1 11.2-2.3 5-5.4 11.9-9.4 20.8-1 2.2-2.9 6.5-4.3 9.5s-3.7 8.2-5.2 11.5c-1.5 3.3-4.2 9.3-6.1 13.3-1.9 4.1-3.4 7.5-3.4 7.7 0 .2-1.4 3.4-3.2 7.2-1.7 3.7-6.6 14.6-10.8 24.1-4.3 9.4-8.3 17.9-9 18.7-.7.8-1 1.5-.6 1.5s-.2 1.2-1.1 2.7c-1 1.5-1.7 2.8-1.6 3 .3.3-2.2 6.1-6.4 15.3-2.9 6-4.3 9.3-9.5 21-1.1 2.5-4 8.7-6.4 13.9-2.4 5.1-4.4 9.5-4.4 9.6 0 .4-5.2 11.8-9.7 21.5-1.5 3-2.6 6.1-2.6 6.7 0 .7-.4 1.3-.9 1.3-.4 0-.8.4-.8.9s-1.3 3.8-2.9 7.3c-1.6 3.5-4 8.8-5.4 11.8-4.9 11-7 15.6-9.5 21-2.3 5-5.9 13-9.9 21.9-.9 2-2.8 6.3-4.3 9.6-3.8 8.1-7.4 16.2-12.1 26.8-2.2 4.9-4.7 10.3-5.6 12-.9 1.8-1.8 3.6-1.9 4.2-.1.5-1.8 4.6-3.9 9-4.5 9.8-5.2 11.3-6.5 14.5-.5 1.4-1.4 3.2-1.9 4-.5.8-2.6 5.3-4.6 10-2.1 4.7-5.5 12.2-7.7 16.8-2.1 4.6-3.8 8.5-3.8 8.7 0 .3-1.5 3.7-3.4 7.7-6.1 13.1-7.6 16.7-7.6 17.7 0 .6-.4 1.1-1 1.1-.5 0-1 .5-1 1.1 0 .6-.7 2.7-1.6 4.7-.9 2.1-2.5 5.5-3.4 7.7-1 2.2-3.9 8.4-6.4 13.9-2.5 5.4-4.6 10-4.6 10.2 0 .2-1.4 3.4-3.1 7.1-1.7 3.8-4.3 9.3-5.6 12.3-1.4 3-2.7 5.8-2.9 6.2-.2.3 20.4.6 45.8.5l46.2-.2 6.5-14.5c9.6-21.3 11.9-26.4 12-27.2.1-.5 1-2.4 2.1-4.3 1.1-2 2-4.2 2-5 0-.8.5-1.5 1-1.5.6 0 1-.7 1-1.5s1.6-4.8 3.5-8.9c1.9-4.1 5.2-11.4 7.4-16.3 2.1-4.8 4.8-10.8 5.9-13.3 10.7-23.5 13.9-31 13.4-31.4-.3-.3-.1-.6.5-.6.9 0 2-2.1 2-4 0-.3 1.1-2.5 2.4-5 1.3-2.5 2.4-4.7 2.4-5 .3-.8 1.5-3.6 9.7-22 1.1-2.5 3.3-7.3 4.9-10.8 1.6-3.5 2.9-6.5 2.9-6.7 0-.5 7.6-17.2 9.3-20.5l1.3-2.5h491.3l3.2 7c1.8 3.8 4.9 10.6 7 15 4.6 9.9 8.8 19.1 14.4 31.5 2.4 5.2 6.2 13.5 8.5 18.5 2.3 4.9 6.2 13.5 8.7 19 2.5 5.5 6.7 14.6 9.4 20.3 2.7 5.7 4.9 10.5 4.9 10.7 0 .2 2 4.5 4.4 9.7 2.4 5.1 5.3 11.5 6.6 14.3 1.2 2.7 3.8 8.4 5.7 12.5 1.9 4.1 4.3 9.3 5.3 11.5 1 2.2 3.6 7.8 5.8 12.5 2.1 4.7 5 10.8 6.2 13.7l2.3 5.2 46.4.1c25.4 0 46.3-.2 46.3-.4 0-.6-5-11.5-10.6-23.1-2.6-5.5-4.8-10.2-4.9-10.5-.3-.8-4.5-10-9.5-20.5-2.6-5.5-5.7-12-6.8-14.5-2.5-5.5-9.2-19.8-14-30-2-4.1-3.6-7.7-3.7-8-.1-.3-2.1-4.6-4.4-9.5-2.4-5-5.4-11.3-6.7-14.2-1.2-2.8-4.1-8.9-6.2-13.5-3.8-7.9-6.9-14.6-14.8-31.6-2-4.2-5.2-11.1-7.1-15.2-2-4.1-5.1-10.9-7-15-1.9-4.1-5.2-11.1-7.2-15.5-2.1-4.4-4.8-10.3-6.1-13-1.3-2.8-6.1-13.1-10.7-23-11.8-25-12.6-26.9-12.5-27.8.1-.4-.3-.7-.9-.7-.5 0-.7-.5-.4-1 .3-.6.2-1-.2-1-.5 0-1.5-1.6-2.2-3.5-.7-2-3.9-9.3-7.2-16.3-3.3-7-7.1-15-8.4-17.7-1.3-2.8-4.4-9.4-6.9-14.7-2.5-5.3-6-12.8-7.7-16.5-1.7-3.7-4.3-9.3-5.7-12.3-1.4-3-2.5-5.8-2.4-6.2.1-.3-.5-1.2-1.3-1.8-.8-.7-1.5-1.8-1.5-2.4 0-.6-2.2-5.8-5-11.4-2.8-5.6-5-10.5-5-10.7 0-.2-2.9-6.4-6.3-13.7-3.5-7.3-7.2-15.1-8.2-17.3-1-2.2-3.5-7.7-5.6-12.2-2.2-4.5-3.9-8.7-3.9-9.2 0-.6-.4-1.1-1-1.1-.5 0-1-.4-1-1 0-.9-1.8-5.2-8.6-19.8-1.9-3.9-5-10.7-7-15-2-4.2-5.4-11.5-7.6-16.2-2.2-4.7-5.3-11.2-6.8-14.5-5.7-12.5-8.9-19.3-14-30-4.9-10.3-7.6-16.1-14.5-31-1.5-3.3-5.2-11.1-8.1-17.4-3-6.2-5.4-11.4-5.4-11.6 0-.2-3-6.5-6.6-14.1-3.6-7.7-7.7-16.4-9.1-19.4-1.4-3-4.3-9.3-6.5-14-2.2-4.7-4.9-10.5-6-13-1.1-2.5-2.4-5.2-2.9-6-.5-.8-1.2-2.2-1.5-3-.3-.8-1.8-4-3.2-7-1.4-3-2.7-5.7-2.7-6-.4-1.2-6.7-14.7-7.5-16-.6-.8-1.3-2.2-1.6-3-1.2-3.1-8.7-19.2-16.4-35.6-2.2-4.6-4-8.8-4-9.4 0-.5-.4-1-1-1-.5 0-1-.7-1-1.5s-.9-3-2-5c-1.1-1.9-2-3.7-2-4 0-.5-3.2-7.5-11.5-25-7.4-15.8-8.5-18.2-8.5-19.3 0-.7-.4-1.2-1-1.2-.5 0-1-.6-1-1.4 0-.8-1-3.2-2.2-5.5l-2.1-4-50.4-.1c-30.7 0-50.3.3-50.3.9zm54.5 86.6c1.4 3.1 2.5 6 2.5 6.5 0 .6.5 1 1 1 .6 0 .9.3.8.7-.1.5.5 2.4 1.4 4.3 2.3 5.2 18.1 39.6 21.4 46.5 1.5 3.3 2.8 6.2 2.9 6.5 0 .3.7 1.6 1.5 3s1.5 2.9 1.6 3.5c.1.5 1.8 4.5 3.8 8.7 12.8 27.6 13 28 12.8 29-.1.3.5 1.2 1.3 1.8.8.7 1.5 1.6 1.5 2.1s1.8 4.8 4 9.5 4 8.7 4 8.9c0 .2 2.2 5 4.9 10.7 8.5 18.1 11.4 24.3 11.6 25.3.2.5 2.1 4.8 4.3 9.5 2.2 4.7 5.2 11 6.5 14 6.6 14.5 8.3 18.3 13.3 28.9 3 6.2 5.4 11.9 5.4 12.6 0 .7.7 1.8 1.5 2.5s1.5 1.7 1.5 2.2c0 .5 1.2 3.5 2.6 6.6 13 28.6 17.8 38.8 18.5 39.6.5.6.9 1.8.9 2.8 0 1 .4 1.8.8 1.8.5 0 .9.6.9 1.2 0 1.2 2.9 7.5 10.9 24.3 1.3 2.7 3.7 7.9 5.3 11.5 1.6 3.6 4.5 9.9 6.4 14 1.9 4.1 4.5 9.7 5.7 12.5 1.3 2.7 4.2 9.2 6.6 14.3 2.4 5.2 4.4 9.5 4.4 9.7 0 .2 2.2 5 4.8 10.7 2.7 5.6 5.6 11.9 6.5 13.8 2.7 6.2 7.4 16.3 11.9 26 2.5 5.3 5.1 11.3 5.9 13.3.7 2 1.7 3.7 2.1 3.7.4 0 .8.6.8 1.3 0 .8 1.1 3.6 2.5 6.3 1.4 2.7 2.5 5.3 2.5 5.7 0 .4-1.9.8-4.2.7h-6.3c-1.1 0-4.1-.1-6.6-.2s-5.3.1-6.1.4c-.8.4-2.1.3-2.8-.2-.7-.4-2.6-.4-4.1 0-1.7.5-2.9.5-2.9 0 0-.6-1-.6-2.4 0-1.3.5-2.6.6-2.9.3-.3-.3-2.7-.5-5.4-.4-9.6.2-22.4.2-25.5 0H817c-1.4.1-4.8 0-7.6-.1s-5.8.1-6.6.4c-.8.4-2.1.3-2.8-.2-.7-.4-2.6-.4-4.1 0-1.7.5-2.9.5-2.9 0 0-.6-1-.6-2.4 0-1.3.5-2.6.6-2.9.3-.3-.3-2.7-.5-5.4-.4-5.6.1-7.8.1-9.5 0H769c-1.4.1-4.8 0-7.6-.1s-5.8.1-6.6.4c-.8.4-2.1.3-2.8-.2-.7-.4-2.6-.4-4.1 0-1.7.5-2.9.5-2.9 0 0-.6-1-.6-2.4 0-1.3.5-2.6.6-2.9.3-.3-.3-2.7-.5-5.4-.4-5.6.1-7.8.1-9.5 0H721c-1.4.1-4.8 0-7.6-.1s-5.8.1-6.6.4c-.8.4-2.1.3-2.8-.2-.7-.4-2.6-.4-4.1 0-1.7.5-2.9.5-2.9 0 0-.6-1-.6-2.4 0-1.3.5-2.6.6-2.9.3-.3-.3-2.7-.5-5.4-.4-5.6.1-7.8.1-9.5 0H673c-1.4.1-4.8 0-7.6-.1s-5.8.1-6.6.4c-.8.4-2.1.3-2.8-.2-.7-.4-2.6-.4-4.1 0-1.7.5-2.9.5-2.9 0 0-.6-1-.6-2.2-.1-1.3.5-3.3.5-4.5 0-1.5-.5-2.3-.5-2.3.2 0 .6-.7.6-1.7.1-1.9-.9-10.5-.8-12 .1-.5.3-1.5.2-2.2-.3-.8-.4-2.7-.4-4.2 0-1.7.5-2.9.5-2.9 0 0-.6-1-.6-2.4 0-1.3.5-2.6.6-2.9.3-.3-.3-2.7-.5-5.4-.4-5.6.1-7.8.1-9.5 0H593c-1.4.1-4.8 0-7.6-.1s-5.8.1-6.6.4c-.8.4-2.1.3-2.8-.2-.7-.4-2.6-.4-4.1 0-1.7.5-2.9.5-2.9 0 0-.6-1-.6-2.4 0-1.3.5-2.6.6-2.9.3-.3-.3-2.7-.5-5.4-.4-5.6.1-7.8.1-9.5 0H545c-1.4.1-4.8 0-7.6-.1s-5.8.1-6.6.4c-.8.4-2.1.3-2.8-.2-.7-.4-2.6-.4-4.1 0-1.7.5-2.9.5-2.9 0 0-.6-1-.6-2.2-.1-1.3.5-3.1.5-4.2.2-1-.4-3.2-.5-5-.4-1.7.2-3.7.4-4.3.3-6.1-.2-13.5-.1-15.6.2-.7.1-2.5-.2-4.1-.6-1.8-.4-2.5-.3-2.1.3.4.7-.2.8-1.7.2-1.2-.4-3.6-.5-5.4-.1-4.6 1.1-5.7 0-4-3.6.8-1.6 2.8-6.3 4.6-10.4 1.8-4.1 5-11.2 7.1-15.8 2.2-4.6 3.9-8.5 3.9-8.7 0-.3 1.4-3.5 3.1-7.2 3.2-7.2 4.1-9.1 8.4-18.8 4-9.1 4.9-11 11.3-25.3 3.3-7.2 5.7-13.2 5.4-13.2-.4 0-.2-.4.4-.8.5-.4 2.1-3.2 3.3-6.2 1.3-3 3.9-8.8 5.7-12.8 1.9-4.1 3.4-7.5 3.4-7.8 0-.2 1.3-3.2 2.9-6.6 1.6-3.5 4.7-10.4 6.9-15.3 2.2-5 5.2-11.7 6.7-15 4.6-10.4 8.1-18.1 13.1-29.5 1.5-3.6 3.3-6.8 3.9-7.2.5-.4.6-.8 0-.8-.5 0-.4-.5.3-1.2s1.2-1.7 1.2-2.4c0-.6 2.3-6.1 5-12 2.8-6 5.5-11.8 5.9-12.9 3-6.8 5.3-11.9 8.7-19 2-4.4 3.8-8.5 3.9-9 .3-1.1 1.7-4.2 7.7-17.5 1.6-3.6 3.8-8.3 4.7-10.5 1-2.2 2.4-5.4 3.1-7 .8-1.7 1.4-3.3 1.4-3.7.1-.4.7-1.3 1.4-2 .6-.6 1.2-1.8 1.2-2.5s.4-2.1.9-3.1c1.7-3.1 6.4-13.7 6.2-14-.1-.1.5-1.5 1.3-3s2.6-5.2 3.9-8.2c1.4-3 3.9-8.5 5.6-12.2 1.7-3.7 3.1-6.9 3.1-7.2 0-.4 2.8-6.6 9.6-21.4 1.9-4.1 3.4-7.6 3.4-7.8 0-.2 1.8-4.2 4-8.9s4-8.7 4-8.9c0-.3 1.5-3.7 3.4-7.8 1.8-4 4.8-10.6 6.6-14.7 1.7-4 4.6-10.5 6.5-14.5 1.8-3.9 3.9-8.7 4.8-10.7 2.4-5.9 7.1-15.9 7.4-15.9.1 0 1.4 2.5 2.8 5.5z"/></svg>