<svg width="55" height="18" viewBox="0 0 55 18" fill="none" xmlns="http://www.w3.org/2000/svg">
<path d="M8.76562 18H5.13281V3.89062H0.480469V0.867188H13.418V3.89062H8.76562V18ZM20.8867 7.92188L24.4609 0.867188H28.375L22.6914 11.332V18H19.082V11.4492L13.3984 0.867188H17.3359L20.8867 7.92188ZM33.6641 8.92969H34.8594C35.9766 8.92969 36.8125 8.71094 37.3672 8.27344C37.9219 7.82812 38.1992 7.18359 38.1992 6.33984C38.1992 5.48828 37.9648 4.85938 37.4961 4.45312C37.0352 4.04688 36.3086 3.84375 35.3164 3.84375H33.6641V8.92969ZM41.8672 6.21094C41.8672 8.05469 41.2891 9.46484 40.1328 10.4414C38.9844 11.418 37.3477 11.9062 35.2227 11.9062H33.6641V18H30.0312V0.867188H35.5039C37.582 0.867188 39.1602 1.31641 40.2383 2.21484C41.3242 3.10547 41.8672 4.4375 41.8672 6.21094ZM54.4688 18H44.6016V0.867188H54.4688V3.84375H48.2344V7.60547H54.0352V10.582H48.2344V15H54.4688V18Z" fill="white"/>
</svg>
