<?xml version="1.0" standalone="no"?>
<!DOCTYPE svg PUBLIC "-//W3C//DTD SVG 20010904//EN"
 "http://www.w3.org/TR/2001/REC-SVG-20010904/DTD/svg10.dtd">
<svg version="1.0" xmlns="http://www.w3.org/2000/svg"
 width="310.000000pt" height="310.000000pt" viewBox="0 0 310.000000 310.000000"
 preserveAspectRatio="xMidYMid meet">
<metadata>
Created by potrace 1.14, written by Peter Selinger 2001-2017
</metadata>
<g transform="translate(0.000000,310.000000) scale(0.100000,-0.100000)"
fill="#000000" stroke="none">
<path d="M1340 3065 c-409 -61 -778 -278 -1008 -595 -34 -47 -67 -91 -73 -98
-47 -56 -172 -351 -193 -452 -3 -14 -12 -61 -21 -105 -23 -109 -27 -344 -9
-469 48 -338 195 -636 428 -870 185 -185 370 -301 611 -381 55 -19 111 -36
125 -39 14 -2 48 -9 75 -14 135 -27 375 -33 500 -12 586 94 1050 484 1234
1035 86 260 100 561 37 826 -146 617 -649 1081 -1271 1173 -121 17 -319 18
-435 1z m445 -109 c126 -24 128 -24 211 -51 515 -168 905 -638 972 -1172 9
-76 9 -291 -1 -373 -52 -436 -334 -848 -727 -1063 -136 -74 -349 -144 -495
-163 -84 -10 -276 -12 -345 -3 -119 16 -134 19 -230 45 -275 75 -543 251 -726
477 -458 569 -416 1391 97 1906 112 112 224 193 369 266 90 45 265 108 335
120 196 34 396 38 540 11z"/>
<path d="M1434 2749 c-395 -37 -762 -284 -946 -637 -70 -134 -99 -225 -133
-417 -7 -40 -7 -262 0 -300 58 -308 155 -504 344 -693 420 -420 1063 -476
1551 -135 98 69 256 236 319 336 130 210 191 430 186 666 -5 178 -23 273 -82
421 -145 362 -444 628 -815 724 -144 37 -280 49 -424 35z m61 -258 l0 -159
-70 -11 c-127 -21 -266 -83 -368 -163 l-28 -22 -112 112 -112 113 40 35 c150
133 417 244 604 253 l46 2 0 -160z m290 138 c104 -22 219 -67 318 -123 74 -42
185 -124 187 -137 0 -3 -50 -56 -112 -117 l-111 -111 -37 29 c-91 72 -254 140
-371 155 -30 4 -56 9 -59 11 -2 3 -4 75 -5 160 l0 155 54 -2 c30 -2 91 -11
136 -20z m-835 -567 c0 -6 -18 -37 -41 -69 -60 -86 -111 -205 -125 -291 -3
-20 -7 -46 -9 -57 -2 -11 -4 -27 -4 -36 -1 -13 -23 -15 -162 -15 l-161 0 6 72
c16 191 103 405 231 567 l46 58 110 -109 c60 -60 109 -114 109 -120z m1477
161 c121 -159 199 -350 222 -541 5 -37 6 -72 4 -78 -2 -6 -57 -10 -156 -9 -84
1 -155 3 -159 4 -5 0 -8 16 -8 34 0 94 -73 281 -150 384 l-39 51 107 110 c59
61 112 111 118 111 5 1 33 -29 61 -66z m-745 -4 c125 -25 229 -77 321 -160
153 -136 229 -309 229 -513 -1 -190 -66 -343 -206 -481 -130 -130 -294 -197
-475 -196 -257 0 -491 144 -606 371 -133 263 -83 581 126 792 52 53 162 126
229 152 108 43 271 58 382 35z m-914 -733 c7 -4 10 -11 8 -15 -7 -10 20 -135
41 -190 24 -65 69 -146 109 -199 l34 -45 -22 -25 c-13 -14 -63 -64 -113 -113
l-90 -88 -22 21 c-41 38 -135 189 -173 277 -53 122 -105 349 -87 378 6 10 300
9 315 -1z m1883 -6 c2 -22 -2 -71 -7 -100 -32 -190 -103 -353 -221 -508 l-56
-74 -115 115 -114 115 39 53 c81 108 134 236 149 356 4 36 11 53 22 55 9 2 80
3 159 3 120 0 143 -2 144 -15z m-1423 -642 c65 -30 144 -53 215 -63 23 -4 44
-9 47 -11 2 -3 5 -75 5 -160 l1 -154 -31 0 c-93 0 -292 53 -398 106 -70 35
-206 126 -235 157 l-23 24 111 111 110 112 68 -47 c37 -25 95 -59 130 -75z
m955 1 l110 -111 -29 -24 c-155 -129 -394 -233 -571 -250 -79 -7 -75 -7 -88
-5 -6 1 -10 60 -10 158 l0 157 74 12 c128 22 257 75 346 143 22 17 44 31 49
31 4 0 58 -50 119 -111z"/>
<path d="M1515 1906 c-15 -11 -19 -27 -20 -81 l-1 -67 -39 -21 c-47 -24 -81
-60 -97 -104 -7 -18 -14 -34 -18 -34 -3 -1 -32 -3 -65 -4 -66 -3 -98 -27 -88
-65 8 -29 30 -37 98 -36 l59 1 24 -46 c21 -44 83 -99 110 -99 13 0 14 -1 16
-67 3 -86 22 -111 70 -93 29 11 33 21 32 92 l-1 57 41 16 c46 17 78 47 108
102 21 36 22 37 82 38 85 1 116 31 81 79 -10 14 -28 18 -76 19 l-63 1 -24 47
c-25 51 -71 92 -121 109 -28 10 -29 13 -28 71 1 33 -4 66 -9 74 -17 21 -50 26
-71 11z m88 -258 c34 -18 49 -36 56 -71 10 -48 3 -74 -30 -107 -25 -24 -39
-30 -75 -30 -62 0 -104 38 -111 103 -5 43 -3 49 30 82 38 38 87 47 130 23z"/>
</g>
</svg>
