<svg xmlns="http://www.w3.org/2000/svg" width="96" height="96"><defs><linearGradient id="a" x1=".06" x2="82.9" y1=".06" y2="103.68" gradientUnits="userSpaceOnUse"><stop offset="0" stop-color="#ffc600"/><stop offset="1" stop-color="#ff7900"/></linearGradient></defs><path fill="url(#a)" d="M62.063 14.063a2.813 2.813 0 012.812-2.813H81.75a2.813 2.813 0 010 5.625H64.875a2.813 2.813 0 01-2.813-2.813zm-28.126 0a2.813 2.813 0 115.626 0 2.813 2.813 0 01-5.626 0zm-11.25 0a2.813 2.813 0 115.626 0 2.813 2.813 0 01-5.625 0zm-11.25 0a2.813 2.813 0 115.626 0 2.813 2.813 0 01-5.625 0zM96 8.436v73.126C96 86.215 92.215 90 87.562 90h-25.5v3.188a2.813 2.813 0 01-5.624 0V78.55c0-1.004.535-1.931 1.404-2.434 6.073-3.513 9.846-10.048 9.846-17.055 0-5.196-2.076-10.133-5.626-13.77v8.145a2.81 2.81 0 01-1.124 2.25l-11.25 8.438c-1 .75-2.376.75-3.376 0l-11.25-8.438a2.812 2.812 0 01-1.124-2.25v-8.145c-3.55 3.637-5.626 8.574-5.626 13.77 0 7.007 3.773 13.542 9.846 17.055a2.812 2.812 0 011.404 2.434v14.636a2.813 2.813 0 01-5.624 0V90h-25.5C3.785 90 0 86.215 0 81.562V8.439C0 3.785 3.785 0 8.438 0h79.124C92.216 0 96 3.785 96 8.438zm-90.375 0V22.5h84.75V8.437a2.816 2.816 0 00-2.813-2.812H8.439a2.816 2.816 0 00-2.813 2.813zm84.75 73.126V28.124H5.625v53.438a2.816 2.816 0 002.813 2.812h25.5V80.11c-6.98-4.674-11.25-12.594-11.25-21.049 0-9.007 4.848-17.408 12.654-21.923 1.87-1.082 4.22.27 4.22 2.435V52.03L48 58.36l8.438-6.328V39.574c0-2.161 2.346-3.52 4.22-2.435 7.806 4.515 12.654 12.916 12.654 21.924 0 8.454-4.27 16.373-11.25 21.048v4.264h25.5a2.816 2.816 0 002.813-2.813z"/></svg>