<?xml version="1.0" encoding="UTF-8"?>
<svg width="16px" height="16px" viewBox="0 0 16 16" version="1.1" fill="#DC5EFF" xmlns="http://www.w3.org/2000/svg" xmlns:xlink="http://www.w3.org/1999/xlink">
    <path d="M9.87485,5.95844 C9.87485,5.85809 9.8663,5.75969 9.85043,5.66366 L10.844,4.68982 C11.0243,5.07658 11.1249,5.50619 11.1249,5.95844 C11.1249,7.64744 9.72299,9.0215 7.99984,9.0215 C7.53844,9.0215 7.10015,8.9229 6.70557,8.7462 L7.69913,7.77235 C7.7971,7.78788 7.89749,7.79628 7.99984,7.79628 C9.0338,7.79628 9.87485,6.97178 9.87485,5.95844 Z M2.77182,9.5639 C1.59806,8.6362 0.658724,7.45598 0.0603992,6.22133 C-0.0201331,6.05502 -0.0201331,5.86189 0.0603992,5.69558 C1.11681,3.51553 3.99537,0.44495 8,0.44495 C9.1783,0.44495 10.2999,0.718 11.3219,1.1833 L10.3756,2.1108 C9.63347,1.82783 8.83757,1.67017 8,1.67017 C5.11327,1.67017 2.72742,3.54009 1.33288,5.95844 C1.93904,7.00956 2.73021,7.954 3.66607,8.6874 L2.77182,9.5639 Z M4.875,5.95845 C4.875,4.26946 6.27686,2.89539 8.00001,2.89539 C8.46141,2.89539 8.8997,2.99399 9.29432,3.17071 L8.30075,4.14455 C8.20278,4.12902 8.1024,4.12061 8.00001,4.12061 C6.96621,4.12061 6.125,4.94502 6.125,5.95845 C6.125,6.05881 6.13358,6.15721 6.14946,6.25321 L5.15589,7.22708 C4.9756,6.84032 4.875,6.41071 4.875,5.95845 Z M13.2283,2.35303 C14.402,3.28077 15.3414,4.46095 15.9397,5.6956 C16.0203,5.86191 16.0203,6.05504 15.9397,6.22132 C14.8833,8.4013 12.0048,11.472 8.00009,11.472 C6.82178,11.472 5.70019,11.1989 4.67822,10.7336 L5.62448,9.8061 C6.36661,10.0891 7.16248,10.2468 8.00009,10.2468 C10.8868,10.2468 13.2727,8.3767 14.6672,5.95846 C14.0611,4.90731 13.2699,3.96287 12.3341,3.22952 L13.2283,2.35303 Z M13.5768063,-0.418179005 C13.8331763,-0.669465097 14.2447129,-0.66534375 14.495999,-0.408973718 C14.7472851,-0.152603687 14.7431637,0.258932913 14.4867937,0.510219005 L2.32218372,12.433599 C2.06581369,12.6848851 1.65427709,12.6807637 1.40299099,12.4243937 C1.1517049,12.1680237 1.15582625,11.7564871 1.41219628,11.505201 L13.5768063,-0.418179005 Z" fill="#DC5EFF"></path>
</svg>
