<?xml version="1.0" encoding="UTF-8"?>
<svg width="16px" height="12px" viewBox="0 0 16 12" version="1.1" xmlns="http://www.w3.org/2000/svg"
     xmlns:xlink="http://www.w3.org/1999/xlink">
    <!-- Generator: Sketch 52.6 (67491) - http://www.bohemiancoding.com/sketch -->
    <path
        d="M2.77182,9.5639 L3.66607,8.6874 C2.73021,7.954 1.93904,7.00956 1.33288,5.95844 C2.72742,3.54009 5.11327,1.67017 8,1.67017 C8.83757,1.67017 9.63347,1.82783 10.3756,2.1108 L11.3219,1.1833 C10.2999,0.718 9.1783,0.44495 8,0.44495 C3.99537,0.44495 1.11681,3.51553 0.0603992,5.69558 C-0.0201331,5.86189 -0.0201331,6.05502 0.0603992,6.22133 C0.658724,7.45598 1.59806,8.6362 2.77182,9.5639 Z"
        id="Fill-3" fill="#DC5EFF"></path>
    <path
        d="M13.2283,2.35303 L12.3341,3.22952 C13.2699,3.96287 14.0611,4.90731 14.6672,5.95846 C13.2727,8.3767 10.8868,10.2468 8.00009,10.2468 C7.16248,10.2468 6.36661,10.0891 5.62448,9.8061 L4.67822,10.7336 C5.70019,11.1989 6.82178,11.472 8.00009,11.472 C12.0048,11.472 14.8833,8.4013 15.9397,6.22132 C16.0203,6.05504 16.0203,5.86191 15.9397,5.6956 C15.3414,4.46095 14.402,3.28077 13.2283,2.35303 Z"
        id="Fill-7" fill="#DC5EFF"></path>
    <path
        d="M7.41182003,9.5639 L8.30607004,8.6874 C7.37021003,7.954 6.57904004,7.00956 5.97288004,5.95844 C7.36742003,3.54009 9.75327003,1.67017 12.64,1.67017 C13.47757,1.67017 14.27347,1.82783 15.0156,2.1108 L15.9619,1.1833 C14.9399,0.718 13.8183,0.44495 12.64,0.44495 C8.63537004,0.44495 5.75681003,3.51553 4.70039923,5.69558 C4.61986693,5.86189 4.61986693,6.05502 4.70039923,6.22133 C5.29872403,7.45598 6.23806003,8.6362 7.41182003,9.5639 Z"
        id="Fill-3" transform="translate(10.300950, 5.004425) scale(-1, 1) translate(-10.300950, -5.004425) " fill="#DC5EFF"></path>
    <path
        d="M8.55008,2.35303 L7.65588,3.22952 C8.59168,3.96287 9.38288,4.90731 9.98898,5.95846 C8.59448,8.3767 6.20858,10.2468 3.32187,10.2468 C2.48426,10.2468 1.68839,10.0891 0.94626,9.8061 L0,10.7336 C1.02197,11.1989 2.14356,11.472 3.32187,11.472 C7.32658,11.472 10.20508,8.4013 11.26148,6.22132 C11.34208,6.05504 11.34208,5.86191 11.26148,5.6956 C10.66318,4.46095 9.72378,3.28077 8.55008,2.35303 Z"
        id="Fill-7" transform="translate(5.660965, 6.912515) scale(-1, 1) translate(-5.660965, -6.912515) " fill="#DC5EFF"></path>
    <path
        d="M8,8 C9.1045695,8 10,7.1045695 10,6 C10,4.8954305 9.1045695,4 8,4 C6.8954305,4 6,4.8954305 6,6 C6,7.1045695 6.8954305,8 8,8 Z M8,9 C6.34314575,9 5,7.65685425 5,6 C5,4.34314575 6.34314575,3 8,3 C9.65685425,3 11,4.34314575 11,6 C11,7.65685425 9.65685425,9 8,9 Z"
        id="Oval" fill-rule="nonzero" fill="#DC5EFF"></path>
</svg>
