<svg width="64" height="19" viewBox="0 0 64 19" fill="none" xmlns="http://www.w3.org/2000/svg">
<path d="M0.15625 18V0.867188H3.78906V15H10.7383V18H0.15625ZM28.2852 9.41016C28.2852 12.2461 27.582 14.4258 26.1758 15.9492C24.7695 17.4727 22.7539 18.2344 20.1289 18.2344C17.5039 18.2344 15.4883 17.4727 14.082 15.9492C12.6758 14.4258 11.9727 12.2383 11.9727 9.38672C11.9727 6.53516 12.6758 4.35938 14.082 2.85938C15.4961 1.35156 17.5195 0.597656 20.1523 0.597656C22.7852 0.597656 24.7969 1.35547 26.1875 2.87109C27.5859 4.38672 28.2852 6.56641 28.2852 9.41016ZM15.7812 9.41016C15.7812 11.3242 16.1445 12.7656 16.8711 13.7344C17.5977 14.7031 18.6836 15.1875 20.1289 15.1875C23.0273 15.1875 24.4766 13.2617 24.4766 9.41016C24.4766 5.55078 23.0352 3.62109 20.1523 3.62109C18.707 3.62109 17.6172 4.10938 16.8828 5.08594C16.1484 6.05469 15.7812 7.49609 15.7812 9.41016ZM37.8398 8.37891H44.6367V17.2617C43.5352 17.6211 42.4961 17.8711 41.5195 18.0117C40.5508 18.1602 39.5586 18.2344 38.543 18.2344C35.957 18.2344 33.9805 17.4766 32.6133 15.9609C31.2539 14.4375 30.5742 12.2539 30.5742 9.41016C30.5742 6.64453 31.3633 4.48828 32.9414 2.94141C34.5273 1.39453 36.7227 0.621094 39.5273 0.621094C41.2852 0.621094 42.9805 0.972656 44.6133 1.67578L43.4062 4.58203C42.1562 3.95703 40.8555 3.64453 39.5039 3.64453C37.9336 3.64453 36.6758 4.17188 35.7305 5.22656C34.7852 6.28125 34.3125 7.69922 34.3125 9.48047C34.3125 11.3398 34.6914 12.7617 35.4492 13.7461C36.2148 14.7227 37.3242 15.2109 38.7773 15.2109C39.5352 15.2109 40.3047 15.1328 41.0859 14.9766V11.4023H37.8398V8.37891ZM63.7773 9.41016C63.7773 12.2461 63.0742 14.4258 61.668 15.9492C60.2617 17.4727 58.2461 18.2344 55.6211 18.2344C52.9961 18.2344 50.9805 17.4727 49.5742 15.9492C48.168 14.4258 47.4648 12.2383 47.4648 9.38672C47.4648 6.53516 48.168 4.35938 49.5742 2.85938C50.9883 1.35156 53.0117 0.597656 55.6445 0.597656C58.2773 0.597656 60.2891 1.35547 61.6797 2.87109C63.0781 4.38672 63.7773 6.56641 63.7773 9.41016ZM51.2734 9.41016C51.2734 11.3242 51.6367 12.7656 52.3633 13.7344C53.0898 14.7031 54.1758 15.1875 55.6211 15.1875C58.5195 15.1875 59.9688 13.2617 59.9688 9.41016C59.9688 5.55078 58.5273 3.62109 55.6445 3.62109C54.1992 3.62109 53.1094 4.10938 52.375 5.08594C51.6406 6.05469 51.2734 7.49609 51.2734 9.41016Z" fill="url(#paint0_linear)"/>
<defs>
<linearGradient id="paint0_linear" x1="-2" y1="25" x2="50.1609" y2="44.1478" gradientUnits="userSpaceOnUse">
<stop stop-color="#C42FED"/>
<stop offset="0.99971" stop-color="#639EFF"/>
</linearGradient>
</defs>
</svg>
