<svg width="88" height="88" viewBox="0 0 88 88" fill="none" xmlns="http://www.w3.org/2000/svg">
<g clip-path="url(#clip0)">
<path d="M87.997 16.7932C87.9093 9.32438 84.0872 5.2109 77.2343 5.2109C74.582 5.2109 72.0262 5.82827 70.3554 6.34338C70.5218 3.29054 70.5243 1.4061 70.5243 1.31243L70.5245 0.00549316H17.4768V1.31226C17.4768 1.35695 17.4813 3.27112 17.6496 6.34493C15.979 5.82948 13.4208 5.2109 10.7658 5.2109C3.91315 5.2109 0.0908256 9.32421 0.00316933 16.7932C-0.0831119 24.1409 1.59267 30.6814 4.98359 36.2335C8.31281 41.6845 12.5681 44.9692 15.5517 46.7644C20.3303 49.6402 25.1062 50.2439 28.2715 50.2439C29.0518 50.2439 29.8035 50.2071 30.5067 50.1346C30.5533 50.1297 30.5964 50.1242 30.642 50.1193C32.1723 51.7674 33.8222 53.0875 35.5851 54.0686C36.8846 54.7917 37.7885 56.0527 38.0982 57.5022C36.346 58.0475 35.0701 59.6846 35.0701 61.6139C35.0701 63.5865 36.4044 65.2525 38.2172 65.7595V71.2441H31.1459V76.9677H24.1678V87.9964H63.8332V76.9677H56.8551V71.2441H49.7838V65.7595C51.5968 65.2523 52.931 63.5865 52.931 61.6139C52.931 59.6845 51.6552 58.0475 49.9029 57.5022C50.2127 56.0527 51.1164 54.7919 52.4161 54.0686C54.1747 53.0901 55.8359 51.7627 57.3625 50.1199C57.9034 50.1799 58.7145 50.2437 59.7285 50.2437C59.7289 50.2437 59.7287 50.2437 59.7292 50.2437C62.8941 50.2437 67.6698 49.6397 72.4481 46.7643C75.4315 44.9689 79.687 41.6843 83.0162 36.2333C86.4077 30.6814 88.0833 24.1407 87.997 16.7932ZM67.8893 2.61902C67.8776 3.09701 67.8591 3.69788 67.8305 4.4012H20.176C20.1464 3.69806 20.1266 3.09632 20.1139 2.61902H67.8893ZM69.6669 14.6181C71.4375 14.0288 73.7324 13.4344 75.7882 13.4344C77.5119 13.4344 78.753 13.8555 79.4771 14.686C80.3093 15.6406 80.5777 17.2442 80.2741 19.4528C79.0103 28.6526 75.0213 35.8339 69.0414 39.6734C66.9585 41.0109 64.7151 41.5635 62.8352 41.7598C66.8118 33.4013 68.7365 22.9142 69.6669 14.6181ZM19.6789 23.7212C20.9644 30.6159 22.7391 36.5367 24.9543 41.3187C25.0228 41.4672 25.0926 41.6135 25.1621 41.7598C23.2828 41.563 21.0408 41.0106 18.9587 39.6737C12.979 35.834 8.98983 28.6529 7.72603 19.4532C7.42267 17.2444 7.69079 15.6406 8.52318 14.6864C9.24729 13.8559 10.4886 13.4349 12.2121 13.4349C14.2697 13.4349 16.5666 14.0302 18.3379 14.6199C18.6544 17.4493 19.087 20.5463 19.6789 23.7212ZM28.2715 47.6303C25.4376 47.6303 21.1639 47.0915 16.8995 44.5252C12.5382 41.9007 2.41561 33.9474 2.6167 16.824C2.68786 10.7683 5.35347 7.8246 10.7658 7.8246C13.6604 7.8246 16.5192 8.69721 17.8259 9.15749C17.8911 10.0342 17.9641 10.9135 18.0449 11.7892C16.2686 11.2674 14.1756 10.8209 12.2121 10.8209C9.69967 10.8209 7.79581 11.5433 6.55315 12.9681C5.20239 14.5172 4.72578 16.8187 5.13656 19.8084C5.84022 24.9305 7.31078 29.4577 9.50751 33.264C11.6046 36.8978 14.3094 39.7942 17.5465 41.8725C20.7083 43.9029 24.1281 44.4149 26.5675 44.4639C26.5757 44.4783 26.5842 44.4921 26.5924 44.5063C26.7261 44.7406 26.8612 44.9709 26.9977 45.1983C27.0401 45.2693 27.0829 45.3398 27.1257 45.4101C27.2558 45.6239 27.387 45.8356 27.5195 46.0431C27.5693 46.1211 27.6199 46.1972 27.6701 46.2746C27.7603 46.4133 27.851 46.5508 27.9425 46.6867C28.0308 46.8182 28.1195 46.9483 28.2087 47.0771C28.2962 47.2031 28.3839 47.3284 28.4722 47.4519C28.5136 47.51 28.5544 47.5704 28.5958 47.6278C28.4906 47.6295 28.3825 47.6303 28.2715 47.6303ZM61.2199 79.5816V85.3829H26.7816V79.5816H31.1461H56.8553H61.2199ZM49.7842 73.8579H54.2416V76.9679H33.7598V73.8579H38.2173H49.7842ZM40.8309 71.2442V65.9192H47.1705V71.2442H40.8309ZM50.3177 61.6139C50.3177 62.5467 49.5587 63.3055 48.6261 63.3055H39.3754C38.4427 63.3055 37.6838 62.5467 37.6838 61.6139C37.6838 60.6812 38.4427 59.9223 39.3754 59.9223H48.6261C49.5589 59.9223 50.3177 60.6812 50.3177 61.6139ZM56.8548 46.6739C56.8403 46.6926 56.8259 46.7113 56.8115 46.7301C56.6829 46.8964 56.5533 47.0587 56.423 47.2187C56.3911 47.2577 56.3596 47.2974 56.3275 47.3363C56.1843 47.5102 56.0399 47.6804 55.8949 47.8464C55.8878 47.8543 55.8813 47.8625 55.8742 47.8704C54.4169 49.533 52.826 50.8497 51.1456 51.7847C49.0743 52.937 47.666 54.9835 47.2786 57.3086H40.7229C40.3354 54.9833 38.927 52.937 36.8557 51.7847C35.2339 50.8826 33.7692 49.6765 32.4459 48.2353L32.1263 47.8706C30.8269 46.3887 29.6021 44.5933 28.4861 42.5348L28.1443 41.9038C22.5245 31.0453 20.8246 15.3512 20.3121 7.01473H67.6989C67.6771 7.37738 67.6532 7.7519 67.6267 8.14085C67.6255 8.1589 67.6241 8.17746 67.6229 8.19551C67.594 8.61695 67.5631 9.03959 67.5303 9.46257C67.5294 9.47495 67.5284 9.48732 67.5275 9.49987C67.423 10.8405 67.2993 12.1861 67.1582 13.5157L67.0727 14.3198C66.1231 22.8324 64.1175 33.6772 59.8882 41.8461L59.5147 42.5346C58.6837 44.067 57.7924 45.4534 56.8548 46.6739ZM71.1008 44.5252C66.8361 47.0917 62.5633 47.6303 59.7296 47.6303C59.7294 47.6303 59.729 47.6303 59.7289 47.6303C59.6177 47.6303 59.5096 47.6295 59.4042 47.6278C59.4059 47.6254 59.4076 47.6228 59.4094 47.6204C59.579 47.3863 59.7461 47.1487 59.9105 46.9079C59.9307 46.8786 59.9504 46.8485 59.9705 46.8191C60.1096 46.6142 60.2466 46.4066 60.382 46.1969C60.4169 46.1431 60.4518 46.0891 60.4863 46.035C60.6362 45.7997 60.7845 45.5629 60.9299 45.3219C60.9528 45.2842 60.975 45.2456 60.9977 45.2076C61.1168 45.0086 61.2345 44.8076 61.3507 44.6048C61.3778 44.5574 61.4059 44.512 61.4332 44.4642C63.8726 44.4152 67.2924 43.9032 70.4542 41.8729C73.6913 39.7942 76.3961 36.8978 78.4932 33.2643C80.6897 29.458 82.1603 24.9308 82.8641 19.8088C83.2745 16.8188 82.7981 14.5174 81.4475 12.9685C80.205 11.5435 78.301 10.8211 75.7885 10.8211C73.8252 10.8211 71.7319 11.2673 69.9558 11.7892C70.0381 10.8964 70.1087 10.0399 70.1692 9.2259C70.171 9.20321 70.1729 9.18035 70.1746 9.15784C71.4817 8.69738 74.3403 7.82495 77.2347 7.82495C82.647 7.82495 85.3126 10.7687 85.384 16.824C85.5844 33.9474 75.4621 41.9005 71.1008 44.5252Z" fill="white"/>
<path d="M33.0617 42.3219L30.8789 43.76C31.6242 44.8914 32.4251 45.9194 33.2595 46.8152L35.1722 45.0336C34.4371 44.2445 33.727 43.332 33.0617 42.3219Z" fill="white"/>
<path d="M27.4506 27.8303L24.9023 28.4116C26.1557 33.9056 27.8289 38.5177 29.8752 42.1197L32.1477 40.8285C30.2275 37.4486 28.6472 33.0754 27.4506 27.8303Z" fill="white"/>
<path d="M76.2549 57.3219L76.253 54.7082L74.0466 54.7095L74.0451 52.5032L71.4314 52.5049L71.4329 54.7114L69.2266 54.713L69.2283 57.3267L71.4346 57.3251L71.4362 59.5313L74.0499 59.5296L74.0484 57.3232L76.2549 57.3219Z" fill="white"/>
<path d="M19.3861 70.8941L19.3833 68.2804L17.5319 68.2823L17.53 66.4307L14.9163 66.4335L14.9182 68.2849L13.0664 68.2868L13.0693 70.9005L14.9208 70.8986L14.9227 72.7504L17.5364 72.7476L17.5345 70.896L19.3861 70.8941Z" fill="white"/>
<path d="M10.8601 49.5277H8.39453V52.1414H10.8601V49.5277Z" fill="white"/>
<path d="M26.7058 57.2607H24.2402V59.8744H26.7058V57.2607Z" fill="white"/>
<path d="M66.446 65.1243H63.9805V67.738H66.446V65.1243Z" fill="white"/>
</g>
<defs>
<clipPath id="clip0">
<rect width="88" height="88" fill="white"/>
</clipPath>
</defs>
</svg>
