<svg xmlns="http://www.w3.org/2000/svg" width="78" height="18"><path fill="#fff" d="M27.227 17.897h-.573V11.38h.573zm4.369-6.516a4.5 4.5 0 011.48.227c.418.137.802.36 1.128.652.305.287.544.636.699 1.024a3.794 3.794 0 010 2.705c-.158.389-.4.74-.709 1.025-.325.293-.71.515-1.127.652a4.499 4.499 0 01-1.479.227h-2.394v-6.515zm-1.827.54v5.436h1.827c.43.01.859-.053 1.268-.186.344-.116.659-.302.924-.548a2.28 2.28 0 00.564-.856 3.364 3.364 0 000-2.234 2.298 2.298 0 00-.564-.858 2.53 2.53 0 00-.924-.547 3.86 3.86 0 00-1.268-.186zm12.42-.614c.275 0 .55.03.817.093.257.06.506.15.74.268.227.113.437.254.627.42.185.163.345.351.477.56l-.48.316a2.307 2.307 0 00-.401-.462 2.532 2.532 0 00-.511-.348 2.657 2.657 0 00-.602-.222 2.86 2.86 0 00-.665-.076 2.936 2.936 0 00-1.092.201 2.606 2.606 0 00-.877.558c-.253.252-.452.55-.586.88a3.122 3.122 0 000 2.27c.134.33.334.63.588.88.251.244.55.434.877.56.348.135.718.203 1.092.2.223 0 .445-.024.661-.074a2.574 2.574 0 001.113-.566c.155-.136.29-.293.402-.465l.47.34a2.776 2.776 0 01-1.107.972 3.232 3.232 0 01-.731.262 3.702 3.702 0 01-2.144-.156 3.223 3.223 0 01-1.07-.687 3.144 3.144 0 01-.706-1.052 3.667 3.667 0 010-2.692 3.14 3.14 0 01.707-1.053c.306-.297.67-.531 1.069-.687a3.573 3.573 0 011.33-.24zm4.61 2.978a1.676 1.676 0 01.683-.63 1.958 1.958 0 01.883-.198c.256-.003.51.039.752.123a1.547 1.547 0 01.966.91c.092.234.137.483.133.734v2.684h-.535v-2.534a1.777 1.777 0 00-.094-.595 1.19 1.19 0 00-.278-.45 1.218 1.218 0 00-.446-.28 1.716 1.716 0 00-.601-.099 1.592 1.592 0 00-.58.104 1.39 1.39 0 00-.47.298 1.406 1.406 0 00-.314.462 1.476 1.476 0 00-.115.588v2.495h-.535v-6.702h.535zm6.927-.828c.282-.002.56.054.82.166.246.106.468.263.651.46.189.206.336.446.434.707.11.288.166.593.166.9v.218H52.08c.014.236.072.466.171.68a1.608 1.608 0 00.904.82c.204.072.42.108.637.107.286.005.569-.052.83-.168.246-.112.47-.266.663-.456l.288.373c-.13.131-.275.248-.43.35a2.302 2.302 0 01-.908.34 3.468 3.468 0 01-.475.032 2.358 2.358 0 01-.893-.166 2.07 2.07 0 01-.704-.463 2.088 2.088 0 01-.463-.722 2.464 2.464 0 01-.169-.931c-.003-.311.054-.62.168-.91a2.078 2.078 0 011.155-1.184c.276-.112.572-.167.87-.162zm-.618.584a1.547 1.547 0 00-.49.317 1.629 1.629 0 00-.346.482c-.092.194-.15.402-.171.614h3.15a1.882 1.882 0 00-.155-.621 1.566 1.566 0 00-.331-.483 1.472 1.472 0 00-1.043-.422 1.62 1.62 0 00-.614.113zm5.967-.584c.313-.003.624.057.913.175.275.112.52.285.716.504l-.347.358a1.928 1.928 0 00-.58-.399 1.757 1.757 0 00-.717-.141 1.656 1.656 0 00-1.576 1.063 1.99 1.99 0 000 1.41 1.627 1.627 0 00.902.932c.213.09.443.134.674.132.25.003.498-.048.726-.15a2.03 2.03 0 00.584-.394l.334.363a1.98 1.98 0 01-.72.505 2.346 2.346 0 01-.91.175 2.368 2.368 0 01-.914-.171 2.134 2.134 0 01-1.183-1.19 2.495 2.495 0 010-1.795 2.106 2.106 0 011.183-1.191c.286-.124.594-.19.906-.195zm3.43 1.917h.717l1.86-1.846h.677l-2.105 2.066 2.142 2.312h-.68l-1.894-2.048h-.718v2.048h-.545v-6.702h.536zm-29.83-6.309v-2.48c0-.755-.338-1.174-.988-1.174-.65 0-1.101.41-1.101 1.184v2.47h-.989v-2.48c0-.755-.31-1.174-.979-1.174s-1.1.41-1.1 1.184v2.467h-.989V4.605h.979v.559a1.484 1.484 0 011.315-.663 1.664 1.664 0 011.486.793 1.756 1.756 0 011.58-.793c1.092.01 1.77.719 1.77 1.772v2.792zm15.616-3.57h-1.599v2.016c0 .447.162.745.65.745a1.82 1.82 0 00.866-.252l.282.83c-.367.227-.79.346-1.223.345-1.157 0-1.561-.616-1.561-1.651V5.495h-.914v-.886h.914V3.257h.979V4.61h1.599zm9.038-.877l-.3.914a1.609 1.609 0 00-.613-.111c-.641 0-.96.402-.96 1.146v2.498h-.98V4.61h.97v.542a1.32 1.32 0 011.186-.654c.237.001.473.042.697.121zm-13.75 1.13a2.92 2.92 0 00-1.402-.381c-.537 0-.857.197-.857.523 0 .298.34.381.763.437l.46.065c.977.14 1.571.55 1.571 1.333 0 .847-.753 1.454-2.052 1.454a3.267 3.267 0 01-1.948-.579l.46-.756a2.41 2.41 0 001.503.466c.67 0 1.026-.196 1.026-.54 0-.251-.255-.391-.79-.466l-.461-.065C40.846 7.1 40.3 6.653 40.3 5.925c0-.886.74-1.426 1.879-1.426a3.388 3.388 0 011.836.466zm26.654-1.25a2.1 2.1 0 01.698.12l-.301.914a1.608 1.608 0 00-.613-.111c-.64 0-.96.402-.96 1.146v2.498h-.979V4.61h.97v.544a1.321 1.321 0 011.185-.654zM57.615 6.83c0-1.352.951-2.34 2.4-2.34a2.37 2.37 0 011.618.532l-.47.784a1.989 1.989 0 00-1.176-.4c-.78.009-1.355.57-1.355 1.426s.573 1.426 1.355 1.426a1.99 1.99 0 001.183-.395l.47.784a2.37 2.37 0 01-1.618.532c-1.448 0-2.4-.988-2.4-2.34zm9.175 2.23h-.979v-.54a1.704 1.704 0 01-1.42.653c-1.267 0-2.255-.979-2.255-2.34 0-1.36.994-2.34 2.255-2.34a1.72 1.72 0 011.42.654v-.542h.977V6.84zm-2.279-.795c.81 0 1.355-.616 1.355-1.426 0-.81-.545-1.426-1.355-1.426-.847 0-1.364.642-1.364 1.426 0 .782.517 1.426 1.364 1.426zm-13.173-3.77c1.26 0 2.136.952 2.136 2.34 0 .13-.01.252-.019.373h-3.34c.14.802.714 1.09 1.345 1.09a2.154 2.154 0 001.315-.465l.48.719a2.75 2.75 0 01-1.846.625c-1.345 0-2.305-.923-2.305-2.34 0-1.389.924-2.34 2.24-2.34zm-.023.87c-.697 0-1.091.437-1.195 1.081h2.343c-.103-.69-.507-1.081-1.138-1.081zM75.88 9.064h-.98v-.54a1.704 1.704 0 01-1.42.653c-1.266 0-2.254-.979-2.254-2.34 0-1.36.994-2.34 2.254-2.34a1.72 1.72 0 011.42.654V2.82h.98zm1.144-.41a.29.29 0 01.267.173.275.275 0 01-.062.31.285.285 0 01-.205.084.293.293 0 01-.27-.174.279.279 0 01.154-.37.297.297 0 01.107-.023zm0 .503a.215.215 0 00.156-.064.22.22 0 00-.07-.359.218.218 0 00-.086-.017.223.223 0 00-.215.284c.011.035.03.067.055.092a.23.23 0 00.072.047.224.224 0 00.079.019zm.017-.354a.12.12 0 01.079.022.074.074 0 01.028.062.07.07 0 01-.022.054.106.106 0 01-.062.026l.086.098h-.068l-.08-.098h-.027v.098h-.056v-.262zm-.066.048v.071h.066a.064.064 0 00.036 0 .03.03 0 00.013-.026.03.03 0 00-.013-.026.064.064 0 00-.036 0zm-3.373-.59c.81 0 1.355-.616 1.355-1.426 0-.81-.545-1.426-1.355-1.426-.847 0-1.364.643-1.364 1.426 0 .782.517 1.426 1.365 1.426zm-34.431.795h-.98v-.54a1.704 1.704 0 01-1.42.654c-1.266 0-2.254-.98-2.254-2.34 0-1.361.994-2.34 2.254-2.34a1.72 1.72 0 011.42.653v-.541h.997v2.233zm-3.636-2.219c0 .784.517 1.42 1.375 1.424.81 0 1.355-.616 1.355-1.426 0-.81-.545-1.426-1.355-1.426-.847 0-1.364.643-1.364 1.426zm30.943 10.84h-.085v.22h-.041v-.22h-.085v-.04h.21zm.323.22h-.05v-.212l-.076.186h-.045l-.077-.186v.21h-.042v-.259h.064l.075.186.076-.186h.064z"/><path fill="#ff5f00" d="M14.039 1.54H8.12v10.538h5.919z"/><path fill="#eb001b" d="M8.5 6.81a6.64 6.64 0 01.68-2.928 6.702 6.702 0 011.904-2.34A6.82 6.82 0 003.948.784 6.743 6.743 0 001.17 3.256a6.656 6.656 0 000 7.11 6.743 6.743 0 002.778 2.473 6.82 6.82 0 007.136-.758 6.703 6.703 0 01-1.905-2.34A6.64 6.64 0 018.5 6.81z"/><path fill="#f79e1b" d="M21.375 10.96v-.215h.09V10.7h-.225v.045h.088v.216zm.434 0v-.26h-.067l-.08.186-.078-.186h-.07v.26h.05v-.195l.072.17h.051l.073-.17v.197zm.216-4.157a6.66 6.66 0 01-1.03 3.556 6.743 6.743 0 01-2.778 2.472 6.82 6.82 0 01-7.137-.76 6.714 6.714 0 001.904-2.34 6.65 6.65 0 000-5.858 6.714 6.714 0 00-1.904-2.34 6.82 6.82 0 017.137-.76 6.743 6.743 0 012.778 2.474 6.656 6.656 0 011.03 3.556z"/></svg>