<svg xmlns="http://www.w3.org/2000/svg" width="56" height="32"><path fill="#fff" d="M47.942 21.274c-.082.63-.19 1.234-.3 1.81-.543-.165-1.141-.466-2.01-.411-.517.027-1.143.246-1.143.712 0 .521.843.823 1.305 1.07.843.411 1.767.96 1.849 2.084a2.669 2.669 0 01-.789 2.029c-1.196 1.152-3.86 1.261-5.654.521a38.25 38.25 0 00.299-1.865c.707.302 1.658.713 2.718.576.49-.055 1.06-.329 1.06-.85-.027-.603-1.141-.96-1.712-1.289-.652-.356-1.414-.987-1.44-1.892a2.476 2.476 0 01.516-1.59c.924-1.152 3.316-1.563 5.3-.905zM26.445 9.43h2.42l-1.496 9.46H24.95zm-8.37 0h3.697c2.365 0 2.963 1.371 2.719 2.989-.218 1.37-1.196 2.276-2.447 2.605l2.338 3.866h-3.045l-1.767-3.73-.598 3.73H16.58zm2.12 1.892l-.38 2.386h.707c.68 0 1.332-.521 1.44-1.18.11-.658-.353-1.179-1.032-1.179h-.734zM37.488 9.43h2.42l-1.469 9.46H36.02zm4.267 0h5.301l-.326 2.057h-2.882l-.244 1.617h2.745l-.326 2.057h-2.746l-.271 1.673h2.881l-.326 2.056H40.26zm-30.42 0h5.301l-.326 2.057h-2.882l-.244 1.617h2.745l-.326 2.057h-2.746l-.271 1.673h2.881l-.326 2.056H9.84zm19.363 0h5.382l-.326 2.057h-2.963l-.244 1.617h2.69l-.325 2.057H32.22l-.57 3.73h-2.42zm17.77 0h3.153c3.752 0 4.622 2.852 4.323 4.744-.408 2.66-2.773 4.716-5.79 4.716H47zm1.223 7.404h.653c1.604 0 2.8-1.07 3.072-2.77.217-1.261-.517-2.577-2.366-2.577h-.489zM0 8.144h4.485l.544 6.883C7.965 9.844 10.982 4.88 14 0h1.468C12.26 6.252 9.08 12.531 6.008 18.893H2.746l-.816-7.568C1.74 9.433 1.36 8.638 0 8.445z"/><path fill="#f8981d" d="M1.69 4.252l3.833 1.617.326 4.278h.272l3.452-5.895V3.95H1.69z"/><path fill="#fff" d="M19.326 25.662c.571 0 .979.52.87 1.206-.081.658-.625 1.18-1.223 1.18-.571 0-.979-.522-.87-1.18.081-.658.652-1.206 1.223-1.206zm-3.126 3.73h1.577l.081-.604c.3.493.734.768 1.36.768 1.25 0 2.446-1.207 2.664-2.715.217-1.48-.599-2.715-1.849-2.715-.598 0-1.169.274-1.604.713l.517-3.729h-1.577z"/><path fill="#fff" d="M21.988 24.27h1.875l.843 2.66 1.631-2.66h1.822L23.4 32.003h-1.82l2.012-3.263zm15.502 5.176l1.386-8.336h2.257l-1.387 8.336zm-1.877-8.336c-.789 1.837-1.441 3.811-2.23 5.621l-.244-1.097.027.192a4.847 4.847 0 00-.843-1.617l-.027-.028a1.769 1.769 0 00-.217-.247c-.055-.055-.082-.11-.136-.164a7.962 7.962 0 00-1.903-1.536l2.012 7.184h2.42c1.14-2.796 2.364-5.511 3.506-8.308h-2.365z"/><path fill="#f8981d" d="M31.37 21.11H27.7v.192c2.12.411 4.784 2.221 5.491 4.524l-.788-3.893c-.109-.604-.544-.823-1.033-.823z"/><path fill="#fff" d="M55.537 29.453H53.47c-.136-.384-.164-.877-.3-1.288h-2.8l-.516 1.288H47.49l3.072-7.13c.136-.3.38-.74.49-.931.162-.275.76-.302 1.005-.302h1.713zm-3.426-6.032l-1.141 3.098h1.848z"/></svg>